<?xml version="1.0" encoding="UTF-8"?>
<svg version="1.1" xmlns="http://www.w3.org/2000/svg" width="1024" height="1024">
<path d="M0 0 C9.61450643 3.95891441 15.33165979 17.02257376 20.51049805 25.60986328 C24.24594678 31.80192413 28.10023693 37.91027192 32 44 C36.98340653 51.78392523 41.8716448 59.6162088 46.625 67.54296875 C49.00521961 71.50342718 49.00521961 71.50342718 52 75 C52.82152793 76.46279254 53.60707732 77.94586838 54.375 79.4375 C58.6871422 87.48049073 63.69034454 95.08890721 68.59277344 102.78027344 C70.42450879 105.66961032 72.21578822 108.58105939 74 111.5 C77.18242454 116.69686646 80.42621956 121.85229265 83.6875 127 C88.59302561 134.74536139 93.43727668 142.52690149 98.25537109 150.3269043 C103.14138384 158.23607251 108.06377467 166.12209638 113 174 C115.92402172 171.41175111 117.6432048 168.43135768 119.58984375 165.06640625 C119.93057419 164.4808345 120.27130463 163.89526276 120.62236023 163.29194641 C121.35247542 162.0361855 122.08052688 160.77922285 122.80670166 159.5211792 C124.32925404 156.88393472 125.86218631 154.25278382 127.39483643 151.62139893 C128.16577906 150.29774184 128.93624589 148.97380753 129.70623779 147.64959717 C134.32066206 139.71758704 139.02422354 131.84036079 143.79101562 123.99902344 C144.89984503 122.16560358 145.99102947 120.3229163 147.078125 118.4765625 C152.68509862 109.1884888 152.68509862 109.1884888 158 107 C163.09190748 106.1499598 166.50704961 106.03712641 170.9375 108.89453125 C175.05213516 112.60570649 177.40454145 117.42551964 180 122.25 C181.14968469 124.33596776 182.29942618 126.42190421 183.44921875 128.5078125 C184.03622559 129.58321289 184.62323242 130.65861328 185.22802734 131.76660156 C187.48609861 135.88700606 189.78972409 139.98084444 192.09545898 144.07470703 C198.45156773 155.3662217 204.71657482 166.70797185 210.96582031 178.05883789 C214.23677142 183.99888314 217.51575234 189.93401735 220.8203125 195.85546875 C228.02966991 208.77426271 235.13022207 221.74222826 242.07836914 234.80297852 C242.66481201 235.90440186 243.25125488 237.0058252 243.85546875 238.140625 C244.39993652 239.16349609 244.9444043 240.18636719 245.50537109 241.24023438 C246.77165268 243.57836685 248.07857624 245.87991518 249.42578125 248.171875 C251 251 251 251 251 253 C255.16174008 249.75181262 258.53317068 246.31911206 261.94921875 242.3046875 C264.36148892 239.59375531 266.91603906 237.0450485 269.5 234.5 C272.55343043 231.48797028 275.54074423 228.4644872 278.3125 225.1875 C281.66888269 221.24598522 285.32317681 217.63861747 289 214 C293.23178535 209.81214132 297.31811199 205.6034513 301.1640625 201.0546875 C304.12035798 197.74615256 307.29879614 194.65840628 310.47509766 191.56201172 C313.22619015 188.85868444 315.82393416 186.08477074 318.33984375 183.16015625 C322.20056015 178.69683284 326.35427776 174.5709094 330.5625 170.4375 C335.14356326 165.93744581 339.61278898 161.46398998 343.65454102 156.46655273 C347.45758151 152.32123169 352.47419399 150.32795644 358.0234375 149.91015625 C363.09211421 150.14055065 366.70790785 152.37535752 370.05908203 155.9987793 C373.63733469 160.32772744 374.49614898 164.5767533 375.4296875 170.01953125 C375.72237015 171.56058281 375.72237015 171.56058281 376.02096558 173.13276672 C376.45873259 175.45834473 376.88543476 177.78602337 377.30310059 180.11529541 C378.05385495 184.30020196 378.83400158 188.47897614 379.61816406 192.65771484 C381.3220858 201.77040595 382.98319734 210.89069981 384.63899994 220.01223755 C385.29821955 223.64101379 385.95969981 227.26937651 386.62117958 230.89774132 C393.06309921 266.23407142 399.4502099 301.58043422 405.77954102 336.93710327 C406.7269872 342.22908885 407.67561719 347.52086153 408.625 352.8125 C408.80828857 353.83436401 408.99157715 354.85622803 409.18041992 355.90905762 C412.0109309 371.67341386 414.94705835 387.41609309 417.92425537 403.15332031 C421.81494048 423.74757167 425.47559007 444.38124426 429.10693359 465.02246094 C431.35347293 477.7834291 433.64088989 490.53461161 436.01524353 503.27243042 C437.80436359 512.89239171 439.54300224 522.52099645 441.26953125 532.15234375 C441.48302719 533.34306173 441.48302719 533.34306173 441.70083618 534.55783463 C443.04913408 542.07942667 444.39471598 549.60150431 445.74005127 557.12362671 C446.66847347 562.31430965 447.59758682 567.50486847 448.52734375 572.6953125 C448.75397076 573.96069949 448.75397076 573.96069949 448.98517609 575.25164986 C450.85595738 585.69195775 452.75082155 596.12709671 454.69140625 606.5546875 C454.88469009 607.59752396 455.07797394 608.64036041 455.27711487 609.71479797 C456.13078581 614.32010776 456.99105012 618.92391853 457.86645508 623.52514648 C461.65338785 643.71152287 461.65338785 643.71152287 457.43774414 651.18017578 C455.81804868 653.23030483 454.25581399 654.39570205 452.05859375 655.8046875 C451.25542725 656.32087646 450.45226074 656.83706543 449.62475586 657.36889648 C444.94637299 660.27618659 440.23336809 663.12072186 435.5 665.9375 C433.26690821 667.27210385 431.03383583 668.60674016 428.80078125 669.94140625 C427.10236084 670.95485107 427.10236084 670.95485107 425.36962891 671.98876953 C420.13841887 675.11112197 414.91230936 678.24195146 409.6875 681.375 C408.66382324 681.98859375 407.64014648 682.6021875 406.58544922 683.234375 C399.33768955 687.58370616 392.11120831 691.96731893 384.89117432 696.36242676 C373.95730212 703.01789294 362.98108663 709.59422253 351.96044922 716.10546875 C339.69431459 723.35404779 327.48390485 730.69471425 315.27426147 738.03790283 C308.36769657 742.19090805 301.45431877 746.33176233 294.51953125 750.4375 C293.58602844 750.99020569 293.58602844 750.99020569 292.63366699 751.55407715 C291.35359278 752.31186601 290.07350224 753.0696273 288.793396 753.82736206 C278.78405791 759.75262498 268.80002025 765.7122331 258.88232422 771.78979492 C224.6752512 792.74943597 191.12990263 811.71991688 149.8515625 802.25390625 C129.15870573 797.10717957 111.28415751 785.69299389 93.15332031 774.87451172 C87.32620557 771.41054555 81.47459598 767.98830439 75.625 764.5625 C74.37506636 763.82994099 73.12514775 763.09735634 71.87524414 762.36474609 C65.27253269 758.49576367 58.66347775 754.63792242 52.04858398 750.78979492 C39.43120897 743.44805243 26.87601569 736.00429813 14.32884216 728.54351807 C13.33655357 727.95350006 13.33655357 727.95350006 12.32421875 727.3515625 C11.67489883 726.96546814 11.02557892 726.57937378 10.35658264 726.18157959 C4.8951389 722.93525488 -0.57644035 719.70650472 -6.05664062 716.49194336 C-9.70579062 714.35107782 -13.34964558 712.20166793 -16.98828125 710.04296875 C-27.10091557 704.04614443 -37.2458753 698.11174396 -47.4375 692.25 C-55.34957174 687.69922853 -63.22377169 683.10246393 -71.03125 678.375 C-76.35916632 675.16691422 -81.74813316 672.06251663 -87.125 668.9375 C-117.51619404 651.23754808 -117.51619404 651.23754808 -120 645 C-120.68355477 638.09275169 -119.80221908 631.2397278 -118.62890625 624.4375 C-118.3993222 623.03746483 -118.3993222 623.03746483 -118.1651001 621.60914612 C-117.82292043 619.52756013 -117.47681175 617.44661727 -117.12734985 615.36624146 C-116.20750349 609.88438654 -115.31423835 604.39818829 -114.41734886 598.91253853 C-114.06987919 596.78946095 -113.7213276 594.66656294 -113.37263489 592.54368591 C-109.95582032 571.71865984 -106.66909082 550.87262724 -103.36267471 530.02985382 C-102.62634522 525.38930089 -101.88928162 520.74886467 -101.15223789 516.10842514 C-92.71067684 462.95721505 -84.29068092 409.80194057 -76.05911255 356.61773682 C-73.30775912 338.8521316 -70.48139103 321.09846711 -67.66122437 303.34368896 C-63.11381079 274.71377382 -58.58652366 246.08093675 -54.125 217.4375 C-54.00515495 216.66829853 -53.88530991 215.89909706 -53.76183319 215.10658646 C-50.5889763 194.7406739 -47.43836844 174.37137459 -44.30078125 154 C-40.99146709 132.51387533 -37.66930124 111.02977591 -34.32869816 89.54849243 C-33.60159151 84.87269636 -32.87526558 80.19678285 -32.15124512 75.52050781 C-30.7366771 66.38514632 -29.31548593 57.25094422 -27.86855793 48.12064457 C-27.287257 44.45216668 -26.70995729 40.78319318 -26.14425659 37.11227417 C-25.53410772 33.15444698 -24.90301994 29.20025226 -24.26953125 25.24609375 C-24.09722992 24.10821411 -23.92492859 22.97033447 -23.74740601 21.79797363 C-22.53286866 14.37700905 -21.08288635 7.86268018 -15.375 2.5625 C-10.38071729 -0.72321231 -5.87569643 -0.55163011 0 0 Z " fill="#FEC611" transform="translate(339,111)"/>
<path d="M0 0 C9.61450643 3.95891441 15.33165979 17.02257376 20.51049805 25.60986328 C24.24594678 31.80192413 28.10023693 37.91027192 32 44 C36.98340653 51.78392523 41.8716448 59.6162088 46.625 67.54296875 C49.00521961 71.50342718 49.00521961 71.50342718 52 75 C52.82152793 76.46279254 53.60707732 77.94586838 54.375 79.4375 C58.6871422 87.48049073 63.69034454 95.08890721 68.59277344 102.78027344 C70.42450879 105.66961032 72.21578822 108.58105939 74 111.5 C77.18242454 116.69686646 80.42621956 121.85229265 83.6875 127 C88.59302561 134.74536139 93.43727668 142.52690149 98.25537109 150.3269043 C103.14138384 158.23607251 108.06377467 166.12209638 113 174 C115.92402172 171.41175111 117.6432048 168.43135768 119.58984375 165.06640625 C119.93057419 164.4808345 120.27130463 163.89526276 120.62236023 163.29194641 C121.35247542 162.0361855 122.08052688 160.77922285 122.80670166 159.5211792 C124.32925404 156.88393472 125.86218631 154.25278382 127.39483643 151.62139893 C128.16577906 150.29774184 128.93624589 148.97380753 129.70623779 147.64959717 C134.32066206 139.71758704 139.02422354 131.84036079 143.79101562 123.99902344 C144.89984503 122.16560358 145.99102947 120.3229163 147.078125 118.4765625 C152.68509862 109.1884888 152.68509862 109.1884888 158 107 C163.09190748 106.1499598 166.50704961 106.03712641 170.9375 108.89453125 C175.05213516 112.60570649 177.40454145 117.42551964 180 122.25 C181.14968469 124.33596776 182.29942618 126.42190421 183.44921875 128.5078125 C184.03622559 129.58321289 184.62323242 130.65861328 185.22802734 131.76660156 C187.48609861 135.88700606 189.78972409 139.98084444 192.09545898 144.07470703 C198.45156773 155.3662217 204.71657482 166.70797185 210.96582031 178.05883789 C214.23677142 183.99888314 217.51575234 189.93401735 220.8203125 195.85546875 C228.02966991 208.77426271 235.13022207 221.74222826 242.07836914 234.80297852 C242.66481201 235.90440186 243.25125488 237.0058252 243.85546875 238.140625 C244.39993652 239.16736328 244.9444043 240.19410156 245.50537109 241.25195312 C246.75169633 243.54346519 248.06102468 245.7629841 249.42578125 247.984375 C251.83689624 252.60318585 251.83689624 252.60318585 251 256 C249.19797991 258.14526201 247.48555116 259.9363302 245.4375 261.8125 C244.31975033 262.87956102 243.20385468 263.94856758 242.08984375 265.01953125 C241.55085449 265.53338379 241.01186523 266.04723633 240.45654297 266.57666016 C238.69430091 268.29873042 237.08512291 270.11445479 235.5 272 C232.5073396 275.52077694 229.2846735 278.7554753 226 282 C222.73617385 285.22398087 219.53169859 288.43517847 216.5625 291.9375 C212.91441827 296.23094262 208.90792489 300.1472711 204.88110352 304.08178711 C202.01082185 306.9065157 199.2816155 309.78888922 196.65625 312.84375 C191.95512617 318.28414247 186.79559444 323.2513115 181.671875 328.2890625 C178.17945627 331.7458443 174.76195758 335.2060483 171.5625 338.9375 C166.51211349 344.81410182 160.89896256 350.14430553 155.3828125 355.578125 C151.64500043 359.28185368 147.9552513 362.97071306 144.53125 366.96875 C139.30115149 373.06849018 133.45584983 378.58595852 127.73828125 384.22265625 C123.20843957 388.71327852 118.83805731 393.24377074 114.68945312 398.08789062 C110.99804986 402.26579097 106.93899535 406.09815016 102.9609375 410 C99.69334698 413.22974198 96.52847667 416.48511625 93.53125 419.96875 C89.07439395 425.14314977 84.1855361 429.86250569 79.31640625 434.64453125 C75.95192108 437.97251206 72.6749408 441.31273005 69.59375 444.90625 C64.53036177 450.7913538 58.90964391 456.13378361 53.3828125 461.578125 C49.00714516 465.91389264 44.80953594 470.30124673 40.80078125 474.9765625 C36.45582451 479.85874816 31.68329623 484.35119502 27.02734375 488.93359375 C22.7652762 493.1546141 18.69341441 497.43968391 14.78710938 501.99023438 C10.64943836 506.6434185 6.10991768 510.92548362 1.671875 515.2890625 C0.53492188 516.41441406 0.53492188 516.41441406 -0.625 517.5625 C-1.29789062 518.22378906 -1.97078125 518.88507812 -2.6640625 519.56640625 C-4.6222166 521.60642298 -6.47488157 523.68359066 -8.32226562 525.82226562 C-11.7934425 529.81650927 -15.45310503 533.5660061 -19.21875 537.28125 C-19.88032104 537.93903442 -20.54189209 538.59681885 -21.22351074 539.27453613 C-24.01578144 542.05066558 -26.81405416 544.82071537 -29.61181641 547.59130859 C-31.67040898 549.6316708 -33.72587903 551.67514331 -35.78125 553.71875 C-36.71124817 554.63630066 -36.71124817 554.63630066 -37.66003418 555.5723877 C-40.66429564 558.56004096 -43.5489742 561.59278187 -46.30859375 564.80859375 C-50.71335136 569.90526882 -55.49887033 574.60421686 -60.28125 579.34375 C-61.26368378 580.32176419 -62.24581488 581.30008251 -63.22766113 582.27868652 C-66.83719318 585.87498984 -70.45220706 589.46576596 -74.06707764 593.05670166 C-77.1338075 596.10355579 -80.19837914 599.15255126 -83.26023865 602.20429993 C-84.67991157 603.61758629 -86.10266999 605.02777111 -87.5255127 606.43786621 C-92.03864333 610.93401384 -96.39804379 615.48589847 -100.54611206 620.32125854 C-102.31614537 622.36503937 -104.18388615 624.28243557 -106.11328125 626.17578125 C-106.80357422 626.85833984 -107.49386719 627.54089844 -108.20507812 628.24414062 C-108.90052734 628.92669922 -109.59597656 629.60925781 -110.3125 630.3125 C-111.72758439 631.70206438 -113.14044599 633.093897 -114.55078125 634.48828125 C-115.47370972 635.39380737 -115.47370972 635.39380737 -116.4152832 636.31762695 C-118.19836134 638.11691651 -118.19836134 638.11691651 -120 641 C-119.46903417 630.95587093 -118.21882186 621.17236208 -116.55078125 611.26171875 C-116.29887786 609.73470205 -116.04762123 608.20757855 -115.79695129 606.68035889 C-115.25818684 603.40393214 -114.71586894 600.12812236 -114.17071533 596.85275269 C-112.83029992 588.79528948 -111.51142396 580.73428428 -110.19137573 572.67346382 C-109.88262187 570.7883529 -109.57365994 568.90327604 -109.26449585 567.01823235 C-105.94168018 546.75502129 -102.73378373 526.47438319 -99.55588913 506.18800354 C-99.12317955 503.4258795 -98.69019042 500.66379941 -98.2571106 497.9017334 C-97.08046355 490.3972907 -95.90392672 482.89283082 -94.72819519 475.38824463 C-92.53990835 461.42388527 -90.33941823 447.46147573 -88.1328125 433.5 C-87.97204853 432.48281513 -87.81128456 431.46563026 -87.64564896 430.41762161 C-86.83629889 425.29705108 -86.02678914 420.1765058 -85.21722412 415.05596924 C-79.7838084 380.68757769 -74.37600983 346.3154075 -69.01754761 311.9352417 C-67.37074637 301.37051051 -65.71940223 290.80649247 -64.0669651 280.24264145 C-62.82903671 272.32849439 -61.59149647 264.41428662 -60.3539238 256.50008392 C-60.03474259 254.45900923 -59.71554145 252.41793765 -59.39632034 250.3768692 C-55.57140168 225.9205388 -51.75736272 201.46258859 -47.97265625 177 C-44.49078897 154.4953321 -40.99505946 131.99286233 -37.48154449 109.49311256 C-36.65279229 104.18544907 -35.8250733 98.87762828 -34.99957275 93.56945801 C-33.22127081 82.13544869 -31.43541298 70.702721 -29.62591076 59.27360249 C-28.86696119 54.47912869 -28.11218201 49.68410127 -27.36886597 44.88717651 C-26.6838997 40.4681303 -25.98637459 36.05125394 -25.27892113 31.63575363 C-25.0242454 30.03255469 -24.77405861 28.42863483 -24.52883339 26.82396317 C-21.7145619 8.44923605 -21.7145619 8.44923605 -15.375 2.5625 C-10.38071729 -0.72321231 -5.87569643 -0.55163011 0 0 Z " fill="#FE9B15" transform="translate(339,111)"/>
<path d="M0 0 C5.9724595 3.85191869 8.68839272 9.0943308 12 15.25 C13.14968469 17.33596776 14.29942618 19.42190421 15.44921875 21.5078125 C16.03622559 22.58321289 16.62323242 23.65861328 17.22802734 24.76660156 C19.48609861 28.88700606 21.78972409 32.98084444 24.09545898 37.07470703 C30.45156773 48.3662217 36.71657482 59.70797185 42.96582031 71.05883789 C46.23677142 76.99888314 49.51575234 82.93401735 52.8203125 88.85546875 C60.02966991 101.77426271 67.13022207 114.74222826 74.07836914 127.80297852 C74.66481201 128.90440186 75.25125488 130.0058252 75.85546875 131.140625 C76.39993652 132.16736328 76.9444043 133.19410156 77.50537109 134.25195312 C78.75169633 136.54346519 80.06102468 138.7629841 81.42578125 140.984375 C83.83689624 145.60318585 83.83689624 145.60318585 83 149 C81.19797991 151.14526201 79.48555116 152.9363302 77.4375 154.8125 C76.31975033 155.87956102 75.20385468 156.94856758 74.08984375 158.01953125 C73.55085449 158.53338379 73.01186523 159.04723633 72.45654297 159.57666016 C70.69430091 161.29873042 69.08512291 163.11445479 67.5 165 C64.5073396 168.52077694 61.2846735 171.7554753 58 175 C54.73617385 178.22398087 51.53169859 181.43517847 48.5625 184.9375 C44.91441827 189.23094262 40.90792489 193.1472711 36.88110352 197.08178711 C34.01082185 199.9065157 31.2816155 202.78888922 28.65625 205.84375 C23.95512617 211.28414247 18.79559444 216.2513115 13.671875 221.2890625 C10.17945627 224.7458443 6.76195758 228.2060483 3.5625 231.9375 C-1.48788651 237.81410182 -7.10103744 243.14430553 -12.6171875 248.578125 C-16.35499957 252.28185368 -20.0447487 255.97071306 -23.46875 259.96875 C-28.69884851 266.06849018 -34.54415017 271.58595852 -40.26171875 277.22265625 C-44.79156043 281.71327852 -49.16194269 286.24377074 -53.31054688 291.08789062 C-57.00195014 295.26579097 -61.06100465 299.09815016 -65.0390625 303 C-68.30665302 306.22974198 -71.47152333 309.48511625 -74.46875 312.96875 C-78.92560605 318.14314977 -83.8144639 322.86250569 -88.68359375 327.64453125 C-92.04807892 330.97251206 -95.3250592 334.31273005 -98.40625 337.90625 C-103.46963823 343.7913538 -109.09035609 349.13378361 -114.6171875 354.578125 C-118.99285484 358.91389264 -123.19046406 363.30124673 -127.19921875 367.9765625 C-131.54417549 372.85874816 -136.31670377 377.35119502 -140.97265625 381.93359375 C-145.2347238 386.1546141 -149.30658559 390.43968391 -153.21289062 394.99023438 C-157.35056164 399.6434185 -161.89008232 403.92548362 -166.328125 408.2890625 C-167.46507812 409.41441406 -167.46507812 409.41441406 -168.625 410.5625 C-169.29789062 411.22378906 -169.97078125 411.88507813 -170.6640625 412.56640625 C-172.6222166 414.60642298 -174.47488157 416.68359066 -176.32226562 418.82226562 C-179.7934425 422.81650927 -183.45310503 426.5660061 -187.21875 430.28125 C-187.88032104 430.93903442 -188.54189209 431.59681885 -189.22351074 432.27453613 C-192.01578144 435.05066558 -194.81405416 437.82071537 -197.61181641 440.59130859 C-199.67040898 442.6316708 -201.72587903 444.67514331 -203.78125 446.71875 C-204.40124878 447.33045044 -205.02124756 447.94215088 -205.66003418 448.5723877 C-208.66429564 451.56004096 -211.5489742 454.59278187 -214.30859375 457.80859375 C-218.71335136 462.90526882 -223.49887033 467.60421686 -228.28125 472.34375 C-229.26368378 473.32176419 -230.24581488 474.30008251 -231.22766113 475.27868652 C-234.83719318 478.87498984 -238.45220706 482.46576596 -242.06707764 486.05670166 C-245.1338075 489.10355579 -248.19837914 492.15255126 -251.26023865 495.20429993 C-252.67991157 496.61758629 -254.10266999 498.02777111 -255.5255127 499.43786621 C-260.03864333 503.93401384 -264.39804379 508.48589847 -268.54611206 513.32125854 C-270.31614537 515.36503937 -272.18388615 517.28243557 -274.11328125 519.17578125 C-274.80357422 519.85833984 -275.49386719 520.54089844 -276.20507812 521.24414062 C-276.90052734 521.92669922 -277.59597656 522.60925781 -278.3125 523.3125 C-279.72758439 524.70206438 -281.14044599 526.093897 -282.55078125 527.48828125 C-283.47370972 528.39380737 -283.47370972 528.39380737 -284.4152832 529.31762695 C-286.19836134 531.11691651 -286.19836134 531.11691651 -288 534 C-287.55447747 524.02951308 -286.16589272 514.72608429 -284 505 C-283.67 505 -283.34 505 -283 505 C-283 506.65 -283 508.3 -283 510 C-282.34 510 -281.68 510 -281 510 C-280.42765625 508.11667969 -280.42765625 508.11667969 -279.84375 506.1953125 C-277.93234133 500.47225125 -275.25922403 495.22903833 -272.5 489.875 C-268.58515321 482.22915282 -264.81269539 474.53265457 -261.12890625 466.7734375 C-254.47818333 452.79335092 -247.55238165 438.95237429 -240.62036133 425.11035156 C-238.79693069 421.46920637 -236.97715739 417.82624708 -235.15831566 414.18280792 C-228.24098723 400.32970982 -221.29112338 386.50294037 -214.02368164 372.82910156 C-211.24890132 367.60251073 -208.61804636 362.3064325 -206 357 C-198.7060597 342.32996721 -191.1234047 327.83792103 -183.10522461 313.54980469 C-179.95640526 307.89295285 -177.03971309 302.13670062 -174.15887451 296.34062195 C-170.3787197 288.7355104 -166.51189856 281.17601215 -162.625 273.625 C-162.25593536 272.90732452 -161.88687073 272.18964905 -161.50662231 271.45022583 C-156.89584642 262.4924632 -152.20282635 253.60047712 -147.24560547 244.82836914 C-144.43840981 239.84574713 -141.84004415 234.7876754 -139.31152344 229.65893555 C-131.48697152 213.81978494 -123.28218222 198.16592233 -114.69433594 182.72802734 C-111.56191522 177.08010719 -108.65714199 171.36119329 -105.8125 165.5625 C-103.62859555 161.26999815 -101.29448593 157.07423781 -98.9375 152.875 C-95.6665075 147.04568257 -92.53676337 141.18696917 -89.5859375 135.1875 C-82.729982 121.40804263 -75.2607778 107.94703361 -67.79736328 94.49047852 C-64.57968938 88.68857922 -61.37221638 82.88114706 -58.19921875 77.0546875 C-57.65483154 76.05679199 -57.11044434 75.05889648 -56.54956055 74.03076172 C-54.93428975 70.9610238 -54.93428975 70.9610238 -53.52441406 67.5168457 C-52.02679199 64.0618095 -50.32266854 60.91713799 -48.41015625 57.67578125 C-48.06942581 57.09586929 -47.72869537 56.51595734 -47.37763977 55.91847229 C-46.27672372 54.0473438 -45.16982696 52.17984043 -44.0625 50.3125 C-43.29547717 49.01268506 -42.5287151 47.71271622 -41.76220703 46.41259766 C-39.51474431 42.6044661 -37.25855038 38.80156326 -35 35 C-34.38721191 33.96762207 -33.77442383 32.93524414 -33.14306641 31.87158203 C-30.18786303 26.90002789 -27.2132805 21.94106811 -24.20898438 16.99902344 C-23.10015497 15.16560358 -22.00897053 13.3229163 -20.921875 11.4765625 C-15.90003374 3.15777328 -10.4059951 -2.55391038 0 0 Z " fill="#F57D0F" transform="translate(507,218)"/>
<path d="M0 0 C0 3.44023953 -0.3219771 3.72114138 -2.5625 6.109375 C-3.11292969 6.69976563 -3.66335938 7.29015625 -4.23046875 7.8984375 C-4.81441406 8.50945313 -5.39835937 9.12046875 -6 9.75 C-6.55300781 10.34554687 -7.10601562 10.94109375 -7.67578125 11.5546875 C-11.22902424 15.32847661 -14.97039903 18.75696048 -18.8984375 22.13427734 C-22.76391533 25.56596665 -26.36681814 29.26338975 -30 32.9375 C-30.77472656 33.71673828 -31.54945313 34.49597656 -32.34765625 35.29882812 C-34.23410757 37.1969242 -36.11816245 39.09733149 -38 41 C-38 38 -38 38 -36.55737305 36.1966095 C-35.88230713 35.52820541 -35.20724121 34.85980133 -34.51171875 34.17114258 C-33.37053589 33.03029961 -33.37053589 33.03029961 -32.20629883 31.8664093 C-31.37509521 31.05068954 -30.5438916 30.23496979 -29.6875 29.39453125 C-28.84405029 28.55532639 -28.00060059 27.71612152 -27.1315918 26.85148621 C-24.42799842 24.1647262 -21.71417532 21.48856565 -19 18.8125 C-17.1685891 16.99612983 -15.33785091 15.1790811 -13.5078125 13.36132812 C-9.01299342 8.8996402 -4.50972499 4.44661823 0 0 Z " fill="#FEDA11" transform="translate(285,683)"/>
<path d="M0 0 C0 3 0 3 -1.90844727 5.2331543 C-2.78557373 6.08820557 -3.6627002 6.94325684 -4.56640625 7.82421875 C-5.03811752 8.28931351 -5.5098288 8.75440826 -5.99583435 9.2335968 C-7.51113981 10.72547927 -9.03616328 12.20691245 -10.5625 13.6875 C-12.54683223 15.62499108 -14.52679053 17.5668652 -16.50390625 19.51171875 C-16.98416763 19.98334442 -17.46442902 20.45497009 -17.95924377 20.94088745 C-21.33829721 24.28276362 -24.51123603 27.74816892 -27.59399414 31.36254883 C-29.28774452 33.33511069 -31.08061293 35.18100858 -32.9375 37 C-33.81728516 37.86625 -33.81728516 37.86625 -34.71484375 38.75 C-35.35099609 39.36875 -35.35099609 39.36875 -36 40 C-36.66 39.67 -37.32 39.34 -38 39 C-25.66792622 25.656836 -12.90289036 12.78692135 0 0 Z " fill="#FEDA0F" transform="translate(326,641)"/>
<path d="M0 0 C0.33 0.99 0.66 1.98 1 3 C0.03900391 3.8353125 0.03900391 3.8353125 -0.94140625 4.6875 C-5.71544831 8.89947153 -10.15889307 13.13730872 -14.26171875 18.00390625 C-17.3209517 21.51686813 -20.66899969 24.74686723 -24 28 C-24.66 27.67 -25.32 27.34 -26 27 C-17.64718246 17.67471306 -8.90953689 8.79194909 0 0 Z " fill="#FED30C" transform="translate(509,451)"/>
<path d="M0 0 C0.33 0.99 0.66 1.98 1 3 C-3.66666667 7.66666667 -8.33333333 12.33333333 -13 17 C-13.66 16.67 -14.32 16.34 -15 16 C-10.23991693 10.4069024 -5.25404324 5.13122145 0 0 Z " fill="#FED20B" transform="translate(591,365)"/>
<path d="" fill="#F99B16" transform="translate(0,0)"/>
<path d="" fill="#FDAC12" transform="translate(0,0)"/>
<path d="" fill="#F6C313" transform="translate(0,0)"/>
<path d="" fill="#F7C412" transform="translate(0,0)"/>
<path d="" fill="#F6C612" transform="translate(0,0)"/>
<path d="" fill="#352700" transform="translate(0,0)"/>
<path d="" fill="#2D1F00" transform="translate(0,0)"/>
<path d="" fill="#F9C811" transform="translate(0,0)"/>
<path d="" fill="#FBC80D" transform="translate(0,0)"/>
<path d="" fill="#F9C610" transform="translate(0,0)"/>
<path d="" fill="#F5C511" transform="translate(0,0)"/>
<path d="" fill="#372500" transform="translate(0,0)"/>
<path d="" fill="#F7C710" transform="translate(0,0)"/>
<path d="" fill="#EA9D16" transform="translate(0,0)"/>
<path d="" fill="#EC9415" transform="translate(0,0)"/>
<path d="" fill="#EF9716" transform="translate(0,0)"/>
<path d="" fill="#F49616" transform="translate(0,0)"/>
<path d="" fill="#F69818" transform="translate(0,0)"/>
<path d="" fill="#F69A17" transform="translate(0,0)"/>
<path d="" fill="#F9C512" transform="translate(0,0)"/>
<path d="" fill="#F89717" transform="translate(0,0)"/>
<path d="" fill="#F79917" transform="translate(0,0)"/>
<path d="" fill="#FBC613" transform="translate(0,0)"/>
<path d="" fill="#F79A17" transform="translate(0,0)"/>
<path d="" fill="#443B00" transform="translate(0,0)"/>
<path d="" fill="#3E2600" transform="translate(0,0)"/>
<path d="" fill="#F99816" transform="translate(0,0)"/>
<path d="" fill="#FAC614" transform="translate(0,0)"/>
<path d="" fill="#F8C613" transform="translate(0,0)"/>
<path d="" fill="#473B00" transform="translate(0,0)"/>
<path d="" fill="#F99916" transform="translate(0,0)"/>
<path d="" fill="#F99C19" transform="translate(0,0)"/>
<path d="" fill="#FCA310" transform="translate(0,0)"/>
<path d="" fill="#3C3600" transform="translate(0,0)"/>
<path d="" fill="#F58E14" transform="translate(0,0)"/>
<path d="" fill="#F99917" transform="translate(0,0)"/>
<path d="" fill="#FBC712" transform="translate(0,0)"/>
<path d="" fill="#F18A12" transform="translate(0,0)"/>
<path d="" fill="#F18712" transform="translate(0,0)"/>
<path d="" fill="#FAC611" transform="translate(0,0)"/>
<path d="" fill="#3C2400" transform="translate(0,0)"/>
<path d="" fill="#F79215" transform="translate(0,0)"/>
<path d="" fill="#FF9C14" transform="translate(0,0)"/>
<path d="" fill="#F89C15" transform="translate(0,0)"/>
<path d="" fill="#FA9B15" transform="translate(0,0)"/>
<path d="" fill="#F08412" transform="translate(0,0)"/>
<path d="" fill="#FD9B14" transform="translate(0,0)"/>
<path d="" fill="#F88811" transform="translate(0,0)"/>
<path d="" fill="#FB9B15" transform="translate(0,0)"/>
<path d="" fill="#EE8213" transform="translate(0,0)"/>
<path d="" fill="#FA9C16" transform="translate(0,0)"/>
<path d="" fill="#EC8312" transform="translate(0,0)"/>
<path d="" fill="#F79A15" transform="translate(0,0)"/>
<path d="" fill="#FA9C14" transform="translate(0,0)"/>
<path d="" fill="#FB9A15" transform="translate(0,0)"/>
<path d="" fill="#F99C15" transform="translate(0,0)"/>
<path d="" fill="#F89816" transform="translate(0,0)"/>
<path d="" fill="#F89A18" transform="translate(0,0)"/>
<path d="" fill="#F89B15" transform="translate(0,0)"/>
<path d="" fill="#F79814" transform="translate(0,0)"/>
<path d="" fill="#F19814" transform="translate(0,0)"/>
<path d="" fill="#EB9213" transform="translate(0,0)"/>
<path d="" fill="#322C00" transform="translate(0,0)"/>
<path d="" fill="#342A00" transform="translate(0,0)"/>
<path d="" fill="#2F1B00" transform="translate(0,0)"/>
<path d="" fill="#372000" transform="translate(0,0)"/>
</svg>
