<?xml version="1.0" encoding="UTF-8"?>
<svg version="1.1" xmlns="http://www.w3.org/2000/svg" width="1024" height="1024">
<path d="M0 0 C1.0156881 -0.00628418 1.0156881 -0.00628418 2.05189514 -0.01269531 C4.22476123 -0.02240179 6.39742849 -0.02249816 8.5703125 -0.01953125 C9.67996872 -0.01912338 9.67996872 -0.01912338 10.81204224 -0.01870728 C25.10171737 0.00553322 39.11180253 0.231936 52.6953125 5.16796875 C54.08178312 5.6348521 55.46852973 6.10091619 56.85546875 6.56640625 C74.08831254 12.48704703 89.7868618 20.31036198 103.6953125 32.16796875 C104.63632812 32.9465625 105.57734375 33.72515625 106.546875 34.52734375 C114.00378417 40.9549894 119.96917228 48.21116346 125.6953125 56.16796875 C126.15341309 56.80444336 126.61151367 57.44091797 127.08349609 58.09667969 C128.41738657 59.97920553 129.71884726 61.87946375 131.0078125 63.79296875 C131.4114502 64.37272461 131.81508789 64.95248047 132.23095703 65.54980469 C133.30859375 67.20703125 133.30859375 67.20703125 134.6953125 70.16796875 C133.58609497 73.41011754 132.14578183 74.84108071 129.23046875 76.54296875 C128.522854 76.96441162 127.81523926 77.38585449 127.08618164 77.82006836 C126.31781982 78.26487549 125.54945801 78.70968262 124.7578125 79.16796875 C123.11114156 80.14703011 121.46533511 81.12754664 119.8203125 82.109375 C118.97082031 82.61355957 118.12132812 83.11774414 117.24609375 83.63720703 C113.20799871 86.06052785 109.23244983 88.57984459 105.2578125 91.10546875 C103.68102394 92.10552292 102.10420076 93.10552251 100.52734375 94.10546875 C99.73924316 94.605625 98.95114258 95.10578125 98.13916016 95.62109375 C95.60316334 97.22629613 93.06204673 98.82311379 90.51953125 100.41796875 C89.6699585 100.95172119 88.82038574 101.48547363 87.94506836 102.03540039 C86.33098739 103.04918638 84.71598058 104.06150048 83.09985352 105.07202148 C79.5855416 107.28282919 76.16569574 109.53399628 72.8359375 112.015625 C69.6953125 114.16796875 69.6953125 114.16796875 66.6953125 114.16796875 C65.40625 112.55078125 65.40625 112.55078125 64.0703125 110.29296875 C54.3167191 95.01394066 41.02178422 85.79425457 23.6953125 81.16796875 C23.06778076 80.99523437 22.44024902 80.8225 21.79370117 80.64453125 C9.1403541 77.77084498 -5.2329019 80.18431576 -16.1796875 86.91796875 C-24.34297864 92.92830398 -29.8175961 100.24151583 -32.3046875 110.16796875 C-33.91254396 121.9844811 -32.49517613 132.36201313 -25.80078125 142.4296875 C-17.1543694 153.36791936 -2.87218772 158.33439336 9.5078125 163.79296875 C11.2959413 164.58936242 13.08377973 165.38640834 14.87133789 166.18408203 C25.42441794 170.88326754 36.01910675 175.48280563 46.6328125 180.04296875 C90.93929164 199.09442718 130.95017682 219.82694292 150.984375 266.1484375 C161.59079116 293.55509299 160.61380107 327.35592659 148.79931641 354.20410156 C144.88348223 362.76114581 140.45199655 370.69707212 134.6953125 378.16796875 C133.82519531 379.3590625 133.82519531 379.3590625 132.9375 380.57421875 C108.84671614 412.42646854 70.06358281 425.31886379 32.18359375 431.765625 C-14.81394909 437.18639422 -64.2119193 428.11380288 -101.9296875 398.35546875 C-104.06661759 396.64022943 -106.18612832 394.90606317 -108.3046875 393.16796875 C-109.26117187 392.44222656 -110.21765625 391.71648437 -111.203125 390.96875 C-111.89664063 390.37449219 -112.59015625 389.78023437 -113.3046875 389.16796875 C-113.3046875 388.50796875 -113.3046875 387.84796875 -113.3046875 387.16796875 C-114.2946875 386.83796875 -115.2846875 386.50796875 -116.3046875 386.16796875 C-125.8833444 377.38975672 -137.74844771 362.39582597 -142.3046875 350.16796875 C-141.10767172 346.80633911 -139.55653462 345.36639752 -136.55078125 343.5390625 C-135.40609375 342.83136719 -135.40609375 342.83136719 -134.23828125 342.109375 C-133.41457031 341.61308594 -132.59085938 341.11679687 -131.7421875 340.60546875 C-130.00072728 339.53218209 -128.25985282 338.45794449 -126.51953125 337.3828125 C-125.20251221 336.57432861 -125.20251221 336.57432861 -123.85888672 335.74951172 C-120.13722561 333.4450842 -116.47013563 331.06041312 -112.8046875 328.66796875 C-76.63177841 305.16796875 -76.63177841 305.16796875 -73.3046875 305.16796875 C-72.32968137 306.65207618 -71.42792843 308.18429215 -70.5546875 309.73046875 C-57.06593491 331.48108231 -34.93944443 345.99132416 -10.3046875 352.16796875 C12.93667038 357.41535089 32.88164311 355.79695841 53.6953125 344.16796875 C55.02395134 343.4919946 56.3546325 342.8197351 57.6953125 342.16796875 C57.6953125 341.50796875 57.6953125 340.84796875 57.6953125 340.16796875 C58.3553125 340.16796875 59.0153125 340.16796875 59.6953125 340.16796875 C59.6953125 339.50796875 59.6953125 338.84796875 59.6953125 338.16796875 C60.3553125 338.16796875 61.0153125 338.16796875 61.6953125 338.16796875 C61.9428125 337.50796875 62.1903125 336.84796875 62.4453125 336.16796875 C63.6953125 333.16796875 63.6953125 333.16796875 64.6484375 331.44140625 C69.52377361 322.60031166 70.73045965 313.05087757 68.6953125 303.16796875 C62.19164986 283.59533473 45.01702483 274.87150049 27.6953125 266.16796875 C22.92354637 263.8840595 18.08148137 261.75765519 13.23400879 259.64038086 C10.93190686 258.63481284 8.63312953 257.62194477 6.33496094 256.60742188 C3.09839204 255.17949112 -0.1393975 253.75439231 -3.37841797 252.33203125 C-10.67506602 249.12759222 -17.96674681 245.91201858 -25.25357056 242.68530273 C-27.47577121 241.70285799 -29.70005521 240.72525929 -31.92456055 239.74804688 C-52.87853333 230.50374905 -72.34084861 220.76614457 -89.3046875 205.16796875 C-90.12582031 204.4409375 -90.94695313 203.71390625 -91.79296875 202.96484375 C-111.78004839 184.36230427 -121.48775302 156.86136946 -122.4921875 130.04296875 C-123.21448474 97.46811574 -113.79684917 67.85163564 -92.3046875 43.16796875 C-91.70140625 42.43191406 -91.098125 41.69585937 -90.4765625 40.9375 C-89.13495551 39.30607985 -87.72724139 37.72930839 -86.3046875 36.16796875 C-85.6446875 36.16796875 -84.9846875 36.16796875 -84.3046875 36.16796875 C-84.3046875 35.50796875 -84.3046875 34.84796875 -84.3046875 34.16796875 C-61.70666601 13.79841163 -30.65064818 0.18555594 0 0 Z " fill="#FEDE3C" transform="translate(651.3046875,285.83203125)"/>
<path d="M0 0 C1.20085236 0.00539291 1.20085236 0.00539291 2.42596436 0.01089478 C3.26491745 0.01074875 4.10387054 0.01060272 4.96824646 0.01045227 C7.75487816 0.01115167 10.54144388 0.01894531 13.32806396 0.02676392 C15.25477563 0.028628 17.18148777 0.03005195 19.10820007 0.03105164 C24.18978169 0.03487758 29.27133491 0.04470851 34.35290527 0.05575562 C39.53407405 0.0659681 44.7152474 0.07054891 49.89642334 0.07559204 C60.07026397 0.08633071 70.24408348 0.10340804 80.41790771 0.12442017 C80.46373702 40.36338656 80.49895322 80.60234954 80.52003837 120.84133685 C80.52253963 125.59748185 80.52512829 130.3536268 80.527771 135.10977173 C80.52855793 136.52999952 80.52855793 136.52999952 80.52936076 137.97891879 C80.53805113 153.28731893 80.55381355 168.59570397 80.57221331 183.90409517 C80.59095045 199.62490401 80.60203249 215.34570496 80.6060847 231.06652451 C80.60882186 240.75840391 80.61745082 250.45024063 80.63374065 260.14210689 C80.64435466 266.79820653 80.64749839 273.45428426 80.64491047 280.11039174 C80.64363602 283.94420758 80.64551804 287.7779491 80.65631866 291.61175156 C80.75805575 329.60850759 75.06943316 361.11838798 47.41790771 389.12442017 C35.86025378 400.70278674 21.53040256 409.05909152 6.41790771 415.12442017 C5.42790771 415.12442017 4.43790771 415.12442017 3.41790771 415.12442017 C3.08790771 415.78442017 2.75790771 416.44442017 2.41790771 417.12442017 C-2.81189152 418.84676738 -8.20665028 419.95028945 -13.58209229 421.12442017 C-14.25997803 421.28120239 -14.93786377 421.43798462 -15.6362915 421.59951782 C-27.0675755 424.16981627 -38.53990922 424.43827157 -50.20709229 424.49942017 C-50.93941071 424.50727539 -51.67172913 424.51513062 -52.42623901 424.52322388 C-85.30312068 424.79746247 -113.50642566 413.56494958 -139.58209229 394.12442017 C-140.34650635 393.59332642 -141.11092041 393.06223267 -141.89849854 392.51504517 C-142.45408447 392.05613892 -143.00967041 391.59723267 -143.58209229 391.12442017 C-143.58209229 390.46442017 -143.58209229 389.80442017 -143.58209229 389.12442017 C-144.38646729 388.81504517 -144.38646729 388.81504517 -145.20709229 388.49942017 C-148.50187237 386.59191591 -151.17572857 384.07622633 -153.58209229 381.12442017 C-153.58209229 380.46442017 -153.58209229 379.80442017 -153.58209229 379.12442017 C-154.24209229 379.12442017 -154.90209229 379.12442017 -155.58209229 379.12442017 C-157.53105813 376.81059332 -159.35046864 374.49237228 -161.14459229 372.06192017 C-161.94062866 370.98937988 -161.94062866 370.98937988 -162.75274658 369.89517212 C-166.33849247 364.9916202 -169.72300174 359.99297703 -172.89459229 354.81192017 C-173.48059204 353.87110596 -173.48059204 353.87110596 -174.07843018 352.9112854 C-175.13287354 351.13613892 -175.13287354 351.13613892 -176.58209229 348.12442017 C-175.16465357 343.87210402 -172.09248894 342.92505581 -168.33209229 340.93692017 C-162.1417169 337.61450639 -156.15360078 334.04136382 -150.18218994 330.33901978 C-143.64297331 326.29893656 -137.00940339 322.41391304 -130.39459229 318.49942017 C-127.6300193 316.8618212 -124.86579228 315.22363886 -122.10162354 313.58535767 C-121.44751495 313.19781311 -120.79340637 312.81026855 -120.11947632 312.41098022 C-114.92903568 309.33425378 -109.75051857 306.23800452 -104.58209229 303.12442017 C-102.63359681 305.61957112 -101.0163017 308.03472983 -99.63677979 310.88223267 C-95.23020754 319.73492072 -90.82067745 327.22157643 -83.58209229 334.12442017 C-82.740979 334.99453735 -82.740979 334.99453735 -81.88287354 335.88223267 C-73.55062208 343.91185997 -61.0611807 347.08543103 -49.76959229 347.43692017 C-38.33311336 347.1898806 -28.20424492 344.02227486 -19.58209229 336.34317017 C-10.47226465 326.76214455 -7.41244521 314.27961999 -6.9631958 301.43186951 C-6.92552629 300.48293156 -6.88785677 299.53399362 -6.84904575 298.55629998 C-6.41851501 286.45354391 -6.4543267 274.34592289 -6.48068571 262.2372545 C-6.48717555 258.72089073 -6.48763762 255.20452496 -6.48886108 251.68815613 C-6.49172098 245.62293077 -6.49811422 239.5577179 -6.50692749 233.4924984 C-6.51957764 224.72256196 -6.52557962 215.95263002 -6.52986085 207.18268595 C-6.53689448 192.94605661 -6.54767416 178.70943305 -6.56158447 164.47280884 C-6.56241228 163.62421513 -6.5632401 162.77562142 -6.56409299 161.90131275 C-6.56999904 155.87151513 -6.57603773 149.84171764 -6.58209229 143.81192017 C-6.58903412 136.88735972 -6.59589542 129.9627992 -6.6026001 123.03823853 C-6.60342822 122.18432912 -6.60425635 121.33041971 -6.60510957 120.45063426 C-6.61877342 106.23550861 -6.62854129 92.02038285 -6.63551044 77.80525237 C-6.63999488 69.04851763 -6.64804141 60.29179972 -6.66065526 51.53507284 C-6.66905175 45.55395954 -6.67396493 39.57285013 -6.67608047 33.59173133 C-6.6774306 30.1383655 -6.68047244 26.68502143 -6.68783951 23.23166275 C-6.69498943 19.49783719 -6.69609625 15.76405884 -6.69561768 12.03022766 C-6.69921264 10.92755403 -6.7028076 9.82488039 -6.7065115 8.68879241 C-6.70513715 7.69715081 -6.7037628 6.70550921 -6.7023468 5.68381786 C-6.70372949 4.38996238 -6.70372949 4.38996238 -6.70514011 3.0699684 C-6.44220028 -1.08745676 -3.47370633 0.00658653 0 0 Z " fill="#FEDE3D" transform="translate(377.58209228515625,293.8755798339844)"/>
<path d="M0 0 C0.33 0 0.66 0 1 0 C1.05410687 1.77049689 1.09284119 3.54146849 1.125 5.3125 C1.14820313 6.29863281 1.17140625 7.28476562 1.1953125 8.30078125 C1 11 1 11 -1 14 C-3.11410469 23.28100732 -2.11029257 33.66026825 -2.0625 43.125 C-2.05747515 44.86197788 -2.05291398 46.59895716 -2.04882812 48.3359375 C-2.03790014 52.55732688 -2.02068978 56.77864764 -2 61 C-2.33 61 -2.66 61 -3 61 C-6.35009277 40.45077026 -5.80641383 20.09019185 0 0 Z " fill="#FBE362" transform="translate(534,374)"/>
<path d="M0 0 C0 0.99 0 1.98 0 3 C-3.01583098 1.86906338 -5.84617087 0.56673307 -8.6875 -0.9375 C-13.27720671 -3.2715444 -18.03859955 -4.67527233 -23 -6 C-23.62608154 -6.17418457 -24.25216309 -6.34836914 -24.8972168 -6.52783203 C-28.4109369 -7.31681783 -31.97825724 -7.19045791 -35.5625 -7.1875 C-36.36155762 -7.18814453 -37.16061523 -7.18878906 -37.98388672 -7.18945312 C-44.14809898 -7.13469331 -50.00164254 -6.479771 -56 -5 C-41.93840281 -16.97839761 -14.12337998 -7.71115929 0 0 Z " fill="#FCE362" transform="translate(698,373)"/>
<path d="M0 0 C-7.0822288 2.9590134 -14.13242108 5.46958842 -21.5625 7.375 C-22.57957031 7.64425293 -22.57957031 7.64425293 -23.6171875 7.91894531 C-27.03936767 8.7607742 -29.65669588 9.31009882 -33 8 C-32.01 8 -31.02 8 -30 8 C-30 7.34 -30 6.68 -30 6 C-27.18831904 5.20532858 -24.37571498 4.41420767 -21.5625 3.625 C-20.77939453 3.40328125 -19.99628906 3.1815625 -19.18945312 2.953125 C-15.1722397 1.82896651 -11.14531758 0.75135317 -7.08984375 -0.2265625 C-6.37562256 -0.40010254 -5.66140137 -0.57364258 -4.92553711 -0.75244141 C-3 -1 -3 -1 0 0 Z " fill="#FAE154" transform="translate(731,705)"/>
<path d="M0 0 C1.19625 0.268125 2.3925 0.53625 3.625 0.8125 C10.07498936 2.24697763 16.53792955 3.62117985 23 5 C23 5.66 23 6.32 23 7 C25.97 7.495 25.97 7.495 29 8 C25.69282542 9.10333414 23.7166235 8.88252636 20.41015625 7.85546875 C19.54326172 7.59056641 18.67636719 7.32566406 17.78320312 7.05273438 C16.88537109 6.76720703 15.98753906 6.48167969 15.0625 6.1875 C14.16853516 5.91357422 13.27457031 5.63964844 12.35351562 5.35742188 C8.16476451 4.06068155 4.03565637 2.72715982 0 1 C0 0.67 0 0.34 0 0 Z " fill="#F8DF60" transform="translate(587,705)"/>
<path d="M0 0 C0.66 0.33 1.32 0.66 2 1 C-1.96 4.465 -1.96 4.465 -6 8 C-5.690625 8.70125 -5.38125 9.4025 -5.0625 10.125 C-3.96697322 13.08936657 -3.43577008 15.87698108 -3 19 C-6.31867235 16.1791285 -8.1539589 12.89719789 -10 9 C-8.90180532 5.51239991 -7.06102694 4.04999985 -4 2.1875 C-3.29875 1.74792969 -2.5975 1.30835938 -1.875 0.85546875 C-1.25625 0.57316406 -0.6375 0.29085937 0 0 Z " fill="#FBE157" transform="translate(519,627)"/>
<path d="M0 0 C1.19303945 1.70434207 2.30532251 3.46564716 3.375 5.25 C5.61613272 8.98193026 7.79846465 12.03822721 11 15 C10.67 15.66 10.34 16.32 10 17 C5.19905123 13.06135756 1.04697176 9.45915773 -2 4 C-2 3.34 -2 2.68 -2 2 C-2.66 1.67 -3.32 1.34 -4 1 C-2 0 -2 0 0 0 Z " fill="#FCE55A" transform="translate(578,591)"/>
<path d="M0 0 C0.66 0.33 1.32 0.66 2 1 C1.3503125 1.5878125 1.3503125 1.5878125 0.6875 2.1875 C-1.10669113 3.94994113 -1.10669113 3.94994113 -2.1875 6.3125 C-4.76498843 10.13429319 -8.24119553 12.40187149 -12 15 C-11.75 12.625 -11.75 12.625 -11 10 C-8.9375 8.6875 -8.9375 8.6875 -7 8 C-7 7.34 -7 6.68 -7 6 C-5.46875 4.4921875 -5.46875 4.4921875 -3.5 2.875 C-2.8503125 2.33617187 -2.200625 1.79734375 -1.53125 1.2421875 C-0.77328125 0.62730469 -0.77328125 0.62730469 0 0 Z " fill="#FAE156" transform="translate(574,314)"/>
<path d="M0 0 C0 0.66 0 1.32 0 2 C-1.423125 2.37125 -1.423125 2.37125 -2.875 2.75 C-6.07352985 3.62802545 -6.07352985 3.62802545 -6.9375 5.875 C-8.70843399 9.41686799 -11.4520409 10.34836387 -15 12 C-17.2265625 11.60546875 -17.2265625 11.60546875 -19 11 C-16.21312902 9.15929441 -13.41974873 7.32871822 -10.625 5.5 C-9.8309375 4.97535156 -9.036875 4.45070313 -8.21875 3.91015625 C-7.45820312 3.41386719 -6.69765625 2.91757812 -5.9140625 2.40625 C-4.8614624 1.71499023 -4.8614624 1.71499023 -3.78759766 1.00976562 C-2 0 -2 0 0 0 Z " fill="#FCE35A" transform="translate(568,597)"/>
<path d="M0 0 C0.66 0.33 1.32 0.66 2 1 C-2.21089792 5.77235098 -7.23146586 9.28419455 -13 12 C-13.66 11.67 -14.32 11.34 -15 11 C-11.80090498 7.52669684 -9.38177227 5.6431646 -5 4 C-3.29705213 2.71332828 -1.62053812 1.38903267 0 0 Z " fill="#FADF51" transform="translate(773,363)"/>
<path d="M0 0 C1.21236328 0.01353516 1.21236328 0.01353516 2.44921875 0.02734375 C3.37154297 0.04474609 3.37154297 0.04474609 4.3125 0.0625 C0.83062247 2.38375169 -2.55921039 3.21372685 -6.5625 4.1875 C-7.27019531 4.36925781 -7.97789062 4.55101562 -8.70703125 4.73828125 C-12.43552173 5.66172489 -15.8432375 6.28863309 -19.6875 6.0625 C-17.04328277 4.29968851 -15.15720304 3.44535547 -12.1875 2.5 C-11.4140625 2.25121094 -10.640625 2.00242187 -9.84375 1.74609375 C-9.1321875 1.52050781 -8.420625 1.29492188 -7.6875 1.0625 C-4.80538698 0.10179566 -2.98899956 -0.04331883 0 0 Z " fill="#F9E15B" transform="translate(373.6875,709.9375)"/>
<path d="M0 0 C4.99205475 0.46800513 9.16949507 2.86287565 13 6 C14.23828125 8.16796875 14.23828125 8.16796875 15 10 C11.13518578 8.61423779 8.03192572 6.81080359 4.6875 4.4375 C3.80449219 3.81746094 2.92148437 3.19742188 2.01171875 2.55859375 C1.34785156 2.04425781 0.68398438 1.52992188 0 1 C0 0.67 0 0.34 0 0 Z " fill="#FAE054" transform="translate(552,685)"/>
<path d="M0 0 C0.66 0.33 1.32 0.66 2 1 C1.46890625 1.31453125 0.9378125 1.6290625 0.390625 1.953125 C-4.12808152 4.66054176 -4.12808152 4.66054176 -8 8.1875 C-11.00799828 10.91349844 -14.0505942 11.21011884 -18 12 C-14.87189356 8.68767688 -11.32001438 6.578774 -7.4375 4.25 C-6.75236328 3.82589844 -6.06722656 3.40179687 -5.36132812 2.96484375 C-3.61215357 1.91087596 -1.80905993 0.947503 0 0 Z " fill="#F9E568" transform="translate(229,623)"/>
<path d="M0 0 C4.66131417 1.39419487 7.23172772 4.02848362 10.3125 7.625 C10.76689453 8.140625 11.22128906 8.65625 11.68945312 9.1875 C12.80108006 10.4512443 13.9016822 11.72467176 15 13 C14.67 13.66 14.34 14.32 14 15 C12.03580523 13.03580523 10.07182948 11.07140276 8.109375 9.10546875 C6.87514262 7.87352198 5.63725604 6.64518006 4.390625 5.42578125 C1.10284582 2.20569164 1.10284582 2.20569164 0 0 Z " fill="#FBE05C" transform="translate(699,560)"/>
<path d="M0 0 C5.08938811 1.59043379 8.87456643 4.7446951 13 8 C10.51042165 8.91191297 9.39294506 9.15965671 6.89453125 8.14453125 C6.20746094 7.70496094 5.52039063 7.26539063 4.8125 6.8125 C4.11769531 6.38582031 3.42289063 5.95914062 2.70703125 5.51953125 C0.71122902 3.74294757 0.37357722 2.60388898 0 0 Z " fill="#FBE354" transform="translate(749,492)"/>
<path d="M0 0 C4.23717907 1.51327824 5.72106021 4.25077648 8 8 C8.598125 8.9075 9.19625 9.815 9.8125 10.75 C10.204375 11.4925 10.59625 12.235 11 13 C10.67 13.66 10.34 14.32 10 15 C8.5125035 13.25707481 7.03527508 11.50538246 5.5625 9.75 C4.73878906 8.77546875 3.91507813 7.8009375 3.06640625 6.796875 C1.25150943 4.3404173 0.38842559 2.96615903 0 0 Z " fill="#FAE25D" transform="translate(516,646)"/>
<path d="M0 0 C5 1.66666667 10 3.33333333 15 5 C13.5 6.1875 13.5 6.1875 11 7 C8.21175762 6.27101296 5.62334908 5.1843275 3 4 C3 3.34 3 2.68 3 2 C2.01 1.67 1.02 1.34 0 1 C0 0.67 0 0.34 0 0 Z " fill="#FCE458" transform="translate(619,631)"/>
<path d="M0 0 C4.33304076 0.64465202 7.86672065 2.18925122 11.8125 4.0625 C12.97394531 4.61035156 14.13539063 5.15820312 15.33203125 5.72265625 C16.21246094 6.14417969 17.09289062 6.56570313 18 7 C15 8 15 8 13.3125 7.1875 C12.549375 6.795625 11.78625 6.40375 11 6 C9.64965658 5.69111578 8.29495338 5.4009658 6.9375 5.125 C3.96405577 4.43839463 3.16881756 4.17936866 1 1.875 C0.67 1.25625 0.34 0.6375 0 0 Z " fill="#FCE565" transform="translate(657,449)"/>
<path d="M0 0 C4.51650194 0.53135317 7.42058156 2.23408575 11 5 C11.33 5.99 11.66 6.98 12 8 C7.44328408 6.48109469 3.68276708 4.04597738 0 1 C0 0.67 0 0.34 0 0 Z " fill="#FCE358" transform="translate(574,500)"/>
<path d="M0 0 C8.12348668 1.73123487 8.12348668 1.73123487 11 5 C12.97620986 6.04622875 14.9737129 7.05439935 17 8 C14 9 14 9 10.64453125 7.34765625 C9.36110983 6.59622298 8.08393866 5.83403499 6.8125 5.0625 C5.83120117 4.48338867 5.83120117 4.48338867 4.83007812 3.89257812 C3.21464684 2.93746912 1.60659475 1.96989934 0 1 C0 0.67 0 0.34 0 0 Z " fill="#FCE56F" transform="translate(586,508)"/>
<path d="M0 0 C4.8274799 1.41292095 8.7162359 3.42974154 13 6 C11 7 11 7 7 7 C7 6.01 7 5.02 7 4 C4.69 3.67 2.38 3.34 0 3 C0 2.01 0 1.02 0 0 Z " fill="#FCE45A" transform="translate(729,481)"/>
<path d="M0 0 C1.98 0 3.96 0 6 0 C5.46375 0.33 4.9275 0.66 4.375 1 C2.76168211 2.87266716 2.76168211 2.87266716 3.24609375 4.98046875 C3.76561631 7.00481529 4.37848362 9.0046053 5 11 C2.02930459 8.45368965 0.5224249 5.57769851 -1 2 C-0.67 1.34 -0.34 0.68 0 0 Z " fill="#F5DE5A" transform="translate(202,639)"/>
<path d="M0 0 C2.125 0.375 2.125 0.375 4 1 C4 1.66 4 2.32 4 3 C4.63808594 3.19335938 5.27617188 3.38671875 5.93359375 3.5859375 C6.75988281 3.84632813 7.58617187 4.10671875 8.4375 4.375 C9.26121094 4.63023437 10.08492187 4.88546875 10.93359375 5.1484375 C13 6 13 6 14 8 C8.53262809 6.25192871 3.24175152 4.34205919 -2 2 C-1.34 1.34 -0.68 0.68 0 0 Z " fill="#FCE367" transform="translate(645,534)"/>
<path d="M0 0 C0.66 0.33 1.32 0.66 2 1 C0.60344703 4.49873271 -0.71260484 5.70891831 -4.125 7.25 C-5.21167969 7.75273437 -5.21167969 7.75273437 -6.3203125 8.265625 C-7.15175781 8.62914062 -7.15175781 8.62914062 -8 9 C-8 8.01 -8 7.02 -8 6 C-5.11165997 3.89229241 -3.61537605 3 0 3 C0 2.01 0 1.02 0 0 Z " fill="#F7DC57" transform="translate(784,355)"/>
<path d="M0 0 C1.8125 0.5625 1.8125 0.5625 4 2 C5.8125 5.5 5.8125 5.5 7 9 C6.67 9.66 6.34 10.32 6 11 C4.9944239 9.54550599 3.99569565 8.08627557 3 6.625 C2.443125 5.81289063 1.88625 5.00078125 1.3125 4.1640625 C0 2 0 2 0 0 Z " fill="#F8E15B" transform="translate(207,650)"/>
<path d="M0 0 C3.09423168 3.09423168 3.93706005 6.5523812 4.125 10.875 C4.08375 11.57625 4.0425 12.2775 4 13 C1.7522025 10.94766315 0.9977758 9.99332739 0 7 C-0.03954234 4.66700175 -0.04401732 2.33291811 0 0 Z " fill="#F9E15C" transform="translate(801,552)"/>
<path d="M0 0 C-4.455 2.97 -4.455 2.97 -9 6 C-9.66 5.67 -10.32 5.34 -11 5 C-8.10998474 1.78887193 -4.47884754 -2.23942377 0 0 Z " fill="#FBE45A" transform="translate(745,384)"/>
<path d="M0 0 C0.66 0.33 1.32 0.66 2 1 C2 1.66 2 2.32 2 3 C-0.25 4.6875 -0.25 4.6875 -3 6 C-4.32 5.67 -5.64 5.34 -7 5 C-4.69 3.35 -2.38 1.7 0 0 Z " fill="#FCE457" transform="translate(539,614)"/>
<path d="M0 0 C4.61513112 1.31860889 8.09897612 3.21355437 12 6 C10 7 10 7 7.6875 6.375 C4.47962101 4.73375959 2.42847451 2.63662947 0 0 Z " fill="#F8E15D" transform="translate(731,303)"/>
<path d="M0 0 C3.67420866 0.30618405 4.78135513 0.75771784 7.3125 3.5625 C8.1478125 4.7690625 8.1478125 4.7690625 9 6 C4.75177626 5.52797514 2.80010291 3.03344482 0 0 Z " fill="#FCE24C" transform="translate(749,316)"/>
<path d="M0 0 C3.33333333 1.66666667 6.66666667 3.33333333 10 5 C10 5.33 10 5.66 10 6 C6.6875 5.8125 6.6875 5.8125 3 5 C1.0625 2.4375 1.0625 2.4375 0 0 Z " fill="#FDE55B" transform="translate(634,437)"/>
<path d="M0 0 C2.9375 0.8125 2.9375 0.8125 6 2 C6.33 2.99 6.66 3.98 7 5 C4.03 4.01 1.06 3.02 -2 2 C-1.34 1.34 -0.68 0.68 0 0 Z " fill="#FBE259" transform="translate(661,541)"/>
<path d="M0 0 C3.82097239 0.53069061 6.06171403 1.49701566 9 4 C3.48 4.368 3.48 4.368 1.125 2.5625 C0 1 0 1 0 0 Z " fill="#FCE35A" transform="translate(689,463)"/>
<path d="M0 0 C0.99 0.33 1.98 0.66 3 1 C1.02579865 3.52259061 0.03254358 3.9929808 -3.1875 4.6875 C-4.5796875 4.8421875 -4.5796875 4.8421875 -6 5 C-2.25 1.125 -2.25 1.125 0 0 Z " fill="#FAE357" transform="translate(589,304)"/>
<path d="M0 0 C3.45925163 1.2491742 6.14693203 2.67527795 9 5 C5.625 4.75 5.625 4.75 2 4 C0.5625 1.9375 0.5625 1.9375 0 0 Z " fill="#FDE259" transform="translate(610,626)"/>
<path d="M0 0 C0.66 0.33 1.32 0.66 2 1 C0.25 3.0625 0.25 3.0625 -2 5 C-4.25 4.75 -4.25 4.75 -6 4 C-4.02 2.68 -2.04 1.36 0 0 Z " fill="#FCE459" transform="translate(547,609)"/>
<path d="M0 0 C0.33 0.99 0.66 1.98 1 3 C-4.75 2.25 -4.75 2.25 -7 0 C-4.3333581 -1.33332095 -2.83319697 -0.67102033 0 0 Z " fill="#FADF54" transform="translate(281,708)"/>
<path d="M0 0 C2.72426311 2.35277269 3.8141763 4.62496331 5 8 C2.5 6.8125 2.5 6.8125 0 5 C-0.3125 2.3125 -0.3125 2.3125 0 0 Z " fill="#FCE257" transform="translate(281,613)"/>
<path d="M0 0 C3.3 0 6.6 0 10 0 C10 0.33 10 0.66 10 1 C6.7 1 3.4 1 0 1 C0 0.67 0 0.34 0 0 Z " fill="#E9CA3A" transform="translate(665,719)"/>
<path d="M0 0 C2.97 0 5.94 0 9 0 C9 0.33 9 0.66 9 1 C6.03 1 3.06 1 0 1 C0 0.67 0 0.34 0 0 Z " fill="#E7C63A" transform="translate(335,719)"/>
<path d="M0 0 C0.33 0 0.66 0 1 0 C1 1.98 1 3.96 1 6 C0.67 6 0.34 6 0 6 C0 4.02 0 2.04 0 0 Z " fill="#F4D435" transform="translate(369,594)"/>
<path d="M0 0 C0.33 0 0.66 0 1 0 C1 1.65 1 3.3 1 5 C0.67 5 0.34 5 0 5 C0 3.35 0 1.7 0 0 Z " fill="#F6D43A" transform="translate(528,393)"/>
<path d="M0 0 C4 1 4 1 4 1 Z " fill="#EACA35" transform="translate(642,719)"/>
<path d="M0 0 C4 1 4 1 4 1 Z " fill="#EBCA36" transform="translate(330,719)"/>
<path d="M0 0 C4 1 4 1 4 1 Z " fill="#EAC836" transform="translate(683,718)"/>
<path d="M0 0 C4 1 4 1 4 1 Z " fill="#E7C439" transform="translate(715,711)"/>
<path d="M0 0 C4 1 4 1 4 1 Z " fill="#FBD739" transform="translate(658,366)"/>
<path d="M0 0 C3 1 3 1 3 1 Z " fill="#E9C737" transform="translate(676,719)"/>
<path d="M0 0 C3 1 3 1 3 1 Z " fill="#E9C535" transform="translate(595,710)"/>
<path d="M0 0 C0.66 0.66 1.32 1.32 2 2 C1.34 2 0.68 2 0 2 C0 1.34 0 0.68 0 0 Z " fill="#E1C132" transform="translate(208,656)"/>
<path d="" fill="#F9D738" transform="translate(0,0)"/>
<path d="M0 0 C2 1 2 1 2 1 Z " fill="#E6C436" transform="translate(350,718)"/>
<path d="M0 0 C2 1 2 1 2 1 Z " fill="#E5C333" transform="translate(381,711)"/>
<path d="M0 0 C2 1 2 1 2 1 Z " fill="#E5C535" transform="translate(739,702)"/>
<path d="" fill="#D9BB33" transform="translate(0,0)"/>
<path d="M0 0 C2 1 2 1 2 1 Z " fill="#F6D434" transform="translate(667,640)"/>
<path d="" fill="#F5D339" transform="translate(0,0)"/>
<path d="" fill="#F8D434" transform="translate(0,0)"/>
<path d="" fill="#F4D33A" transform="translate(0,0)"/>
<path d="" fill="#ECCD36" transform="translate(0,0)"/>
<path d="M0 0 C2 1 2 1 2 1 Z " fill="#F6D335" transform="translate(569,499)"/>
<path d="" fill="#F7D43B" transform="translate(0,0)"/>
<path d="M0 0 C2 1 2 1 2 1 Z " fill="#F1D43B" transform="translate(660,448)"/>
<path d="" fill="#F9D630" transform="translate(0,0)"/>
<path d="M0 0 C2 1 2 1 2 1 Z " fill="#FAD73F" transform="translate(664,366)"/>
<path d="M0 0 C2 1 2 1 2 1 Z " fill="#E9C93A" transform="translate(702,289)"/>
<path d="" fill="#231E01" transform="translate(0,0)"/>
<path d="" fill="#241F00" transform="translate(0,0)"/>
<path d="" fill="#241E01" transform="translate(0,0)"/>
<path d="" fill="#231D00" transform="translate(0,0)"/>
<path d="" fill="#251D02" transform="translate(0,0)"/>
<path d="" fill="#251D01" transform="translate(0,0)"/>
<path d="" fill="#251E02" transform="translate(0,0)"/>
<path d="" fill="#261F02" transform="translate(0,0)"/>
<path d="" fill="#251D02" transform="translate(0,0)"/>
<path d="" fill="#251F03" transform="translate(0,0)"/>
<path d="" fill="#211B00" transform="translate(0,0)"/>
<path d="" fill="#221C00" transform="translate(0,0)"/>
<path d="" fill="#211C01" transform="translate(0,0)"/>
<path d="" fill="#201D02" transform="translate(0,0)"/>
<path d="" fill="#231F02" transform="translate(0,0)"/>
<path d="" fill="#221C01" transform="translate(0,0)"/>
<path d="" fill="#272001" transform="translate(0,0)"/>
<path d="" fill="#211B00" transform="translate(0,0)"/>
<path d="" fill="#231F02" transform="translate(0,0)"/>
<path d="" fill="#221D01" transform="translate(0,0)"/>
<path d="" fill="#262001" transform="translate(0,0)"/>
<path d="" fill="#231E01" transform="translate(0,0)"/>
<path d="" fill="#221E03" transform="translate(0,0)"/>
<path d="" fill="#1F1C00" transform="translate(0,0)"/>
<path d="" fill="#201B00" transform="translate(0,0)"/>
<path d="" fill="#252001" transform="translate(0,0)"/>
<path d="" fill="#221D00" transform="translate(0,0)"/>
<path d="" fill="#211C01" transform="translate(0,0)"/>
<path d="" fill="#201B00" transform="translate(0,0)"/>
<path d="" fill="#221D02" transform="translate(0,0)"/>
<path d="" fill="#221C00" transform="translate(0,0)"/>
<path d="" fill="#282103" transform="translate(0,0)"/>
<path d="" fill="#2B2301" transform="translate(0,0)"/>
<path d="" fill="#252002" transform="translate(0,0)"/>
<path d="" fill="#262002" transform="translate(0,0)"/>
<path d="" fill="#251D01" transform="translate(0,0)"/>
<path d="" fill="#2B2503" transform="translate(0,0)"/>
<path d="" fill="#231F02" transform="translate(0,0)"/>
<path d="" fill="#201C01" transform="translate(0,0)"/>
<path d="" fill="#221B02" transform="translate(0,0)"/>
<path d="" fill="#221B00" transform="translate(0,0)"/>
<path d="" fill="#211D00" transform="translate(0,0)"/>
<path d="" fill="#2A2302" transform="translate(0,0)"/>
<path d="" fill="#2B2403" transform="translate(0,0)"/>
<path d="" fill="#2A2402" transform="translate(0,0)"/>
<path d="" fill="#2E2600" transform="translate(0,0)"/>
<path d="" fill="#2A2402" transform="translate(0,0)"/>
<path d="" fill="#2D2602" transform="translate(0,0)"/>
<path d="" fill="#211C01" transform="translate(0,0)"/>
<path d="" fill="#211C00" transform="translate(0,0)"/>
<path d="" fill="#201C00" transform="translate(0,0)"/>
<path d="" fill="#211C00" transform="translate(0,0)"/>
<path d="" fill="#231C01" transform="translate(0,0)"/>
<path d="" fill="#231C00" transform="translate(0,0)"/>
<path d="" fill="#282001" transform="translate(0,0)"/>
<path d="" fill="#2A2202" transform="translate(0,0)"/>
<path d="" fill="#2E2702" transform="translate(0,0)"/>
<path d="" fill="#2D2403" transform="translate(0,0)"/>
<path d="" fill="#2C2702" transform="translate(0,0)"/>
<path d="" fill="#2F2703" transform="translate(0,0)"/>
<path d="" fill="#272201" transform="translate(0,0)"/>
<path d="" fill="#282100" transform="translate(0,0)"/>
<path d="" fill="#251E00" transform="translate(0,0)"/>
<path d="" fill="#201B01" transform="translate(0,0)"/>
<path d="" fill="#302802" transform="translate(0,0)"/>
<path d="" fill="#342B04" transform="translate(0,0)"/>
<path d="" fill="#332C05" transform="translate(0,0)"/>
<path d="" fill="#231E00" transform="translate(0,0)"/>
<path d="" fill="#372D04" transform="translate(0,0)"/>
<path d="" fill="#221D02" transform="translate(0,0)"/>
<path d="" fill="#221D02" transform="translate(0,0)"/>
<path d="" fill="#2F2803" transform="translate(0,0)"/>
<path d="" fill="#2C2302" transform="translate(0,0)"/>
<path d="" fill="#201B00" transform="translate(0,0)"/>
<path d="" fill="#211B01" transform="translate(0,0)"/>
<path d="" fill="#231D00" transform="translate(0,0)"/>
<path d="" fill="#443808" transform="translate(0,0)"/>
<path d="" fill="#5E500D" transform="translate(0,0)"/>
<path d="" fill="#261F01" transform="translate(0,0)"/>
<path d="" fill="#272100" transform="translate(0,0)"/>
<path d="" fill="#EAC93A" transform="translate(0,0)"/>
<path d="" fill="#EACB35" transform="translate(0,0)"/>
<path d="" fill="#EBCB35" transform="translate(0,0)"/>
<path d="" fill="#EBC938" transform="translate(0,0)"/>
<path d="" fill="#E8C736" transform="translate(0,0)"/>
<path d="" fill="#E9C73C" transform="translate(0,0)"/>
<path d="" fill="#EAC737" transform="translate(0,0)"/>
<path d="" fill="#EAC935" transform="translate(0,0)"/>
<path d="" fill="#EAC832" transform="translate(0,0)"/>
<path d="" fill="#322A03" transform="translate(0,0)"/>
<path d="" fill="#E7C536" transform="translate(0,0)"/>
<path d="" fill="#E7C638" transform="translate(0,0)"/>
<path d="" fill="#E6C534" transform="translate(0,0)"/>
<path d="" fill="#E5C531" transform="translate(0,0)"/>
<path d="" fill="#E8C639" transform="translate(0,0)"/>
<path d="" fill="#E9C936" transform="translate(0,0)"/>
<path d="" fill="#E9C933" transform="translate(0,0)"/>
<path d="" fill="#E7C734" transform="translate(0,0)"/>
<path d="" fill="#E9C533" transform="translate(0,0)"/>
<path d="" fill="#E5C433" transform="translate(0,0)"/>
<path d="" fill="#E8C733" transform="translate(0,0)"/>
<path d="" fill="#E7C632" transform="translate(0,0)"/>
<path d="" fill="#E4C638" transform="translate(0,0)"/>
<path d="" fill="#E9C734" transform="translate(0,0)"/>
<path d="" fill="#E7C633" transform="translate(0,0)"/>
<path d="" fill="#E8C636" transform="translate(0,0)"/>
<path d="" fill="#E2C22A" transform="translate(0,0)"/>
<path d="" fill="#E4C232" transform="translate(0,0)"/>
<path d="" fill="#E5C134" transform="translate(0,0)"/>
<path d="" fill="#E5C739" transform="translate(0,0)"/>
<path d="" fill="#E6C537" transform="translate(0,0)"/>
<path d="" fill="#E6C535" transform="translate(0,0)"/>
<path d="" fill="#E3C432" transform="translate(0,0)"/>
<path d="" fill="#E3C332" transform="translate(0,0)"/>
<path d="" fill="#E1C232" transform="translate(0,0)"/>
<path d="" fill="#E9C833" transform="translate(0,0)"/>
<path d="" fill="#E2C336" transform="translate(0,0)"/>
<path d="" fill="#E7C635" transform="translate(0,0)"/>
<path d="" fill="#EFCE28" transform="translate(0,0)"/>
<path d="" fill="#EAC935" transform="translate(0,0)"/>
<path d="" fill="#EAC938" transform="translate(0,0)"/>
<path d="" fill="#E5C634" transform="translate(0,0)"/>
<path d="" fill="#EFCB36" transform="translate(0,0)"/>
<path d="" fill="#E5C737" transform="translate(0,0)"/>
<path d="" fill="#EECD31" transform="translate(0,0)"/>
<path d="" fill="#E3C12A" transform="translate(0,0)"/>
<path d="" fill="#E1BE35" transform="translate(0,0)"/>
<path d="" fill="#EFCD32" transform="translate(0,0)"/>
<path d="" fill="#ECCC33" transform="translate(0,0)"/>
<path d="" fill="#F0CF3A" transform="translate(0,0)"/>
<path d="" fill="#E3C034" transform="translate(0,0)"/>
<path d="" fill="#E2C33A" transform="translate(0,0)"/>
<path d="" fill="#D6B72E" transform="translate(0,0)"/>
<path d="" fill="#F1CF34" transform="translate(0,0)"/>
<path d="" fill="#F8D435" transform="translate(0,0)"/>
<path d="" fill="#EFCB33" transform="translate(0,0)"/>
<path d="" fill="#E0C237" transform="translate(0,0)"/>
<path d="" fill="#E3C336" transform="translate(0,0)"/>
<path d="" fill="#3F3509" transform="translate(0,0)"/>
<path d="" fill="#3A3006" transform="translate(0,0)"/>
<path d="" fill="#F5D236" transform="translate(0,0)"/>
<path d="" fill="#EAC839" transform="translate(0,0)"/>
<path d="" fill="#F8D333" transform="translate(0,0)"/>
<path d="" fill="#F9D633" transform="translate(0,0)"/>
<path d="" fill="#F7D134" transform="translate(0,0)"/>
<path d="" fill="#F2D332" transform="translate(0,0)"/>
<path d="" fill="#FAD738" transform="translate(0,0)"/>
<path d="" fill="#FAD939" transform="translate(0,0)"/>
<path d="" fill="#F8D739" transform="translate(0,0)"/>
<path d="" fill="#F8D83E" transform="translate(0,0)"/>
<path d="" fill="#F8D739" transform="translate(0,0)"/>
<path d="" fill="#F8D73B" transform="translate(0,0)"/>
<path d="" fill="#F8D538" transform="translate(0,0)"/>
<path d="" fill="#F7D43A" transform="translate(0,0)"/>
<path d="" fill="#F2D738" transform="translate(0,0)"/>
<path d="" fill="#F8D62F" transform="translate(0,0)"/>
<path d="" fill="#433708" transform="translate(0,0)"/>
<path d="" fill="#F5D339" transform="translate(0,0)"/>
<path d="" fill="#F7D43A" transform="translate(0,0)"/>
<path d="" fill="#312803" transform="translate(0,0)"/>
<path d="" fill="#EECA32" transform="translate(0,0)"/>
<path d="" fill="#F8D639" transform="translate(0,0)"/>
<path d="" fill="#ECCC3C" transform="translate(0,0)"/>
<path d="" fill="#F7D334" transform="translate(0,0)"/>
<path d="" fill="#F1CC33" transform="translate(0,0)"/>
<path d="" fill="#2E2703" transform="translate(0,0)"/>
<path d="" fill="#F5D23B" transform="translate(0,0)"/>
<path d="" fill="#F0CE3A" transform="translate(0,0)"/>
<path d="" fill="#EECE3D" transform="translate(0,0)"/>
<path d="" fill="#F2D03B" transform="translate(0,0)"/>
<path d="" fill="#F4D13A" transform="translate(0,0)"/>
<path d="" fill="#F2D23B" transform="translate(0,0)"/>
<path d="" fill="#F8D434" transform="translate(0,0)"/>
<path d="" fill="#493D0A" transform="translate(0,0)"/>
<path d="" fill="#352C03" transform="translate(0,0)"/>
<path d="" fill="#F6D237" transform="translate(0,0)"/>
<path d="" fill="#332C04" transform="translate(0,0)"/>
<path d="" fill="#F6D538" transform="translate(0,0)"/>
<path d="" fill="#FAD73C" transform="translate(0,0)"/>
<path d="" fill="#F5D53C" transform="translate(0,0)"/>
<path d="" fill="#362D05" transform="translate(0,0)"/>
<path d="" fill="#4C410B" transform="translate(0,0)"/>
<path d="" fill="#4A3E08" transform="translate(0,0)"/>
<path d="" fill="#EDCC33" transform="translate(0,0)"/>
<path d="" fill="#F2D036" transform="translate(0,0)"/>
<path d="" fill="#ECCE37" transform="translate(0,0)"/>
<path d="" fill="#EACA37" transform="translate(0,0)"/>
<path d="" fill="#312904" transform="translate(0,0)"/>
<path d="" fill="#F7D437" transform="translate(0,0)"/>
<path d="" fill="#EFCE37" transform="translate(0,0)"/>
<path d="" fill="#FAD738" transform="translate(0,0)"/>
<path d="" fill="#2B2503" transform="translate(0,0)"/>
<path d="" fill="#FBD639" transform="translate(0,0)"/>
<path d="" fill="#FAD638" transform="translate(0,0)"/>
<path d="" fill="#EAC831" transform="translate(0,0)"/>
<path d="" fill="#F9D539" transform="translate(0,0)"/>
<path d="" fill="#E9C934" transform="translate(0,0)"/>
<path d="" fill="#EDCA39" transform="translate(0,0)"/>
<path d="" fill="#F7D737" transform="translate(0,0)"/>
<path d="" fill="#EBCB35" transform="translate(0,0)"/>
<path d="" fill="#E9C73B" transform="translate(0,0)"/>
<path d="" fill="#F9D33A" transform="translate(0,0)"/>
<path d="" fill="#F9D73D" transform="translate(0,0)"/>
<path d="" fill="#FCD838" transform="translate(0,0)"/>
<path d="" fill="#362C05" transform="translate(0,0)"/>
<path d="" fill="#2C2603" transform="translate(0,0)"/>
<path d="" fill="#F1D13B" transform="translate(0,0)"/>
<path d="" fill="#342E05" transform="translate(0,0)"/>
<path d="" fill="#605212" transform="translate(0,0)"/>
<path d="" fill="#453808" transform="translate(0,0)"/>
<path d="" fill="#3A3107" transform="translate(0,0)"/>
<path d="" fill="#362E04" transform="translate(0,0)"/>
<path d="" fill="#F3D237" transform="translate(0,0)"/>
<path d="" fill="#786617" transform="translate(0,0)"/>
<path d="" fill="#372F05" transform="translate(0,0)"/>
<path d="" fill="#3E3508" transform="translate(0,0)"/>
<path d="" fill="#282203" transform="translate(0,0)"/>
<path d="" fill="#EECD37" transform="translate(0,0)"/>
<path d="" fill="#ECCB34" transform="translate(0,0)"/>
<path d="" fill="#E2C633" transform="translate(0,0)"/>
<path d="" fill="#352F04" transform="translate(0,0)"/>
<path d="" fill="#2E2703" transform="translate(0,0)"/>
<path d="" fill="#EBCB3D" transform="translate(0,0)"/>
<path d="" fill="#EBC834" transform="translate(0,0)"/>
<path d="" fill="#EAC836" transform="translate(0,0)"/>
<path d="" fill="#E8C632" transform="translate(0,0)"/>
<path d="" fill="#E2C134" transform="translate(0,0)"/>
<path d="" fill="#E9C73C" transform="translate(0,0)"/>
<path d="" fill="#EDC833" transform="translate(0,0)"/>
<path d="" fill="#EDC839" transform="translate(0,0)"/>
<path d="" fill="#2C2602" transform="translate(0,0)"/>
<path d="" fill="#251F02" transform="translate(0,0)"/>
<path d="" fill="#2A2201" transform="translate(0,0)"/>
<path d="" fill="#241F01" transform="translate(0,0)"/>
<path d="" fill="#231D01" transform="translate(0,0)"/>
<path d="" fill="#221D02" transform="translate(0,0)"/>
<path d="" fill="#2F2602" transform="translate(0,0)"/>
<path d="" fill="#241E00" transform="translate(0,0)"/>
<path d="" fill="#292203" transform="translate(0,0)"/>
<path d="" fill="#2C2503" transform="translate(0,0)"/>
<path d="" fill="#282302" transform="translate(0,0)"/>
<path d="" fill="#231E02" transform="translate(0,0)"/>
<path d="" fill="#2D2602" transform="translate(0,0)"/>
<path d="" fill="#241F02" transform="translate(0,0)"/>
<path d="" fill="#342B04" transform="translate(0,0)"/>
<path d="" fill="#211D02" transform="translate(0,0)"/>
<path d="" fill="#241F03" transform="translate(0,0)"/>
<path d="" fill="#282303" transform="translate(0,0)"/>
<path d="" fill="#221D02" transform="translate(0,0)"/>
<path d="" fill="#221E02" transform="translate(0,0)"/>
<path d="" fill="#241F03" transform="translate(0,0)"/>
<path d="" fill="#251F02" transform="translate(0,0)"/>
<path d="" fill="#251F01" transform="translate(0,0)"/>
<path d="" fill="#292202" transform="translate(0,0)"/>
<path d="" fill="#2F2804" transform="translate(0,0)"/>
<path d="" fill="#322803" transform="translate(0,0)"/>
<path d="" fill="#2D2403" transform="translate(0,0)"/>
<path d="" fill="#282102" transform="translate(0,0)"/>
<path d="" fill="#261F01" transform="translate(0,0)"/>
<path d="" fill="#251E01" transform="translate(0,0)"/>
<path d="" fill="#282301" transform="translate(0,0)"/>
<path d="" fill="#2F2803" transform="translate(0,0)"/>
<path d="" fill="#2E2703" transform="translate(0,0)"/>
<path d="" fill="#252001" transform="translate(0,0)"/>
<path d="" fill="#231D03" transform="translate(0,0)"/>
<path d="" fill="#272102" transform="translate(0,0)"/>
<path d="" fill="#241E02" transform="translate(0,0)"/>
<path d="" fill="#241E02" transform="translate(0,0)"/>
<path d="" fill="#2A2302" transform="translate(0,0)"/>
<path d="" fill="#231D03" transform="translate(0,0)"/>
<path d="" fill="#292201" transform="translate(0,0)"/>
<path d="" fill="#292203" transform="translate(0,0)"/>
<path d="" fill="#282002" transform="translate(0,0)"/>
<path d="" fill="#292202" transform="translate(0,0)"/>
<path d="" fill="#241F03" transform="translate(0,0)"/>
<path d="" fill="#252104" transform="translate(0,0)"/>
<path d="" fill="#282102" transform="translate(0,0)"/>
<path d="" fill="#242003" transform="translate(0,0)"/>
<path d="" fill="#262001" transform="translate(0,0)"/>
<path d="" fill="#272201" transform="translate(0,0)"/>
<path d="" fill="#2A2302" transform="translate(0,0)"/>
<path d="" fill="#292301" transform="translate(0,0)"/>
<path d="" fill="#272002" transform="translate(0,0)"/>
<path d="" fill="#251F02" transform="translate(0,0)"/>
<path d="" fill="#231F01" transform="translate(0,0)"/>
<path d="" fill="#241F03" transform="translate(0,0)"/>
<path d="" fill="#242003" transform="translate(0,0)"/>
<path d="" fill="#231D03" transform="translate(0,0)"/>
<path d="" fill="#292303" transform="translate(0,0)"/>
<path d="" fill="#282102" transform="translate(0,0)"/>
<path d="" fill="#241F02" transform="translate(0,0)"/>
<path d="" fill="#241E02" transform="translate(0,0)"/>
</svg>
