<?xml version="1.0" encoding="UTF-8"?>
<svg version="1.1" xmlns="http://www.w3.org/2000/svg" width="1024" height="1024">
<path d="M0 0 C337.92 0 675.84 0 1024 0 C1024 337.92 1024 675.84 1024 1024 C686.08 1024 348.16 1024 0 1024 C0 686.08 0 348.16 0 0 Z " fill="#F9DA2B" transform="translate(0,0)"/>
<path d="M0 0 C0.60634277 0.34788574 1.21268555 0.69577148 1.83740234 1.05419922 C10.92721823 6.35194467 18.48419951 12.67575665 26 20 C26.64324219 20.56976563 27.28648437 21.13953125 27.94921875 21.7265625 C35.64964933 28.72695393 41.56924675 38.66376994 46 48 C38.48073309 53.58543246 30.93022354 59.10226445 23.1875 64.375 C16.55266804 68.89366891 10.03468415 73.55782615 3.5402832 78.27563477 C-2.90534512 82.95137718 -9.42673686 87.50556036 -16 92 C-19.00945394 89.19291714 -21.09950229 86.41170724 -23.1875 82.875 C-29.1639894 73.35076476 -35.76785241 65.90162759 -46 61 C-46.79921875 60.5875 -47.5984375 60.175 -48.421875 59.75 C-55.65800116 56.66715335 -62.84714224 56.58502869 -70.625 56.5 C-71.685979 56.48146973 -72.74695801 56.46293945 -73.84008789 56.44384766 C-84.59891506 56.52926841 -94.69426227 60.17595057 -102.6875 67.55859375 C-110.52699265 76.04484455 -112.45390888 85.90959312 -112.3359375 97.1640625 C-111.39535769 107.90417144 -107.1786015 116.96952107 -99 124 C-84.09525972 135.73519094 -64.59318492 142.06662929 -47.12225342 148.97845459 C-35.26259674 153.67048721 -23.47987836 158.42564761 -12 164 C-11.14841309 164.41282227 -10.29682617 164.82564453 -9.41943359 165.25097656 C7.28563453 173.44728927 22.59564794 182.98989359 36 196 C36.82757812 196.75410156 37.65515625 197.50820313 38.5078125 198.28515625 C55.06063288 213.85088183 65.87964996 237.25996268 67.10714722 259.98352051 C67.16377248 262.14571567 67.19083644 264.30584687 67.203125 266.46875 C67.20882507 267.26671997 67.21452515 268.06468994 67.22039795 268.88684082 C67.22979973 270.57103166 67.23636262 272.25524049 67.24023438 273.93945312 C67.24986723 276.46518827 67.28090604 278.99008273 67.3125 281.515625 C67.40514663 295.31946454 65.91781717 308.06753201 60.1875 320.8125 C59.83494141 321.61872803 59.48238281 322.42495605 59.11914062 323.25561523 C55.04260766 332.40839355 50.1290253 340.15042101 43.734375 347.87109375 C41.87431398 350.08509306 41.87431398 350.08509306 40 353 C39.34 353 38.68 353 38 353 C37.76796875 353.57363281 37.5359375 354.14726563 37.296875 354.73828125 C27.64805747 371.56558653 -1.17437792 381.84276449 -18.765625 386.90625 C-26.73620325 389.05011351 -34.87695261 390.55940778 -43 392 C-43.88840576 392.17724609 -44.77681152 392.35449219 -45.69213867 392.53710938 C-49.91833831 393.12850907 -54.06169386 393.18181301 -58.32421875 393.203125 C-59.2250972 393.20882507 -60.12597565 393.21452515 -61.05415344 393.22039795 C-62.96292967 393.22982314 -64.87172199 393.23637205 -66.78051758 393.24023438 C-69.63328609 393.24981788 -72.48529468 393.28081274 -75.33789062 393.3125 C-117.67550307 393.55759555 -159.02916511 378.3541988 -189.66479492 348.75439453 C-197.15924606 341.32203152 -203.96929225 333.66984429 -210 325 C-210.72316406 323.96359375 -211.44632813 322.9271875 -212.19140625 321.859375 C-215.83899475 316.4058376 -215.83899475 316.4058376 -217 314 C-215.77774547 310.3332364 -214.94990743 310.12253493 -211.64453125 308.3203125 C-210.72325439 307.81040771 -209.80197754 307.30050293 -208.8527832 306.77514648 C-207.34784302 305.95832397 -207.34784302 305.95832397 -205.8125 305.125 C-203.69689838 303.9536602 -201.58233969 302.78043503 -199.46875 301.60546875 C-197.84839844 300.70707275 -197.84839844 300.70707275 -196.1953125 299.79052734 C-191.35727305 297.07948048 -186.58109316 294.26846352 -181.8125 291.4375 C-180.91990479 290.90890381 -180.02730957 290.38030762 -179.10766602 289.83569336 C-174.47344232 287.08468664 -169.85413172 284.31026771 -165.24609375 281.515625 C-164.32272217 280.95689697 -163.39935059 280.39816895 -162.44799805 279.82250977 C-160.68521299 278.75424702 -158.92484345 277.68198534 -157.16723633 276.60522461 C-155.99390747 275.89378296 -155.99390747 275.89378296 -154.796875 275.16796875 C-154.10948242 274.74797607 -153.42208984 274.3279834 -152.71386719 273.89526367 C-151 273 -151 273 -149 273 C-147.6953125 274.6953125 -147.6953125 274.6953125 -146.125 277.125 C-131.96396339 297.85134048 -113.88052388 312.66573942 -88.82543945 317.56787109 C-68.48366861 320.67898614 -46.55876461 318.10574327 -29 307 C-21.89352216 301.50253601 -18.10079004 294.70710426 -16 286 C-14.99568215 276.93143881 -14.95713976 267.86485819 -20 260 C-20.32742188 259.40316406 -20.65484375 258.80632812 -20.9921875 258.19140625 C-33.45648352 237.76633723 -70.52216425 228.04194284 -91.875 219.6875 C-100.53164435 216.28802304 -108.79410051 212.37019168 -117 208 C-117.72960937 207.61585938 -118.45921875 207.23171875 -119.2109375 206.8359375 C-134.80760109 198.58514277 -148.29065413 189.2336967 -161 177 C-161.65484375 176.40832031 -162.3096875 175.81664062 -162.984375 175.20703125 C-181.40296115 158.09802347 -191.04008364 130.43867439 -192.14404297 105.78295898 C-192.94663588 75.79384608 -189.37046836 46.04835129 -168 23.125 C-166.46722682 21.53124679 -164.92130469 19.9528566 -163.36181641 18.38525391 C-162.20364719 17.20715206 -161.0871707 15.98829557 -159.98046875 14.76171875 C-141.15217059 -5.70738971 -110.43556595 -15.1013258 -83.4609375 -16.875 C-53.73977985 -17.94845039 -26.22585088 -15.21764371 0 0 Z " fill="#101010" transform="translate(735,328)"/>
<path d="M0 0 C26.73 0 53.46 0 81 0 C81.06624309 38.0051901 81.1215944 76.01032538 81.15319599 114.01555677 C81.15694772 118.51118508 81.16083073 123.00681327 81.16479492 127.50244141 C81.16558185 128.39737024 81.16636878 129.29229908 81.16717956 130.21434698 C81.1802029 144.66970777 81.20383966 159.12503245 81.23145839 173.58037189 C81.25959835 188.4333492 81.27619434 203.28630772 81.28226548 218.1393106 C81.28636418 227.2907177 81.29926871 236.44202271 81.3237494 245.59339836 C81.33971288 251.88463657 81.34437659 258.17582266 81.34050413 264.46707961 C81.33859893 268.08675341 81.34133899 271.70624992 81.35761642 275.32589149 C81.47425675 302.6348749 79.37990278 326.78936985 66 351 C65.45472656 351.99 64.90945313 352.98 64.34765625 354 C53.79219994 371.75587761 37.46460788 384.82293282 18.80419922 393.18994141 C17.11919219 393.94648448 15.45502158 394.7489664 13.79296875 395.5546875 C8.67388288 397.72236452 3.18324687 398.57840548 -2.25 399.625 C-3.31863281 399.8415625 -4.38726562 400.058125 -5.48828125 400.28125 C-45.30084243 408.11798744 -91.01349587 403.01165566 -125.20605469 380.12841797 C-131.71704191 375.66314507 -137.44102615 370.58970764 -143 365 C-143.70334473 364.30052246 -143.70334473 364.30052246 -144.42089844 363.58691406 C-152.14329881 355.82187794 -158.24295105 347.2930225 -164 338 C-164.58394531 337.071875 -165.16789063 336.14375 -165.76953125 335.1875 C-169.03383034 329.72002385 -169.03383034 329.72002385 -168.91040039 327.09301758 C-167.50010761 323.8507435 -165.21019788 323.20328882 -162.078125 321.6796875 C-161.47044281 321.37943161 -160.86276062 321.07917572 -160.23666382 320.76982117 C-158.24746382 319.7912359 -156.24914252 318.83308713 -154.25 317.875 C-152.87362392 317.20289179 -151.4978125 316.52962602 -150.12255859 315.85522461 C-146.0910034 313.88395524 -142.04735024 311.93859013 -138 310 C-136.93749023 309.49001465 -135.87498047 308.9800293 -134.78027344 308.45458984 C-130.41355125 306.36297283 -126.03993641 304.28676601 -121.66015625 302.22265625 C-116.43847542 299.7511691 -111.27816216 297.1602381 -106.14501953 294.51000977 C-102.50689685 292.65536777 -98.90537405 291.19248062 -95 290 C-94.38253906 291.09957031 -93.76507813 292.19914062 -93.12890625 293.33203125 C-84.066216 309.24537257 -74.64829693 324.07974179 -56.14379883 329.54858398 C-51.94615059 330.43247552 -47.64877437 330.22729735 -43.375 330.25 C-42.42753906 330.270625 -41.48007812 330.29125 -40.50390625 330.3125 C-29.03631477 330.37525016 -19.71000095 327.23178262 -11.24609375 319.37109375 C-1.76356912 309.12806589 -0.69846171 295.93497196 -0.7215271 282.59811401 C-0.7128385 280.77832572 -0.7128385 280.77832572 -0.70397437 278.92177403 C-0.68998512 275.5808414 -0.68474981 272.24010906 -0.68332577 268.89916182 C-0.67961239 265.28646454 -0.66444738 261.67381251 -0.65071106 258.06114197 C-0.62849499 251.81073359 -0.61344781 245.56034143 -0.60334396 239.30990219 C-0.58872524 230.27295072 -0.56317954 221.23605578 -0.53501268 212.19913758 C-0.48960259 197.53544266 -0.45296393 182.87173958 -0.421875 168.20800781 C-0.39166573 153.96808439 -0.35730457 139.7281809 -0.31738281 125.48828125 C-0.31492126 124.60974479 -0.31245972 123.73120833 -0.30992357 122.82604955 C-0.29754851 118.41845468 -0.28509207 114.01086005 -0.27259517 109.60326552 C-0.16911399 73.06886729 -0.08150427 36.53445517 0 0 Z " fill="#101010" transform="translate(394,316)"/>
<path d="M0 0 C0.33 0 0.66 0 1 0 C1 93.06 1 186.12 1 282 C0.67 282 0.34 282 0 282 C0 201.48 0 120.96 0 38 C-0.66 38 -1.32 38 -2 38 C-1.34 25.46 -0.68 12.92 0 0 Z " fill="#F9DD0D" transform="translate(392,315)"/>
<path d="M0 0 C0.79607666 0.07831055 1.59215332 0.15662109 2.41235352 0.23730469 C6.06882068 0.65628742 8.20028151 1.05018767 11.3125 3.125 C8.11347325 5.00970109 5.77764135 5.36997641 2.08496094 5.35205078 C1.04418396 5.35189972 0.00340698 5.35174866 -1.06890869 5.35159302 C-2.74409576 5.33610916 -2.74409576 5.33610916 -4.453125 5.3203125 C-5.60165955 5.3174826 -6.75019409 5.31465271 -7.93353271 5.31173706 C-11.60162781 5.30054263 -15.2694787 5.27543904 -18.9375 5.25 C-21.42447564 5.23996926 -23.91145511 5.23084358 -26.3984375 5.22265625 C-32.49487498 5.20060568 -38.59117004 5.16713525 -44.6875 5.125 C-44.3575 4.465 -44.0275 3.805 -43.6875 3.125 C-30.8175 2.795 -17.9475 2.465 -4.6875 2.125 C-20.5275 2.125 -36.3675 2.125 -52.6875 2.125 C-52.6875 1.795 -52.6875 1.465 -52.6875 1.125 C-35.06398066 -1.01581797 -17.69660071 -1.76539994 0 0 Z " fill="#181003" transform="translate(687.6875,311.875)"/>
<path d="M0 0 C0.66 0 1.32 0 2 0 C2.495 1.485 2.495 1.485 3 3 C-4.5 5.5 -4.5 5.5 -12 8 C-11.01 8.66 -10.02 9.32 -9 10 C-10.65 10.33 -12.3 10.66 -14 11 C-14 11.66 -14 12.32 -14 13 C-16.64 12.67 -19.28 12.34 -22 12 C-21.01 12.66 -20.02 13.32 -19 14 C-19.77085937 13.98839844 -20.54171875 13.97679687 -21.3359375 13.96484375 C-22.33882812 13.95582031 -23.34171875 13.94679688 -24.375 13.9375 C-25.87160156 13.92009766 -25.87160156 13.92009766 -27.3984375 13.90234375 C-29.98432453 13.81993398 -29.98432453 13.81993398 -32 15 C-34.69565202 14.83219837 -37.32405554 14.38844355 -40 14 C-40 13.67 -40 13.34 -40 13 C-37.36 13 -34.72 13 -32 13 C-32 12.34 -32 11.68 -32 11 C-31.34 11 -30.68 11 -30 11 C-30 10.34 -30 9.68 -30 9 C-21.18512862 6.13714703 -12.4549032 3.49355012 -3.37890625 1.578125 C-1.05948097 1.23285627 -1.05948097 1.23285627 0 0 Z " fill="#FCDC18" transform="translate(742,706)"/>
<path d="M0 0 C0.66 0.33 1.32 0.66 2 1 C0.02 3.31 -1.96 5.62 -4 8 C-3.34 8.33 -2.68 8.66 -2 9 C-2.66 9 -3.32 9 -4 9 C-4.12375 10.134375 -4.2475 11.26875 -4.375 12.4375 C-4.58125 13.613125 -4.7875 14.78875 -5 16 C-5.66 16.33 -6.32 16.66 -7 17 C-7.33 17.99 -7.66 18.98 -8 20 C-9.32 20 -10.64 20 -12 20 C-11.91899023 23.41762784 -11.80615997 26.83348848 -11.6875 30.25 C-11.66494141 31.21808594 -11.64238281 32.18617188 -11.61914062 33.18359375 C-11.58369141 34.11816406 -11.54824219 35.05273438 -11.51171875 36.015625 C-11.48553467 36.87446289 -11.45935059 37.73330078 -11.43237305 38.61816406 C-10.92055216 41.43765845 -9.73711967 42.76894457 -8 45 C-8.3125 47.75 -8.3125 47.75 -9 50 C-14.79080187 41.3137972 -15.29387051 31.29181287 -13.49609375 21.16015625 C-11.13800872 12.41502948 -6.55731439 6.09982734 0 0 Z " fill="#D0DB45" transform="translate(636,391)"/>
<path d="M0 0 C0.495 0.99 0.495 0.99 1 2 C-1.29727903 6.85962871 -2.98130621 9.68367979 -8 12 C-8.99 12.33 -9.98 12.66 -11 13 C-11 13.66 -11 14.32 -11 15 C-12.11375 15.226875 -13.2275 15.45375 -14.375 15.6875 C-18.16038373 16.60623658 -18.16038373 16.60623658 -19.4375 19.625 C-19.623125 20.40875 -19.80875 21.1925 -20 22 C-21.32 21.67 -22.64 21.34 -24 21 C-24.33 21.99 -24.66 22.98 -25 24 C-27.97 24 -30.94 24 -34 24 C-30.89326274 20.49166012 -27.88053544 18.84129217 -23.625 16.9375 C-14.81349636 12.80285331 -6.883852 6.883852 0 0 Z " fill="#E4E422" transform="translate(443,688)"/>
<path d="M0 0 C2.61091803 -0.00221327 5.22143027 -0.02050602 7.83227539 -0.03930664 C9.50089375 -0.04223659 11.1695141 -0.04422405 12.83813477 -0.04516602 C14.00221107 -0.05594429 14.00221107 -0.05594429 15.18980408 -0.06694031 C19.10715244 -0.05031613 21.74939671 0.28480707 25.15454102 2.18530273 C23.27134155 2.22288696 23.27134155 2.22288696 21.35009766 2.26123047 C16.65908906 2.35593149 11.96820709 2.45599504 7.27734375 2.55761719 C5.2532855 2.60073035 3.22919639 2.6424203 1.20507812 2.68261719 C-1.71680982 2.74089666 -4.63854574 2.80441989 -7.56030273 2.86889648 C-8.45442368 2.88560898 -9.34854462 2.90232147 -10.26976013 2.91954041 C-15.85126254 3.04895528 -21.3045054 3.49544542 -26.84545898 4.18530273 C-27.17545898 3.19530273 -27.50545898 2.20530273 -27.84545898 1.18530273 C-18.57451394 0.04367722 -9.32508691 -0.00088717 0 0 Z " fill="#0B0E22" transform="translate(661.845458984375,312.814697265625)"/>
<path d="M0 0 C1.41655793 -0.0272415 2.83327045 -0.04650467 4.25 -0.0625 C5.43335938 -0.07990234 5.43335938 -0.07990234 6.640625 -0.09765625 C9 0 9 0 10.80102539 0.47119141 C21.82621094 3.12252391 34.03450163 2.1203247 45.3125 2.0625 C47.03580598 2.05747105 48.75911339 2.05291063 50.48242188 2.04882812 C54.65498409 2.037942 58.82747568 2.02075565 63 2 C63 2.33 63 2.66 63 3 C61.906875 3.12375 60.81375 3.2475 59.6875 3.375 C55.92618198 3.75464801 55.92618198 3.75464801 53 6 C50.96069336 6.18286133 50.96069336 6.18286133 48.58984375 6.08203125 C47.69434814 6.04601807 46.79885254 6.01000488 45.8762207 5.97290039 C44.42155396 5.8935022 44.42155396 5.8935022 42.9375 5.8125 C41.43352661 5.73793579 41.43352661 5.73793579 39.89916992 5.66186523 C31.84365103 5.2112025 23.82998708 4.45696411 15.8125 3.5625 C14.69673584 3.44044189 13.58097168 3.31838379 12.43139648 3.19262695 C11.38798096 3.06847412 10.34456543 2.94432129 9.26953125 2.81640625 C8.34760986 2.70756104 7.42568848 2.59871582 6.47583008 2.48657227 C4.00667645 2.00131212 2.17833242 1.23734884 0 0 Z " fill="#FAE00F" transform="translate(314,717)"/>
<path d="M0 0 C0 3.10551666 -0.5393715 4.35261084 -2 7 C-2.99 7 -3.98 7 -5 7 C-5.66 8.98 -6.32 10.96 -7 13 C-7.66 13 -8.32 13 -9 13 C-9 13.99 -9 14.98 -9 16 C-9.99 15.67 -10.98 15.34 -12 15 C-12 14.34 -12 13.68 -12 13 C-13.32 13 -14.64 13 -16 13 C-15.67 14.32 -15.34 15.64 -15 17 C-15.66 17 -16.32 17 -17 17 C-17 16.34 -17 15.68 -17 15 C-17.99 14.67 -18.98 14.34 -20 14 C-17.60614464 12.22643924 -15.2100227 10.45609117 -12.8125 8.6875 C-12.13896484 8.18798828 -11.46542969 7.68847656 -10.77148438 7.17382812 C-7.2714087 4.5957236 -3.78489941 2.15335054 0 0 Z " fill="#E6DF26" transform="translate(769,384)"/>
<path d="M0 0 C1.24688545 3.87919918 0.5586489 6.21232353 -0.625 10 C-1.0598433 12.31916425 -0.58291013 13.74122323 0 16 C-1.26278132 19.78834395 -2.52112952 20.22011278 -6 22 C-8.3125 22.6875 -8.3125 22.6875 -10 23 C-9.67 23.99 -9.34 24.98 -9 26 C-10.98 26.66 -12.96 27.32 -15 28 C-14.57589844 27.36835937 -14.15179688 26.73671875 -13.71484375 26.0859375 C-8.38873755 17.96216233 -3.08731351 9.26194052 0 0 Z " fill="#ECE021" transform="translate(466,652)"/>
<path d="M0 0 C-0.33 1.98 -0.66 3.96 -1 6 C-1.66 5.67 -2.32 5.34 -3 5 C-3 4.01 -3 3.02 -3 2 C-3.66 2.33 -4.32 2.66 -5 3 C-7.14536328 3.09781011 -9.29381545 3.13077535 -11.44140625 3.1328125 C-12.74787109 3.13410156 -14.05433594 3.13539063 -15.40039062 3.13671875 C-16.08464111 3.13462402 -16.7688916 3.1325293 -17.47387695 3.13037109 C-19.530188 3.12508309 -21.58627444 3.13028584 -23.64257812 3.13671875 C-30.51289489 3.12998645 -37.19301749 2.94771248 -44 2 C-44 1.67 -44 1.34 -44 1 C-39.50177694 0.85535518 -35.00348743 0.71304435 -30.50512695 0.57275391 C-28.97971682 0.52486892 -27.45432542 0.47638244 -25.92895508 0.42724609 C-17.28347284 0.14918332 -8.65141004 -0.08439257 0 0 Z " fill="#FBDC0F" transform="translate(691,722)"/>
<path d="M0 0 C4.25815836 0.49513469 8.2833587 1.31425002 12.4375 2.375 C30.63637578 6.62279252 49.38027303 7.54847661 68 8 C68 8.33 68 8.66 68 9 C33.74350973 9.24931943 33.74350973 9.24931943 27.1015625 7.5 C24.1667242 6.80174851 21.25691011 6.64798371 18.25 6.4375 C17.07953125 6.35371094 15.9090625 6.26992188 14.703125 6.18359375 C13.81109375 6.12300781 12.9190625 6.06242188 12 6 C12 5.34 12 4.68 12 4 C11.30132812 3.87882813 10.60265625 3.75765625 9.8828125 3.6328125 C8.97273438 3.46523438 8.06265625 3.29765625 7.125 3.125 C5.76761719 2.88136719 5.76761719 2.88136719 4.3828125 2.6328125 C2 2 2 2 0 0 Z " fill="#E4F153" transform="translate(298,711)"/>
<path d="M0 0 C0.66 0 1.32 0 2 0 C2.65035371 2.51974253 3.29537493 5.04065935 3.9375 7.5625 C4.11990234 8.26697266 4.30230469 8.97144531 4.49023438 9.69726562 C6.28958492 16.79652142 7.36659059 23.66818812 7 31 C6.01 32.485 6.01 32.485 5 34 C3.82831085 29.48062758 2.86230757 25.25264839 3 20.5625 C3 19.386875 3 18.21125 3 17 C2.34 16.34 1.68 15.68 1 15 C0.96709953 13.05887211 0.94287591 11.1164584 0.99609375 9.17578125 C1.00172082 6.04150565 0.51470402 3.08822412 0 0 Z " fill="#152015" transform="translate(795,563)"/>
<path d="M0 0 C0.33 0 0.66 0 1 0 C1 1.98 1 3.96 1 6 C0.01 5.67 -0.98 5.34 -2 5 C-2.33 6.65 -2.66 8.3 -3 10 C-3.66 9.34 -4.32 8.68 -5 8 C-5 9.32 -5 10.64 -5 12 C-6.6454378 13.68762851 -8.31288577 15.3540349 -10 17 C-10.86119134 19.17346568 -10.86119134 19.17346568 -11 21 C-13.31 21.33 -15.62 21.66 -18 22 C-18 20.68 -18 19.36 -18 18 C-13.88888889 14 -13.88888889 14 -10 14 C-8.87459758 11.82958104 -7.9168178 9.75639499 -7.125 7.4375 C-5.83253227 4.63715325 -4.62927118 3.56112976 -2 2 C-1.34 2 -0.68 2 0 2 C0 1.34 0 0.68 0 0 Z " fill="#FBDB1B" transform="translate(450,683)"/>
<path d="M0 0 C2.46983257 2.29975428 4.26010213 4.75614403 6.125 7.5625 C9.37609099 12.28382959 12.98499718 16.48298987 16.88671875 20.67578125 C19.03576971 23.03934007 21.02939429 25.48669927 23 28 C19.3501677 26.47854371 17.14171371 24.28813476 14.4375 21.4375 C11.21673663 17.95762374 11.21673663 17.95762374 7 16 C7.33 15.34 7.66 14.68 8 14 C7.01 14.33 6.02 14.66 5 15 C4.01 14.67 3.02 14.34 2 14 C0.9551242 9.37269289 0.48243721 4.71146122 0 0 Z " fill="#F7E33A" transform="translate(556,482)"/>
<path d="M0 0 C1.72766602 0.02030273 1.72766602 0.02030273 3.49023438 0.04101562 C6.30648972 0.07607275 9.12173765 0.12521144 11.9375 0.1875 C8.51655758 2.46812828 7.25562778 2.40675007 3.25 2.3125 C1.75919922 2.28542969 1.75919922 2.28542969 0.23828125 2.2578125 C-0.52097656 2.23460937 -1.28023437 2.21140625 -2.0625 2.1875 C-2.0625 2.8475 -2.0625 3.5075 -2.0625 4.1875 C-2.7225 4.1875 -3.3825 4.1875 -4.0625 4.1875 C-4.0625 3.5275 -4.0625 2.8675 -4.0625 2.1875 C-4.62066406 2.69023437 -5.17882812 3.19296875 -5.75390625 3.7109375 C-8.59041193 5.52514925 -9.73147012 5.34634309 -13 4.8125 C-16.63484134 4.31317911 -19.48770466 4.1150614 -23.0625 5.1875 C-21.78667416 2.63584831 -20.96229408 2.5246364 -18.31640625 1.57421875 C-12.24857618 -0.3361799 -6.30337916 -0.14185331 0 0 Z " fill="#E9E51D" transform="translate(665.0625,383.8125)"/>
<path d="M0 0 C0.66 0 1.32 0 2 0 C3.04155925 4.3398302 3.31195259 6.36454103 1.3125 10.4375 C0.1678125 11.7059375 0.1678125 11.7059375 -1 13 C-2.32 13 -3.64 13 -5 13 C-5.33 12.01 -5.66 11.02 -6 10 C-7.32 10.99 -8.64 11.98 -10 13 C-10.66 12.67 -11.32 12.34 -12 12 C-8.48417174 7.33716394 -5.96351455 4.27789598 0 3 C0 2.01 0 1.02 0 0 Z " fill="#ECDF24" transform="translate(456,675)"/>
<path d="M0 0 C7.21930632 1.44386126 14.05110733 3.57788174 21 6 C21 6.66 21 7.32 21 8 C16 7 16 7 11 6 C11 6.66 11 7.32 11 8 C12.32 8 13.64 8 15 8 C15 8.66 15 9.32 15 10 C12.36 10.33 9.72 10.66 7 11 C7.875 6.125 7.875 6.125 9 5 C6.03 4.01 3.06 3.02 0 2 C0 1.34 0 0.68 0 0 Z M1 4 C1.99 4 2.98 4 4 4 C4 4.66 4 5.32 4 6 C2.68 5.67 1.36 5.34 0 5 C0.33 4.67 0.66 4.34 1 4 Z " fill="#FCDE1D" transform="translate(289,709)"/>
<path d="M0 0 C1 2 1 2 0.0625 5.1875 C-0.99797835 8.99274584 -1.16019076 12.0753263 -1 16 C-1.66 16 -2.32 16 -3 16 C-4.21345209 29.32630426 -4.10315631 42.62935544 -4 56 C-4.33 56 -4.66 56 -5 56 C-7.95329963 38.77635654 -7.4976746 17.37413998 -1 1 C-0.67 0.67 -0.34 0.34 0 0 Z " fill="#F6D70F" transform="translate(546,384)"/>
<path d="M0 0 C1.2707866 3.59914057 0.71850422 5.99938327 -0.3125 9.625 C-0.57675781 10.58664062 -0.84101562 11.54828125 -1.11328125 12.5390625 C-2 15 -2 15 -4 17 C-3.67 17.33 -3.34 17.66 -3 18 C-2.95936168 19.66617115 -2.957279 21.33388095 -3 23 C-4.65 22.01 -6.3 21.02 -8 20 C-8.66 20.99 -9.32 21.98 -10 23 C-10.66 22.67 -11.32 22.34 -12 22 C-11.55269531 21.33355469 -11.10539063 20.66710937 -10.64453125 19.98046875 C-6.42551314 13.54849018 -2.97626772 7.09092357 0 0 Z " fill="#D8E02F" transform="translate(794,649)"/>
<path d="M0 0 C2.475 0.495 2.475 0.495 5 1 C5 1.66 5 2.32 5 3 C5.63292969 3.23460937 6.26585937 3.46921875 6.91796875 3.7109375 C11.15256897 5.48206307 15.21684496 7.55616083 19.3125 9.625 C20.14845703 10.04523437 20.98441406 10.46546875 21.84570312 10.8984375 C23.898057 11.93047831 25.94944979 12.96438144 28 14 C28 14.66 28 15.32 28 16 C25.54371984 15.04918187 23.13514103 14.06626881 20.76953125 12.90625 C19.97933594 12.5246875 19.18914063 12.143125 18.375 11.75 C17.24191406 11.18539062 17.24191406 11.18539062 16.0859375 10.609375 C15.39757812 10.40828125 14.70921875 10.2071875 14 10 C13.01 10.66 12.02 11.32 11 12 C8 10 8 10 7.3125 7.875 C7.209375 7.25625 7.10625 6.6375 7 6 C6.01 6 5.02 6 4 6 C4 5.34 4 4.68 4 4 C3.34 4 2.68 4 2 4 C1.34 2.68 0.68 1.36 0 0 Z " fill="#FBE01F" transform="translate(599,527)"/>
<path d="M0 0 C2.0625 2 2.0625 2 4 5 C3.91267358 10.50156469 2.76910283 14.18416899 0 19 C-0.33 17.68 -0.66 16.36 -1 15 C-1.66 15 -2.32 15 -3 15 C-3 12.03 -3 9.06 -3 6 C-2.34 6 -1.68 6 -1 6 C-0.67 4.02 -0.34 2.04 0 0 Z " fill="#FBDA1C" transform="translate(477,623)"/>
<path d="M0 0 C0.66 0.33 1.32 0.66 2 1 C1.34 1.66 0.68 2.32 0 3 C-0.12375 3.969375 -0.2475 4.93875 -0.375 5.9375 C-1 9 -1 9 -2.8125 10.9375 C-5 12 -5 12 -7.25 11.6875 C-7.8275 11.460625 -8.405 11.23375 -9 11 C-9.33 11.99 -9.66 12.98 -10 14 C-10.66 12.68 -11.32 11.36 -12 10 C-11.1028125 9.6596875 -11.1028125 9.6596875 -10.1875 9.3125 C-7.81155844 8.123576 -7.81155844 8.123576 -6.5625 5.5625 C-4.7431785 2.57881275 -3.14915799 1.45345753 0 0 Z " fill="#FBDB17" transform="translate(769,687)"/>
<path d="M0 0 C3.73413099 1.68691005 6.2736732 3.95998954 9.21875 6.7578125 C11.18489514 8.38134184 11.18489514 8.38134184 15 8 C15.66 7.34 16.32 6.68 17 6 C17.144375 7.11375 17.28875 8.2275 17.4375 9.375 C17.78372035 12.82142047 17.78372035 12.82142047 19 15 C18.34 15 17.68 15 17 15 C16.67 15.99 16.34 16.98 16 18 C14.26907429 16.1265988 12.54023837 14.25133718 10.8125 12.375 C10.32974609 11.85292969 9.84699219 11.33085937 9.34960938 10.79296875 C6.11982129 7.28138707 3.02821458 3.68700349 0 0 Z " fill="#F3E33F" transform="translate(754,341)"/>
<path d="M0 0 C0.33 0.66 0.66 1.32 1 2 C0.1796875 4.0390625 0.1796875 4.0390625 -1.125 6.625 C-3.75822916 12.15551472 -5.59383516 17.7389451 -7.29931641 23.60400391 C-8.24419089 26.8046386 -9.13107701 29.19661552 -11 32 C-10.855625 30.865625 -10.71125 29.73125 -10.5625 28.5625 C-10.18126239 25.52333824 -9.82963205 22.48267224 -9.5 19.4375 C-9.08142753 15.61055169 -8.56709617 11.80764573 -8 8 C-7.4225 7.979375 -6.845 7.95875 -6.25 7.9375 C-2.61609879 6.4233745 -1.75149584 3.44043825 0 0 Z " fill="#F8E630" transform="translate(555,366)"/>
<path d="M0 0 C0.33 0 0.66 0 1 0 C1.66 4.29 2.32 8.58 3 13 C3.66 12.34 4.32 11.68 5 11 C4.9278125 11.58007812 4.855625 12.16015625 4.78125 12.7578125 C4.35475302 16.3474954 4 19.81732828 4 23.4375 C4 26 4 26 3 28 C2.34 28 1.68 28 1 28 C0.11504503 18.62895894 -0.1170409 9.40228594 0 0 Z " fill="#F9DC19" transform="translate(803,584)"/>
<path d="M0 0 C1.485 0.99 1.485 0.99 3 2 C3.34057617 4.24658203 3.34057617 4.24658203 3.29296875 7.0078125 C3.28330078 7.99394531 3.27363281 8.98007812 3.26367188 9.99609375 C3.23853516 11.02863281 3.21339844 12.06117188 3.1875 13.125 C3.17396484 14.16527344 3.16042969 15.20554687 3.14648438 16.27734375 C3.11105228 18.85207627 3.06165221 21.4257833 3 24 C2.01 23.67 1.02 23.34 0 23 C0 15.41 0 7.82 0 0 Z " fill="#110C02" transform="translate(799,592)"/>
<path d="M0 0 C4.86431309 0.59639088 9.37252424 1.58729412 14.0625 3 C18.37049127 4.29477749 22.54668491 5.34928729 27 6 C27 6.33 27 6.66 27 7 C24.68715544 6.85973717 22.37472409 6.71264442 20.0625 6.5625 C18.13083984 6.44068359 18.13083984 6.44068359 16.16015625 6.31640625 C13 6 13 6 12 5 C10.33382885 4.95936168 8.66611905 4.957279 7 5 C7 5.33 7 5.66 7 6 C5.02 6 3.04 6 1 6 C1 5.34 1 4.68 1 4 C2.32 4 3.64 4 5 4 C5 3.34 5 2.68 5 2 C3.35 2 1.7 2 0 2 C0 1.34 0 0.68 0 0 Z " fill="#FCE012" transform="translate(600,713)"/>
<path d="M0 0 C0.33 0 0.66 0 1 0 C2.57446809 19.34042553 2.57446809 19.34042553 0 29 C-2.20914 25.68629 -2.22481553 24.6553979 -2.125 20.8125 C-2.10695313 19.91144531 -2.08890625 19.01039063 -2.0703125 18.08203125 C-2.04710937 17.39496094 -2.02390625 16.70789063 -2 16 C-1.34 16 -0.68 16 0 16 C0 10.72 0 5.44 0 0 Z " fill="#0D1918" transform="translate(472,608)"/>
<path d="M0 0 C-1.98 0.99 -1.98 0.99 -4 2 C-2.68 2.66 -1.36 3.32 0 4 C-1 5 -1 5 -3.5625 5.0625 C-4.7690625 5.0315625 -4.7690625 5.0315625 -6 5 C-6 5.66 -6 6.32 -6 7 C-11 6 -11 6 -16 5 C-15.67 4.34 -15.34 3.68 -15 3 C-13.02 3 -11.04 3 -9 3 C-9 2.34 -9 1.68 -9 1 C-3.375 -1.125 -3.375 -1.125 0 0 Z " fill="#FCDA13" transform="translate(414,712)"/>
<path d="M0 0 C0.99 0.33 1.98 0.66 3 1 C3 6.94 3 12.88 3 19 C3.33 19 3.66 19 4 19 C3.67 21.31 3.34 23.62 3 26 C0.49917097 22.24875646 -0.12433355 20.63936869 -0.09765625 16.2109375 C-0.09443359 15.26992188 -0.09121094 14.32890625 -0.08789062 13.359375 C-0.07951172 12.37453125 -0.07113281 11.3896875 -0.0625 10.375 C-0.05798828 9.38242187 -0.05347656 8.38984375 -0.04882812 7.3671875 C-0.03702145 4.9113984 -0.020554 2.45572896 0 0 Z " fill="#FBDE0C" transform="translate(624,411)"/>
<path d="M0 0 C-0.66 1.65 -1.32 3.3 -2 5 C-3.32 4.67 -4.64 4.34 -6 4 C-6.33 4.99 -6.66 5.98 -7 7 C-9.97 7 -12.94 7 -16 7 C-12.26910751 2.45804392 -5.88161013 -1.96053671 0 0 Z " fill="#E8E421" transform="translate(425,705)"/>
<path d="M0 0 C0.66 0 1.32 0 2 0 C2 1.32 2 2.64 2 4 C1.34 4 0.68 4 0 4 C0 4.99 0 5.98 0 7 C0.66 7.33 1.32 7.66 2 8 C1.67 9.65 1.34 11.3 1 13 C-0.32 12.67 -1.64 12.34 -3 12 C-2.67 13.32 -2.34 14.64 -2 16 C-3.32 16.99 -4.64 17.98 -6 19 C-5.57424494 16.76856035 -5.13389613 14.53990225 -4.6875 12.3125 C-4.44386719 11.07113281 -4.20023438 9.82976563 -3.94921875 8.55078125 C-3.04649591 5.17392913 -2.0789858 2.79514029 0 0 Z " fill="#FBDE17" transform="translate(798,644)"/>
<path d="M0 0 C4.49898348 3.16447151 7.00038423 6.6458038 9.8125 11.25 C10.21919922 11.8996875 10.62589844 12.549375 11.04492188 13.21875 C12.03791918 14.80754568 13.02008541 16.40310215 14 18 C16.31 17.01 18.62 16.02 21 15 C21 15.66 21 16.32 21 17 C17.97474324 19.40240978 16.5874129 20.05541631 12.6875 19.6875 C11.800625 19.460625 10.91375 19.23375 10 19 C9.835 18.05125 9.67 17.1025 9.5 16.125 C8.1674495 11.26218511 4.91168701 7.89204915 1.6796875 4.13671875 C0 2 0 2 0 0 Z " fill="#E1E757" transform="translate(704,401)"/>
<path d="M0 0 C0.66 0.66 1.32 1.32 2 2 C0.02 2.33 -1.96 2.66 -4 3 C-3.34 3.66 -2.68 4.32 -2 5 C-5 6 -5 6 -8 5 C-8.66 6.32 -9.32 7.64 -10 9 C-10.33 9 -10.66 9 -11 9 C-11 6.69 -11 4.38 -11 2 C-7.18610442 0.20522561 -4.21354337 -0.37453719 0 0 Z " fill="#FBDC16" transform="translate(653,387)"/>
<path d="M0 0 C0.33 0.66 0.66 1.32 1 2 C-0.2065625 3.2684375 -0.2065625 3.2684375 -1.4375 4.5625 C-4.21628662 7.8515158 -4.74117776 10.68629604 -5 15 C-8.1964086 16.06546953 -10.65747276 16.07427838 -14 16 C-13.04882866 14.8274869 -12.08882991 13.66212985 -11.125 12.5 C-10.59132813 11.8503125 -10.05765625 11.200625 -9.5078125 10.53125 C-8.76144531 9.77328125 -8.76144531 9.77328125 -8 9 C-7.34 9 -6.68 9 -6 9 C-5.7525 8.443125 -5.505 7.88625 -5.25 7.3125 C-3.78393985 4.60028873 -1.97010529 2.36412635 0 0 Z " fill="#C8DD34" transform="translate(781,672)"/>
<path d="M0 0 C2 2 2 2 2.23046875 4.34765625 C2.21628906 5.24355469 2.20210938 6.13945313 2.1875 7.0625 C2.18105469 7.96097656 2.17460937 8.85945312 2.16796875 9.78515625 C2 12 2 12 1 13 C0.76924918 14.34747084 0.58846937 15.70377565 0.4375 17.0625 C0.293125 18.361875 0.14875 19.66125 0 21 C-0.66 20.67 -1.32 20.34 -2 20 C-2 9.5 -2 9.5 -1 4.75 C-0.814375 3.85796875 -0.62875 2.9659375 -0.4375 2.046875 C-0.2209375 1.03367187 -0.2209375 1.03367187 0 0 Z " fill="#F9DB17" transform="translate(467,651)"/>
<path d="M0 0 C5.86521791 2.38953322 11.30154524 8.2561463 14 14 C13.6328125 16.21484375 13.6328125 16.21484375 13 18 C12.67 16.35 12.34 14.7 12 13 C11.34 13 10.68 13 10 13 C9.67 13.99 9.34 14.98 9 16 C9 15.34 9 14.68 9 14 C8.01 13.67 7.02 13.34 6 13 C6.99 12.01 7.98 11.02 9 10 C8.34 9.38125 7.68 8.7625 7 8.125 C5 6 5 6 5 4 C3.35 4.33 1.7 4.66 0 5 C0 3.33333333 0 1.66666667 0 0 Z " fill="#E6E659" transform="translate(704,577)"/>
<path d="M0 0 C4.39458137 1.48465587 6.05088905 4.81320768 8.25 8.625 C8.79527344 9.54152344 8.79527344 9.54152344 9.3515625 10.4765625 C10.24359752 11.97893727 11.12305829 13.48876551 12 15 C8.91008328 18.19739209 5.75754796 20.60883312 2 23 C2 22.01 2 21.02 2 20 C2.99 19.38125 3.98 18.7625 5 18.125 C5.99 17.42375 6.98 16.7225 8 16 C8.50241322 13.3295947 8.50241322 13.3295947 8 11 C7.34 11 6.68 11 6 11 C5.73445312 10.45730469 5.46890625 9.91460937 5.1953125 9.35546875 C4.84210937 8.64003906 4.48890625 7.92460937 4.125 7.1875 C3.77695312 6.47980469 3.42890625 5.77210938 3.0703125 5.04296875 C1.9343514 2.78753582 1.9343514 2.78753582 0 0 Z " fill="#0A130E" transform="translate(769,360)"/>
<path d="M0 0 C4.21878192 -0.19622241 7.17010894 0.19769832 11 2 C10.67 2.66 10.34 3.32 10 4 C7.4375 4.625 7.4375 4.625 5 5 C5.99 5.66 6.98 6.32 8 7 C5.21176345 8.0326802 4.1322726 8.04509293 1.25 7.0625 C0.5075 6.711875 -0.235 6.36125 -1 6 C-1 5.34 -1 4.68 -1 4 C0.32 4 1.64 4 3 4 C3 3.34 3 2.68 3 2 C2.01 2 1.02 2 0 2 C0 1.34 0 0.68 0 0 Z " fill="#161608" transform="translate(397,705)"/>
<path d="M0 0 C1.32 0 2.64 0 4 0 C4.8125 1.6875 4.8125 1.6875 5 4 C2.6875 6.75 2.6875 6.75 0 9 C-0.66 9 -1.32 9 -2 9 C-2 8.01 -2 7.02 -2 6 C-2.66 6 -3.32 6 -4 6 C-2.84826645 3.53199953 -1.95216435 1.95216435 0 0 Z " fill="#FCDC16" transform="translate(636,393)"/>
<path d="M0 0 C0 1.98 0 3.96 0 6 C-0.99 6 -1.98 6 -3 6 C-4.68236471 6.62599617 -6.3523962 7.28752268 -8 8 C-8.66 6.68 -9.32 5.36 -10 4 C-9.01 3.67 -8.02 3.34 -7 3 C-7 2.34 -7 1.68 -7 1 C-2.25 0 -2.25 0 0 0 Z " fill="#FADC1A" transform="translate(784,378)"/>
<path d="M0 0 C0.66 0 1.32 0 2 0 C2.25394531 0.68707031 2.50789062 1.37414062 2.76953125 2.08203125 C3.11371094 2.98308594 3.45789063 3.88414062 3.8125 4.8125 C4.14894531 5.70582031 4.48539063 6.59914063 4.83203125 7.51953125 C5.96197319 9.91924072 7.01062293 11.28423353 9 13 C8.34 15.31 7.68 17.62 7 20 C4.89162402 16.83743603 4.02099321 14.19199627 2.9375 10.5625 C2.59589844 9.42941406 2.25429688 8.29632812 1.90234375 7.12890625 C1.21900004 4.75938975 0.57155252 2.39816366 0 0 Z " fill="#FBDF1A" transform="translate(794,553)"/>
<path d="M0 0 C4.10958767 1.45044271 7.43258745 3.51110752 11 6 C10.34 6.66 9.68 7.32 9 8 C9 7.34 9 6.68 9 6 C7.02 5.34 5.04 4.68 3 4 C3 4.66 3 5.32 3 6 C3.99 6.33 4.98 6.66 6 7 C4.3125 7.75 4.3125 7.75 2 8 C-0.75 6.1875 -0.75 6.1875 -3 4 C-3 3.34 -3 2.68 -3 2 C-1.68 2.33 -0.36 2.66 1 3 C0.67 2.67 0.34 2.34 0 2 C0 1.34 0 0.68 0 0 Z " fill="#E8E246" transform="translate(270,697)"/>
<path d="M0 0 C0.33 0 0.66 0 1 0 C1.26404456 6.86515862 0.25841946 13.25846717 -1 20 C-1.66 20 -2.32 20 -3 20 C-3.12375 20.639375 -3.2475 21.27875 -3.375 21.9375 C-3.58125 22.618125 -3.7875 23.29875 -4 24 C-4.66 24.33 -5.32 24.66 -6 25 C-5.81824219 24.45214844 -5.63648438 23.90429688 -5.44921875 23.33984375 C-3.01686615 15.66857785 -1.48449329 7.89624088 0 0 Z " fill="#C0E04F" transform="translate(801,624)"/>
<path d="M0 0 C0 0.66 0 1.32 0 2 C-0.99 2.66 -1.98 3.32 -3 4 C-3.33 4.99 -3.66 5.98 -4 7 C-4.680625 6.9175 -5.36125 6.835 -6.0625 6.75 C-9.07163558 7.00609665 -10.13094334 7.52158602 -12.625 9.0625 C-14.295625 10.0215625 -14.295625 10.0215625 -16 11 C-16.99 10.67 -17.98 10.34 -19 10 C-16.21251481 8.32626249 -13.41935573 6.66223733 -10.625 5 C-9.8309375 4.52304687 -9.036875 4.04609375 -8.21875 3.5546875 C-7.45820312 3.10351562 -6.69765625 2.65234375 -5.9140625 2.1875 C-4.8614624 1.55908203 -4.8614624 1.55908203 -3.78759766 0.91796875 C-2 0 -2 0 0 0 Z " fill="#221409" transform="translate(586,601)"/>
<path d="M0 0 C8.64411081 2.62410507 16.76925385 6.31383762 25 10 C21.41708171 11.1943061 20.34754669 10.43424546 17.05078125 8.90234375 C13.46677373 7.32538044 9.7263655 6.19142298 6 5 C6 4.34 6 3.68 6 3 C4.02 2.34 2.04 1.68 0 1 C0 0.67 0 0.34 0 0 Z " fill="#DDE951" transform="translate(661,555)"/>
<path d="M0 0 C0.99 0.33 1.98 0.66 3 1 C3 1.99 3 2.98 3 4 C6.63 4.66 10.26 5.32 14 6 C14.33 7.32 14.66 8.64 15 10 C9.00067626 8.1668733 3.55079437 5.92678249 -2 3 C-1.34 2.01 -0.68 1.02 0 0 Z " fill="#F6E42E" transform="translate(653,459)"/>
<path d="M0 0 C1.96073272 0.03804407 3.92019607 0.1554594 5.875 0.3125 C6.94492187 0.39113281 8.01484375 0.46976562 9.1171875 0.55078125 C12 1 12 1 15 3 C11.36576791 5.32590854 8.22911669 5.16265833 4 5 C3.67 4.34 3.34 3.68 3 3 C0.98330173 1.86649466 0.98330173 1.86649466 -1 1 C-0.67 0.67 -0.34 0.34 0 0 Z " fill="#1D170D" transform="translate(684,312)"/>
<path d="M0 0 C0.33 0 0.66 0 1 0 C0.979375 1.2375 0.95875 2.475 0.9375 3.75 C0.93231364 6.70103711 1.21416412 9.15134494 2 12 C2.03786901 13.66623639 2.04627845 15.33397597 2 17 C1.34 17.33 0.68 17.66 0 18 C-2.68924267 11.83056093 -2.08514835 6.25544504 0 0 Z " fill="#DED930" transform="translate(470,641)"/>
<path d="M0 0 C1.32 0 2.64 0 4 0 C4.625 1.875 4.625 1.875 5 4 C4.34 4.66 3.68 5.32 3 6 C1.68 6 0.36 6 -1 6 C-1.33 6.99 -1.66 7.98 -2 9 C-2.99 8.67 -3.98 8.34 -5 8 C-4.34 7.67 -3.68 7.34 -3 7 C-2.29618843 5.01276732 -1.6288189 3.01222047 -1 1 C-0.67 0.67 -0.34 0.34 0 0 Z " fill="#FBDB19" transform="translate(738,407)"/>
<path d="M0 0 C0.33 0.99 0.66 1.98 1 3 C-1 3.66666667 -3 4.33333333 -5 5 C-6.010625 5.37125 -7.02125 5.7425 -8.0625 6.125 C-10.89405977 6.96844334 -13.06961603 7.17237553 -16 7 C-14.6032879 4.2065758 -13.00586915 4.03557041 -10.125 2.9375 C-9.24070312 2.59589844 -8.35640625 2.25429688 -7.4453125 1.90234375 C-2.29004329 0 -2.29004329 0 0 0 Z " fill="#FBDF0F" transform="translate(744,706)"/>
<path d="M0 0 C0 0.66 0 1.32 0 2 C-0.66 2 -1.32 2 -2 2 C-2.33 2.99 -2.66 3.98 -3 5 C-3.99 5 -4.98 5 -6 5 C-5.67 6.98 -5.34 8.96 -5 11 C-5.99 11.495 -5.99 11.495 -7 12 C-8.5625 9.6875 -8.5625 9.6875 -10 7 C-8.60449526 2.81348579 -4.64858615 0 0 0 Z " fill="#1D140E" transform="translate(528,635)"/>
<path d="M0 0 C0.66 1.32 1.32 2.64 2 4 C0.02 4.99 0.02 4.99 -2 6 C-1.01 6.33 -0.02 6.66 1 7 C0.01 7.495 0.01 7.495 -1 8 C-1.33 8.66 -1.66 9.32 -2 10 C-3 12 -3 12 -5 13 C-5 12.01 -5 11.02 -5 10 C-5.99 10.495 -5.99 10.495 -7 11 C-5.5140084 6.40693504 -3.14985318 3.56430755 0 0 Z " fill="#1A0F08" transform="translate(567,351)"/>
<path d="M0 0 C-0.66 0 -1.32 0 -2 0 C-2 0.66 -2 1.32 -2 2 C-4.64 2 -7.28 2 -10 2 C-10.33 3.32 -10.66 4.64 -11 6 C-11.99 5.67 -12.98 5.34 -14 5 C-13.34 5 -12.68 5 -12 5 C-12 4.34 -12 3.68 -12 3 C-14.64 3 -17.28 3 -20 3 C-20 2.67 -20 2.34 -20 2 C-17.41842632 1.46867611 -14.83538244 0.94965621 -12.25 0.4375 C-11.52039063 0.28603516 -10.79078125 0.13457031 -10.0390625 -0.02148438 C-6.33442927 -0.74557178 -3.60677678 -1.09817231 0 0 Z " fill="#C8DE41" transform="translate(712,717)"/>
<path d="M0 0 C5.33333333 5.33333333 10.66666667 10.66666667 16 16 C13 16 13 16 10.625 13.84765625 C9.75875 12.92855469 8.8925 12.00945312 8 11.0625 C4.5265833 7.21903356 4.5265833 7.21903356 0 5 C0 3.35 0 1.7 0 0 Z " fill="#E3E462" transform="translate(563,493)"/>
<path d="M0 0 C-6.85874815 4.69373926 -12.74920527 5.84643191 -21 6 C-17.29335058 3.97559916 -13.36475968 2.65388472 -9.375 1.3125 C-8.694375 1.07466797 -8.01375 0.83683594 -7.3125 0.59179688 C-2.23691153 -1.11845576 -2.23691153 -1.11845576 0 0 Z " fill="#C5E03A" transform="translate(733,710)"/>
<path d="M0 0 C3.82669043 3.42388092 5.72278474 6.00724943 7 11 C6.01 11 5.02 11 4 11 C4 10.34 4 9.68 4 9 C1.53673288 7.3553326 1.53673288 7.3553326 -1 6 C-0.67 4.02 -0.34 2.04 0 0 Z " fill="#F5E440" transform="translate(525,653)"/>
<path d="M0 0 C1.85811 2.787165 3.22897347 5.46303 4.625 8.5 C5.07101562 9.4590625 5.51703125 10.418125 5.9765625 11.40625 C7 14 7 14 7 17 C6.34 17 5.68 17 5 17 C5 16.01 5 15.02 5 14 C4.01 13.67 3.02 13.34 2 13 C1.26953125 11.07421875 1.26953125 11.07421875 0.8125 8.6875 C0.65394531 7.90761719 0.49539063 7.12773437 0.33203125 6.32421875 C0 4 0 4 0 0 Z " fill="#FADF18" transform="translate(547,464)"/>
<path d="M0 0 C0.99 1.32 1.98 2.64 3 4 C1.88625 4.309375 1.88625 4.309375 0.75 4.625 C-2.80949442 6.40474721 -3.89616241 8.67457929 -6 12 C-8.25 13.875 -8.25 13.875 -10 15 C-9.42435345 11.11438576 -7.48746646 8.95386643 -5 6 C-4.67 5.34 -4.34 4.68 -4 4 C-3.34 4 -2.68 4 -2 4 C-1.34 2.68 -0.68 1.36 0 0 Z " fill="#FBDF0E" transform="translate(786,668)"/>
<path d="M0 0 C-10.395 0.495 -10.395 0.495 -21 1 C-21 0.67 -21 0.34 -21 0 C-14.3571097 -2.36191655 -6.12565109 -4.08376739 0 0 Z " fill="#F0D025" transform="translate(670,646)"/>
<path d="M0 0 C0.33 0 0.66 0 1 0 C1.22226864 1.76913824 1.42733873 3.54044371 1.625 5.3125 C1.74101562 6.29863281 1.85703125 7.28476562 1.9765625 8.30078125 C2 11 2 11 0 14 C-0.57605248 15.38199747 -1.11703521 16.77905218 -1.625 18.1875 C-2.01558594 19.26064453 -2.01558594 19.26064453 -2.4140625 20.35546875 C-2.60742188 20.89816406 -2.80078125 21.44085937 -3 22 C-4.21237671 18.36286987 -3.63552691 16.90273029 -2.625 13.25 C-1.44729825 8.81882995 -0.51721946 4.55153121 0 0 Z " fill="#F7DB0B" transform="translate(391,605)"/>
<path d="M0 0 C0.66 0.33 1.32 0.66 2 1 C2.33 1.99 2.66 2.98 3 4 C1.948125 4.268125 0.89625 4.53625 -0.1875 4.8125 C-3.57519246 5.8676829 -6.07089567 7.04726378 -9 9 C-9.33 8.01 -9.66 7.02 -10 6 C-4.25 3 -4.25 3 -2 3 C-2 2.34 -2 1.68 -2 1 C-1.34 0.67 -0.68 0.34 0 0 Z M3 1 C5 2 5 2 5 2 Z " fill="#FBDD13" transform="translate(727,415)"/>
<path d="M0 0 C0 3.10551666 -0.5393715 4.35261084 -2 7 C-2.99 7 -3.98 7 -5 7 C-5 7.66 -5 8.32 -5 9 C-6.65 8.67 -8.3 8.34 -10 8 C-6.88983545 4.71211176 -3.98381075 2.16264012 0 0 Z " fill="#D3E130" transform="translate(769,384)"/>
<path d="M0 0 C0.99 0 1.98 0 3 0 C3 4.71906188 1.71245796 6.27037031 -1 10 C-1.99 9.01 -2.98 8.02 -4 7 C-2.68 4.69 -1.36 2.38 0 0 Z " fill="#FBDB18" transform="translate(770,384)"/>
<path d="M0 0 C2.35333796 4.70667591 2.17102038 6.8693886 2 12 C1.34 12 0.68 12 0 12 C0.061875 13.423125 0.061875 13.423125 0.125 14.875 C0 18 0 18 -2 20 C-1.34 13.4 -0.68 6.8 0 0 Z " fill="#C6E04B" transform="translate(474,617)"/>
<path d="M0 0 C1.85625 0.061875 1.85625 0.061875 3.75 0.125 C2.76 0.62 2.76 0.62 1.75 1.125 C1.75 1.785 1.75 2.445 1.75 3.125 C2.41 3.125 3.07 3.125 3.75 3.125 C3.42 4.115 3.09 5.105 2.75 6.125 C-0.88 4.805 -4.51 3.485 -8.25 2.125 C-4.63863788 0.31931894 -3.705469 -0.12351563 0 0 Z " fill="#171F18" transform="translate(689.25,383.875)"/>
<path d="M0 0 C0.33 0.99 0.66 1.98 1 3 C3.01508358 3.73323796 3.01508358 3.73323796 5 4 C3.66666667 6.66666667 2.33333333 9.33333333 1 12 C1 10.68 1 9.36 1 8 C0.34 8 -0.32 8 -1 8 C-0.67 5.36 -0.34 2.72 0 0 Z " fill="#1A1413" transform="translate(547,387)"/>
<path d="M0 0 C4.8274799 1.41292095 8.7162359 3.42974154 13 6 C10 8 10 8 6.8125 7.625 C5.884375 7.41875 4.95625 7.2125 4 7 C4.66 6.67 5.32 6.34 6 6 C6 5.34 6 4.68 6 4 C5.195625 3.71125 4.39125 3.4225 3.5625 3.125 C1 2 1 2 0 0 Z " fill="#E4E54F" transform="translate(571,697)"/>
<path d="M0 0 C2.475 0.99 2.475 0.99 5 2 C5 1.34 5 0.68 5 0 C5.66 0 6.32 0 7 0 C5.89904638 3.30286086 5.3103981 3.78510901 2.5625 5.6875 C1.63630859 6.34298828 1.63630859 6.34298828 0.69140625 7.01171875 C-1 8 -1 8 -3 8 C-2.67 6.68 -2.34 5.36 -2 4 C-1.34 4 -0.68 4 0 4 C0 2.68 0 1.36 0 0 Z " fill="#0C1D1B" transform="translate(736,401)"/>
<path d="M0 0 C0.33 0.99 0.66 1.98 1 3 C-1.28940956 3.38854209 -3.58164574 3.7604628 -5.875 4.125 C-7.78925781 4.43824219 -7.78925781 4.43824219 -9.7421875 4.7578125 C-11.35480469 4.87769531 -11.35480469 4.87769531 -13 5 C-13.66 4.34 -14.32 3.68 -15 3 C-13.25183142 2.49363393 -11.50137737 1.99515381 -9.75 1.5 C-8.77546875 1.2215625 -7.8009375 0.943125 -6.796875 0.65625 C-4 0 -4 0 0 0 Z " fill="#27190B" transform="translate(634,314)"/>
<path d="M0 0 C0 1.65 0 3.3 0 5 C-0.33 4.34 -0.66 3.68 -1 3 C-1.99 3.66 -2.98 4.32 -4 5 C-3.67 6.32 -3.34 7.64 -3 9 C-3.99 9 -4.98 9 -6 9 C-6.33 9.99 -6.66 10.98 -7 12 C-7 10.35 -7 8.7 -7 7 C-7.66 6.67 -8.32 6.34 -9 6 C-7.68969568 4.99712471 -6.37669473 3.99777175 -5.0625 3 C-4.33160156 2.443125 -3.60070312 1.88625 -2.84765625 1.3125 C-1 0 -1 0 0 0 Z " fill="#D6DF30" transform="translate(762,692)"/>
<path d="M0 0 C-1.66442897 2.02185443 -2.52984103 2.92078843 -5.15625 3.36328125 C-5.9296875 3.34652344 -6.703125 3.32976563 -7.5 3.3125 C-8.2734375 3.30863281 -9.046875 3.30476562 -9.84375 3.30078125 C-12 3 -12 3 -15 1 C-13.25215171 0.63536268 -11.50159498 0.2836922 -9.75 -0.0625 C-8.28820312 -0.35833984 -8.28820312 -0.35833984 -6.796875 -0.66015625 C-4.131881 -0.98397535 -2.51128277 -0.85503199 0 0 Z " fill="#261A0C" transform="translate(689,645)"/>
<path d="M0 0 C2.475 0.99 2.475 0.99 5 2 C5 2.66 5 3.32 5 4 C6.32 4.33 7.64 4.66 9 5 C9.33 6.65 9.66 8.3 10 10 C7.1157546 9.65514457 6.1792182 9.21744593 4.296875 6.93359375 C3.78640625 6.10988281 3.2759375 5.28617188 2.75 4.4375 C2.22921875 3.61121094 1.7084375 2.78492188 1.171875 1.93359375 C0.78515625 1.29550781 0.3984375 0.65742187 0 0 Z " fill="#F3E840" transform="translate(778,531)"/>
<path d="M0 0 C1.51953125 1.33203125 1.51953125 1.33203125 3 3 C2.6875 5.6875 2.6875 5.6875 2 8 C1.34 8 0.68 8 0 8 C-0.33 10.64 -0.66 13.28 -1 16 C-1.33 16 -1.66 16 -2 16 C-2.2396943 10.36718401 -1.38529821 5.45461169 0 0 Z " fill="#FBDA0F" transform="translate(802,627)"/>
<path d="M0 0 C-0.30891997 2.98622637 -0.83246285 3.86118351 -3.1875 5.8125 C-6.59289113 7.25033181 -8.47078888 6.90282145 -12 6 C-3 0 -3 0 0 0 Z " fill="#1C1308" transform="translate(268,621)"/>
<path d="M0 0 C0.66 0.33 1.32 0.66 2 1 C0.02 3.31 -1.96 5.62 -4 8 C-3.34 8.33 -2.68 8.66 -2 9 C-2.99 9 -3.98 9 -5 9 C-5.33 9.66 -5.66 10.32 -6 11 C-6.99 10.67 -7.98 10.34 -9 10 C-7.8758824 8.70756532 -6.75067408 7.41607925 -5.625 6.125 C-4.99851562 5.40570313 -4.37203125 4.68640625 -3.7265625 3.9453125 C-2.52573166 2.5923402 -1.2791655 1.2791655 0 0 Z " fill="#AFDB43" transform="translate(636,391)"/>
<path d="M0 0 C1.42944945 2.35438733 2.08661261 3.48032433 1.625 6.25 C1.41875 6.8275 1.2125 7.405 1 8 C1.66 8.33 2.32 8.66 3 9 C0 9 0 9 -2.1875 7.125 C-4 5 -4 5 -4 3 C-3.01 2.67 -2.02 2.34 -1 2 C-0.67 1.34 -0.34 0.68 0 0 Z " fill="#E5D331" transform="translate(605,617)"/>
<path d="M0 0 C0.66 0.66 1.32 1.32 2 2 C-5.42857143 3.28571429 -5.42857143 3.28571429 -9 2 C-9 1.34 -9 0.68 -9 0 C-5.64961743 -0.83759564 -3.2704774 -1.24052591 0 0 Z " fill="#1B2117" transform="translate(317,712)"/>
<path d="M0 0 C1.32 0 2.64 0 4 0 C4 0.66 4 1.32 4 2 C5.65 2.33 7.3 2.66 9 3 C7.68 3.33 6.36 3.66 5 4 C5 4.66 5 5.32 5 6 C3.68 5.67 2.36 5.34 1 5 C1.66 4.67 2.32 4.34 3 4 C3 3.34 3 2.68 3 2 C1.68 1.67 0.36 1.34 -1 1 C-0.67 0.67 -0.34 0.34 0 0 Z " fill="#141406" transform="translate(303,707)"/>
<path d="M0 0 C1.22589844 0.29197266 1.22589844 0.29197266 2.4765625 0.58984375 C3.41628906 0.82380859 3.41628906 0.82380859 4.375 1.0625 C4.375 1.7225 4.375 2.3825 4.375 3.0625 C1.735 3.0625 -0.905 3.0625 -3.625 3.0625 C-3.625 2.4025 -3.625 1.7425 -3.625 1.0625 C-4.615 0.7325 -5.605 0.4025 -6.625 0.0625 C-3.99249612 -1.25375194 -2.82320944 -0.68563658 0 0 Z " fill="#FAE11E" transform="translate(678.625,385.9375)"/>
<path d="M0 0 C5.61 0 11.22 0 17 0 C13.91271496 2.05819003 12.64024762 2.35931563 9.0625 2.6875 C8.20785156 2.77386719 7.35320313 2.86023438 6.47265625 2.94921875 C4.09047864 2.99814183 2.26490737 2.69891573 0 2 C0 1.34 0 0.68 0 0 Z " fill="#F3E133" transform="translate(629,311)"/>
<path d="M0 0 C0 0.99 0 1.98 0 3 C-0.70125 3.103125 -1.4025 3.20625 -2.125 3.3125 C-5.13383367 3.90923259 -5.13383367 3.90923259 -8.125 5.625 C-11 7 -11 7 -14 6 C-12.42356682 4.98915735 -10.8385483 3.99169489 -9.25 3 C-8.36828125 2.443125 -7.4865625 1.88625 -6.578125 1.3125 C-4 0 -4 0 0 0 Z " fill="#1E1004" transform="translate(547,625)"/>
<path d="M0 0 C0.33 0 0.66 0 1 0 C1.33 6.27 1.66 12.54 2 19 C-2.06487696 13.58016406 -2.06487696 13.58016406 -1.66015625 9.9609375 C-1.46292969 8.77757812 -1.26570312 7.59421875 -1.0625 6.375 C-0.86785156 5.18648437 -0.67320312 3.99796875 -0.47265625 2.7734375 C-0.31667969 1.85820313 -0.16070313 0.94296875 0 0 Z " fill="#17190C" transform="translate(798,616)"/>
<path d="M0 0 C0.66 0 1.32 0 2 0 C1.65120368 3.25543229 0.97866739 4.01873107 -1.5625 6.25 C-2.366875 6.8275 -3.17125 7.405 -4 8 C-4.66 6.35 -5.32 4.7 -6 3 C-4.68 3.33 -3.36 3.66 -2 4 C-2 3.34 -2 2.68 -2 2 C-1.34 2 -0.68 2 0 2 C0 1.34 0 0.68 0 0 Z " fill="#E9CD1F" transform="translate(575,339)"/>
<path d="M0 0 C0.66 0.33 1.32 0.66 2 1 C1.34 2.65 0.68 4.3 0 6 C-4.455 6.495 -4.455 6.495 -9 7 C-6.03716687 4.61327331 -3.05729491 2.2646629 0 0 Z " fill="#CBE43A" transform="translate(432,697)"/>
<path d="M0 0 C0.33 0.66 0.66 1.32 1 2 C0.01 2.495 0.01 2.495 -1 3 C-1.72159424 4.64363134 -2.39351421 6.31050386 -3 8 C-3.99 7.34 -4.98 6.68 -6 6 C-8.15274948 6.30840599 -8.15274948 6.30840599 -10 7 C-6.80331012 4.3513141 -3.60513403 2.06007659 0 0 Z " fill="#211307" transform="translate(562,614)"/>
<path d="M0 0 C3.94120709 0.56302958 6.7508723 1.6791945 10 4 C10 4.66 10 5.32 10 6 C8.35 6.33 6.7 6.66 5 7 C5.33 6.34 5.66 5.68 6 5 C5.34 4.67 4.68 4.34 4 4 C4 3.34 4 2.68 4 2 C2.68 2 1.36 2 0 2 C0 1.34 0 0.68 0 0 Z " fill="#FCE217" transform="translate(688,569)"/>
<path d="M0 0 C3.23861303 1.44424635 5.61969163 3.25772247 8.25 5.625 C8.95640625 6.25664063 9.6628125 6.88828125 10.390625 7.5390625 C10.92171875 8.02117188 11.4528125 8.50328125 12 9 C11.34 9.66 10.68 10.32 10 11 C8.33035479 9.35718838 6.6643536 7.71067239 5 6.0625 C4.071875 5.14597656 3.14375 4.22945312 2.1875 3.28515625 C0 1 0 1 0 0 Z " fill="#DDD647" transform="translate(764,517)"/>
<path d="M0 0 C0.33 1.32 0.66 2.64 1 4 C0.34 4 -0.32 4 -1 4 C-0.67 4.99 -0.34 5.98 0 7 C-1.98 7.66 -3.96 8.32 -6 9 C-4.02 6.03 -2.04 3.06 0 0 Z " fill="#C6E139" transform="translate(457,671)"/>
<path d="M0 0 C0.66 0 1.32 0 2 0 C1.01 2.97 0.02 5.94 -1 9 C-1.66 8.67 -2.32 8.34 -3 8 C-3 6.35 -3 4.7 -3 3 C-2.34 3 -1.68 3 -1 3 C-0.67 2.01 -0.34 1.02 0 0 Z " fill="#0C1718" transform="translate(793,647)"/>
<path d="M0 0 C1.670625 0.061875 1.670625 0.061875 3.375 0.125 C3.375 0.785 3.375 1.445 3.375 2.125 C5.025 2.125 6.675 2.125 8.375 2.125 C8.375 2.455 8.375 2.785 8.375 3.125 C1.445 2.63 1.445 2.63 -5.625 2.125 C-3.625 0.125 -3.625 0.125 0 0 Z " fill="#FCDA0C" transform="translate(393.625,716.875)"/>
<path d="M0 0 C0.66 0.33 1.32 0.66 2 1 C0.3125 3.5 0.3125 3.5 -2 6 C-4.75 6.3125 -4.75 6.3125 -7 6 C-3.375 1.125 -3.375 1.125 0 0 Z " fill="#E9E71C" transform="translate(769,687)"/>
<path d="M0 0 C0.66 0 1.32 0 2 0 C3.4606285 2.64738916 4 3.89448334 4 7 C4.66 7 5.32 7 6 7 C6.33 6.34 6.66 5.68 7 5 C6.67 6.65 6.34 8.3 6 10 C5.01 10 4.02 10 3 10 C1.87119943 6.68885166 0.78697325 3.41021743 0 0 Z " fill="#13141A" transform="translate(230,649)"/>
<path d="M0 0 C2.61500768 2.36595933 4.38999603 4.86049226 6 8 C5.67 8.66 5.34 9.32 5 10 C3.62437146 8.71034824 2.29233607 7.37310707 1 6 C1 5.34 1 4.68 1 4 C0.01 3.67 -0.98 3.34 -2 3 C-1 1 -1 1 0 0 Z " fill="#F5E850" transform="translate(224,644)"/>
<path d="M0 0 C0.66 0.33 1.32 0.66 2 1 C0.56705502 1.84114171 -0.87154405 2.67265687 -2.3125 3.5 C-3.51326172 4.19609375 -3.51326172 4.19609375 -4.73828125 4.90625 C-7 6 -7 6 -10 6 C-10 5.01 -10 4.02 -10 3 C-6.97265625 2.26757812 -6.97265625 2.26757812 -3.9453125 1.53515625 C-1.9414343 1.05153008 -1.9414343 1.05153008 0 0 Z " fill="#F9E636" transform="translate(235,635)"/>
<path d="M0 0 C3.29714793 0.32971479 4.6226839 0.6226839 7 3 C7 3.66 7 4.32 7 5 C4.03 4.01 1.06 3.02 -2 2 C-1.34 1.34 -0.68 0.68 0 0 Z " fill="#121C17" transform="translate(658,551)"/>
<path d="M0 0 C4.455 1.98 4.455 1.98 9 4 C7.1875 5.5625 7.1875 5.5625 5 7 C4.01 6.67 3.02 6.34 2 6 C2 4.68 2 3.36 2 2 C1.34 2 0.68 2 0 2 C0 1.34 0 0.68 0 0 Z " fill="#19140A" transform="translate(724,493)"/>
<path d="M0 0 C0.66 0.99 1.32 1.98 2 3 C-0.97 5.31 -3.94 7.62 -7 10 C-7.33 9.01 -7.66 8.02 -8 7 C-7.05125 6.401875 -6.1025 5.80375 -5.125 5.1875 C-1.86035803 3.18437474 -1.86035803 3.18437474 0 0 Z " fill="#0C211A" transform="translate(779,373)"/>
<path d="M0 0 C1.98 0 3.96 0 6 0 C5 2 5 2 2.9375 3.1875 C-1.05002309 4.29043192 -3.93337555 3.68925838 -8 3 C-8 2.67 -8 2.34 -8 2 C-5.36 2 -2.72 2 0 2 C0 1.34 0 0.68 0 0 Z " fill="#FDE00A" transform="translate(710,717)"/>
<path d="M0 0 C0.99 0 1.98 0 3 0 C3 0.66 3 1.32 3 2 C4.65 1.67 6.3 1.34 8 1 C6.68 2.32 5.36 3.64 4 5 C2.68 4.34 1.36 3.68 0 3 C0 2.01 0 1.02 0 0 Z " fill="#102115" transform="translate(756,689)"/>
<path d="M0 0 C5.73842251 -0.20413361 10.60539047 -0.27141454 16 2 C16 2.33 16 2.66 16 3 C13.03 3 10.06 3 7 3 C7 2.67 7 2.34 7 2 C4.69 1.67 2.38 1.34 0 1 C0 0.67 0 0.34 0 0 Z " fill="#E5C81B" transform="translate(639,309)"/>
<path d="M0 0 C0.66 0 1.32 0 2 0 C2 1.65 2 3.3 2 5 C-0.31 5 -2.62 5 -5 5 C-4.34 4.67 -3.68 4.34 -3 4 C-3 3.34 -3 2.68 -3 2 C-2.01 2 -1.02 2 0 2 C0 1.34 0 0.68 0 0 Z " fill="#FBDE12" transform="translate(753,699)"/>
<path d="M0 0 C0.66 0 1.32 0 2 0 C2 1.32 2 2.64 2 4 C1.34 4 0.68 4 0 4 C-0.33 6.64 -0.66 9.28 -1 12 C-1.33 12 -1.66 12 -2 12 C-1.85962479 10.18706911 -1.71255111 8.3746557 -1.5625 6.5625 C-1.48128906 5.55316406 -1.40007812 4.54382813 -1.31640625 3.50390625 C-1 1 -1 1 0 0 Z " fill="#FBDF0E" transform="translate(472,640)"/>
<path d="M0 0 C2.625 0.375 2.625 0.375 5 1 C5.33 2.98 5.66 4.96 6 7 C4 4 4 4 4 2 C3.34 2 2.68 2 2 2 C1.67 2.99 1.34 3.98 1 5 C1 4.34 1 3.68 1 3 C0.01 2.67 -0.98 2.34 -2 2 C-1.34 1.34 -0.68 0.68 0 0 Z " fill="#F5E449" transform="translate(712,588)"/>
<path d="M0 0 C0.66 0 1.32 0 2 0 C1.54738642 1.43931117 1.08767021 2.87638999 0.625 4.3125 C0.36976563 5.11300781 0.11453125 5.91351563 -0.1484375 6.73828125 C-1 9 -1 9 -3 12 C-2.14285714 3.42857143 -2.14285714 3.42857143 0 0 Z " fill="#051516" transform="translate(625,401)"/>
<path d="M0 0 C2 0 2 0 3.5 1 C5.80070868 4.06761157 6.20423508 7.26602613 7 11 C4.08156555 8.373409 2.05482685 5.33023661 0 2 C0 1.34 0 0.68 0 0 Z " fill="#E1E34A" transform="translate(773,362)"/>
<path d="M0 0 C1.258125 -0.020625 2.51625 -0.04125 3.8125 -0.0625 C4.52019531 -0.07410156 5.22789062 -0.08570313 5.95703125 -0.09765625 C8 0 8 0 11 1 C11 1.66 11 2.32 11 3 C9.741875 2.87625 8.48375 2.7525 7.1875 2.625 C6.12595703 2.52058594 6.12595703 2.52058594 5.04296875 2.4140625 C3 2 3 2 0 0 Z " fill="#1A2917" transform="translate(612,714)"/>
<path d="M0 0 C3.46941546 0.45822468 6.67395049 0.89131683 10 2 C10 2.66 10 3.32 10 4 C5 3 5 3 0 2 C0 1.34 0 0.68 0 0 Z " fill="#FCE10F" transform="translate(300,713)"/>
<path d="M0 0 C1.47118907 3.82509158 0.45442741 6.28312995 -1 10 C-1.33 10.66 -1.66 11.32 -2 12 C-2.66 12 -3.32 12 -4 12 C-2.66666667 8 -1.33333333 4 0 0 Z " fill="#9FD459" transform="translate(466,652)"/>
<path d="M0 0 C0 1.32 0 2.64 0 4 C-2.64 4 -5.28 4 -8 4 C-2.7826087 0 -2.7826087 0 0 0 Z " fill="#1F140E" transform="translate(244,633)"/>
<path d="M0 0 C1.65 0 3.3 0 5 0 C4.34 1.65 3.68 3.3 3 5 C2.01 5 1.02 5 0 5 C0 3.35 0 1.7 0 0 Z " fill="#F3D51E" transform="translate(704,630)"/>
<path d="M0 0 C3.465 1.485 3.465 1.485 7 3 C7 4.65 7 6.3 7 8 C5.8274869 7.04882866 4.66212985 6.08882991 3.5 5.125 C2.8503125 4.59132813 2.200625 4.05765625 1.53125 3.5078125 C1.0259375 3.01023437 0.520625 2.51265625 0 2 C0 1.34 0 0.68 0 0 Z " fill="#050709" transform="translate(571,500)"/>
<path d="M0 0 C1.32 0.66 2.64 1.32 4 2 C1.63707344 4.52588702 0.33537489 5.88820837 -3 7 C-3 4 -3 4 -1 2 C-0.67 1.34 -0.34 0.68 0 0 Z " fill="#0F211D" transform="translate(721,413)"/>
<path d="M0 0 C4.875 4.75 4.875 4.75 6 7 C4.68 7.33 3.36 7.66 2 8 C1.34 5.36 0.68 2.72 0 0 Z " fill="#171C10" transform="translate(765,353)"/>
<path d="M0 0 C1.32 0 2.64 0 4 0 C4 0.66 4 1.32 4 2 C4.99 2.33 5.98 2.66 7 3 C4.21176345 4.0326802 3.1322726 4.04509293 0.25 3.0625 C-0.4925 2.711875 -1.235 2.36125 -2 2 C-1.34 1.34 -0.68 0.68 0 0 Z " fill="#162116" transform="translate(295,707)"/>
<path d="M0 0 C0.66 0.66 1.32 1.32 2 2 C-1.61973402 3.31626692 -4.09567131 4 -8 4 C-8 3.34 -8 2.68 -8 2 C-6.71254964 1.61077082 -5.41980403 1.23901964 -4.125 0.875 C-3.04605469 0.56175781 -3.04605469 0.56175781 -1.9453125 0.2421875 C-1.30335938 0.16226563 -0.66140625 0.08234375 0 0 Z " fill="#0B0C18" transform="translate(371,645)"/>
<path d="M0 0 C0.66 0 1.32 0 2 0 C2 0.99 2 1.98 2 3 C2.66 3.33 3.32 3.66 4 4 C2 6 2 6 -0.625 6.125 C-1.40875 6.08375 -2.1925 6.0425 -3 6 C-2.505 5.38125 -2.01 4.7625 -1.5 4.125 C0.19222773 2.16119096 0.19222773 2.16119096 0 0 Z " fill="#D6E13A" transform="translate(780,373)"/>
<path d="M0 0 C-0.33 1.32 -0.66 2.64 -1 4 C-1.99 3.67 -2.98 3.34 -4 3 C-3.34 3 -2.68 3 -2 3 C-2 2.34 -2 1.68 -2 1 C-4.64 1 -7.28 1 -10 1 C-10 0.67 -10 0.34 -10 0 C-3.375 -1.125 -3.375 -1.125 0 0 Z " fill="#B5CD47" transform="translate(702,719)"/>
<path d="M0 0 C0.99 0.33 1.98 0.66 3 1 C1.68 3.64 0.36 6.28 -1 9 C-1.66 8.34 -2.32 7.68 -3 7 C-2.34 7 -1.68 7 -1 7 C-0.67 4.69 -0.34 2.38 0 0 Z " fill="#0A2625" transform="translate(788,656)"/>
<path d="M0 0 C0.99 0.33 1.98 0.66 3 1 C2.67 2.32 2.34 3.64 2 5 C0.35 4.67 -1.3 4.34 -3 4 C-3 3.34 -3 2.68 -3 2 C-2.01 2 -1.02 2 0 2 C0 1.34 0 0.68 0 0 Z " fill="#FAE021" transform="translate(380,632)"/>
<path d="M0 0 C2.31 0.33 4.62 0.66 7 1 C7 2.65 7 4.3 7 6 C1.125 2.25 1.125 2.25 0 0 Z " fill="#FBDE1E" transform="translate(761,513)"/>
<path d="M0 0 C0.625 1.875 0.625 1.875 1 4 C-1 6 -1 6 -3.625 6.125 C-4.40875 6.08375 -5.1925 6.0425 -6 6 C-4 4 -2 2 0 0 Z " fill="#201207" transform="translate(585,334)"/>
<path d="M0 0 C2.31 0 4.62 0 7 0 C7 1.32 7 2.64 7 4 C4.97954558 3.39816251 2.97888961 2.72693904 1 2 C0.67 1.34 0.34 0.68 0 0 Z " fill="#FAE633" transform="translate(727,323)"/>
<path d="M0 0 C1.65 0.33 3.3 0.66 5 1 C3.75 2.5 3.75 2.5 2 4 C0.68 4 -0.64 4 -2 4 C-1.34 2.68 -0.68 1.36 0 0 Z " fill="#FCD914" transform="translate(426,703)"/>
<path d="M0 0 C2.475 0.495 2.475 0.495 5 1 C4.67 2.98 4.34 4.96 4 7 C3.34 6.67 2.68 6.34 2 6 C2.33 4.35 2.66 2.7 3 1 C2.01 1.33 1.02 1.66 0 2 C0 1.34 0 0.68 0 0 Z " fill="#EFDC2E" transform="translate(461,664)"/>
<path d="M0 0 C0.66 0 1.32 0 2 0 C1.67 2.64 1.34 5.28 1 8 C0.01 7.67 -0.98 7.34 -2 7 C-1.34 4.69 -0.68 2.38 0 0 Z " fill="#160F05" transform="translate(458,660)"/>
<path d="M0 0 C2.31 0 4.62 0 7 0 C4.37801226 2.15377564 2.35595828 3.40072174 -1 4 C-0.67 2.68 -0.34 1.36 0 0 Z " fill="#FBE832" transform="translate(247,627)"/>
<path d="M0 0 C0.99 0.33 1.98 0.66 3 1 C3 1.99 3 2.98 3 4 C3.99 4.33 4.98 4.66 6 5 C5.01 5.495 5.01 5.495 4 6 C1.96855359 5.06553465 -0.03533587 4.06775224 -2 3 C-1.34 2.01 -0.68 1.02 0 0 Z " fill="#FBE93C" transform="translate(653,459)"/>
<path d="M0 0 C0.99 0.33 1.98 0.66 3 1 C2.67 3.31 2.34 5.62 2 8 C0.26216175 5.39324263 -0.50215905 3.98704569 -1 1 C-0.67 0.67 -0.34 0.34 0 0 Z " fill="#FCDF15" transform="translate(625,429)"/>
<path d="M0 0 C0.66 0.33 1.32 0.66 2 1 C1.34 2.32 0.68 3.64 0 5 C-1.65 5 -3.3 5 -5 5 C-3.35 3.35 -1.7 1.7 0 0 Z M-2 5 C0 6 0 6 0 6 Z " fill="#C6E33E" transform="translate(747,399)"/>
<path d="M0 0 C-2.31 1.65 -4.62 3.3 -7 5 C-7 3.35 -7 1.7 -7 0 C-3.98968256 -0.93423645 -3.13349732 -1.04449911 0 0 Z " fill="#0C1918" transform="translate(638,391)"/>
<path d="M0 0 C0.66 0.33 1.32 0.66 2 1 C1.67 2.32 1.34 3.64 1 5 C-1.31 5 -3.62 5 -6 5 C-5.195625 4.360625 -4.39125 3.72125 -3.5625 3.0625 C-1.7249496 1.59396498 -1.7249496 1.59396498 0 0 Z " fill="#0B101D" transform="translate(592,331)"/>
</svg>
