<?xml version="1.0" encoding="UTF-8"?>
<svg version="1.1" xmlns="http://www.w3.org/2000/svg" width="1024" height="1024">
<path d="M0 0 C337.92 0 675.84 0 1024 0 C1024 337.92 1024 675.84 1024 1024 C686.08 1024 348.16 1024 0 1024 C0 686.08 0 348.16 0 0 Z " fill="#EEEEEE" transform="translate(0,0)"/>
<path d="M0 0 C1.08538318 2.13093579 2.11768959 4.26585994 3.0859375 6.453125 C11.08363672 23.80570877 24.22204767 36.61872416 37.70275879 49.78175354 C42.70545887 54.6694227 47.50158659 59.63961961 52 65 C52.94135876 66.0755624 53.88276403 67.15108409 54.82421875 68.2265625 C110.20304116 133.23690533 135.60795464 217.74149388 129.25 302.6875 C126.52155399 333.82705346 119.54724108 363.72696312 106 392 C105.6611377 392.71639648 105.32227539 393.43279297 104.97314453 394.17089844 C102.75273231 398.83712343 100.41738651 403.43304919 98 408 C97.66033203 408.64743164 97.32066406 409.29486328 96.97070312 409.96191406 C86.83919775 429.12121333 73.71396656 446.85774049 59.03125 462.78125 C57.21041875 464.77015799 55.47912594 466.80682976 53.75 468.875 C50.12379747 473.04807762 46.07064001 476.70710914 41.98730469 480.42163086 C36.82470665 485.12376085 31.89908552 490.02328813 27 495 C25.33450333 496.66783585 23.66813445 498.33480241 22 500 C11.17650171 480.56580752 4.82963628 462.20432232 2 440 C0.06639165 443.20549295 -0.62392895 446.51322842 -1.39526367 450.14526367 C-3.76164931 461.23989387 -7.1033185 471.939903 -10.6875 482.6875 C-10.9333786 483.43139984 -11.1792572 484.17529968 -11.43258667 484.94174194 C-12.13885145 487.07188355 -12.85447043 489.19859975 -13.57421875 491.32421875 C-14.20203247 493.1817981 -14.20203247 493.1817981 -14.8425293 495.0769043 C-16 498 -16 498 -18 500 C-18.4125 499.57589844 -18.825 499.15179687 -19.25 498.71484375 C-22.93929168 494.96790689 -26.73932722 491.43541345 -30.71484375 487.99609375 C-43.43958365 476.88097907 -55.61282578 465.36460526 -66 452 C-66.48049805 451.3905957 -66.96099609 450.78119141 -67.45605469 450.15332031 C-96.91265681 412.7682122 -116.47984131 371.66279348 -125.6875 324.875 C-125.89012451 323.85116211 -126.09274902 322.82732422 -126.30151367 321.77246094 C-129.06279504 307.17925595 -130.38500625 292.77826601 -130.3125 277.9375 C-130.31100952 277.17152496 -130.30951904 276.40554993 -130.3079834 275.61636353 C-130.03982625 197.87780628 -103.98632472 120.33231366 -51.14453125 62.359375 C-49.27606887 60.30372604 -47.44306264 58.22510099 -45.625 56.125 C-41.33936668 51.20883672 -36.9157787 46.41976419 -32.49560547 41.625 C-30.97410563 39.97186534 -29.45739536 38.3144384 -27.94140625 36.65625 C-23.4479194 31.7519913 -18.94882931 26.8981568 -14.1875 22.25 C-7.42313024 15.52245984 -2.33126922 9.39168457 0 0 Z " fill="#4CA444" transform="translate(514,93)"/>
<path d="M0 0 C1.0663107 2.13262139 2.12078629 4.27285537 3.0859375 6.453125 C11.08363672 23.80570877 24.22204767 36.61872416 37.70275879 49.78175354 C42.70545887 54.6694227 47.50158659 59.63961961 52 65 C52.94135876 66.0755624 53.88276403 67.15108409 54.82421875 68.2265625 C110.20304116 133.23690533 135.60795464 217.74149388 129.25 302.6875 C126.52155399 333.82705346 119.54724108 363.72696312 106 392 C105.6611377 392.71639648 105.32227539 393.43279297 104.97314453 394.17089844 C102.75273231 398.83712343 100.41738651 403.43304919 98 408 C97.66033203 408.64743164 97.32066406 409.29486328 96.97070312 409.96191406 C86.83919775 429.12121333 73.71396656 446.85774049 59.03125 462.78125 C57.21041875 464.77015799 55.47912594 466.80682976 53.75 468.875 C50.12379747 473.04807762 46.07064001 476.70710914 41.98730469 480.42163086 C36.82470665 485.12376085 31.89908552 490.02328813 27 495 C25.33450333 496.66783585 23.66813445 498.33480241 22 500 C9.82487859 478.13889312 2.76254269 457.39829976 2.875 432.125 C2.87765869 431.0220459 2.88031738 429.9190918 2.88305664 428.78271484 C2.9238148 421.64745646 3.14970068 414.54711662 3.56613445 407.4250164 C4.0290721 399.24797398 4.28905135 391.06553702 4.5246582 382.87939453 C4.54666562 382.11716654 4.56867303 381.35493855 4.59134734 380.56961274 C5.03580837 364.86901596 5.163489 349.17532024 5.16702962 333.46889544 C5.16832811 330.4765599 5.17289355 327.48423178 5.17723483 324.49189937 C5.19090595 314.79041237 5.19113053 305.08894721 5.18809986 295.38745308 C5.18749716 292.8631145 5.18745005 290.33877651 5.18758392 287.81443787 C5.19004709 225.81631616 4.5623521 163.85564035 3.06892395 101.87335205 C3.00115714 99.04823972 2.93463176 96.22310097 2.86853027 93.39794922 C2.61825308 82.72597823 2.35213265 72.05457929 2.0583725 61.38371277 C2.00160351 59.3086138 1.94651691 57.23347554 1.8916626 55.1583252 C1.5615087 43.01466785 1.13451886 30.90075822 0.0625 18.796875 C-0.01218506 17.91138977 -0.08687012 17.02590454 -0.16381836 16.11358643 C-0.3659562 14.06670801 -0.67186141 12.03049157 -1 10 C-1.66 9.67 -2.32 9.34 -3 9 C-2.01 6.03 -1.02 3.06 0 0 Z " fill="#3C913D" transform="translate(514,93)"/>
<path d="M0 0 C1.27925858 -0.0127597 2.55851715 -0.02551941 3.87654114 -0.03866577 C5.28317107 -0.04172623 6.68980304 -0.04395249 8.09643555 -0.04541016 C9.54217154 -0.05184075 10.98790624 -0.0585693 12.43363953 -0.06558228 C15.47434494 -0.07758031 18.51493664 -0.08126133 21.55566406 -0.08007812 C25.41761033 -0.07987663 29.27880652 -0.10698864 33.14057636 -0.14162254 C36.13412178 -0.16409022 39.12749371 -0.16790941 42.12111473 -0.16685867 C43.54222343 -0.16919222 44.9633386 -0.17788635 46.38436317 -0.19352341 C57.83208712 -0.30752873 68.81418689 0.58206603 77.9831543 8.04052734 C83.76353645 13.8315352 86.10180495 18.4237548 86.4206543 26.66552734 C86.11793824 35.6739396 83.29916844 42.9120132 76.9206543 49.29052734 C75.27176208 50.31957168 73.60734853 51.32469075 71.9206543 52.29052734 C72.77788086 52.70302734 73.63510742 53.11552734 74.51831055 53.54052734 C82.47630419 57.5598973 89.52946004 61.48681518 93.07299805 70.08740234 C95.64127501 79.79241206 94.75255678 90.46274069 89.9206543 99.29052734 C87.8269377 102.24606433 85.53279351 104.78698911 82.9206543 107.29052734 C82.42436523 107.77263672 81.92807617 108.25474609 81.41674805 108.75146484 C68.72424601 120.16434133 50.70337701 120.45754105 34.57299805 120.38818359 C33.32055801 120.38676865 32.06811798 120.3853537 30.77772522 120.38389587 C27.47834059 120.37927321 24.17900654 120.37031809 20.87963867 120.35919189 C17.50073866 120.34888788 14.12183118 120.34437916 10.74291992 120.33935547 C4.13547856 120.32837059 -2.47192944 120.31166578 -9.0793457 120.29052734 C-10.2434082 115.56396484 -10.2434082 115.56396484 -8.7668457 113.10302734 C-5.36492125 110.8087062 -2.34709401 110.41193624 1.6784668 109.88037109 C4.28746391 109.4591602 4.28746391 109.4591602 5.9206543 106.29052734 C6.90458694 101.21455798 7.07393503 96.20178394 7.08178711 91.04785156 C7.08675201 90.25506805 7.09171692 89.46228455 7.09683228 88.64547729 C7.11133669 86.04538075 7.11823335 83.44534504 7.1237793 80.84521484 C7.12953693 79.02873739 7.13529458 77.21225993 7.14105225 75.39578247 C7.15152638 71.59816202 7.15739362 67.80056253 7.16088867 64.00292969 C7.16639009 59.13947021 7.19046817 54.27628832 7.21886063 49.41291618 C7.23748236 45.66569198 7.24269218 41.91853504 7.24422455 38.17126846 C7.24724864 36.37792556 7.25526895 34.58458377 7.26840973 32.79128647 C7.28547347 30.28544572 7.28359027 27.78028941 7.27709961 25.27441406 C7.28631439 24.5366272 7.29552917 23.79884033 7.30502319 23.03869629 C7.26912571 18.6122702 6.62256912 15.82344489 3.9206543 12.29052734 C0.63092214 10.05820909 -3.28665181 9.36393128 -7.0793457 8.29052734 C-8.0793457 7.29052734 -8.0793457 7.29052734 -8.2668457 4.85302734 C-7.87555353 -0.49463233 -4.49767507 0.03037519 0 0 Z " fill="#3C2D21" transform="translate(801.079345703125,709.70947265625)"/>
<path d="M0 0 C1.52489478 -0.01656435 3.04971177 -0.04386148 4.57421875 -0.08203125 C6.76977905 -0.13674185 8.96351831 -0.15866134 11.15966797 -0.17333984 C12.47821777 -0.19315918 13.79676758 -0.21297852 15.15527344 -0.23339844 C18.41748047 0.35009766 18.41748047 0.35009766 20.171875 2.44238281 C20.5829248 3.40192871 20.99397461 4.36147461 21.41748047 5.35009766 C21.92666016 6.43645508 22.43583984 7.5228125 22.96044922 8.64208984 C23.51205156 9.89221169 24.06003631 11.14393409 24.60498047 12.39697266 C25.05324944 13.41670921 25.05324944 13.41670921 25.51057434 14.45704651 C26.15036784 15.91370841 26.78861429 17.37105063 27.42544556 18.82901001 C28.42968102 21.12802866 29.43808485 23.42517943 30.44750977 25.72192383 C33.47555211 32.61544831 36.49011109 39.51482488 39.49951172 46.41650391 C44.26740583 57.33242808 49.14365788 68.17185237 54.3347168 78.89428711 C54.72554443 79.70212646 55.11637207 80.50996582 55.51904297 81.34228516 C55.86273926 82.04724121 56.20643555 82.75219727 56.56054688 83.47851562 C57.41748047 85.35009766 57.41748047 85.35009766 58.41748047 88.35009766 C59.07748047 88.35009766 59.73748047 88.35009766 60.41748047 88.35009766 C60.82800659 87.04359253 60.82800659 87.04359253 61.24682617 85.71069336 C62.3578832 82.52118347 63.65404417 79.60669461 65.14794922 76.58056641 C65.97069336 74.90027344 65.97069336 74.90027344 66.81005859 73.18603516 C67.10211182 72.59274414 67.39416504 71.99945312 67.69506836 71.38818359 C75.07985628 56.36894764 82.04502264 41.16949663 88.90278625 25.90376282 C91.25274386 20.68114074 93.68826939 15.50073292 96.15576172 10.33251953 C97.55085601 7.03482761 98.49749918 3.80758602 99.41748047 0.35009766 C104.38370396 0.32544668 109.34989213 0.30726117 114.31616211 0.29516602 C116.00692362 0.29012576 117.69768076 0.28329361 119.38842773 0.2746582 C121.81348754 0.26257909 124.23848991 0.25686643 126.66357422 0.25244141 C127.8042057 0.24469948 127.8042057 0.24469948 128.96788025 0.23680115 C130.78480617 0.23660528 132.60161174 0.28812489 134.41748047 0.35009766 C135.41748047 1.35009766 135.41748047 1.35009766 135.66748047 3.72509766 C135.41748047 6.35009766 135.41748047 6.35009766 134.18310547 7.95947266 C131.53113741 10.04819086 128.85195935 10.1036154 125.57373047 10.52978516 C122.39872718 11.73766684 121.84623603 13.29467256 120.41748047 16.35009766 C120.16055023 19.15406408 120.0640734 21.72084451 120.12109375 24.51757812 C120.12559036 25.32636414 120.13008698 26.13515015 120.13471985 26.96844482 C120.15375599 29.63511584 120.19506671 32.30089621 120.23779297 34.96728516 C120.25822938 36.82666049 120.27773669 38.68604625 120.2963562 40.54544067 C120.33886784 44.44097442 120.39235454 48.33616257 120.45361328 52.23144531 C120.53112595 57.21338694 120.5819195 62.19517068 120.62449837 67.17751884 C120.66020551 71.01763114 120.70992883 74.85746509 120.76385117 78.69736099 C120.78800972 80.53364104 120.80790773 82.36998243 120.82339859 84.20635605 C120.84725827 86.77928208 120.88996057 89.3512447 120.9375 91.92382812 C120.94077805 92.67626801 120.94405609 93.42870789 120.94743347 94.20394897 C121.08192987 99.85673104 122.09241865 104.94199792 126.16748047 109.16259766 C129.12789362 110.72503793 132.19997719 111.45634674 135.41748047 112.35009766 C137.41748047 114.35009766 137.41748047 114.35009766 137.60498047 116.91259766 C137.41748047 119.35009766 137.41748047 119.35009766 136.41748047 120.35009766 C134.85200999 120.44336481 133.28235274 120.46755348 131.71411133 120.46362305 C130.71314926 120.46354752 129.71218719 120.46347198 128.68089294 120.46339417 C127.59236526 120.45823288 126.50383759 120.45307159 125.38232422 120.44775391 C124.27393692 120.44633896 123.16554962 120.44492401 122.02357483 120.44346619 C118.46734978 120.43784799 114.91118664 120.4252924 111.35498047 120.41259766 C108.9506845 120.407585 106.54638755 120.40302169 104.14208984 120.39892578 C98.23386543 120.38787265 92.32567737 120.37111682 86.41748047 120.35009766 C86.08748047 118.70009766 85.75748047 117.05009766 85.41748047 115.35009766 C89.20340824 111.80842329 92.48702112 110.5646885 97.42919922 109.45166016 C99.63563161 108.46701592 99.63563161 108.46701592 100.67529297 105.95556641 C101.70700004 100.94364203 101.66515817 96.14217146 101.60498047 91.03759766 C101.59853516 89.87583008 101.59208984 88.7140625 101.58544922 87.51708984 C101.41894729 66.79280338 100.88797453 46.06923384 100.41748047 25.35009766 C99.72356201 26.86639771 99.72356201 26.86639771 99.015625 28.41333008 C96.85988413 33.12232481 94.70156901 37.83013704 92.54248047 42.53759766 C92.15144135 43.39042328 91.76040222 44.2432489 91.35751343 45.12191772 C87.05342573 54.50435764 82.73129108 63.87272109 78.22998047 73.16259766 C73.23956016 83.4809967 68.70085144 93.99815531 64.14916992 104.51538086 C63.85802307 105.18697235 63.56687622 105.85856384 63.26690674 106.55050659 C62.4710384 108.38781745 61.67769561 110.2262217 60.88452148 112.06469727 C59.48064246 115.20864802 57.98209487 118.28345343 56.41748047 121.35009766 C54.76748047 121.35009766 53.11748047 121.35009766 51.41748047 121.35009766 C47.39952048 113.46347606 43.61167225 105.51160476 40.04248047 97.41259766 C39.54208252 96.28160645 39.04168457 95.15061523 38.52612305 93.98535156 C34.01026837 83.75032591 29.55200747 73.49018163 25.10498047 63.22509766 C24.77290588 62.45948517 24.4408313 61.69387268 24.09869385 60.90505981 C19.41634477 50.1023048 14.86565524 39.25135541 10.41748047 28.35009766 C9.82109077 36.26029112 9.23712084 44.17130346 8.66113281 52.08300781 C8.474634 54.58373633 8.27616326 57.08213171 8.06201172 59.58056641 C7.38086685 68.31698978 7.25760144 77.07111278 7.18731689 85.83047485 C7.17418504 87.29160595 7.15630867 88.75270278 7.13348389 90.2137146 C7.10344999 92.28412824 7.09381254 94.35370833 7.08935547 96.42431641 C7.08000977 97.63692139 7.07066406 98.84952637 7.06103516 100.09887695 C7.45035316 103.64993711 8.27915707 105.5181325 10.41748047 108.35009766 C12.47964731 109.46843472 12.47964731 109.46843472 14.79248047 109.97509766 C21.57613803 111.96703625 21.57613803 111.96703625 24.41748047 114.35009766 C24.79248047 116.97509766 24.79248047 116.97509766 24.41748047 119.35009766 C23.41748047 120.35009766 23.41748047 120.35009766 21.47496033 120.47035217 C20.62446609 120.46813156 19.77397186 120.46591095 18.89770508 120.46362305 C17.45632423 120.46350975 17.45632423 120.46350975 15.98582458 120.46339417 C14.94104446 120.45823288 13.89626434 120.45307159 12.81982422 120.44775391 C11.75582901 120.44633896 10.6918338 120.44492401 9.59559631 120.44346619 C6.18202964 120.43784829 2.76852747 120.42529276 -0.64501953 120.41259766 C-2.9529613 120.40758496 -5.26090408 120.40302166 -7.56884766 120.39892578 C-13.2400938 120.38787305 -18.91130206 120.37111752 -24.58251953 120.35009766 C-24.97534701 118.69644247 -25.30492833 117.02694947 -25.58251953 115.35009766 C-23.04856159 111.36816374 -18.47868709 111.1653613 -14.17626953 110.19384766 C-11.33236705 109.26872275 -10.43457421 108.64433602 -8.58251953 106.35009766 C-5.56541735 98.12488585 -4.81008352 89.24082385 -3.97705078 80.58056641 C-3.84811935 79.30135818 -3.71918793 78.02214996 -3.58634949 76.70417786 C-3.31610894 74.01465758 -3.05206164 71.32462615 -2.79272461 68.6340332 C-2.46435117 65.23130525 -2.12149107 61.83022974 -1.77399158 58.42940807 C-1.43834042 55.12635961 -1.11443121 51.82219183 -0.78955078 48.51806641 C-0.66771927 47.32070358 -0.54588776 46.12334076 -0.42036438 44.88969421 C0.1668812 38.71433821 0.58993883 32.54063166 0.74291992 26.33959961 C0.7784346 25.14486526 0.81394928 23.95013092 0.85054016 22.7191925 C0.3262841 18.64061295 -1.02110147 16.5273786 -3.58251953 13.35009766 C-6.03776852 11.88592671 -6.03776852 11.88592671 -8.70751953 11.10009766 C-13.43005316 9.50256402 -13.43005316 9.50256402 -15.58251953 7.35009766 C-14.5888565 -2.3878 -8.22745842 0.06559275 0 0 Z " fill="#3D2E22" transform="translate(122.58251953125,709.64990234375)"/>
<path d="M0 0 C4.9112024 2.11121811 9.22881661 2.38389745 14.5 2.375 C15.60202759 2.37693359 15.60202759 2.37693359 16.72631836 2.37890625 C20.46804421 2.30283558 23.38716743 2.07267139 26.5625 0 C28.5625 2 28.5625 2 28.6796875 4.0234375 C28.30506293 7.66092127 27.92773333 10.37605972 26.0625 13.5625 C22.31851344 15.71529227 18.78208726 15.32458364 14.5625 15 C14.88476562 15.55300781 15.20703125 16.10601563 15.5390625 16.67578125 C17.70445356 21.59336781 17.30776571 27.41372655 15.83984375 32.5078125 C11.64534118 42.52706964 5.07654908 47.65177088 -4.69921875 52.0078125 C-8.92752919 53.57160415 -12.49638771 54.05676345 -17 54.125 C-20.63783014 54.33507188 -22.07567355 54.6992389 -24.9140625 57.05859375 C-26.89245759 59.29914366 -28.71582485 61.55808252 -30.4375 64 C-25.33030664 66.05451244 -20.93902208 66.28014942 -15.53125 66.2734375 C-13.8007747 66.29371941 -12.07030599 66.31457006 -10.33984375 66.3359375 C-7.63422035 66.3585458 -4.92885815 66.37501865 -2.22314453 66.38085938 C0.40379006 66.39040319 3.02957449 66.42418915 5.65625 66.4609375 C6.45953735 66.45589203 7.26282471 66.45084656 8.0904541 66.44564819 C14.19278737 66.55200536 17.689686 68.3610197 22.2421875 72.54296875 C27.21699915 79.38739916 26.36610067 87.94725165 25.5625 96 C24.29888661 103.97048448 18.49197945 109.97577606 12.2734375 114.76171875 C0.57374175 122.32650574 -14.59364555 125.9559207 -28.3828125 123.46875 C-38.64246985 120.83953419 -45.89404606 117.33465431 -51.58203125 108.15234375 C-52.68738176 105.37130206 -52.73869748 103.05013243 -52.75 100.0625 C-52.76675781 99.04285156 -52.78351563 98.02320313 -52.80078125 96.97265625 C-52.36991504 93.4469661 -51.64708652 91.78244228 -49.4375 89 C-47.21409242 87.41343395 -45.10521017 86.0322408 -42.75 84.6875 C-42.14349609 84.32849609 -41.53699219 83.96949219 -40.91210938 83.59960938 C-39.42679295 82.722454 -37.93296779 81.85973398 -36.4375 81 C-36.98019531 80.62488281 -37.52289063 80.24976563 -38.08203125 79.86328125 C-45.75489962 74.37476099 -45.75489962 74.37476099 -47.4375 70 C-47.4375 67.1927823 -46.94603927 65.55558514 -45.03881836 63.47192383 C-43.19595442 61.813474 -41.30667012 60.241522 -39.375 58.6875 C-38.71177734 58.13771484 -38.04855469 57.58792969 -37.36523438 57.02148438 C-35.73169234 55.66999276 -34.08576328 54.33349816 -32.4375 53 C-33.01757812 52.67128906 -33.59765625 52.34257813 -34.1953125 52.00390625 C-41.11951492 47.78768398 -45.8396696 42.79349121 -48.4375 35 C-49.07017954 26.83739673 -49.30985759 19.81513309 -44.4375 13 C-44.07140625 12.40960937 -43.7053125 11.81921875 -43.328125 11.2109375 C-34.49498911 -1.16635786 -13.69074289 -5.96992332 0 0 Z " fill="#3C2D21" transform="translate(522.4375,751)"/>
<path d="M0 0 C0.65415894 -0.00350464 1.30831787 -0.00700928 1.9822998 -0.01062012 C4.14854514 -0.01943121 6.3144641 -0.01358453 8.48071289 -0.00683594 C9.99467532 -0.00818423 11.50863732 -0.01012613 13.02259827 -0.01263428 C16.20277002 -0.0155859 19.38282957 -0.01129213 22.56298828 -0.00195312 C26.60751175 0.00935401 30.65176719 0.00293831 34.69628048 -0.00909805 C37.8287399 -0.01639086 40.96113786 -0.01399355 44.09359932 -0.00884247 C45.58249507 -0.00752179 47.07139667 -0.00909723 48.56028557 -0.01380157 C68.78392737 -0.0636124 86.04648019 3.44849364 101.26586914 17.57128906 C110.09065904 26.91518424 115.04062854 39.46689622 115.51586914 52.25878906 C115.56743164 53.38027344 115.61899414 54.50175781 115.67211914 55.65722656 C116.11638821 73.61310125 111.5044165 89.89241179 99.05029297 103.12451172 C83.82936131 118.16427219 63.51520782 120.42421159 43.11352539 120.39160156 C41.6251982 120.39227601 40.13687112 120.39324722 38.64854431 120.39450073 C35.54628438 120.39596785 32.44405342 120.39385286 29.34179688 120.38916016 C25.35805778 120.38342845 21.37438556 120.38676966 17.39064884 120.39273262 C14.32557159 120.39633524 11.26051038 120.39520164 8.19543266 120.39260483 C6.72535634 120.39193653 5.25527857 120.39276062 3.78520393 120.39508438 C1.74108023 120.3976097 -0.30304858 120.39308167 -2.34716797 120.38818359 C-4.0930143 120.3869902 -4.0930143 120.3869902 -5.87413025 120.38577271 C-8.48413086 120.25878906 -8.48413086 120.25878906 -9.48413086 119.25878906 C-9.79663086 116.88378906 -9.79663086 116.88378906 -9.48413086 114.25878906 C-5.90826662 110.87155987 -2.55072014 110.66720209 2.17602539 110.17675781 C4.75426739 109.42880882 4.75426739 109.42880882 6.13586426 106.73817444 C7.80686004 102.52511813 7.95254279 99.15261843 7.93579102 94.6706543 C7.94849533 93.4085463 7.94849533 93.4085463 7.9614563 92.12094116 C7.98476498 89.35293268 7.98585017 86.5854818 7.98461914 83.81738281 C7.99172272 81.88737263 7.99942201 79.95736455 8.00769043 78.02735901 C8.02111989 73.988313 8.02271013 69.94946244 8.0168457 65.91040039 C8.01094088 60.73614382 8.04158068 55.56282271 8.08196259 50.38874722 C8.1078129 46.40557304 8.11071962 42.42262523 8.10707092 38.43937874 C8.10876363 36.53159286 8.11842066 34.6237967 8.13621521 32.71609306 C8.15836035 30.04926686 8.14872772 27.38434916 8.13110352 24.7175293 C8.14436676 23.93141769 8.15763 23.14530609 8.17129517 22.33537292 C8.10937262 18.30122761 7.689509 16.47625489 5.14025879 13.28358459 C2.36465782 11.14212498 0.7634301 10.513014 -2.67163086 10.07128906 C-7.3035753 9.43934462 -7.3035753 9.43934462 -9.48413086 7.25878906 C-9.79663086 4.75878906 -9.79663086 4.75878906 -9.48413086 2.25878906 C-5.88754054 -0.13893782 -4.27512726 0.00575061 0 0 Z M28.51586914 14.25878906 C28.13353186 17.1721044 27.97789262 19.70188683 28.01416016 22.60986328 C28.00875717 23.43815643 28.00335419 24.26644958 27.99778748 25.11984253 C27.98530514 27.85142012 28.00179047 30.58194246 28.01977539 33.31347656 C28.01962036 35.21770279 28.01813073 37.12192934 28.0153656 39.02615356 C28.01398173 43.01578738 28.02653543 47.00506166 28.04931641 50.99462891 C28.07766231 56.09790673 28.07497398 61.20058553 28.0622263 66.30390739 C28.05525549 70.23655268 28.06307505 74.16906064 28.07548332 78.10168839 C28.07998693 79.98267209 28.08034419 81.86367061 28.07641792 83.74465561 C28.07349295 86.37971708 28.09007509 89.0139671 28.11181641 91.64892578 C28.10731476 92.42006714 28.10281311 93.1912085 28.09817505 93.98571777 C28.18307367 100.20882525 29.33928409 105.13801388 33.95336914 109.63378906 C41.05527274 114.13743525 51.46229014 113.14018743 59.48461914 111.57519531 C71.65647268 108.59408078 81.27515681 103.75701563 88.51586914 93.25878906 C96.68351483 78.23281493 97.59115969 60.1893936 93.62133789 43.75097656 C89.49726018 30.72297137 83.09732455 21.36248706 71.13305664 14.54394531 C61.87124622 9.99598169 52.01282034 9.05788225 41.82836914 8.88378906 C40.56669922 8.82771484 40.56669922 8.82771484 39.27954102 8.77050781 C38.46678711 8.75890625 37.6540332 8.74730469 36.81665039 8.73535156 C36.08615479 8.71553223 35.35565918 8.69571289 34.60302734 8.67529297 C31.29344924 9.60053471 30.33751665 11.39780024 28.51586914 14.25878906 Z " fill="#3D2E21" transform="translate(664.484130859375,709.7412109375)"/>
<path d="M0 0 C7.84892004 6.40433353 12.71533596 16.47046233 14.6875 26.3125 C15.70417986 39.11875593 13.37065934 50.88535518 5.6875 61.3125 C-1.2987558 69.40184882 -10.47956514 75.46400553 -21.3203125 76.50537109 C-34.05729689 76.990058 -44.28616402 76.3602041 -54.6875 68.125 C-63.85856754 59.29713249 -67.35832792 48.28283351 -67.75 35.8125 C-67.47446977 23.47626037 -62.29576733 13.50187246 -54.3125 4.3125 C-38.41462387 -7.7837101 -17.28216483 -11.72835005 0 0 Z " fill="#3D2E21" transform="translate(628.3125,754.6875)"/>
<path d="M0 0 C1.546875 0.8353125 1.546875 0.8353125 3.125 1.6875 C11.84167299 8.69873697 17.97262284 16.94400021 19.26611328 28.34570312 C20.16411337 41.22287433 19.31976049 53.79903258 10.7578125 64.125 C2.90727836 72.49890308 -5.50908579 78.84856378 -17.34375 79.2734375 C-29.62619255 79.61620889 -39.26646636 78.71507443 -49.3125 70.9375 C-56.65842671 63.92896449 -61.50786152 54.26997203 -62.30078125 44.16796875 C-62.34175369 30.25099828 -59.51659668 18.28272198 -49.9140625 7.6953125 C-36.53291373 -4.15656212 -16.1187715 -8.74496677 0 0 Z " fill="#3D2D21" transform="translate(331,752)"/>
<path d="M0 0 C0.33 3.96 0.66 7.92 1 12 C2.051875 11.13375 3.10375 10.2675 4.1875 9.375 C13.73925368 2.31208355 23.02716426 -1.58580606 35 0 C42.21335781 1.53822816 46.19384238 5.26496131 50.1875 11.3125 C54.05854312 18.57647625 54.31981384 26.01118285 54.4140625 34.0625 C54.43342865 35.09439453 54.4527948 36.12628906 54.4727478 37.18945312 C54.53214727 40.45955343 54.57876973 43.72968969 54.625 47 C54.66321627 49.22787926 54.70227009 51.45574432 54.7421875 53.68359375 C54.83781585 59.12226905 54.92297736 64.56103108 55 70 C55.63808594 70.27714844 56.27617187 70.55429687 56.93359375 70.83984375 C58.17302734 71.38318359 58.17302734 71.38318359 59.4375 71.9375 C60.26121094 72.29714844 61.08492188 72.65679688 61.93359375 73.02734375 C64 74 64 74 65 75 C65.125 78 65.125 78 65 81 C64 82 64 82 60.30639648 82.11352539 C58.66128708 82.11336624 57.01617269 82.10766988 55.37109375 82.09765625 C54.07474754 82.09553383 54.07474754 82.09553383 52.75221252 82.09336853 C49.98060708 82.08775239 47.2090812 82.07519719 44.4375 82.0625 C42.5631522 82.05748708 40.68880315 82.05292381 38.81445312 82.04882812 C34.20960456 82.03777772 29.60481579 82.0205023 25 82 C24.40625 79.63671875 24.40625 79.63671875 24 77 C26.84626334 72.8491993 30.30656887 72.23977426 35 71 C36.67528679 67.64942643 36.20643615 63.87397732 36.23828125 60.1875 C36.25038887 58.86226318 36.25038887 58.86226318 36.26274109 57.51025391 C36.27659135 55.63397181 36.28730928 53.75766442 36.29516602 51.88134766 C36.31226607 49.03888465 36.35612884 46.19761945 36.40039062 43.35546875 C36.76039508 30.11479365 36.76039508 30.11479365 32 18 C28.3438886 14.3438886 25.07220785 12.86729111 19.9375 12.625 C14.20306012 12.67185 9.80743216 15.05243797 5 18 C4.30358398 18.32863037 3.60716797 18.65726074 2.88964844 18.99584961 C-0.22504021 22.29927069 0.44956024 26.08410505 0.50390625 30.453125 C0.50245102 31.38670837 0.50099579 32.32029175 0.49949646 33.28216553 C0.50115708 35.25926835 0.5127365 37.23638387 0.53344727 39.21337891 C0.56225938 42.22485027 0.55408787 45.2345455 0.54101562 48.24609375 C0.54725765 50.16927933 0.55565221 52.09245936 0.56640625 54.015625 C0.56347061 54.91065735 0.56053497 55.8056897 0.55751038 56.72784424 C0.63947257 62.22474519 1.38278769 66.13495131 4 71 C5.92108819 72.59658482 5.92108819 72.59658482 8.125 73.375 C8.82882812 73.67148437 9.53265625 73.96796875 10.2578125 74.2734375 C10.83273437 74.51320313 11.40765625 74.75296875 12 75 C13 76 13 76 13.125 78.5 C13 81 13 81 12 82 C9.0546443 82.10110353 6.1332244 82.13969279 3.1875 82.1328125 C1.86141724 82.13424759 1.86141724 82.13424759 0.50854492 82.13571167 C-1.36442129 82.13639351 -3.23738986 82.13453893 -5.11035156 82.13037109 C-7.98768388 82.12502289 -10.86486008 82.13031593 -13.7421875 82.13671875 C-15.55729201 82.13605797 -17.37239643 82.13477681 -19.1875 82.1328125 C-20.05415283 82.13483673 -20.92080566 82.13686096 -21.8137207 82.13894653 C-27.88504991 82.11495009 -27.88504991 82.11495009 -29 81 C-29.27897297 78.34975674 -29.37738745 76.63684133 -28 74.3125 C-25.88946878 72.92746389 -24.31614282 72.50622503 -21.875 71.9375 C-20.59625 71.628125 -19.3175 71.31875 -18 71 C-16.79485946 68.58971893 -16.85403822 67.03107792 -16.82299805 64.33837891 C-16.81016281 63.37042389 -16.79732758 62.40246887 -16.78410339 61.40518188 C-16.77671646 60.35623749 -16.76932953 59.30729309 -16.76171875 58.2265625 C-16.753647 57.15127289 -16.74557526 56.07598328 -16.73725891 54.96810913 C-16.72341257 52.69001888 -16.71269288 50.41190784 -16.70483398 48.13378906 C-16.68760417 44.64608624 -16.64372002 41.15932696 -16.59960938 37.671875 C-16.58948421 35.46094449 -16.58096756 33.2500059 -16.57421875 31.0390625 C-16.55671066 29.99416656 -16.53920258 28.94927063 -16.52116394 27.87271118 C-16.44818164 22.28804623 -16.44818164 22.28804623 -18.79223633 17.38818359 C-21.72339598 15.54514768 -24.64346064 14.77458601 -28 14 C-28 12.02 -28 10.04 -28 8 C-26.92621094 7.67386719 -25.85242188 7.34773437 -24.74609375 7.01171875 C-23.30983371 6.57051469 -21.87363927 6.12909701 -20.4375 5.6875 C-19.73302734 5.47416016 -19.02855469 5.26082031 -18.30273438 5.04101562 C-14.85710147 3.97715662 -11.56195382 2.84296448 -8.28515625 1.33203125 C-5 0 -5 0 0 0 Z " fill="#3D2E22" transform="translate(394,749)"/>
<path d="M0 0 C0.33 0 0.66 0 1 0 C2.37362365 5.49449461 3.19787504 10.79793793 3.75 16.4375 C5.55498595 32.52243808 12.15267422 48.12121499 20.73828125 61.76171875 C22 64 22 64 22 67 C21.12757746 69.32064395 20.21477938 71.59346213 19.25 73.875 C14.6754482 84.98443239 10.96495015 95.8398328 10.68359375 107.92578125 C10.66281265 108.67337204 10.64203156 109.42096283 10.62062073 110.19120789 C10.55555811 112.56488396 10.4964429 114.93866487 10.4375 117.3125 C10.39427354 118.92774495 10.35065796 120.54297953 10.30664062 122.15820312 C10.19992149 126.10536299 10.09853381 130.05262767 10 134 C8.39850114 134.67305018 6.79368971 135.33822227 5.1875 136 C4.29417969 136.37125 3.40085937 136.7425 2.48046875 137.125 C0 138 0 138 -3 138 C-3.04487549 137.28158936 -3.08975098 136.56317871 -3.13598633 135.82299805 C-4.89177904 100.67667052 -4.89177904 100.67667052 -17.1796875 68.11328125 C-18.86610322 63.76875312 -16.39886491 58.99820197 -14.9609375 54.78515625 C-8.89646232 36.70421121 -3.98986923 18.65092754 0 0 Z " fill="#AACEA4" transform="translate(515,528)"/>
<path d="M0 0 C8.8331762 6.09909785 13.35498266 14.51395212 15.625 24.8125 C16.01398065 28.53365987 16.04666733 32.19892873 16 35.9375 C16.01160156 36.87464844 16.02320313 37.81179688 16.03515625 38.77734375 C15.99979456 47.20521408 14.07830105 54.14735428 8.625 60.8125 C3.46666843 64.89617916 -0.90074179 65.49867624 -7.4375 65.26171875 C-13.43121354 64.34512692 -16.94331649 61.24418351 -21.125 57.0625 C-29.17579259 45.43357737 -31.29154258 30.80267386 -28.875 16.9453125 C-26.98402816 9.87565641 -24.02443473 4.87905909 -18.25 0.375 C-12.53239409 -2.52759206 -5.90138762 -2.07641416 0 0 Z " fill="#EDEEEE" transform="translate(608.375,758.1875)"/>
<path d="M0 0 C7.9407575 4.58799322 12.29573969 11.86724153 14.8125 20.5 C17.02621224 30.75141912 17.94953865 44.93375972 13.2265625 54.515625 C10.25537854 58.68513177 6.40446429 62.20401785 1.8125 64.5 C-5.34248838 65.23477153 -11.31804862 64.87721798 -17.1875 60.5 C-24.78530771 54.02318031 -27.6584437 45.15489832 -29.1875 35.5 C-29.74485236 24.04187236 -30.02294338 12.67125688 -22.1875 3.5 C-15.74547976 -2.41116334 -8.02479068 -3.46137006 0 0 Z " fill="#EEEEEE" transform="translate(316.1875,758.5)"/>
<path d="M0 0 C3.18226663 -0.03301341 6.36448841 -0.05277792 9.546875 -0.0703125 C10.44003418 -0.07973877 11.33319336 -0.08916504 12.25341797 -0.09887695 C22.02937935 -0.13919943 31.63573858 0.61671159 39.34765625 7.28515625 C44.82168784 12.96624341 46.80531922 18.04448318 47.125 25.9765625 C46.80009004 33.8353221 44.39888939 39.60586466 38.97265625 45.30859375 C30.52333515 52.55325917 20.58346308 52.72952942 10 52 C6.57813321 51.16188286 5.67828182 50.49142494 3 48 C0.20571252 41.9689376 -0.41533956 37.05727373 -0.29296875 30.46875 C-0.28872391 29.59222778 -0.28447906 28.71570557 -0.28010559 27.81262207 C-0.2634513 25.04142177 -0.22582509 22.27097664 -0.1875 19.5 C-0.17243599 17.60938558 -0.1587506 15.71875964 -0.14648438 13.828125 C-0.11359139 9.21846361 -0.06190255 4.60935938 0 0 Z " fill="#EEEEEE" transform="translate(828,769)"/>
<path d="M0 0 C2.66992555 -0.05339851 5.33329984 -0.09761344 8.00390625 -0.08007812 C8.95837646 -0.07580811 9.91284668 -0.07153809 10.89624023 -0.06713867 C19.46408552 0.14029569 25.35552937 1.771545 31.50390625 7.91992188 C35.47437689 14.53737294 36.20904172 21.20353258 34.46875 28.73632812 C32.77403451 33.61673832 30.56336164 38.13557725 25.77075195 40.54052734 C22.57209035 41.55716717 19.96320551 41.64702424 16.609375 41.61523438 C15.40732422 41.60878906 14.20527344 41.60234375 12.96679688 41.59570312 C11.72091797 41.57894531 10.47503906 41.5621875 9.19140625 41.54492188 C7.29358398 41.53138672 7.29358398 41.53138672 5.35742188 41.51757812 C2.23939061 41.49404581 -0.87825472 41.46116733 -3.99609375 41.41992188 C-4.04550757 36.06308338 -4.08181982 30.70637738 -4.10595703 25.34936523 C-4.11601866 23.52675058 -4.12966935 21.70415208 -4.14697266 19.8815918 C-4.17121396 17.26281753 -4.18257513 14.64425656 -4.19140625 12.02539062 C-4.20172882 11.20967087 -4.21205139 10.39395111 -4.22268677 9.55351257 C-4.22440776 0.88869635 -4.22440776 0.88869635 0 0 Z " fill="#EDEEEE" transform="translate(831.99609375,719.580078125)"/>
<path d="M0 0 C1.71123047 -0.01063477 1.71123047 -0.01063477 3.45703125 -0.02148438 C9.66944804 0.0254154 14.43326006 0.3430293 19.875 3.4375 C22.74827036 6.49614264 23.11530708 9.25155828 23.3125 13.3125 C23.13681575 18.23897923 22.12847518 21.69743469 18.875 25.4375 C11.65120844 32.01412379 4.12486899 32.88892116 -5.41796875 32.7578125 C-12.34772063 32.1590352 -18.18617694 29.37632306 -23.125 24.4375 C-26.36484952 19.6335852 -27.02384965 15.08143966 -26.125 9.4375 C-23.80640303 4.90111463 -20.36839378 3.2268135 -15.86010742 1.28198242 C-10.65394326 -0.32545504 -5.40189807 -0.09525531 0 0 Z " fill="#EDEEEE" transform="translate(512.125,832.5625)"/>
<path d="M0 0 C5.94903869 3.92095732 8.22518624 9.05028246 9.75 15.8125 C10.56483766 22.19906546 9.50131967 27.99509104 6.75 33.8125 C4.41274231 36.73407211 3.30271587 37.62826138 -0.25 38.8125 C-5.1888636 39.33103818 -9.10354834 39.36449525 -13.625 37.1875 C-19.65144378 31.73500324 -22.1640726 25.5353179 -22.6875 17.5 C-22.54366366 11.89997187 -20.36659938 7.39283207 -17.25 2.8125 C-11.87680601 -2.20248106 -6.65810469 -2.43276902 0 0 Z " fill="#EDEEEE" transform="translate(512.25,758.1875)"/>
<path d="M0 0 C2.95064148 -0.2208564 5.68368231 -0.28060989 8.625 -0.1875 C9.42679688 -0.17396484 10.22859375 -0.16042969 11.0546875 -0.14648438 C13.03674378 -0.11109051 15.01845551 -0.05728234 17 0 C17 0.33 17 0.66 17 1 C9.08 1.495 9.08 1.495 1 2 C1 13.88 1 25.76 1 38 C3.97 38 6.94 38 10 38 C10 38.33 10 38.66 10 39 C8.046875 39.22786458 6.09375 39.45572917 4.140625 39.68359375 C2.04394578 39.99350436 0.05090664 40.47224838 -2 41 C-2.04941382 35.64316151 -2.08572607 30.2864555 -2.10986328 24.92944336 C-2.11992491 23.10682871 -2.1335756 21.28423021 -2.15087891 19.46166992 C-2.17512021 16.84289565 -2.18648138 14.22433469 -2.1953125 11.60546875 C-2.20563507 10.78974899 -2.21595764 9.97402924 -2.22659302 9.1335907 C-2.2273686 5.22869244 -2.21650661 3.32475992 0 0 Z " fill="#E7E6E6" transform="translate(830,720)"/>
<path d="M0 0 C6.6 0 13.2 0 20 0 C20 0.33 20 0.66 20 1 C11.585 1.495 11.585 1.495 3 2 C3 10.91 3 19.82 3 29 C2.67 29 2.34 29 2 29 C1.67 32.63 1.34 36.26 1 40 C0.67 40 0.34 40 0 40 C0 26.8 0 13.6 0 0 Z " fill="#D1CFCC" transform="translate(828,769)"/>
<path d="M0 0 C0.495 1.485 0.495 1.485 1 3 C-0.98667603 4.98667603 -4.89354033 4.18766974 -7.61328125 4.203125 C-8.76222115 4.21167511 -8.76222115 4.21167511 -9.93437195 4.22039795 C-11.55934258 4.22986293 -13.18433253 4.23638786 -14.80932617 4.24023438 C-17.29184733 4.24991943 -19.77353349 4.28091887 -22.25585938 4.3125 C-23.83332841 4.31903192 -25.41080338 4.32428165 -26.98828125 4.328125 C-28.10098137 4.3466452 -28.10098137 4.3466452 -29.23616028 4.36553955 C-33.44312973 4.34743055 -35.95274419 4.0070624 -39 1 C-34.8882744 0.97534254 -30.77657722 0.95716041 -26.66479492 0.94506836 C-25.26504772 0.9400292 -23.8653058 0.93319784 -22.46557617 0.92456055 C-20.45754223 0.9124768 -18.44947043 0.90730193 -16.44140625 0.90234375 C-14.62684937 0.89448853 -14.62684937 0.89448853 -12.77563477 0.88647461 C-10 1 -10 1 -9 2 C-6.32941149 2.14115161 -3.67567762 2.04247107 -1 2 C-0.67 1.34 -0.34 0.68 0 0 Z " fill="#45382D" transform="translate(146,826)"/>
<path d="M0 0 C0.33 0 0.66 0 1 0 C1 3.63 1 7.26 1 11 C0.34 11 -0.32 11 -1 11 C-0.835 11.763125 -0.67 12.52625 -0.5 13.3125 C1.23943662 26.14084507 1.23943662 26.14084507 -2 31 C-3 30 -3 30 -3.1328125 28.05859375 C-3.11534349 22.19774009 -2.93164516 16.35214361 -2.625 10.5 C-2.59422363 9.80575928 -2.56344727 9.11151855 -2.53173828 8.39624023 C-2.31841478 4.78877158 -2.05191431 3.07787146 0 0 Z " fill="#E7E7E6" transform="translate(132,762)"/>
<path d="M0 0 C0.33 0.66 0.66 1.32 1 2 C-0.13385593 4.56767374 -1.32544747 7.01774998 -2.625 9.5 C-2.99310791 10.22034424 -3.36121582 10.94068848 -3.74047852 11.68286133 C-4.81933772 13.79262519 -5.90758965 15.89722618 -7 18 C-7.98366814 19.89350162 -8.96376937 21.7888689 -9.9375 23.6875 C-10.31777344 24.41324219 -10.69804687 25.13898438 -11.08984375 25.88671875 C-12.10193213 28.23667504 -12.58104876 30.48188258 -13 33 C-13.66 33 -14.32 33 -15 33 C-15.33 33.66 -15.66 34.32 -16 35 C-15.44318619 30.79244784 -14.47470505 27.41362188 -12.63671875 23.59375 C-12.16169922 22.60246094 -11.68667969 21.61117187 -11.19726562 20.58984375 C-10.69904297 19.57019531 -10.20082031 18.55054688 -9.6875 17.5 C-9.20087891 16.48035156 -8.71425781 15.46070313 -8.21289062 14.41015625 C-5.76922607 9.3518035 -3.28727719 4.56002347 0 0 Z " fill="#33922F" transform="translate(424,211)"/>
<path d="M0 0 C3.95231821 2.40575891 5.97351496 3.93958303 8 8 C9.32802894 9.48846891 10.71231254 10.92763208 12.1328125 12.328125 C12.93847656 13.12734375 13.74414062 13.9265625 14.57421875 14.75 C15.83685547 15.9875 15.83685547 15.9875 17.125 17.25 C17.97449219 18.09046875 18.82398438 18.9309375 19.69921875 19.796875 C21.79504923 21.86915683 23.89540713 23.93662393 26 26 C23 26 23 26 20.97875977 24.33520508 C20.22393311 23.57103271 19.46910645 22.80686035 18.69140625 22.01953125 C17.86189453 21.18486328 17.03238281 20.35019531 16.17773438 19.49023438 C15.31470703 18.60658203 14.45167969 17.72292969 13.5625 16.8125 C12.70333984 15.94818359 11.84417969 15.08386719 10.95898438 14.19335938 C0 3.09834416 0 3.09834416 0 0 Z " fill="#349430" transform="translate(453,549)"/>
<path d="M0 0 C2.5986701 2.5986701 2.63249261 4.39842758 3 8 C2.67 8.99 2.34 9.98 2 11 C1.9314505 12.89470816 1.91519628 14.7916834 1.9375 16.6875 C1.94652344 17.68136719 1.95554688 18.67523437 1.96484375 19.69921875 C1.97644531 20.45847656 1.98804688 21.21773437 2 22 C1.01 22 0.02 22 -1 22 C-1.12886183 14.59760355 -0.79725902 7.36040917 0 0 Z " fill="#E5E3E2" transform="translate(132,736)"/>
<path d="M0 0 C1 1 1 1 1.0625 3.5625 C1.041875 4.366875 1.02125 5.17125 1 6 C0.34 6.33 -0.32 6.66 -1 7 C-1 5.35 -1 3.7 -1 2 C-11.23 2 -21.46 2 -32 2 C-32 1.67 -32 1.34 -32 1 C-28.54184898 0.82940635 -25.08345693 0.66426561 -21.625 0.5 C-20.17673828 0.42845703 -20.17673828 0.42845703 -18.69921875 0.35546875 C-4.82532489 -0.29632492 -4.82532489 -0.29632492 0 0 Z " fill="#24160F" transform="translate(257,710)"/>
<path d="M0 0 C0.66 0.33 1.32 0.66 2 1 C1.01 2.485 1.01 2.485 0 4 C-0.33 4.99 -0.66 5.98 -1 7 C-2.65 7.33 -4.3 7.66 -6 8 C-6 7.01 -6 6.02 -6 5 C-11.61 5 -17.22 5 -23 5 C-23 4.67 -23 4.34 -23 4 C-22.01 3.96261719 -21.02 3.92523437 -20 3.88671875 C-12.81171148 3.55009468 -6.6744335 2.87916739 0 0 Z " fill="#2A1B13" transform="translate(526,861)"/>
<path d="M0 0 C0.33 0 0.66 0 1 0 C2.17700048 4.62459244 2.11408412 9.07866462 2.0625 13.8125 C2.05798828 14.60076172 2.05347656 15.38902344 2.04882812 16.20117188 C2.03711312 18.13414761 2.01917998 20.06708393 2 22 C1.01 22 0.02 22 -1 22 C-1.02716824 19.45826023 -1.04691969 16.91681585 -1.0625 14.375 C-1.07087891 13.66214844 -1.07925781 12.94929687 -1.08789062 12.21484375 C-1.10710296 8.02655562 -0.8267327 4.1271538 0 0 Z " fill="#E6E6E4" transform="translate(244,788)"/>
<path d="M0 0 C0.66 1.32 1.32 2.64 2 4 C0.75 6.75 0.75 6.75 -1 9 C-1.66 9 -2.32 9 -3 9 C-3.103125 10.0725 -3.20625 11.145 -3.3125 12.25 C-3.97400493 15.85820872 -4.57483421 17.36395023 -7 20 C-7.66 19.67 -8.32 19.34 -9 19 C-6.03 12.73 -3.06 6.46 0 0 Z " fill="#E9E8E6" transform="translate(207,768)"/>
<path d="M0 0 C2.12472576 -0.05386629 4.24983652 -0.09273071 6.375 -0.125 C7.55835938 -0.14820313 8.74171875 -0.17140625 9.9609375 -0.1953125 C13 0 13 0 15 2 C11.71480525 3.09506492 9.26336585 3.09960608 5.8125 3.0625 C4.18248047 3.04896484 4.18248047 3.04896484 2.51953125 3.03515625 C1.68808594 3.02355469 0.85664063 3.01195312 0 3 C0 2.01 0 1.02 0 0 Z " fill="#453930" transform="translate(497,872)"/>
<path d="M0 0 C0.66 0.33 1.32 0.66 2 1 C2 5.95 2 10.9 2 16 C-0.64994113 13.35005887 -0.92248165 11.35657109 -1.1328125 7.67578125 C-1.13023437 6.89589844 -1.12765625 6.11601563 -1.125 5.3125 C-1.12757813 4.52488281 -1.13015625 3.73726562 -1.1328125 2.92578125 C-1 1 -1 1 0 0 Z " fill="#E6E5E3" transform="translate(491,770)"/>
<path d="M0 0 C1.33804687 0.04060547 1.33804687 0.04060547 2.703125 0.08203125 C3.37859375 0.11683594 4.0540625 0.15164063 4.75 0.1875 C5.08 1.1775 5.41 2.1675 5.75 3.1875 C0.8 3.1875 -4.15 3.1875 -9.25 3.1875 C-5.16748364 0.12561273 -4.68502071 -0.18493503 0 0 Z " fill="#E3E2E0" transform="translate(509.25,745.8125)"/>
<path d="M0 0 C2.97 0 5.94 0 9 0 C8.67 0.66 8.34 1.32 8 2 C5.4375 2.625 5.4375 2.625 3 3 C3.09539063 3.61488281 3.19078125 4.22976563 3.2890625 4.86328125 C3.39992188 5.67152344 3.51078125 6.47976563 3.625 7.3125 C3.74101563 8.11300781 3.85703125 8.91351562 3.9765625 9.73828125 C4 12 4 12 2 15 C1.93941406 14.25234375 1.87882813 13.5046875 1.81640625 12.734375 C1.73261719 11.74953125 1.64882813 10.7646875 1.5625 9.75 C1.48128906 8.77546875 1.40007813 7.8009375 1.31640625 6.796875 C1.03653074 3.77228378 1.03653074 3.77228378 0 0 Z " fill="#F8F8F8" transform="translate(537,766)"/>
<path d="M0 0 C2 2 2 2 2.265625 4.05859375 C2.25789062 5.23615234 2.25789062 5.23615234 2.25 6.4375 C2.25515625 7.21996094 2.2603125 8.00242187 2.265625 8.80859375 C2 11 2 11 0 14 C-1 13 -1 13 -1.1328125 10.56640625 C-1.13023437 9.57511719 -1.12765625 8.58382812 -1.125 7.5625 C-1.12757813 6.57378906 -1.13015625 5.58507812 -1.1328125 4.56640625 C-1 2 -1 2 0 0 Z " fill="#E6E5E4" transform="translate(520,772)"/>
<path d="M0 0 C0.08086147 1.79093191 0.13912702 3.58289628 0.1875 5.375 C0.22230469 6.37273438 0.25710938 7.37046875 0.29296875 8.3984375 C0.19628906 9.25695312 0.09960938 10.11546875 0 11 C-0.99 11.66 -1.98 12.32 -3 13 C-3 9.04 -3 5.08 -3 1 C-1 0 -1 0 0 0 Z " fill="#E6E7E6" transform="translate(867,735)"/>
<path d="M0 0 C1.85776765 3.13498292 2.20140476 5.37471432 2 9 C2.66 9 3.32 9 4 9 C4 11.97 4 14.94 4 18 C0.26790462 12.40185694 -0.27269478 6.54467462 0 0 Z " fill="#2E902B" transform="translate(388,410)"/>
<path d="M0 0 C0.27457031 0.55429688 0.54914062 1.10859375 0.83203125 1.6796875 C1.64634869 3.2974285 2.47853214 4.90624671 3.32421875 6.5078125 C3.77410156 7.37148437 4.22398437 8.23515625 4.6875 9.125 C5.14511719 9.99382812 5.60273437 10.86265625 6.07421875 11.7578125 C6.37972656 12.49773437 6.68523438 13.23765625 7 14 C6.67 14.66 6.34 15.32 6 16 C5.01364163 14.58833114 4.03618745 13.17043816 3.0625 11.75 C2.51722656 10.96109375 1.97195313 10.1721875 1.41015625 9.359375 C0.08004798 7.13393069 -0.66734535 5.55563253 -1 3 C-0.67 2.01 -0.34 1.02 0 0 Z " fill="#217D22" transform="translate(514,93)"/>
<path d="M0 0 C2.23551759 3.35327639 2.17283528 3.90743657 1.625 7.6875 C1.51414062 8.49574219 1.40328125 9.30398438 1.2890625 10.13671875 C1.19367187 10.75160156 1.09828125 11.36648438 1 12 C-1 10 -1 10 -1.23046875 8.125 C-1.21628906 7.42375 -1.20210937 6.7225 -1.1875 6 C-1.18105469 5.29875 -1.17460938 4.5975 -1.16796875 3.875 C-1 2 -1 2 0 0 Z " fill="#E3E2E1" transform="translate(873,789)"/>
<path d="M0 0 C0.33 1.32 0.66 2.64 1 4 C1.66 4.33 2.32 4.66 3 5 C1.125 10.75 1.125 10.75 0 13 C-0.66 13 -1.32 13 -2 13 C-1.34 8.71 -0.68 4.42 0 0 Z " fill="#E2E0DE" transform="translate(779,777)"/>
<path d="M0 0 C0.33 0 0.66 0 1 0 C1.03738281 1.13179687 1.07476563 2.26359375 1.11328125 3.4296875 C1.17893082 4.91149205 1.24537851 6.39326139 1.3125 7.875 C1.33505859 8.62136719 1.35761719 9.36773438 1.38085938 10.13671875 C1.47811945 12.099604 1.73042294 14.05328322 2 16 C2.99 16.66 3.98 17.32 5 18 C3.35 18.33 1.7 18.66 0 19 C0 12.73 0 6.46 0 0 Z " fill="#95C58E" transform="translate(512,647)"/>
<path d="M0 0 C0.33 0 0.66 0 1 0 C1.05406122 1.93719378 1.09282025 3.87481921 1.125 5.8125 C1.14820313 6.89144531 1.17140625 7.97039063 1.1953125 9.08203125 C1 12 1 12 -1 15 C-1.97798721 11.20431539 -1.92653069 8.4994001 -1.0625 4.6875 C-0.86785156 3.80449219 -0.67320312 2.92148437 -0.47265625 2.01171875 C-0.31667969 1.34785156 -0.16070313 0.68398438 0 0 Z " fill="#E7E6E4" transform="translate(642,793)"/>
<path d="M0 0 C2.31 0.33 4.62 0.66 7 1 C7.33 1.99 7.66 2.98 8 4 C2.25 3.125 2.25 3.125 0 2 C0 1.34 0 0.68 0 0 Z " fill="#E7E6E5" transform="translate(498,793)"/>
<path d="M0 0 C0.33 0 0.66 0 1 0 C2.10228696 4.40914783 2.07654536 8.48382401 2 13 C0.48046875 11.82421875 0.48046875 11.82421875 -1 10 C-1.07421875 7.51953125 -1.07421875 7.51953125 -0.6875 4.8125 C-0.56761719 3.91144531 -0.44773437 3.01039063 -0.32421875 2.08203125 C-0.21722656 1.39496094 -0.11023438 0.70789063 0 0 Z " fill="#C1DABC" transform="translate(515,528)"/>
<path d="M0 0 C1 3 1 3 1 5 C0.34 5 -0.32 5 -1 5 C-1.12375 5.78375 -1.2475 6.5675 -1.375 7.375 C-2 10 -2 10 -4 12 C-3.45660208 7.43545749 -2.20536179 4.0271824 0 0 Z " fill="#349230" transform="translate(407,247)"/>
<path d="M0 0 C2 2 2 2 2.125 4.625 C2.08375 5.40875 2.0425 6.1925 2 7 C1.67 7 1.34 7 1 7 C0.67 8.65 0.34 10.3 0 12 C-0.33 12 -0.66 12 -1 12 C-1.02698189 10.37509046 -1.04638757 8.75005367 -1.0625 7.125 C-1.07410156 6.22007812 -1.08570312 5.31515625 -1.09765625 4.3828125 C-1 2 -1 2 0 0 Z " fill="#47392C" transform="translate(129,758)"/>
<path d="M0 0 C0.66 0.33 1.32 0.66 2 1 C2 1.99 2 2.98 2 4 C3.32 4.33 4.64 4.66 6 5 C4.02 5.33 2.04 5.66 0 6 C-0.38218767 4.34385343 -0.71395102 2.67542976 -1 1 C-0.67 0.67 -0.34 0.34 0 0 Z " fill="#43372D" transform="translate(209,824)"/>
<path d="M0 0 C0.66 0.33 1.32 0.66 2 1 C2.20086443 4.71599191 2.1519437 5.77208445 0 9 C-0.66 9 -1.32 9 -2 9 C-1.34 6.03 -0.68 3.06 0 0 Z " fill="#E2E0DE" transform="translate(349,798)"/>
<path d="M0 0 C0.99 0.33 1.98 0.66 3 1 C1.515 4.465 1.515 4.465 0 8 C-0.66 7.34 -1.32 6.68 -2 6 C-1.34 4.02 -0.68 2.04 0 0 Z " fill="#E8E8E6" transform="translate(190,776)"/>
<path d="M0 0 C1 4 1 4 0.0625 6.25 C-0.4634375 7.11625 -0.4634375 7.11625 -1 8 C-1.99 8 -2.98 8 -4 8 C-2.68 5.36 -1.36 2.72 0 0 Z " fill="#E6E4E3" transform="translate(885,747)"/>
<path d="M0 0 C0.99 0 1.98 0 3 0 C3 1.32 3 2.64 3 4 C4.32 4.33 5.64 4.66 7 5 C4.69 5 2.38 5 0 5 C0 3.35 0 1.7 0 0 Z " fill="#47382B" transform="translate(655,824)"/>
</svg>
