<?xml version="1.0" encoding="UTF-8"?>
<svg version="1.1" xmlns="http://www.w3.org/2000/svg" width="1024" height="1024">
<path d="M0 0 C0.66 0 1.32 0 2 0 C2.24234375 0.64066406 2.4846875 1.28132812 2.734375 1.94140625 C6.20228436 11.16497466 6.20228436 11.16497466 12 19 C12.515625 19.94875 13.03125 20.8975 13.5625 21.875 C18.88959278 31.35409156 26.26984514 39.62890151 33.3203125 47.85546875 C35.71968619 50.65757621 38.05488556 53.50672665 40.375 56.375 C43.91340798 60.72560483 47.5612944 64.96498172 51.25 69.1875 C65.22360116 85.24375431 77.85012467 101.94523341 89.4765625 119.77734375 C90.94894705 122.07126965 90.94894705 122.07126965 93 124 C93.88915008 125.5217585 94.73688461 127.06785645 95.5625 128.625 C97.73263725 132.67486684 99.95118574 136.68835394 102.22998047 140.67749023 C116.75987322 166.18380303 127.86043879 192.94607477 136.4375 221 C136.69692383 221.84328857 136.95634766 222.68657715 137.22363281 223.55541992 C137.45791992 224.34150635 137.69220703 225.12759277 137.93359375 225.9375 C138.14040771 226.62714844 138.34722168 227.31679688 138.56030273 228.02734375 C139 230 139 230 139 234 C139.66 234.33 140.32 234.66 141 235 C141.5625 237.31616211 141.5625 237.31616211 142 240.33984375 C142.165 241.43022949 142.33 242.52061523 142.5 243.64404297 C142.665 244.75150879 142.83 245.85897461 143 247 C143.32745163 248.91898167 143.66057317 250.8370065 144 252.75390625 C159.31229957 341.12129993 139.29145195 424.25197153 88.0625 497.6875 C83.52408935 504.10763743 78.67232683 510.16279949 73.51171875 516.08984375 C71.28085743 518.67458975 69.15931126 521.30657027 67.0625 524 C60.47561066 532.30815466 53.11270857 540.03369017 45.52734375 547.43359375 C43.28476083 549.73353173 41.27080609 552.21036501 39.26171875 554.71484375 C38.84535156 555.13894531 38.42898438 555.56304688 38 556 C37.34 556 36.68 556 36 556 C36 556.66 36 557.32 36 558 C35.319375 558.515625 34.63875 559.03125 33.9375 559.5625 C22.62627492 568.94841017 19.33852561 580.85462123 18 595 C17.62265283 600.58884462 17.48460315 606.18549891 17.36694336 611.78491211 C17.31278863 614.29910003 17.2422751 616.81244913 17.16992188 619.32617188 C16.94358069 628.18814994 17.01254947 636.94015158 17.71614075 645.78157043 C18.09796349 650.80407302 18.09796349 650.80407302 17 653 C9.41 653.33 1.82 653.66 -6 654 C-6.95987611 651.12037166 -7.12153814 649.33372559 -7.11352539 646.3449707 C-7.11344986 645.40422195 -7.11337433 644.46347321 -7.11329651 643.49421692 C-7.10813522 642.48163315 -7.10297394 641.46904938 -7.09765625 640.42578125 C-7.09553383 638.86732735 -7.09553383 638.86732735 -7.09336853 637.27738953 C-7.08776656 633.95573052 -7.07521372 630.63413867 -7.0625 627.3125 C-7.05748525 625.06184993 -7.0529223 622.81119881 -7.04882812 620.56054688 C-7.03779649 615.04034163 -7.02105643 609.52017561 -7 604 C-7.66 603.67 -8.32 603.34 -9 603 C-8.9175 601.865625 -8.835 600.73125 -8.75 599.5625 C-8.76709425 588.77602828 -11.76247134 576.84154548 -18 568 C-18.598125 567.13375 -19.19625 566.2675 -19.8125 565.375 C-21.67866371 563.3488794 -23.54459284 561.63170287 -25.6328125 559.84765625 C-29.95515343 556.0890139 -34.02519872 552.12329672 -38.0625 548.0625 C-38.73087891 547.39798828 -39.39925781 546.73347656 -40.08789062 546.04882812 C-44.02410607 542.10496212 -47.77271309 538.05144951 -51.41235352 533.83276367 C-53.5355451 531.38177194 -55.73617 529.00580615 -57.9375 526.625 C-62.52878322 521.58359097 -66.81294415 516.37875636 -71 511 C-72.06734375 509.67742187 -72.06734375 509.67742187 -73.15625 508.328125 C-81.83252774 497.39601505 -89.38107674 485.68134858 -97 474 C-97.43086914 473.34499512 -97.86173828 472.68999023 -98.30566406 472.01513672 C-112.07787017 450.99472966 -122.38679697 427.76748567 -130.32958984 403.98388672 C-130.95308737 402.13882449 -131.60999728 400.30514601 -132.26953125 398.47265625 C-138.69465275 379.68682481 -142.26857453 358.7427476 -144 339 C-144.16435547 337.24042969 -144.16435547 337.24042969 -144.33203125 335.4453125 C-147.41716544 295.87332464 -143.17963338 256.27986735 -133 218 C-132.77618652 217.14809082 -132.55237305 216.29618164 -132.32177734 215.41845703 C-122.03257623 176.92808482 -103.67546197 140.60799472 -81 108 C-80.49049805 107.25991699 -79.98099609 106.51983398 -79.45605469 105.75732422 C-73.31984692 96.84924329 -66.97313992 88.27715024 -60 80 C-58.91611319 78.68251395 -57.83423666 77.36337259 -56.75390625 76.04296875 C-51.15305803 69.19930117 -45.51993992 62.3895288 -39.75 55.6875 C-34.43372457 49.51150838 -29.15171174 43.31500148 -24 37 C-23.20078125 36.0203125 -22.4015625 35.040625 -21.578125 34.03125 C-16.47649313 27.59734484 -11.89911857 20.93452881 -7.5 14 C-6.98324707 13.186521 -6.46649414 12.37304199 -5.93408203 11.53491211 C-3.59449177 7.78696803 -1.42609215 4.21036731 0 0 Z " fill="#3C8842" transform="translate(510,174)"/>
<path d="M0 0 C0.33 0 0.66 0 1 0 C1.01401855 0.97549805 1.01401855 0.97549805 1.02832031 1.97070312 C1.43509299 24.92544354 3.01379415 48.19319956 8.5 70.5625 C8.78375488 71.72060181 8.78375488 71.72060181 9.07324219 72.90209961 C10.38494203 77.7715381 12.14140543 81.82537321 15 86 C18.55652459 86.90137027 18.55652459 86.90137027 22 87 C22.99 87.99 22.99 87.99 24 89 C23.67386719 89.44988281 23.34773437 89.89976562 23.01171875 90.36328125 C15.78451388 101.00155627 14.97819244 113.29820816 14.6484375 125.8125 C14.62528473 126.62509277 14.60213196 127.43768555 14.57827759 128.27490234 C14.53098743 129.98578595 14.48571535 131.69672643 14.44238281 133.40771484 C14.3758807 135.96611873 14.29765642 138.5239839 14.21875 141.08203125 C13.97005138 150.03345309 13.99791422 158.86572665 14.71298218 167.79736328 C15.09707556 172.80584888 15.09707556 172.80584888 14 175 C6.41 175.33 -1.18 175.66 -9 176 C-9.95987611 173.12037166 -10.12153814 171.33372559 -10.11352539 168.3449707 C-10.11344986 167.40422195 -10.11337433 166.46347321 -10.11329651 165.49421692 C-10.10813522 164.48163315 -10.10297394 163.46904938 -10.09765625 162.42578125 C-10.0962413 161.38681198 -10.09482635 160.34784271 -10.09336853 159.27738953 C-10.08776656 155.95573052 -10.07521372 152.63413867 -10.0625 149.3125 C-10.05748525 147.06184993 -10.0529223 144.81119881 -10.04882812 142.56054688 C-10.03779649 137.04034163 -10.02105643 131.52017561 -10 126 C-10.66 125.67 -11.32 125.34 -12 125 C-11.9175 123.865625 -11.835 122.73125 -11.75 121.5625 C-11.76590146 111.52868186 -14.35709124 100.23890972 -19.94921875 91.859375 C-21.21823614 89.6138275 -21.6024673 87.53372493 -22 85 C-20.948125 85.0825 -19.89625 85.165 -18.8125 85.25 C-16.82043502 85.04308528 -16.82043502 85.04308528 -15 84 C-1.86469514 64.76106163 -1.87252121 28.94290733 -1.17578125 6.32421875 C-1 3 -1 3 0 0 Z " fill="#8CBF86" transform="translate(513,652)"/>
<path d="M0 0 C0.33 0 0.66 0 1 0 C1.00173625 0.68866695 1.0034725 1.37733389 1.00526136 2.08686954 C1.10821001 42.87067042 1.21630527 83.65445483 1.33111694 124.43822413 C1.34488711 129.33129319 1.35861411 134.22436238 1.37231445 139.11743164 C1.37504276 140.09158512 1.37777106 141.06573861 1.38058204 142.0694119 C1.4246998 157.85863623 1.4653187 173.64786773 1.50465261 189.43710462 C1.5450674 205.6290778 1.58922347 221.82103763 1.63687855 238.01299113 C1.66618368 248.01044342 1.69254379 258.00789467 1.71517897 268.00536432 C1.7309637 274.85387031 1.75037077 281.70235995 1.77266841 288.55084781 C1.78543935 292.50656414 1.79657289 296.46226787 1.80341911 300.41799927 C1.80971551 304.03575544 1.8205355 307.65346816 1.8350333 311.2712005 C1.84159375 313.20756548 1.84324207 315.14394515 1.84474558 317.08032066 C1.85022002 318.22188076 1.85569446 319.36344086 1.8613348 320.5395937 C1.86399284 321.52876516 1.86665089 322.51793662 1.86938947 323.53708297 C1.89792096 326.13633817 1.89792096 326.13633817 3 329 C3.02172852 330.99291992 3.02172852 330.99291992 2.87890625 333.23046875 C2.83056641 334.03291016 2.78222656 334.83535156 2.73242188 335.66210938 C2.67634766 336.49548828 2.62027344 337.32886719 2.5625 338.1875 C2.51029297 339.03248047 2.45808594 339.87746094 2.40429688 340.74804688 C2.27476311 342.83236299 2.13806823 344.91623182 2 347 C1.67 347 1.34 347 1 347 C0.23455113 342.9248186 -0.12457028 339.08030274 -0.12304783 334.93618965 C-0.12503888 333.73640547 -0.12702993 332.53662129 -0.12908131 331.30048001 C-0.12616847 329.99114369 -0.12325563 328.68180737 -0.12025452 327.33279419 C-0.12069076 325.92105874 -0.12156663 324.50932336 -0.12284368 323.09758842 C-0.12507829 319.22319747 -0.12108149 315.3488342 -0.11606562 311.47444677 C-0.11174648 307.29455409 -0.11320859 303.11466296 -0.1139679 298.93476868 C-0.1144922 291.69444535 -0.11135514 284.45413103 -0.10573006 277.21380997 C-0.09760243 266.74552579 -0.09499854 256.27724598 -0.09374207 245.80895899 C-0.09155354 228.8247853 -0.08489883 211.8406164 -0.07543945 194.85644531 C-0.0662602 178.35807316 -0.05918187 161.85970231 -0.05493164 145.36132812 C-0.05466892 144.34433897 -0.05440619 143.32734982 -0.05413551 142.27954282 C-0.05283047 137.17759834 -0.05156676 132.07565384 -0.05032361 126.97370934 C-0.03995719 84.64913624 -0.02234426 42.32456837 0 0 Z " fill="#2F7535" transform="translate(514,338)"/>
<path d="M0 0 C3.36996714 3.05403272 5.99159157 6.28830294 8.625 10 C12.57344932 15.53229058 16.86450818 20.66796047 21.28515625 25.8203125 C23.69812023 28.63276264 26.04486512 31.49332861 28.375 34.375 C31.91340798 38.72560483 35.5612944 42.96498172 39.25 47.1875 C53.22360116 63.24375431 65.85012467 79.94523341 77.4765625 97.77734375 C78.94894705 100.07126965 78.94894705 100.07126965 81 102 C81.88915008 103.5217585 82.73688461 105.06785645 83.5625 106.625 C85.73313102 110.6757883 87.95258721 114.68998415 90.23120117 118.68041992 C95.14459 127.30218503 99.67610214 136.06953394 104 145 C104.54269531 146.1034375 105.08539062 147.206875 105.64453125 148.34375 C106.11246094 149.3234375 106.58039063 150.303125 107.0625 151.3125 C107.46597656 152.15425781 107.86945313 152.99601563 108.28515625 153.86328125 C109 156 109 156 108 159 C107 157 106 155 105 153 C104.68530762 152.37134033 104.37061523 151.74268066 104.04638672 151.0949707 C102.38154301 147.76815229 100.72087303 144.43939911 99.0703125 141.10546875 C97.40046855 137.73448185 95.7086594 134.37498693 94.01074219 131.01806641 C93.05390306 129.10762383 92.12341389 127.18623869 91.1953125 125.26171875 C86.2535379 115.2595057 80.23658427 106.02080812 74.0625 96.75 C73.64206421 96.11664734 73.22162842 95.48329468 72.78845215 94.83074951 C64.9830666 83.10671857 56.53220564 71.97269135 47.625 61.0625 C47.08174072 60.39557129 46.53848145 59.72864258 45.97875977 59.04150391 C39.48471623 51.10193612 32.79134903 43.33367742 26.0390625 35.61328125 C0 5.71642163 0 5.71642163 0 0 Z " fill="#255A25" transform="translate(522,196)"/>
<path d="M0 0 C0.66 0.33 1.32 0.66 2 1 C1.66226563 1.6290625 1.32453125 2.258125 0.9765625 2.90625 C-4.78719229 13.96732855 -6.02622373 24.46580296 -6.3515625 36.8125 C-6.37471527 37.62509277 -6.39786804 38.43768555 -6.42172241 39.27490234 C-6.46901257 40.98578595 -6.51428465 42.69672643 -6.55761719 44.40771484 C-6.6241193 46.96611873 -6.70234358 49.5239839 -6.78125 52.08203125 C-7.02994862 61.03345309 -7.00208578 69.86572665 -6.28701782 78.79736328 C-5.90292444 83.80584888 -5.90292444 83.80584888 -7 86 C-14.59 86.33 -22.18 86.66 -30 87 C-31.19888209 83.40335372 -31.14905532 80.11732124 -31.125 76.375 C-31.12306641 75.66021484 -31.12113281 74.94542969 -31.11914062 74.20898438 C-31.07726315 69.07666727 -30.72652078 64.08564547 -30 59 C-29.67 59 -29.34 59 -29 59 C-29 67.58 -29 76.16 -29 85 C-22.4 85 -15.8 85 -9 85 C-9.01047363 83.43749512 -9.02094727 81.87499023 -9.03173828 80.26513672 C-9.06822833 74.40936621 -9.09100507 68.55360553 -9.10986328 62.69775391 C-9.11985525 60.17429915 -9.13345337 57.65085578 -9.15087891 55.12744141 C-9.42187845 14.84415608 -9.42187845 14.84415608 0 0 Z " fill="#6A9C63" transform="translate(534,741)"/>
<path d="M0 0 C1 3 1 3 -0.30078125 6.16015625 C-0.95987689 7.46679041 -1.6314289 8.76718458 -2.3125 10.0625 C-2.67424316 10.76568359 -3.03598633 11.46886719 -3.40869141 12.19335938 C-4.59010253 14.47089929 -5.79103771 16.73697221 -7 19 C-7.59578857 20.11544189 -7.59578857 20.11544189 -8.20361328 21.25341797 C-15.82283259 35.41573051 -24.13749301 49.04200736 -33.3125 62.25 C-33.80411621 62.96551025 -34.29573242 63.68102051 -34.80224609 64.41821289 C-37.51372704 68.26047636 -40.10973819 71.25059821 -44 74 C-42.59910896 70.79908137 -40.68433177 68.15487126 -38.57397461 65.38354492 C-23.2295217 45.2295963 -11.08008402 22.71726723 0 0 Z " fill="#235322" transform="translate(631,610)"/>
<path d="M0 0 C0.33 0 0.66 0 1 0 C1.01030746 1.07075272 1.02061493 2.14150543 1.03123474 3.2447052 C1.128895 13.32438726 1.2316221 23.40400656 1.33933926 33.48358631 C1.39455702 38.66587499 1.44797526 43.84816933 1.49731445 49.03051758 C1.54497482 54.02963416 1.59731835 59.02868157 1.65294075 64.02771568 C1.6733567 65.93711314 1.69207104 67.84652956 1.70907402 69.75596046 C1.73313476 72.42567437 1.76318716 75.09525744 1.79467773 77.76489258 C1.8004332 78.55827026 1.80618866 79.35164795 1.81211853 80.16906738 C1.85513592 83.36715819 1.98147742 85.94443225 3 89 C3.02172852 90.99291992 3.02172852 90.99291992 2.87890625 93.23046875 C2.83056641 94.03291016 2.78222656 94.83535156 2.73242188 95.66210938 C2.67634766 96.49548828 2.62027344 97.32886719 2.5625 98.1875 C2.51029297 99.03248047 2.45808594 99.87746094 2.40429688 100.74804688 C2.27476311 102.83236299 2.13806823 104.91623182 2 107 C1.67 107 1.34 107 1 107 C-0.10947497 101.64746932 -0.1347088 96.48482438 -0.11352539 91.04736328 C-0.11367142 90.0613765 -0.11381744 89.07538971 -0.1139679 88.05952454 C-0.11327339 84.81309784 -0.10550262 81.56672912 -0.09765625 78.3203125 C-0.09579043 76.06444327 -0.0943673 73.80857364 -0.09336853 71.55270386 C-0.08955627 65.62454097 -0.07973701 59.6964027 -0.06866455 53.76824951 C-0.05842266 47.71529473 -0.05386496 41.66233596 -0.04882812 35.609375 C-0.03811358 23.73957253 -0.02105266 11.86978832 0 0 Z " fill="#296E30" transform="translate(514,578)"/>
<path d="M0 0 C0.33 0 0.66 0 1 0 C1.22056447 4.17604639 1.4166252 8.35238858 1.59204102 12.53051758 C1.65466345 13.94552828 1.7234646 15.3602819 1.79907227 16.7746582 C2.30176872 26.27865757 1.71013584 34.77879503 -1 44 C-1.33 44 -1.66 44 -2 44 C-3.0887473 34.85644026 -2.8418446 26.10287029 -2.125 16.9375 C-2.03347656 15.63361328 -1.94195312 14.32972656 -1.84765625 12.98632812 C-1.14535922 3.43607766 -1.14535922 3.43607766 0 0 Z " fill="#7CB679" transform="translate(513,652)"/>
<path d="M0 0 C1.23756087 3.71268262 0.56501274 4.69465821 -0.875 8.25 C-2.60854868 12.54144218 -3.34796222 16.42607573 -4 21 C-4.76012432 24.00836971 -5.65492662 26.97072652 -6.5625 29.9375 C-6.79646484 30.71673828 -7.03042969 31.49597656 -7.27148438 32.29882812 C-7.84317421 34.20057187 -8.42095691 36.10048226 -9 38 C-9.66 38 -10.32 38 -11 38 C-11.495 40.475 -11.495 40.475 -12 43 C-12.33 43 -12.66 43 -13 43 C-12.44617484 36.43321594 -11.2109259 30.53194214 -9.25 24.25 C-8.98485596 23.3839917 -8.71971191 22.5179834 -8.4465332 21.62573242 C-2.49973474 2.49973474 -2.49973474 2.49973474 0 0 Z " fill="#397E3A" transform="translate(389,358)"/>
<path d="M0 0 C0.33 0 0.66 0 1 0 C1 8.58 1 17.16 1 26 C7.6 26 14.2 26 21 26 C21.33 20.06 21.66 14.12 22 8 C22.33 8 22.66 8 23 8 C23.19425873 10.79134852 23.38069517 13.58283687 23.5625 16.375 C23.61857422 17.1690625 23.67464844 17.963125 23.73242188 18.78125 C24.11328125 24.7734375 24.11328125 24.7734375 23 27 C15.41 27.33 7.82 27.66 0 28 C-1.19888209 24.40335372 -1.14905532 21.11732124 -1.125 17.375 C-1.12306641 16.66021484 -1.12113281 15.94542969 -1.11914062 15.20898438 C-1.07726315 10.07666727 -0.72652078 5.08564547 0 0 Z " fill="#7BA872" transform="translate(504,800)"/>
<path d="M0 0 C3.36996714 3.05403272 5.99159157 6.28830294 8.625 10 C15.42143383 19.52014644 23.25320506 28.24850128 31 37 C30.34 37.66 29.68 38.32 29 39 C22.41903244 31.51785491 16.04961156 23.92064334 10 16 C9.19139526 14.94244507 9.19139526 14.94244507 8.36645508 13.86352539 C0 2.82085625 0 2.82085625 0 0 Z " fill="#2C652C" transform="translate(522,196)"/>
<path d="M0 0 C0.66 0 1.32 0 2 0 C0.71994458 2.76781937 -0.65402364 4.94703013 -2.6875 7.21484375 C-3.21706299 7.81288818 -3.74662598 8.41093262 -4.29223633 9.02709961 C-4.85579834 9.65753174 -5.41936035 10.28796387 -6 10.9375 C-11.98993498 17.73033937 -17.58133782 24.74657636 -23 32 C-23.33 31.34 -23.66 30.68 -24 30 C-18.81643106 23.16002744 -13.36437951 16.54741045 -7.88818359 9.94165039 C-7.30117676 9.23258545 -6.71416992 8.52352051 -6.109375 7.79296875 C-5.58311523 7.1589917 -5.05685547 6.52501465 -4.51464844 5.87182617 C-3.43742115 4.54057188 -2.41414519 3.16487436 -1.43066406 1.76293945 C-0.95854492 1.18116943 -0.48642578 0.59939941 0 0 Z " fill="#2D692D" transform="translate(467,233)"/>
<path d="M0 0 C1.22487034 3.67461103 0.65054516 4.48311014 -0.8359375 7.96484375 C-1.24070312 8.92970703 -1.64546875 9.89457031 -2.0625 10.88867188 C-2.7121875 12.3978418 -2.7121875 12.3978418 -3.375 13.9375 C-4.21848078 15.92479183 -5.05971752 17.91303798 -5.8984375 19.90234375 C-6.27661621 20.78398193 -6.65479492 21.66562012 -7.04443359 22.57397461 C-7.88800553 24.71566453 -8.48365565 26.76270996 -9 29 C-9.92902153 31.36828288 -10.97046415 33.67235373 -12 36 C-13.24770354 32.25688939 -12.52128537 31.21056673 -11.0625 27.625 C-9.42211473 23.60458102 -9.42211473 23.60458102 -9.05859375 19.3359375 C-8.98275826 16.31262945 -8.13126117 16.05286996 -6 14 C-4.85707168 11.61125201 -3.8067972 9.26018966 -2.8125 6.8125 C-2.53986328 6.15830078 -2.26722656 5.50410156 -1.98632812 4.83007812 C-1.31760202 3.22278908 -0.65790075 1.61175038 0 0 Z " fill="#4EA455" transform="translate(398,339)"/>
<path d="M0 0 C0 3.63898996 -0.66329035 4.0879168 -3.0625 6.6875 C-4.01382812 7.73164063 -4.01382812 7.73164063 -4.984375 8.796875 C-5.64953125 9.52390625 -6.3146875 10.2509375 -7 11 C-8.84498535 13.140183 -10.68304228 15.28612038 -12.51953125 17.43359375 C-14 19 -14 19 -16 20 C-15 18 -15 18 -14 16 C-13.731875 15.401875 -13.46375 14.80375 -13.1875 14.1875 C-10.61395675 9.44676244 -8.16981677 5.06792671 -3 3 C-1.29078411 1.4587688 -1.29078411 1.4587688 0 0 Z " fill="#499B4E" transform="translate(480,221)"/>
<path d="M0 0 C0.66 0.66 1.32 1.32 2 2 C2.45503906 2.45375 2.91007812 2.9075 3.37890625 3.375 C4.55849174 4.55742786 5.73219815 5.74572953 6.90234375 6.9375 C9.97593641 10.05238853 13.01044128 13.08568164 16.4375 15.8125 C19 18 19 18 20 21 C14.94889878 18.76996268 11.59576226 14.92524884 7.75 11.0625 C7.00492187 10.33353516 6.25984375 9.60457031 5.4921875 8.85351562 C4.78835938 8.15033203 4.08453125 7.44714844 3.359375 6.72265625 C2.71452148 6.08078369 2.06966797 5.43891113 1.40527344 4.77758789 C0 3 0 3 0 0 Z " fill="#3C7B3A" transform="translate(464,711)"/>
<path d="M0 0 C0.33 0.66 0.66 1.32 1 2 C0.07421875 3.8046875 0.07421875 3.8046875 -1.3125 5.875 C-2.67225522 7.9243732 -3.9287108 9.84203969 -4.94140625 12.0859375 C-6.19580424 14.35403719 -7.48101967 15.32067978 -9.625 16.75 C-10.25664062 17.17796875 -10.88828125 17.6059375 -11.5390625 18.046875 C-12.02117187 18.36140625 -12.50328125 18.6759375 -13 19 C-11.68779266 16.22561876 -10.22517631 13.79209828 -8.3984375 11.328125 C-7.90859375 10.66425781 -7.41875 10.00039062 -6.9140625 9.31640625 C-6.40617187 8.63449219 -5.89828125 7.95257813 -5.375 7.25 C-4.859375 6.55261719 -4.34375 5.85523438 -3.8125 5.13671875 C-2.54440881 3.42244733 -1.2725711 1.71094844 0 0 Z " fill="#4EA655" transform="translate(502,192)"/>
<path d="M0 0 C0.66 0 1.32 0 2 0 C1.9175 0.845625 1.835 1.69125 1.75 2.5625 C1.99444458 5.92361297 2.38386787 6.99842775 4.0625 9.75 C4.701875 10.8225 5.34125 11.895 6 13 C5.67 13.66 5.34 14.32 5 15 C3.68 13.02 2.36 11.04 1 9 C-0.65 10.32 -2.3 11.64 -4 13 C-3.71125 12.34 -3.4225 11.68 -3.125 11 C-1.76562701 7.37500535 -0.89375361 3.76653307 0 0 Z " fill="#4E9E51" transform="translate(510,174)"/>
<path d="M0 0 C0.33 0 0.66 0 1 0 C2.60881575 7.42640842 3.26442904 14.40501039 3 22 C2.67 22 2.34 22 2 22 C0.39118425 14.57359158 -0.26442904 7.59498961 0 0 Z " fill="#1C6125" transform="translate(516,686)"/>
<path d="M0 0 C0 4.13781054 -1.71509607 5.20919996 -4.5 8.1875 C-5.3353125 9.08855469 -6.170625 9.98960937 -7.03125 10.91796875 C-7.6809375 11.60503906 -8.330625 12.29210937 -9 13 C-9 8.86218946 -7.28490393 7.79080004 -4.5 4.8125 C-3.6646875 3.91144531 -2.829375 3.01039063 -1.96875 2.08203125 C-0.99421875 1.05142578 -0.99421875 1.05142578 0 0 Z " fill="#2E6C2E" transform="translate(484,214)"/>
<path d="M0 0 C1.98 0 3.96 0 6 0 C5.67 1.65 5.34 3.3 5 5 C4.01 5.33 3.02 5.66 2 6 C1.34 5.34 0.68 4.68 0 4 C0 2.68 0 1.36 0 0 Z " fill="#78AE70" transform="translate(491,737)"/>
<path d="M0 0 C-0.33 0.99 -0.66 1.98 -1 3 C-1.66 3 -2.32 3 -3 3 C-3 3.66 -3 4.32 -3 5 C-4.53125 6.2890625 -4.53125 6.2890625 -6.5 7.625 C-7.1496875 8.07101562 -7.799375 8.51703125 -8.46875 8.9765625 C-8.9740625 9.31429687 -9.479375 9.65203125 -10 10 C-8.50006099 6.10015857 -4.53875449 0 0 0 Z " fill="#2F6A2E" transform="translate(549,727)"/>
<path d="M0 0 C0.66 0 1.32 0 2 0 C0.44499019 3.81684226 -2.03595495 6.19195732 -5 9 C-5 4.68381834 -2.86729652 3.07210341 0 0 Z " fill="#357536" transform="translate(467,233)"/>
<path d="M0 0 C0.99 0 1.98 0 3 0 C3.6875 1.8125 3.6875 1.8125 4 4 C2.5625 5.75 2.5625 5.75 1 7 C0.67 4.69 0.34 2.38 0 0 Z " fill="#3B803C" transform="translate(372,548)"/>
<path d="M0 0 C1.485 0.99 1.485 0.99 3 2 C1.68 2 0.36 2 -1 2 C-0.67 1.34 -0.34 0.68 0 0 Z " fill="#8EB87F" transform="translate(522,828)"/>
<path d="M0 0 C0.99 1.485 0.99 1.485 2 3 C1.67 3.99 1.34 4.98 1 6 C0.67 4.02 0.34 2.04 0 0 Z " fill="#529851" transform="translate(378,577)"/>
<path d="M0 0 C0.66 1.32 1.32 2.64 2 4 C1.34 3.67 0.68 3.34 0 3 C0 2.01 0 1.02 0 0 Z " fill="#52954F" transform="translate(396,620)"/>
<path d="M0 0 C1 4 1 4 1 4 Z " fill="#539950" transform="translate(370,547)"/>
<path d="" fill="#549B54" transform="translate(0,0)"/>
<path d="M0 0 C2 1 2 1 2 1 Z " fill="#8DBA7F" transform="translate(504,829)"/>
<path d="" fill="#559752" transform="translate(0,0)"/>
<path d="M0 0 C2 1 2 1 2 1 Z " fill="#549951" transform="translate(376,581)"/>
<path d="" fill="#50984F" transform="translate(0,0)"/>
<path d="" fill="#539A52" transform="translate(0,0)"/>
<path d="" fill="#549953" transform="translate(0,0)"/>
<path d="M0 0 C2 1 2 1 2 1 Z " fill="#579E55" transform="translate(384,363)"/>
<path d="" fill="#569D53" transform="translate(0,0)"/>
<path d="" fill="#599D56" transform="translate(0,0)"/>
<path d="" fill="#5D6E4B" transform="translate(0,0)"/>
<path d="" fill="#5A6647" transform="translate(0,0)"/>
<path d="" fill="#8DB67E" transform="translate(0,0)"/>
<path d="" fill="#8FB981" transform="translate(0,0)"/>
<path d="" fill="#9AC68B" transform="translate(0,0)"/>
<path d="" fill="#9AC589" transform="translate(0,0)"/>
<path d="" fill="#92C387" transform="translate(0,0)"/>
<path d="" fill="#7EB273" transform="translate(0,0)"/>
<path d="" fill="#6D9F63" transform="translate(0,0)"/>
<path d="" fill="#7DB374" transform="translate(0,0)"/>
<path d="" fill="#7DB074" transform="translate(0,0)"/>
<path d="" fill="#589A55" transform="translate(0,0)"/>
<path d="" fill="#599B55" transform="translate(0,0)"/>
<path d="" fill="#498848" transform="translate(0,0)"/>
<path d="" fill="#589853" transform="translate(0,0)"/>
<path d="" fill="#589955" transform="translate(0,0)"/>
<path d="" fill="#579851" transform="translate(0,0)"/>
<path d="" fill="#569951" transform="translate(0,0)"/>
<path d="" fill="#687556" transform="translate(0,0)"/>
<path d="" fill="#549751" transform="translate(0,0)"/>
<path d="" fill="#55954F" transform="translate(0,0)"/>
<path d="" fill="#498244" transform="translate(0,0)"/>
<path d="" fill="#539650" transform="translate(0,0)"/>
<path d="" fill="#559852" transform="translate(0,0)"/>
<path d="" fill="#559751" transform="translate(0,0)"/>
<path d="" fill="#549955" transform="translate(0,0)"/>
<path d="" fill="#549750" transform="translate(0,0)"/>
<path d="" fill="#559953" transform="translate(0,0)"/>
<path d="" fill="#549853" transform="translate(0,0)"/>
<path d="" fill="#559752" transform="translate(0,0)"/>
<path d="" fill="#569955" transform="translate(0,0)"/>
<path d="" fill="#569854" transform="translate(0,0)"/>
<path d="" fill="#549752" transform="translate(0,0)"/>
<path d="" fill="#529551" transform="translate(0,0)"/>
<path d="" fill="#468245" transform="translate(0,0)"/>
<path d="" fill="#458145" transform="translate(0,0)"/>
<path d="" fill="#559752" transform="translate(0,0)"/>
<path d="" fill="#539751" transform="translate(0,0)"/>
<path d="" fill="#539451" transform="translate(0,0)"/>
<path d="" fill="#458041" transform="translate(0,0)"/>
<path d="" fill="#529650" transform="translate(0,0)"/>
<path d="" fill="#529952" transform="translate(0,0)"/>
<path d="" fill="#539A51" transform="translate(0,0)"/>
<path d="" fill="#458042" transform="translate(0,0)"/>
<path d="" fill="#51964E" transform="translate(0,0)"/>
<path d="" fill="#559850" transform="translate(0,0)"/>
<path d="" fill="#53974F" transform="translate(0,0)"/>
<path d="" fill="#417B3F" transform="translate(0,0)"/>
<path d="" fill="#569750" transform="translate(0,0)"/>
<path d="" fill="#438144" transform="translate(0,0)"/>
<path d="" fill="#51954F" transform="translate(0,0)"/>
<path d="" fill="#529752" transform="translate(0,0)"/>
<path d="" fill="#529851" transform="translate(0,0)"/>
<path d="" fill="#549750" transform="translate(0,0)"/>
<path d="" fill="#549850" transform="translate(0,0)"/>
<path d="" fill="#559951" transform="translate(0,0)"/>
<path d="" fill="#549952" transform="translate(0,0)"/>
<path d="" fill="#549953" transform="translate(0,0)"/>
<path d="" fill="#579A52" transform="translate(0,0)"/>
<path d="" fill="#448144" transform="translate(0,0)"/>
<path d="" fill="#579C54" transform="translate(0,0)"/>
<path d="" fill="#549B53" transform="translate(0,0)"/>
<path d="" fill="#478646" transform="translate(0,0)"/>
<path d="" fill="#428243" transform="translate(0,0)"/>
<path d="" fill="#468247" transform="translate(0,0)"/>
<path d="" fill="#4D6240" transform="translate(0,0)"/>
<path d="" fill="#468546" transform="translate(0,0)"/>
<path d="" fill="#488444" transform="translate(0,0)"/>
<path d="" fill="#5F7F52" transform="translate(0,0)"/>
<path d="" fill="#59A156" transform="translate(0,0)"/>
<path d="" fill="#569F56" transform="translate(0,0)"/>
<path d="" fill="#488847" transform="translate(0,0)"/>
<path d="" fill="#488646" transform="translate(0,0)"/>
<path d="" fill="#478947" transform="translate(0,0)"/>
<path d="" fill="#569F55" transform="translate(0,0)"/>
<path d="" fill="#569F55" transform="translate(0,0)"/>
<path d="" fill="#55A054" transform="translate(0,0)"/>
<path d="" fill="#579F59" transform="translate(0,0)"/>
<path d="" fill="#488A4A" transform="translate(0,0)"/>
<path d="" fill="#478A47" transform="translate(0,0)"/>
<path d="" fill="#488B48" transform="translate(0,0)"/>
<path d="" fill="#58A257" transform="translate(0,0)"/>
<path d="" fill="#458847" transform="translate(0,0)"/>
<path d="" fill="#4E924C" transform="translate(0,0)"/>
<path d="" fill="#4A8F49" transform="translate(0,0)"/>
<path d="" fill="#589F57" transform="translate(0,0)"/>
<path d="" fill="#599D56" transform="translate(0,0)"/>
<path d="" fill="#539450" transform="translate(0,0)"/>
<path d="" fill="#599A53" transform="translate(0,0)"/>
<path d="" fill="#54954E" transform="translate(0,0)"/>
<path d="" fill="#617150" transform="translate(0,0)"/>
<path d="" fill="#535F42" transform="translate(0,0)"/>
</svg>
