<?xml version="1.0" encoding="UTF-8"?>
<svg version="1.1" xmlns="http://www.w3.org/2000/svg" width="1024" height="1024">
<path d="M0 0 C1.04994141 -0.01836914 1.04994141 -0.01836914 2.12109375 -0.03710938 C2.81589844 -0.03904297 3.51070312 -0.04097656 4.2265625 -0.04296875 C4.85385254 -0.04707764 5.48114258 -0.05118652 6.12744141 -0.05541992 C10.85105102 0.45511577 14.33187082 1.06939731 17.64746094 4.62329102 C18.29489258 5.63576904 18.94232422 6.64824707 19.609375 7.69140625 C20.14876457 8.51644653 20.14876457 8.51644653 20.6990509 9.3581543 C21.86020961 11.14386319 22.99235647 12.94609849 24.125 14.75 C24.92907132 15.99784895 25.73499411 17.24450674 26.54272461 18.48999023 C28.13118124 20.94608063 29.70863461 23.408607 31.27490234 25.87890625 C33.39284988 29.21562154 35.53971039 32.53188193 37.69726562 35.84301758 C38.95726838 37.78039583 40.20784483 39.72360153 41.45703125 41.66796875 C43.8129735 45.3271982 46.19072667 48.97196061 48.57421875 52.61328125 C48.94772964 53.183918 49.32124054 53.75455475 49.70606995 54.34248352 C51.5615198 57.17637379 53.41812897 60.00949755 55.27563477 62.84204102 C59.22291068 68.86863182 63.12187189 74.91943004 66.93847656 81.02978516 C68.33075235 83.27440624 68.33075235 83.27440624 70.375 85.1875 C71.46569539 86.82569506 72.52666178 88.48378369 73.5703125 90.15234375 C77.07725843 95.7205483 80.64983784 101.24173225 84.25 106.75 C84.88711914 107.72598145 85.52423828 108.70196289 86.18066406 109.70751953 C89.6982299 115.09469805 93.21965512 120.47934936 96.7421875 125.86328125 C97.47355322 126.9812 98.20491716 128.09911992 98.9362793 129.21704102 C100.03202783 130.89189234 101.12777703 132.56674325 102.2237854 134.24142456 C106.48381569 140.75107089 110.72664117 147.27096103 114.9375 153.8125 C121.94620823 164.69397057 129.17522386 175.43197703 136.375 186.1875 C136.375 185.20354248 136.375 184.21958496 136.375 183.20581055 C136.375 149.8125 136.375 149.8125 136.46679688 144.88989258 C136.496828 143.26855156 136.496828 143.26855156 136.52746582 141.61445618 C136.5493396 140.44875595 136.57121338 139.28305573 136.59375 138.08203125 C136.61594604 136.88768967 136.63814209 135.69334808 136.66101074 134.46281433 C136.73208034 130.64187132 136.80353582 126.82093564 136.875 123 C136.92320247 120.41210985 136.97137987 117.82421923 137.01953125 115.23632812 C137.1377298 108.8867133 137.25624532 102.53710445 137.375 96.1875 C136.715 95.8575 136.055 95.5275 135.375 95.1875 C136.035 95.1875 136.695 95.1875 137.375 95.1875 C137.375 72.4175 137.375 49.6475 137.375 26.1875 C136.715 26.1875 136.055 26.1875 135.375 26.1875 C135.375 24.2075 135.375 22.2275 135.375 20.1875 C135.705 20.1875 136.035 20.1875 136.375 20.1875 C136.705 13.9175 137.035 7.6475 137.375 1.1875 C143.975 1.1875 150.575 1.1875 157.375 1.1875 C157.35759766 4.70857422 157.35759766 4.70857422 157.33984375 8.30078125 C157.28226121 23.86899883 157.26188321 39.43461235 157.59765625 55 C157.61906677 56.02541901 157.64047729 57.05083801 157.66253662 58.10733032 C157.7560994 62.5517315 157.85061498 66.99604597 157.95855713 71.44012451 C158.4008147 90.09347433 158.33163472 108.71464101 158.07100296 127.37129402 C157.97578402 134.61888263 157.90772546 141.86679204 157.84093976 149.11469352 C157.76129337 157.72774959 157.6271507 166.33792762 157.44350147 174.94952011 C157.3489249 180.00191334 157.30612465 185.05387288 157.27591515 190.10702133 C157.25124374 192.47217815 157.2055709 194.83722973 157.13666725 197.20151138 C156.67704495 213.47772706 159.32351734 223.98770471 168.96899319 237.23575401 C170.82488282 239.81200407 172.44757369 242.48129824 174.07421875 245.20703125 C175.06910667 246.80543867 176.06515665 248.40312352 177.0625 250 C181.04441526 256.40530476 184.98902025 262.8284148 188.85229492 269.3059082 C192.32413867 275.12157963 195.84923159 280.90439978 199.375 286.6875 C204.36094479 294.87051388 209.34188174 303.0557678 214.24365234 311.28955078 C215.06762794 312.67185253 215.89376746 314.05286508 216.72119141 315.43310547 C218.13106506 317.78611931 219.53487502 320.14265957 220.9375 322.5 C221.3799707 323.23653809 221.82244141 323.97307617 222.27832031 324.73193359 C225.375 329.95927695 225.375 329.95927695 225.375 332.1875 C226.035 332.1875 226.695 332.1875 227.375 332.1875 C228.71319498 334.8101232 230.0457151 337.43536599 231.375 340.0625 C231.7565625 340.80886719 232.138125 341.55523438 232.53125 342.32421875 C232.8921875 343.03964844 233.253125 343.75507812 233.625 344.4921875 C233.96015625 345.15202637 234.2953125 345.81186523 234.640625 346.49169922 C235.375 348.1875 235.375 348.1875 235.375 350.1875 C234.715 350.1875 234.055 350.1875 233.375 350.1875 C231.8143567 348.11157788 230.36238401 346.04109992 228.9375 343.875 C226.6189499 340.3839368 224.34455992 337.15375936 221.375 334.1875 C220.4203634 332.96867761 219.49098232 331.72982505 218.58203125 330.4765625 C218.04215576 329.73672119 217.50228027 328.99687988 216.94604492 328.23461914 C216.3657251 327.43531982 215.78540527 326.63602051 215.1875 325.8125 C209.8891027 318.56512196 204.51492424 311.38222125 199.0625 304.25 C198.37776611 303.3542627 197.69303223 302.45852539 196.98754883 301.53564453 C195.99404419 300.23602783 195.99404419 300.23602783 194.98046875 298.91015625 C192.25900925 295.35014399 189.55627105 291.77784961 186.875 288.1875 C182.80717524 282.74299268 178.68535366 277.34042163 174.5625 271.9375 C163.58080904 257.53849192 152.75259438 243.03386438 142.03271484 228.43896484 C140.49237481 226.34691538 138.94502234 224.26031299 137.39453125 222.17578125 C132.00795716 214.91687859 126.87153405 207.53990369 121.8984375 199.9921875 C119.31842058 196.08288786 116.66439083 192.22709701 114 188.375 C108.50371829 180.41567451 103.13702627 172.37296635 97.78759766 164.31445312 C95.69599644 161.16512201 93.59790397 158.02013424 91.5 154.875 C91.10474121 154.28178955 90.70948242 153.6885791 90.30224609 153.07739258 C87.88100803 149.44362222 85.45563008 145.81265841 83.02734375 142.18359375 C81.83067423 140.39326588 80.63406053 138.60290071 79.4375 136.8125 C78.84493408 135.92747803 78.25236816 135.04245605 77.6418457 134.13061523 C74.76115138 129.81608401 71.91339638 125.4863705 69.140625 121.1015625 C68.64038818 120.31313965 68.14015137 119.5247168 67.62475586 118.71240234 C66.68845444 117.23041548 65.75920072 115.74394498 64.83813477 114.25244141 C62.43335478 110.24772854 62.43335478 110.24772854 58.375 108.1875 C58.21837891 107.10082031 58.21837891 107.10082031 58.05859375 105.9921875 C56.2221057 98.45733937 50.08998857 91.75459834 45.828125 85.36328125 C45.39816727 84.71838242 44.96820953 84.07348358 44.52522278 83.40904236 C41.74421766 79.23855098 38.96078989 75.06968458 36.17588806 70.90179443 C34.28192031 68.06702464 32.38883703 65.23166473 30.49584961 62.39624023 C29.53173387 60.95261198 28.56720849 59.50925722 27.60229492 58.06616211 C26.17516134 55.93156469 24.74955384 53.79595487 23.32421875 51.66015625 C22.90017258 51.02666763 22.4761264 50.39317902 22.03923035 49.74049377 C19.39436351 45.77343845 16.85789048 41.75611857 14.39241028 37.67478943 C14.05666489 37.18398392 13.72091949 36.69317841 13.375 36.1875 C13.045 36.1875 12.715 36.1875 12.375 36.1875 C12.045 49.0575 11.715 61.9275 11.375 75.1875 C12.035 75.1875 12.695 75.1875 13.375 75.1875 C13.045 75.8475 12.715 76.5075 12.375 77.1875 C12.22004237 79.43724161 12.12489072 81.69121536 12.05859375 83.9453125 C12.03781265 84.60836395 12.01703156 85.27141541 11.99562073 85.95455933 C11.93020769 88.07376694 11.87127895 90.193099 11.8125 92.3125 C11.76930691 93.74871081 11.72569236 95.18490902 11.68164062 96.62109375 C11.57453501 100.14309594 11.47324425 103.66523825 11.375 107.1875 C12.035 107.5175 12.695 107.8475 13.375 108.1875 C12.715 108.1875 12.055 108.1875 11.375 108.1875 C11.375 142.8375 11.375 177.4875 11.375 213.1875 C4.445 213.1875 -2.485 213.1875 -9.625 213.1875 C-9.51770404 185.56337747 -9.40517936 157.9392819 -9.28566074 130.31520939 C-9.23030313 117.48985279 -9.17681703 104.66449341 -9.12768555 91.83911133 C-9.08487474 80.66491501 -9.03860471 69.49073938 -8.98812145 58.31657499 C-8.96149543 52.39597846 -8.93664183 46.4753861 -8.91592598 40.5547657 C-8.89639741 34.98905683 -8.87226519 29.42338744 -8.84450912 23.8577137 C-8.83511859 21.80858067 -8.82745058 19.75943896 -8.82158089 17.71029282 C-8.81335358 14.92551621 -8.79908673 12.14083631 -8.78321838 9.35609436 C-8.78224028 8.53412616 -8.78126217 7.71215797 -8.78025442 6.86528164 C-8.72407252 -0.73385849 -6.95306702 0.00619703 0 0 Z " fill="#2CB2F4" transform="translate(137.625,371.8125)"/>
<path d="M0 0 C0.8859082 0.16226074 1.77181641 0.32452148 2.68457031 0.49169922 C8.44261588 1.30828364 14.24357953 1.14259153 20.046875 1.1328125 C21.29502991 1.13376923 22.54318481 1.13472595 23.8291626 1.13571167 C27.12906666 1.1365635 30.42892306 1.13255754 33.7288208 1.12695312 C36.42611304 1.12434665 39.12337198 1.12916259 41.82065964 1.13394356 C45.04190096 1.13842287 48.26313265 1.13528922 51.484375 1.1328125 C53.29841827 1.13584885 53.29841827 1.13584885 55.14910889 1.13894653 C56.82665253 1.13421829 56.82665253 1.13421829 58.53808594 1.12939453 C59.52290955 1.12859894 60.50773315 1.12780334 61.5223999 1.12698364 C64.13409825 1.10377526 64.13409825 1.10377526 67 0 C67 0.66 67 1.32 67 2 C67.99 2.33 68.98 2.66 70 3 C70 8.94 70 14.88 70 21 C28.42 21 -13.16 21 -56 21 C-55.67 21.66 -55.34 22.32 -55 23 C-54.90804381 25.21602644 -54.88249982 27.43490207 -54.88647461 29.65283203 C-54.88632858 30.33587402 -54.88618256 31.01891602 -54.8860321 31.72265625 C-54.88672977 33.9844071 -54.89451535 36.246076 -54.90234375 38.5078125 C-54.90420845 40.07437088 -54.90563211 41.64092984 -54.90663147 43.20748901 C-54.91045257 47.33389898 -54.9202794 51.46027384 -54.93133545 55.58666992 C-54.9415583 59.79605637 -54.94613097 64.00544847 -54.95117188 68.21484375 C-54.96190202 76.47657862 -54.97897358 84.73828495 -55 93 C-54.34022659 92.92640762 -53.68045319 92.85281525 -53.00068665 92.7769928 C-41.33623194 91.67037889 -29.68236354 91.97717251 -17.98046875 92.12109375 C-15.66734828 92.14543704 -13.35422249 92.16927838 -11.04109192 92.19264221 C-4.99296938 92.25506477 1.05505711 92.32424686 7.10308838 92.39489746 C13.29068682 92.46596194 19.47835262 92.53054973 25.66601562 92.59570312 C37.77742 92.72417522 49.8887188 92.8603969 62 93 C62 99.6 62 106.2 62 113 C23.39 113.33 -15.22 113.66 -55 114 C-55 140.4 -55 166.8 -55 194 C-46.14414062 193.97679687 -37.28828125 193.95359375 -28.1640625 193.9296875 C-21.8564783 193.91817543 -15.54890196 193.90792181 -9.24131393 193.89949226 C-1.06156861 193.88839238 7.11813611 193.87428175 15.29785156 193.84912109 C21.77215783 193.8292157 28.24643351 193.81629036 34.72076952 193.81182301 C38.15036531 193.80921077 41.57987358 193.80305168 45.00944138 193.78853989 C48.83362241 193.7724889 52.65771703 193.77201848 56.48193359 193.77294922 C57.62488388 193.76575867 58.76783417 193.75856812 59.94541931 193.75115967 C60.98310959 193.753909 62.02079987 193.75665833 63.0899353 193.75949097 C63.99513601 193.75764738 64.90033672 193.75580379 65.83296776 193.75390434 C68 194 68 194 70 196 C70 201.94 70 207.88 70 214 C21.49 214 -27.02 214 -77 214 C-77 144.04 -77 74.08 -77 2 C-40.82805404 0.83316303 -40.82805404 0.83316303 -24.97241211 0.86962891 C-22.08247085 0.87520256 -19.19267225 0.86951215 -16.30273438 0.86328125 C-14.44531216 0.86393894 -12.58789003 0.86521361 -10.73046875 0.8671875 C-9.87559372 0.86516327 -9.02071869 0.86313904 -8.13993835 0.86105347 C-2.23017063 0.88491468 -2.23017063 0.88491468 0 2 C0 1.34 0 0.68 0 0 Z " fill="#2BB3F5" transform="translate(400,371)"/>
<path d="M0 0 C0.33 0.99 0.66 1.98 1 3 C0.03125 4.91015625 0.03125 4.91015625 -1.5 7.0625 C-2.05421631 7.85422607 -2.60843262 8.64595215 -3.17944336 9.46166992 C-3.78022705 10.29931885 -4.38101074 11.13696777 -5 12 C-6.21101272 13.72429393 -7.42065803 15.44954906 -8.62890625 17.17578125 C-9.21430176 18.00803223 -9.79969727 18.8402832 -10.40283203 19.69775391 C-12.33370858 22.48102598 -14.14845676 25.31123774 -15.9375 28.1875 C-18.21470296 31.82215971 -20.63969295 35.23801299 -23.24609375 38.640625 C-27.69030644 44.61903139 -31.8048228 50.84556295 -36 57 C-36.62874023 57.92055176 -37.25748047 58.84110352 -37.90527344 59.78955078 C-47.7552693 74.21292871 -57.50448509 88.70025447 -67.17041016 103.24755859 C-69.94254635 107.41797005 -72.72130435 111.58395751 -75.5 115.75 C-76.46357843 117.19528799 -77.42712173 118.6405994 -78.390625 120.0859375 C-78.83470703 120.75206055 -79.27878906 121.41818359 -79.73632812 122.10449219 C-80.15333984 122.73000977 -80.57035156 123.35552734 -81 124 C-85.25 130.375 -85.25 130.375 -87.13671875 133.203125 C-88.43336856 135.14945889 -89.72744931 137.09750572 -91.01953125 139.046875 C-94.08900667 143.67162956 -97.17420987 148.27742266 -100.375 152.8125 C-103.25182626 156.89615814 -106.04554741 161.0290926 -108.8125 165.1875 C-109.23934082 165.82896973 -109.66618164 166.47043945 -110.10595703 167.13134766 C-112.19979271 170.28190011 -114.28817441 173.43597141 -116.37109375 176.59375 C-121.10709234 183.75791394 -125.94946197 190.83966748 -130.875 197.875 C-131.46120117 198.71579102 -132.04740234 199.55658203 -132.65136719 200.42285156 C-135.58782353 204.6203232 -138.56298775 208.7777733 -141.6328125 212.87890625 C-142.20016113 213.64799316 -142.76750977 214.41708008 -143.35205078 215.20947266 C-144.42635435 216.66193108 -145.51529835 218.10370826 -146.62060547 219.53271484 C-149.41277485 223.13038468 -149.41277485 223.13038468 -149.67578125 227.4609375 C-147.26802407 231.10905443 -144.78828375 234.67394119 -142.1875 238.1875 C-141.00385338 239.80725303 -139.82026112 241.42704579 -138.63671875 243.046875 C-138.03134277 243.87123047 -137.4259668 244.69558594 -136.80224609 245.54492188 C-134.02156768 249.33285226 -131.25678503 253.13215285 -128.5 256.9375 C-127.96463623 257.67637451 -127.42927246 258.41524902 -126.87768555 259.17651367 C-122.43511543 265.33693975 -118.14909889 271.59718104 -113.88378906 277.88110352 C-109.56710802 284.22131021 -105.10601965 290.44655024 -100.59594727 296.65014648 C-96.76176558 301.92833282 -93.0192703 307.25721625 -89.328125 312.63671875 C-87.55023394 315.21938085 -85.74120654 317.7783979 -83.921875 320.33203125 C-83.3863501 321.08476318 -82.8508252 321.83749512 -82.29907227 322.61303711 C-81.25534402 324.07798821 -80.2091144 325.5411617 -79.15991211 327.00219727 C-76.16386384 331.21208825 -73.48922682 335.47090797 -71 340 C-79.58892738 341.46983132 -88.55327562 342.63152822 -97 340 C-103.64978182 334.94357661 -107.42986374 327.19426501 -111.34179688 319.97460938 C-113.63890269 315.85388833 -116.33275123 312.10663257 -119.125 308.3125 C-120.08754078 306.95778878 -121.04716013 305.6009973 -122.00390625 304.2421875 C-122.48617676 303.55995117 -122.96844727 302.87771484 -123.46533203 302.17480469 C-126.33956991 298.10167217 -129.20176003 294.02011928 -132.0625 289.9375 C-132.93914307 288.68851929 -132.93914307 288.68851929 -133.83349609 287.41430664 C-136.67586564 283.35633001 -139.49386508 279.28501179 -142.26171875 275.17578125 C-142.76759521 274.42756104 -143.27347168 273.67934082 -143.79467773 272.90844727 C-144.74418618 271.50019292 -145.68799326 270.08807267 -146.62524414 268.67163086 C-147.69996046 267.0793587 -148.84327496 265.53373171 -150 264 C-150.66 264 -151.32 264 -152 264 C-152.11786865 263.41573242 -152.2357373 262.83146484 -152.35717773 262.22949219 C-153.0326045 259.88691824 -153.91763968 258.33612402 -155.28515625 256.328125 C-155.73310547 255.66425781 -156.18105469 255.00039063 -156.64257812 254.31640625 C-157.11115234 253.63449219 -157.57972656 252.95257813 -158.0625 252.25 C-158.53494141 251.55261719 -159.00738281 250.85523438 -159.49414062 250.13671875 C-160.65757281 248.42095007 -161.82809974 246.70999602 -163 245 C-167.15236969 248.88860755 -170.34265776 253.07249025 -173.5625 257.75 C-174.62357646 259.27222009 -175.68477795 260.79435302 -176.74609375 262.31640625 C-177.55409424 263.48067139 -177.55409424 263.48067139 -178.37841797 264.66845703 C-180.94209042 268.35455639 -183.53356942 272.02088801 -186.125 275.6875 C-186.62314209 276.39334229 -187.12128418 277.09918457 -187.63452148 277.82641602 C-190.78535838 282.28919843 -193.94893583 286.74264084 -197.125 291.1875 C-197.52267578 291.74493896 -197.92035156 292.30237793 -198.33007812 292.87670898 C-200.48775061 295.89788901 -202.6587164 298.9086958 -204.84375 301.91015625 C-205.30894043 302.55251221 -205.77413086 303.19486816 -206.25341797 303.85668945 C-207.14958048 305.09373828 -208.04949314 306.32808135 -208.95361328 307.55932617 C-211.27013885 310.48098746 -211.27013885 310.48098746 -212 314 C-213.15177499 315.11930013 -214.30479951 316.2373338 -215.46289062 317.35009766 C-218.66205641 320.78401798 -221.14201584 324.79896631 -223.75 328.6875 C-224.33910156 329.55439453 -224.92820312 330.42128906 -225.53515625 331.31445312 C-228.46179457 335.54168141 -228.46179457 335.54168141 -231 340 C-239.58 340 -248.16 340 -257 340 C-255.02 337.03 -253.04 334.06 -251 331 C-248.47209416 327.30163489 -248.47209416 327.30163489 -248 323 C-247.01 323 -246.02 323 -245 323 C-243.2365553 320.74500277 -241.67701324 318.52063177 -240.125 316.125 C-239.13743596 314.64448439 -238.14777155 313.16536813 -237.15625 311.6875 C-236.63933594 310.9140625 -236.12242187 310.140625 -235.58984375 309.34375 C-233.01414407 305.54664974 -230.32301313 301.8357344 -227.625 298.125 C-226.80914429 296.99964844 -226.80914429 296.99964844 -225.97680664 295.8515625 C-224.3193841 293.56660533 -222.6598993 291.28315839 -221 289 C-213.60627085 278.82330066 -206.29636941 268.5974337 -199.10766602 258.2746582 C-195.03849441 252.44516604 -190.87396125 246.69553177 -186.64477539 240.98144531 C-183.2777497 236.41896929 -180.06494118 231.77199703 -177 227 C-179.72600741 220.86648332 -183.64056345 215.59048468 -187.5 210.125 C-188.95216389 208.05362442 -190.4039857 205.98200897 -191.85546875 203.91015625 C-192.56493652 202.89969238 -193.2744043 201.88922852 -194.00537109 200.84814453 C-196.62953316 197.10108522 -199.22607453 193.33566647 -201.8125 189.5625 C-202.24989502 188.92530029 -202.68729004 188.28810059 -203.13793945 187.6315918 C-204.85042777 185.13625167 -206.5614083 182.63987937 -208.27246094 180.14355469 C-220.03214344 162.9921518 -231.83776664 145.86925156 -244 129 C-242 127 -242 127 -239.56982422 126.86474609 C-238.07733154 126.94329834 -238.07733154 126.94329834 -236.5546875 127.0234375 C-234.94013672 127.10078125 -234.94013672 127.10078125 -233.29296875 127.1796875 C-231.60107422 127.27636719 -231.60107422 127.27636719 -229.875 127.375 C-228.17150391 127.46007812 -228.17150391 127.46007812 -226.43359375 127.546875 C-223.6217837 127.68864694 -220.81082719 127.84008561 -218 128 C-217.67 128.99 -217.34 129.98 -217 131 C-216.34 131 -215.68 131 -215 131 C-213.73046875 132.73828125 -213.73046875 132.73828125 -212.1875 135.3125 C-208.90380258 140.61797807 -205.46779473 145.79284409 -201.9375 150.9375 C-201.38513672 151.74300293 -200.83277344 152.54850586 -200.26367188 153.37841797 C-195.51634267 160.28202839 -190.70645514 167.14127884 -185.8894043 173.99633789 C-182.78585663 178.42069263 -179.72700825 182.86456295 -176.75 187.375 C-173.7697711 191.87759691 -170.72778602 196.33125069 -167.625 200.75 C-167.19541992 201.37181152 -166.76583984 201.99362305 -166.32324219 202.63427734 C-165.26626575 204.12680243 -164.13887927 205.56899185 -163 207 C-162.34 207 -161.68 207 -161 207 C-159.39282655 205.136845 -159.39282655 205.136845 -157.6875 202.625 C-156.97722656 201.62339844 -156.26695312 200.62179687 -155.53515625 199.58984375 C-154.93598389 198.7388208 -154.93598389 198.7388208 -154.32470703 197.87060547 C-152.33679966 195.06350147 -150.31545827 192.28087131 -148.29711914 189.49560547 C-145.52463982 185.66862057 -142.76213999 181.83445113 -140 178 C-139.48985352 177.29182129 -138.97970703 176.58364258 -138.45410156 175.85400391 C-137.05085037 173.9040134 -135.64990649 171.9523926 -134.25 170 C-133.83186035 169.41887451 -133.4137207 168.83774902 -132.98291016 168.23901367 C-130.82381834 165.22314882 -130.82381834 165.22314882 -129 162 C-128.34 162 -127.68 162 -127 162 C-126.73880371 161.43466553 -126.47760742 160.86933105 -126.20849609 160.28686523 C-124.89026676 157.79234924 -123.36348378 155.66210899 -121.6640625 153.41015625 C-121.01179687 152.54326172 -120.35953125 151.67636719 -119.6875 150.78320312 C-119.006875 149.88537109 -118.32625 148.98753906 -117.625 148.0625 C-116.61566406 146.72155273 -116.61566406 146.72155273 -115.5859375 145.35351562 C-112.96529341 141.8790987 -110.34714967 138.42298334 -107.5859375 135.05859375 C-105.81530913 132.99336958 -105.81530913 132.99336958 -105 130 C-103.34874499 128.31806289 -101.68004313 126.65318197 -100 125 C-98.63226352 123.25560171 -97.30015649 121.48283328 -96 119.6875 C-92.31628994 114.69824877 -88.49358872 109.85881813 -84.5625 105.0625 C-80.6313853 100.26252734 -76.76074 95.43482468 -73 90.5 C-67.16976367 82.86135433 -61.08236973 75.43832327 -55 68 C-52.78958604 65.29335748 -50.58123146 62.58505283 -48.375 59.875 C-47.84253662 59.22096191 -47.31007324 58.56692383 -46.76147461 57.89306641 C-42.56358706 52.7231783 -38.43320164 47.50252588 -34.33740234 42.25146484 C-31.09026903 38.09026903 -31.09026903 38.09026903 -30 37 C-30.66 36.34 -31.32 35.68 -32 35 C-30.35 35 -28.7 35 -27 35 C-26.690625 34.38125 -26.38125 33.7625 -26.0625 33.125 C-25.375 31.75 -24.6875 30.375 -24 29 C-24.33 28.34 -24.66 27.68 -25 27 C-24.31808594 26.83757812 -23.63617187 26.67515625 -22.93359375 26.5078125 C-18.54448544 24.25189265 -16.08695081 20.70358358 -13.0625 16.875 C-12.46759766 16.14023437 -11.87269531 15.40546875 -11.25976562 14.6484375 C-7.39409388 9.84908985 -3.66574922 4.95326058 0 0 Z " fill="#2CB3F4" transform="translate(729,245)"/>
<path d="M0 0 C3.98730536 0.00256013 7.9746086 0.00017675 11.96191406 -0.00138617 C18.63542095 -0.00319393 25.30891669 -0.00083485 31.98242188 0.00395441 C39.70182361 0.00943018 47.42119907 0.00760496 55.1406002 0.00212801 C61.78973809 -0.0024005 68.43886805 -0.00305605 75.08800697 -0.00043333 C79.05104632 0.00112633 83.01407326 0.00133099 86.97711182 -0.00196981 C90.68725964 -0.00484588 94.39737315 -0.00287784 98.10751724 0.00292444 C100.12415774 0.00488738 102.14080112 0.00189839 104.15744019 -0.00120306 C105.34588531 0.00161676 106.53433044 0.00443659 107.75878906 0.00734186 C108.79769287 0.00771889 109.83659668 0.00809591 110.90698242 0.00848436 C113.23144531 0.1343255 113.23144531 0.1343255 114.23144531 1.1343255 C114.23144531 7.4043255 114.23144531 13.6743255 114.23144531 20.1343255 C90.47144531 20.1343255 66.71144531 20.1343255 42.23144531 20.1343255 C42.23144531 83.8243255 42.23144531 147.5143255 42.23144531 213.1343255 C35.30144531 213.1343255 28.37144531 213.1343255 21.23144531 213.1343255 C21.23930054 208.42433283 21.23930054 208.42433283 21.24731445 203.61918879 C21.26385546 193.26552972 21.2749186 182.91187008 21.28325748 172.55820131 C21.28848473 166.27839318 21.29557954 159.99859853 21.30688477 153.71879816 C21.31771923 147.66286698 21.32372334 141.60694882 21.32632256 135.5510087 C21.32817579 133.23605758 21.33179447 130.9211072 21.33717537 128.60616159 C21.34439318 125.37350895 21.34543594 122.14091064 21.3449707 118.90825129 C21.35036362 117.4603219 21.35036362 117.4603219 21.35586548 115.98314142 C21.35380348 114.6664094 21.35380348 114.6664094 21.35169983 113.32307673 C21.35262162 112.55798855 21.35354342 111.79290037 21.35449314 111.0046277 C21.34668506 109.04186237 21.34668506 109.04186237 20.23144531 107.1343255 C20.89144531 107.1343255 21.55144531 107.1343255 22.23144531 107.1343255 C21.9880542 105.65017145 21.9880542 105.65017145 21.73974609 104.13603449 C21.17027035 100.12666153 21.0873624 96.15131462 21.09863281 92.10698175 C21.0966539 90.95141024 21.0966539 90.95141024 21.09463501 89.77249384 C21.09271677 87.24723048 21.09907682 84.7220777 21.10644531 82.1968255 C21.10777466 80.8991424 21.10777466 80.8991424 21.10913086 79.57524347 C21.13275376 59.75017895 21.66524242 39.95142658 22.23144531 20.1343255 C-0.86855469 20.1343255 -23.96855469 20.1343255 -47.76855469 20.1343255 C-47.76855469 13.8643255 -47.76855469 7.5943255 -47.76855469 1.1343255 C-31.85386293 -0.08272299 -15.95014492 -0.01346427 0 0 Z " fill="#2AB2F4" transform="translate(711.7685546875,371.865674495697)"/>
<path d="M0 0 C0.495 0.99 0.495 0.99 1 2 C2.82287297 2.93845254 4.68364553 3.80435092 6.5625 4.625 C7.57441406 5.07101562 8.58632813 5.51703125 9.62890625 5.9765625 C10.41136719 6.31429687 11.19382812 6.65203125 12 7 C11.35083537 13.00477279 9.14204997 18.400781 7 24 C3.76748398 23.28250228 0.82268207 22.16218328 -2.25 20.9375 C-7.17702684 19.13508965 -10.78338552 18.35936313 -16 19 C-18.38305196 20.24348469 -18.38305196 20.24348469 -20 22 C-20.66 22.66 -21.32 23.32 -22 24 C-18.62165919 28.26272322 -14.98371209 28.94375923 -9.875 29.875 C-1.01161435 31.75559723 6.86808322 34.13355923 12.125 42.0625 C15.14929236 48.4339629 15.16847431 55.60914935 13.37109375 62.36328125 C10.48348582 69.03197222 4.68227563 74.20326102 -2 76.9375 C-15.30678723 80.65048569 -28.47130998 77.7591411 -40.28515625 71.28125 C-42 70 -42 70 -43 67 C-42.07421875 64.66015625 -42.07421875 64.66015625 -40.6875 62.0625 C-40.23761719 61.20785156 -39.78773438 60.35320313 -39.32421875 59.47265625 C-38.88722656 58.65667969 -38.45023438 57.84070313 -38 57 C-37.3288478 55.66891888 -36.66045797 54.33641965 -36 53 C-35.32453125 53.3609375 -34.6490625 53.721875 -33.953125 54.09375 C-33.06109375 54.5578125 -32.1690625 55.021875 -31.25 55.5 C-30.36828125 55.9640625 -29.4865625 56.428125 -28.578125 56.90625 C-25.85303528 58.26036656 -25.85303528 58.26036656 -22 58 C-22 58.66 -22 59.32 -22 60 C-20.989375 59.649375 -19.97875 59.29875 -18.9375 58.9375 C-15.06669637 57.80458186 -11.9662697 58.30007005 -8 59 C-7.34 58.67 -6.68 58.34 -6 58 C-6.185625 57.195625 -6.37125 56.39125 -6.5625 55.5625 C-6.706875 54.716875 -6.85125 53.87125 -7 53 C-6.67 52.67 -6.34 52.34 -6 52 C-7.01578125 51.69707031 -8.0315625 51.39414062 -9.078125 51.08203125 C-35.12821899 43.20952327 -35.12821899 43.20952327 -40.8125 32.625 C-43.13489519 25.53558309 -42.35075179 20.10649452 -39.37109375 13.39453125 C-35.1448699 6.01369016 -28.74128797 2.85604726 -20.7421875 0.64453125 C-13.84817087 -0.54285157 -6.96674717 -0.30036275 0 0 Z " fill="#2DB2F3" transform="translate(904,536)"/>
<path d="M0 0 C0.66 0 1.32 0 2 0 C2 0.66 2 1.32 2 2 C3.32 2 4.64 2 6 2 C6.06980048 10.69335107 6.12296273 19.38660427 6.15543652 28.0801754 C6.17102972 32.11784201 6.19215048 36.15531556 6.22631836 40.19287109 C6.25914022 44.09621681 6.27690061 47.99937793 6.28463173 51.9028511 C6.2901346 53.38505581 6.30087933 54.8672515 6.31719017 56.34937668 C6.42926906 66.96499295 6.26588493 77.55586346 -1 86 C-6.94724401 90.43033562 -11.75198356 92.08498977 -19.1875 92.5625 C-20.45980469 92.64628906 -21.73210938 92.73007812 -23.04296875 92.81640625 C-24.01878906 92.87699219 -24.99460937 92.93757812 -26 93 C-26 92.01 -26 91.02 -26 90 C-26.99 89.67 -27.98 89.34 -29 89 C-28.34 89 -27.68 89 -27 89 C-27.33 88.01 -27.66 87.02 -28 86 C-27.0625 83.8125 -27.0625 83.8125 -26 82 C-26.99 81.67 -27.98 81.34 -29 81 C-28.01 80.505 -28.01 80.505 -27 80 C-27 78.68 -27 77.36 -27 76 C-24 74 -24 74 -20.5 73.8125 C-16.81256936 73.38507884 -16.81256936 73.38507884 -15.29736328 70.35107422 C-13.02403694 64.37705434 -13.65392478 57.85877157 -13.7421875 51.5703125 C-13.75033344 50.17024497 -13.75699314 48.77016808 -13.76223755 47.37008667 C-13.77927192 43.70428449 -13.81349144 40.03885882 -13.85229492 36.37322998 C-13.91175521 30.48554279 -13.94528608 24.59765926 -13.97806168 18.70977402 C-13.99205161 16.65279216 -14.01362693 14.59599487 -14.03634644 12.53909302 C-14.04610504 11.30045502 -14.05586365 10.06181702 -14.06591797 8.78564453 C-14.07718719 7.68979034 -14.08845642 6.59393616 -14.10006714 5.46487427 C-14 3 -14 3 -13 2 C-10.81707226 1.76518307 -8.62796826 1.58636677 -6.4375 1.4375 C-4.64119141 1.31181641 -4.64119141 1.31181641 -2.80859375 1.18359375 C-1.41833984 1.09271484 -1.41833984 1.09271484 0 1 C0 0.67 0 0.34 0 0 Z " fill="#2EB2F3" transform="translate(845,546)"/>
<path d="M0 0 C1.7208877 2.58133154 2.4651263 4.12794206 3.2890625 7.01171875 C3.58611084 8.03591919 3.58611084 8.03591919 3.88916016 9.08081055 C4.1319873 9.94101807 4.37481445 10.80122559 4.625 11.6875 C5.40875 14.430625 6.1925 17.17375 7 20 C8.98 14.06 10.96 8.12 13 2 C15.5390625 1.77213542 18.078125 1.54427083 20.6171875 1.31640625 C23.01110861 1.13010715 23.01110861 1.13010715 25 0 C26.02992723 4.29930476 26.21399703 8.52668984 26.31640625 12.92578125 C26.33718735 13.67337204 26.35796844 14.42096283 26.37937927 15.19120789 C26.44444189 17.56488396 26.5035571 19.93866487 26.5625 22.3125 C26.60572646 23.92774495 26.64934204 25.54297953 26.69335938 27.15820312 C26.80007851 31.10536299 26.90146619 35.05262767 27 39 C27.99 39.495 27.99 39.495 29 40 C26.59454362 41.20272819 25.05003047 41.10071472 22.375 41.0625 C21.14910156 41.04896484 21.14910156 41.04896484 19.8984375 41.03515625 C19.27195312 41.02355469 18.64546875 41.01195312 18 41 C16.8838344 37.28570102 16.6875805 33.60838492 16.4375 29.75 C16.31181641 27.85507812 16.31181641 27.85507812 16.18359375 25.921875 C16.12300781 24.95765625 16.06242188 23.9934375 16 23 C15.67386719 23.98742187 15.34773437 24.97484375 15.01171875 25.9921875 C14.57085356 27.28664273 14.12941745 28.58090362 13.6875 29.875 C13.36749023 30.85146484 13.36749023 30.85146484 13.04101562 31.84765625 C11.79176658 35.46488484 11.27868116 36.81421256 8 39 C5.98046875 39.0625 5.98046875 39.0625 4 38 C2.89813145 35.62400313 2.07207639 33.48144568 1.3125 31 C0.22143978 26.66482866 0.22143978 26.66482866 -2 23 C-2.33 28.94 -2.66 34.88 -3 41 C-5.97 41 -8.94 41 -12 41 C-12.12368859 27.95772483 -11.82461396 15.01712039 -11 2 C-3.34821429 0.79464286 -3.34821429 0.79464286 0 2 C0 1.34 0 0.68 0 0 Z M-3 19 C-2 21 -2 21 -2 21 Z " fill="#2EB2F2" transform="translate(890,371)"/>
<path d="M0 0 C9.9 0 19.8 0 30 0 C29.67 0.66 29.34 1.32 29 2 C20.42 2 11.84 2 3 2 C3 70.64 3 139.28 3 210 C49.53 210 96.06 210 144 210 C143.67 205.05 143.34 200.1 143 195 C142.34 195 141.68 195 141 195 C141 194.34 141 193.68 141 193 C142.98 193 144.96 193 147 193 C147 199.27 147 205.54 147 212 C98.49 212 49.98 212 0 212 C0 142.04 0 72.08 0 0 Z " fill="#31B0EE" transform="translate(323,373)"/>
<path d="M0 0 C0.86512207 0.15847412 1.73024414 0.31694824 2.62158203 0.48022461 C5.79790152 0.9689068 8.84565939 1.20061658 12.0546875 1.31640625 C13.16328125 1.35830078 14.271875 1.40019531 15.4140625 1.44335938 C16.55617188 1.48267578 17.69828125 1.52199219 18.875 1.5625 C20.0403125 1.60568359 21.205625 1.64886719 22.40625 1.69335938 C25.27072625 1.79901629 28.13528321 1.90111799 31 2 C31.33 1.34 31.66 0.68 32 0 C32.02687279 1.81242052 32.04633715 3.62495233 32.0625 5.4375 C32.07410156 6.44683594 32.08570313 7.45617187 32.09765625 8.49609375 C32 11 32 11 31 12 C23.47761194 12.23880597 23.47761194 12.23880597 21 11 C21 20.9 21 30.8 21 41 C16.05 41.495 16.05 41.495 11 42 C10.67 32.43 10.34 22.86 10 13 C6.7 12.67 3.4 12.34 0 12 C-1.57312496 8.32937509 -2.14440048 6.55697326 -1.125 2.625 C-0.75375 1.75875 -0.3825 0.8925 0 0 Z " fill="#2AB1F2" transform="translate(841,371)"/>
<path d="M0 0 C3.65221861 3.00770945 4.02888747 4.89871756 4.5625 9.625 C4.45480244 14.44446588 2.46653686 16.40846314 -0.875 19.75 C-1.473125 20.36875 -2.07125 20.9875 -2.6875 21.625 C-3.079375 21.99625 -3.47125 22.3675 -3.875 22.75 C-4.865 22.42 -5.855 22.09 -6.875 21.75 C-7.514375 21.54761719 -8.15375 21.34523438 -8.8125 21.13671875 C-11.95479597 20.07143281 -14.36687667 19.22534118 -16.8125 16.9375 C-18.94610555 12.5447827 -19.18572229 9.76847861 -17.75 5.0625 C-13.7796222 -1.95183411 -7.13408538 -3.10177625 0 0 Z " fill="#2DB2F2" transform="translate(847.875,518.25)"/>
<path d="M0 0 C0.33 0 0.66 0 1 0 C1 10.56 1 21.12 1 32 C5.62 31.67 10.24 31.34 15 31 C18.69156123 30.94569368 22.3558485 30.92595676 26.04443359 30.97827148 C27.05109573 30.98787903 28.05775787 30.99748657 29.09492493 31.00738525 C32.36284494 31.03989263 35.63061008 31.08040238 38.8984375 31.12109375 C41.18770837 31.14544229 43.47698469 31.16928333 45.76626587 31.19264221 C51.74697144 31.25501269 57.72757865 31.32420867 63.70819092 31.39489746 C69.82885314 31.4660099 75.94958426 31.53056869 82.0703125 31.59570312 C94.04695302 31.72410777 106.02348543 31.8603405 118 32 C118 38.27 118 44.54 118 51 C79.39 51 40.78 51 1 51 C1 50.67 1 50.34 1 50 C39.28 50 77.56 50 117 50 C117 44.72 117 39.44 117 34 C114.82344566 34.00333092 114.82344566 34.00333092 112.60292053 34.00672913 C98.96136581 34.02695721 85.31981263 34.0420305 71.6782465 34.05181217 C64.66415366 34.05697498 57.650072 34.06401739 50.63598633 34.07543945 C43.87331932 34.08644688 37.11066636 34.09227619 30.34799004 34.09487724 C27.7614772 34.09673203 25.17496503 34.10035367 22.58845711 34.10573006 C18.97961145 34.11293651 15.37081453 34.11399111 11.76196289 34.11352539 C10.6808725 34.11712067 9.5997821 34.12071594 8.4859314 34.12442017 C7.50851486 34.1230455 6.53109833 34.12167084 5.52406311 34.12025452 C4.66956101 34.12117631 3.81505892 34.1220981 2.93466282 34.12304783 C1 34 1 34 0 33 C-0.08843793 30.55169574 -0.11528752 28.13179401 -0.09765625 25.68359375 C-0.0962413 24.95253922 -0.09482635 24.22148468 -0.09336853 23.46827698 C-0.08775408 21.12464368 -0.07519922 18.78110461 -0.0625 16.4375 C-0.05748686 14.85221492 -0.05292363 13.26692834 -0.04882812 11.68164062 C-0.03777997 7.7877239 -0.02050572 3.89387795 0 0 Z " fill="#159DE7" transform="translate(343,432)"/>
<path d="M0 0 C2.13018952 1.58046319 2.82385265 2.6477053 4 5 C4.3751455 9.97067782 4.15878799 13.05151502 1 17 C-1.63352638 19.0691993 -3.0381031 18.99930722 -6.4375 18.9375 C-10.79134873 17.79175034 -12.41458188 16.68226218 -15 13 C-15.99693045 8.67122305 -15.51625983 5.83669697 -13.1875 2.0625 C-9.11665656 -1.77572382 -5.11185199 -1.22727135 0 0 Z " fill="#2DB1F1" transform="translate(817,594)"/>
<path d="M0 0 C3.5313597 4.31421534 6.80417251 8.79160683 10.0625 13.3125 C10.91642334 14.49585938 10.91642334 14.49585938 11.78759766 15.703125 C16.9132794 22.83202868 21.89317767 30.0555736 26.84228516 37.30761719 C30.34656909 42.43028615 33.92117625 47.50285192 37.54296875 52.54296875 C37.99019287 53.16606934 38.43741699 53.78916992 38.89819336 54.43115234 C39.77604086 55.65287761 40.65566079 56.873332 41.53735352 58.09228516 C48 67.08167098 48 67.08167098 48 70 C60.375 69.505 60.375 69.505 73 69 C73.33 69.99 73.66 70.98 74 72 C65.41107262 73.46983132 56.44672438 74.63152822 48 72 C41.35021818 66.94357661 37.57013626 59.19426501 33.65820312 51.97460938 C31.36108778 47.85387125 28.66716147 44.10671512 25.875 40.3125 C24.91771718 38.96426268 23.96330963 37.61397947 23.01171875 36.26171875 C22.53009277 35.58028809 22.0484668 34.89885742 21.55224609 34.19677734 C21.04000488 33.47184082 20.52776367 32.7469043 20 32 C19.41943848 31.17838379 18.83887695 30.35676758 18.24072266 29.51025391 C4.62179691 10.21467464 4.62179691 10.21467464 -1 1 C-0.67 0.67 -0.34 0.34 0 0 Z " fill="#2DA9E8" transform="translate(584,513)"/>
<path d="M0 0 C0.495 1.485 0.495 1.485 1 3 C0.03125 4.91015625 0.03125 4.91015625 -1.5 7.0625 C-2.33132446 8.25008911 -2.33132446 8.25008911 -3.17944336 9.46166992 C-3.78022705 10.29931885 -4.38101074 11.13696777 -5 12 C-6.21101272 13.72429393 -7.42065803 15.44954906 -8.62890625 17.17578125 C-9.21430176 18.00803223 -9.79969727 18.8402832 -10.40283203 19.69775391 C-12.33370858 22.48102598 -14.14845676 25.31123774 -15.9375 28.1875 C-23.24637277 39.83091518 -23.24637277 39.83091518 -28 43 C-27.67 41.68 -27.34 40.36 -27 39 C-27.969375 39.78375 -28.93875 40.5675 -29.9375 41.375 C-30.48277344 41.81585938 -31.02804687 42.25671875 -31.58984375 42.7109375 C-33.13266437 43.9666391 -33.13266437 43.9666391 -34 46 C-34.66 46 -35.32 46 -36 46 C-34.47291037 42.56404834 -32.40072955 39.88087546 -30 37 C-30.66 36.34 -31.32 35.68 -32 35 C-30.35 35 -28.7 35 -27 35 C-26.690625 34.38125 -26.38125 33.7625 -26.0625 33.125 C-25.375 31.75 -24.6875 30.375 -24 29 C-24.33 28.34 -24.66 27.68 -25 27 C-24.31808594 26.83757812 -23.63617187 26.67515625 -22.93359375 26.5078125 C-18.54448544 24.25189265 -16.08695081 20.70358358 -13.0625 16.875 C-12.46759766 16.14023437 -11.87269531 15.40546875 -11.25976562 14.6484375 C-7.39409388 9.84908985 -3.66574922 4.95326058 0 0 Z " fill="#37B0EC" transform="translate(729,245)"/>
<path d="M0 0 C3.54058928 3.22676432 6.00205036 6.89218566 8.5 10.9375 C11.13362966 15.1755764 13.86709497 19.10539501 17 23 C17.7243429 24.25020038 18.41317806 25.52174262 19.0625 26.8125 C21.49808645 31.32395553 24.32513134 35.48584346 27.25 39.6875 C32.35013483 47.015349 37.2224255 54.45883798 42 62 C43.27055327 64.00017793 44.54136628 66.0001909 45.8125 68 C46.64394531 69.31291016 46.64394531 69.31291016 47.4921875 70.65234375 C48.77418394 72.64840556 50.09153998 74.60944613 51.4375 76.5625 C53 79 53 79 53 81 C52.34 81 51.68 81 51 81 C50.525625 80.195625 50.05125 79.39125 49.5625 78.5625 C48.20016328 75.7081924 48.20016328 75.7081924 45 75 C44.84337891 73.91332031 44.84337891 73.91332031 44.68359375 72.8046875 C42.8471057 65.26983937 36.71498857 58.56709834 32.453125 52.17578125 C32.02316727 51.53088242 31.59320953 50.88598358 31.15022278 50.22154236 C28.36921766 46.05105098 25.58578989 41.88218458 22.80088806 37.71429443 C20.90692031 34.87952464 19.01383703 32.04416473 17.12084961 29.20874023 C16.15673387 27.76511198 15.19220849 26.32175722 14.22729492 24.87866211 C12.80016134 22.74406469 11.37455384 20.60845487 9.94921875 18.47265625 C9.52517258 17.83916763 9.1011264 17.20567902 8.66423035 16.55299377 C7.4339427 14.70767624 6.21518414 12.85529327 5 11 C4.5315567 10.29430878 4.0631134 9.58861755 3.58047485 8.86154175 C3.12184052 8.15498444 2.66320618 7.44842712 2.19067383 6.72045898 C1.77127029 6.08019272 1.35186676 5.43992645 0.91975403 4.78025818 C0 3 0 3 0 0 Z " fill="#29A9ED" transform="translate(151,405)"/>
<path d="M0 0 C1.32 0 2.64 0 4 0 C4 5.94 4 11.88 4 18 C-43.19 18 -90.38 18 -139 18 C-139 17.67 -139 17.34 -139 17 C-92.14 17 -45.28 17 3 17 C2.67 12.05 2.34 7.1 2 2 C1.34 2 0.68 2 0 2 C0 1.34 0 0.68 0 0 Z " fill="#0795E1" transform="translate(464,566)"/>
<path d="M0 0 C3.48017086 3.20270849 6.01053929 6.80386988 8.5625 10.75 C9.44957205 12.09958244 10.33762654 13.44851954 11.2265625 14.796875 C11.68321289 15.49103516 12.13986328 16.18519531 12.61035156 16.90039062 C19.63215112 27.50957477 27.00408454 37.85424298 34.57666016 48.07519531 C37.12479589 51.52107904 39.65487015 54.98021358 42.1875 58.4375 C43.11841539 59.70708565 44.04939779 60.97662218 44.98046875 62.24609375 C45.64691406 63.15488281 46.31335938 64.06367187 47 65 C46.67 65.66 46.34 66.32 46 67 C40.66646633 61.31325218 36.14720642 55.13598717 31.671875 48.7734375 C29.45474167 45.62406328 27.18061187 42.5216655 24.88500977 39.42919922 C19.40086983 32.0377425 14.22873954 24.48163633 9.18310547 16.78564453 C8.00617333 15.00931732 6.80657163 13.2507792 5.59765625 11.49609375 C4.86417969 10.42488281 4.13070312 9.35367188 3.375 8.25 C2.72273437 7.30640625 2.07046875 6.3628125 1.3984375 5.390625 C0 3 0 3 0 0 Z " fill="#28AAEE" transform="translate(249,553)"/>
<path d="M0 0 C0 0.33 0 0.66 0 1 C-23.76 1 -47.52 1 -72 1 C-72.33 0.34 -72.66 -0.32 -73 -1 C-64.95875038 -1.17789207 -56.9173769 -1.34377416 -48.87558174 -1.49477577 C-45.14053865 -1.56527693 -41.40566682 -1.63974812 -37.67089844 -1.72363281 C-34.05948774 -1.80459506 -30.44800788 -1.87468398 -26.83623886 -1.93757248 C-25.46562946 -1.96328428 -24.09508484 -1.99276316 -22.72464371 -2.02626419 C-14.8731922 -2.21545416 -7.62195044 -2.00212283 0 0 Z " fill="#1BA6EF" transform="translate(755,374)"/>
<path d="M0 0 C19.03049486 -0.1508147 37.98752847 0.24948144 57 1 C57.495 1.99 57.495 1.99 58 3 C35.56 3 13.12 3 -10 3 C-10 2.67 -10 2.34 -10 2 C-6.7 2 -3.4 2 0 2 C0 1.34 0 0.68 0 0 Z " fill="#1DA6EE" transform="translate(407,372)"/>
<path d="M0 0 C2.09087271 3.13630906 3.0159838 5.78507349 4.125 9.375 C4.47820313 10.49648438 4.83140625 11.61796875 5.1953125 12.7734375 C5.92181482 15.68650019 6.16735595 18.02106411 6 21 C3.36404228 18.36404228 2.92297888 15.93812819 1.875 12.375 C1.34519531 10.59222656 1.34519531 10.59222656 0.8046875 8.7734375 C0.53914062 7.85820312 0.27359375 6.94296875 0 6 C-4.455 5.01 -4.455 5.01 -9 4 C-8.99476318 4.64437012 -8.98952637 5.28874023 -8.98413086 5.95263672 C-8.96309641 8.92674753 -8.9502568 11.9008426 -8.9375 14.875 C-8.92912109 15.88820313 -8.92074219 16.90140625 -8.91210938 17.9453125 C-8.89154105 24.36263015 -9.21676321 30.62990957 -10 37 C-10.33 37 -10.66 37 -11 37 C-11 25.45 -11 13.9 -11 2 C-3.125 0.875 -3.125 0.875 0 2 C0 1.34 0 0.68 0 0 Z " fill="#28A9EA" transform="translate(890,371)"/>
<path d="M0 0 C3.09886458 2.06590972 3.98276956 3.63832136 5.7109375 6.82421875 C7.25528791 9.43089506 9.00862254 11.81581014 10.8125 14.25 C13.48113796 17.86224475 16.00040172 21.5007926 18.375 25.3125 C21.56347056 30.43025297 25.03143721 35.30316312 28.62451172 40.1418457 C30.94308776 43.31263781 32.73675833 46.27308812 34 50 C33.34 50 32.68 50 32 50 C30.75415039 48.50976562 30.75415039 48.50976562 29.34765625 46.40625 C28.82389404 45.63095947 28.30013184 44.85566895 27.76049805 44.05688477 C27.20015869 43.21311279 26.63981934 42.36934082 26.0625 41.5 C24.88308302 39.74851573 23.70339109 37.99721656 22.5234375 36.24609375 C21.93143555 35.3629248 21.33943359 34.47975586 20.72949219 33.56982422 C18.69502565 30.54684359 16.63140043 27.54505014 14.55957031 24.54760742 C12.78234813 21.97632743 11.01550909 19.3979989 9.24902344 16.81933594 C8.41876971 15.60998278 7.58609827 14.40228577 6.75097656 13.19628906 C5.59843421 11.53109291 4.455207 9.85946077 3.3125 8.1875 C2.66925781 7.25292969 2.02601563 6.31835938 1.36328125 5.35546875 C0 3 0 3 0 0 Z " fill="#28AAEE" transform="translate(514,412)"/>
<path d="M0 0 C4.48525648 0.656379 8.66914029 1.70074209 13 3 C13 3.33 13 3.66 13 4 C9.04 4 5.08 4 1 4 C1 5.98 1 7.96 1 10 C4.63 10 8.26 10 12 10 C13.11984119 13.35952356 13.028066 15.66910457 12.87890625 19.19921875 C12.83056641 20.40771484 12.78222656 21.61621094 12.73242188 22.86132812 C12.67634766 24.12396484 12.62027344 25.38660156 12.5625 26.6875 C12.51029297 27.96173828 12.45808594 29.23597656 12.40429688 30.54882812 C12.27449555 33.69946039 12.1395244 36.84978577 12 40 C11.67 40 11.34 40 11 40 C10.67 31.09 10.34 22.18 10 13 C6.7 12.67 3.4 12.34 0 12 C-1.57312496 8.32937509 -2.14440048 6.55697326 -1.125 2.625 C-0.75375 1.75875 -0.3825 0.8925 0 0 Z " fill="#2FABE9" transform="translate(841,371)"/>
<path d="M0 0 C2.50037734 2.17424117 3.43628586 3.73045798 4 7 C4.66 7 5.32 7 6 7 C7.33819498 9.6226232 8.6707151 12.24786599 10 14.875 C10.3815625 15.62136719 10.763125 16.36773438 11.15625 17.13671875 C11.5171875 17.85214844 11.878125 18.56757812 12.25 19.3046875 C12.58515625 19.96452637 12.9203125 20.62436523 13.265625 21.30419922 C14 23 14 23 14 25 C13.34 25 12.68 25 12 25 C10.4393567 22.92407788 8.98738401 20.85359992 7.5625 18.6875 C4.18046288 13.51936955 4.18046288 13.51936955 0 9 C-1.75 7.0625 -1.75 7.0625 -3 5 C-2.8125 2.8125 -2.8125 2.8125 -2 1 C-1.34 0.67 -0.68 0.34 0 0 Z " fill="#30AEED" transform="translate(359,697)"/>
<path d="M0 0 C0.66 0.33 1.32 0.66 2 1 C0.22943626 3.41686459 -1.54144103 5.83349835 -3.3125 8.25 C-3.81201172 8.93191406 -4.31152344 9.61382813 -4.82617188 10.31640625 C-5.31279297 10.98027344 -5.79941406 11.64414062 -6.30078125 12.328125 C-6.77 12.96935303 -7.23921875 13.61058105 -7.72265625 14.27124023 C-8.74069497 15.64905602 -9.78244789 17.00934109 -10.83203125 18.36328125 C-12.12737365 19.93871671 -12.12737365 19.93871671 -12.375 21.9375 C-13.13569983 24.44780944 -14.50546742 25.54478737 -16.390625 27.296875 C-20.03366376 31.15212962 -22.9466121 35.67373576 -26 40 C-26.66 39.67 -27.32 39.34 -28 39 C-19.02967247 25.72757662 -9.61662633 12.81026078 0 0 Z " fill="#28A9EB" transform="translate(517,522)"/>
<path d="M0 0 C3.73626016 1.24542005 4.0343895 2.29329021 6 5.625 C9.44078021 11.24200017 13.23180902 16.51311184 17.1796875 21.78369141 C24 30.93021763 24 30.93021763 24 34 C23.34 34 22.68 34 22 34 C20.546875 32.078125 20.546875 32.078125 18.75 29.25 C14.21937368 22.25269934 9.42190125 15.46092273 4.57324219 8.68066406 C3.68620605 7.42721191 3.68620605 7.42721191 2.78125 6.1484375 C1.9778418 5.02187744 1.9778418 5.02187744 1.15820312 3.87255859 C0 2 0 2 0 0 Z " fill="#29A9EC" transform="translate(488,376)"/>
<path d="M0 0 C1.32 0.66 2.64 1.32 4 2 C2.68 2 1.36 2 0 2 C0 6.62 0 11.24 0 16 C7.92 15.505 7.92 15.505 16 15 C16 15.66 16 16.32 16 17 C12.53287889 18.15570704 9.4585044 18.32835293 5.8125 18.5625 C3.90404297 18.68818359 3.90404297 18.68818359 1.95703125 18.81640625 C0.98121094 18.87699219 0.00539063 18.93757812 -1 19 C-1 18.01 -1 17.02 -1 16 C-1.99 15.67 -2.98 15.34 -4 15 C-3.34 15 -2.68 15 -2 15 C-2.33 14.01 -2.66 13.02 -3 12 C-2.0625 9.8125 -2.0625 9.8125 -1 8 C-1.99 7.67 -2.98 7.34 -4 7 C-3.34 6.67 -2.68 6.34 -2 6 C-2 4.68 -2 3.36 -2 2 C-1.34 1.34 -0.68 0.68 0 0 Z " fill="#37ADE9" transform="translate(820,620)"/>
<path d="M0 0 C2.08215203 1.98377081 3.76094066 3.96209594 5.33984375 6.36328125 C5.9750293 7.32331055 5.9750293 7.32331055 6.62304688 8.30273438 C7.05681641 8.96595703 7.49058594 9.62917969 7.9375 10.3125 C8.36740234 10.96412109 8.79730469 11.61574219 9.24023438 12.28710938 C10.08959208 13.57467894 10.93649 14.86387495 11.78076172 16.15478516 C12.57746905 17.36053486 13.38597417 18.55859343 14.20751953 19.74755859 C17 23.79671675 17 23.79671675 17 26 C17.66 26 18.32 26 19 26 C20.6875 28.3125 20.6875 28.3125 22 31 C21.67 31.99 21.34 32.98 21 34 C14.42848551 24.80441514 7.96282093 15.60478341 2 6 C1.34 5.01 0.68 4.02 0 3 C0 2.01 0 1.02 0 0 Z " fill="#27A8ED" transform="translate(226,519)"/>
<path d="M0 0 C1.9078584 3.1749094 2.1609041 5.10585211 1.625 8.75 C1.45871094 9.94882812 1.45871094 9.94882812 1.2890625 11.171875 C1.14597656 12.07679688 1.14597656 12.07679688 1 13 C0.67 13 0.34 13 0 13 C-0.66 10.36 -1.32 7.72 -2 5 C-4.31 4.67 -6.62 4.34 -9 4 C-9.0825 5.2375 -9.165 6.475 -9.25 7.75 C-9.63475459 10.98882964 -9.90024003 11.87907883 -12.0625 14.5 C-12.701875 14.995 -13.34125 15.49 -14 16 C-13.48594831 11.03083364 -12.76615118 6.70973649 -11 2 C-10.28972656 1.93941406 -9.57945312 1.87882812 -8.84765625 1.81640625 C-7.46900391 1.69072266 -7.46900391 1.69072266 -6.0625 1.5625 C-5.14597656 1.48128906 -4.22945312 1.40007812 -3.28515625 1.31640625 C-1.03840268 1.23955024 -1.03840268 1.23955024 0 0 Z " fill="#2CAAEB" transform="translate(914,371)"/>
<path d="M0 0 C1 3 1 3 -0.03222656 5.0847168 C-0.56299805 5.86500244 -1.09376953 6.64528809 -1.640625 7.44921875 C-2.21683594 8.29677734 -2.79304687 9.14433594 -3.38671875 10.01757812 C-4.00160156 10.89865234 -4.61648438 11.77972656 -5.25 12.6875 C-5.84941406 13.58017578 -6.44882812 14.47285156 -7.06640625 15.39257812 C-7.64777344 16.23626953 -8.22914063 17.07996094 -8.828125 17.94921875 C-9.3634082 18.72612061 -9.89869141 19.50302246 -10.45019531 20.3034668 C-11.21734863 21.14325073 -11.21734863 21.14325073 -12 22 C-12.99 22 -13.98 22 -15 22 C-15.66 22.33 -16.32 22.66 -17 23 C-15.43096953 19.4279519 -13.25211295 16.72870589 -10.75 13.75 C-7.02232578 9.26354233 -3.44083067 4.70921531 0 0 Z " fill="#3DAFE7" transform="translate(729,245)"/>
<path d="M0 0 C0.99 0.33 1.98 0.66 3 1 C-2.45018403 8.49141264 -7.91942098 15.96471894 -13.5625 23.3125 C-13.97935059 23.85672607 -14.39620117 24.40095215 -14.82568359 24.96166992 C-16.46879979 27.09063916 -18.0959509 29.0959509 -20 31 C-19.37229981 27.6963148 -18.1765196 25.48956087 -16.26953125 22.734375 C-15.43518555 21.52201172 -15.43518555 21.52201172 -14.58398438 20.28515625 C-13.99939453 19.44855469 -13.41480469 18.61195313 -12.8125 17.75 C-12.24724609 16.92886719 -11.68199219 16.10773438 -11.09960938 15.26171875 C-7.51730897 10.08318139 -3.81790034 5.00713938 0 0 Z " fill="#29AAEC" transform="translate(550,475)"/>
<path d="M0 0 C5.61 0 11.22 0 17 0 C16.67 0.66 16.34 1.32 16 2 C11.38 2 6.76 2 2 2 C2 7.28 2 12.56 2 18 C1.34 18.33 0.68 18.66 0 19 C0 12.73 0 6.46 0 0 Z " fill="#24ACF0" transform="translate(664,373)"/>
<path d="M0 0 C0.33 0.99 0.66 1.98 1 3 C-0.44819006 5.17379048 -1.90703461 7.1195401 -3.5625 9.125 C-4.49334815 10.28578981 -5.42173158 11.44856035 -6.34765625 12.61328125 C-6.80285645 13.1851416 -7.25805664 13.75700195 -7.72705078 14.34619141 C-9.97073346 17.26117155 -11.9125646 20.3613328 -13.84375 23.48828125 C-14.41609375 24.23658203 -14.41609375 24.23658203 -15 25 C-15.66 25 -16.32 25 -17 25 C-17.66 26.32 -18.32 27.64 -19 29 C-19.33 28.34 -19.66 27.68 -20 27 C-19.57847656 26.45730469 -19.15695312 25.91460937 -18.72265625 25.35546875 C-18.17480469 24.64003906 -17.62695312 23.92460937 -17.0625 23.1875 C-16.51722656 22.47980469 -15.97195313 21.77210938 -15.41015625 21.04296875 C-13.83143752 18.95874948 -13.83143752 18.95874948 -13 16 C-11.87414064 14.90825759 -10.74636755 13.81842417 -9.609375 12.73828125 C-5.99772965 8.83735363 -3.06091245 4.33692558 0 0 Z " fill="#33ADED" transform="translate(637,359)"/>
<path d="M0 0 C9.9 0 19.8 0 30 0 C29.67 0.66 29.34 1.32 29 2 C24.5427121 2.25395244 20.08439279 2.47397061 15.625 2.6875 C14.35398437 2.76033203 13.08296875 2.83316406 11.7734375 2.90820312 C10.56171875 2.96298828 9.35 3.01777344 8.1015625 3.07421875 C6.98088379 3.13182373 5.86020508 3.18942871 4.70556641 3.2487793 C3.81272949 3.16668213 2.91989258 3.08458496 2 3 C1.34 2.01 0.68 1.02 0 0 Z " fill="#1EA7EE" transform="translate(323,373)"/>
<path d="M0 0 C0.66 0 1.32 0 2 0 C1.34 2.64 0.68 5.28 0 8 C-3.24822698 7.18794325 -6.08821805 6.21645698 -9.1875 5 C-14.20478804 3.13874799 -18.67281684 2.34932349 -24 2 C-24 1.67 -24 1.34 -24 1 C-19.05 1 -14.1 1 -9 1 C-9 1.66 -9 2.32 -9 3 C-6.69 3.33 -4.38 3.66 -2 4 C-1.34 2.68 -0.68 1.36 0 0 Z " fill="#34AEEA" transform="translate(911,552)"/>
<path d="M0 0 C3.50660726 1.43536426 5.08141071 3.09936592 7.19921875 6.2109375 C7.76833984 7.04367187 8.33746094 7.87640625 8.92382812 8.734375 C9.7968457 10.04148437 9.7968457 10.04148437 10.6875 11.375 C11.28111328 12.23867188 11.87472656 13.10234375 12.48632812 13.9921875 C17.25054996 21.0325883 17.25054996 21.0325883 18 25 C17.67 24.34 17.34 23.68 17 23 C16.34 23 15.68 23 15 23 C13.5911026 21.15962777 12.27159702 19.25028296 11 17.3125 C10.29875 16.25675781 9.5975 15.20101562 8.875 14.11328125 C7.26230402 11.43553397 6.04547653 8.93495756 5 6 C4.34 6 3.68 6 3 6 C2.01 4.02 1.02 2.04 0 0 Z " fill="#26AAED" transform="translate(617,529)"/>
<path d="M0 0 C1 2.125 1 2.125 0 5.125 C-0.66 3.475 -1.32 1.825 -2 0.125 C-9.26 0.125 -16.52 0.125 -24 0.125 C-23.67 -0.535 -23.34 -1.195 -23 -1.875 C-4.96546431 -4.65512279 -4.96546431 -4.65512279 0 0 Z " fill="#24A7EB" transform="translate(154,374.875)"/>
<path d="M0 0 C0.66 0 1.32 0 2 0 C0.76377956 5.7315675 -0.75695998 7.79407112 -5 12 C-7.17784416 15.1274627 -9.19726325 18.3279756 -11.23046875 21.55078125 C-12.10638672 22.76314453 -12.10638672 22.76314453 -13 24 C-13.66 24 -14.32 24 -15 24 C-13.60421372 20.02737752 -11.72341883 17.03801608 -9.1875 13.6875 C-6.66242459 10.30545707 -4.28602351 6.93785884 -2.125 3.3125 C-1.073125 1.6728125 -1.073125 1.6728125 0 0 Z " fill="#29A9EB" transform="translate(517,552)"/>
<path d="M0 0 C0.66 0 1.32 0 2 0 C1.34 2.64 0.68 5.28 0 8 C-1.32 8 -2.64 8 -4 8 C-4 8.66 -4 9.32 -4 10 C2.93 10 9.86 10 17 10 C17 10.33 17 10.66 17 11 C9.41 11 1.82 11 -6 11 C-4.30885514 6.77213785 -2.69115085 3.61623395 0 0 Z " fill="#199FE5" transform="translate(480,573)"/>
<path d="M0 0 C0.33 0.99 0.66 1.98 1 3 C-2.08287695 8.6487497 -6.24881495 13.68074087 -11 18 C-11.3125 15.8125 -11.3125 15.8125 -11 13 C-8.875 10.6875 -8.875 10.6875 -6 8 C-3.92096077 5.39024584 -1.95315417 2.7048836 0 0 Z " fill="#27ABEE" transform="translate(627,396)"/>
<path d="M0 0 C1.18239258 0.00676758 1.18239258 0.00676758 2.38867188 0.01367188 C4.32164761 0.02538688 6.25458393 0.04332002 8.1875 0.0625 C7.1975 0.5575 7.1975 0.5575 6.1875 1.0625 C6.1875 1.7225 6.1875 2.3825 6.1875 3.0625 C-0.4125 2.7325 -7.0125 2.4025 -13.8125 2.0625 C-13.8125 1.7325 -13.8125 1.4025 -13.8125 1.0625 C-9.18790756 -0.11450048 -4.73383538 -0.05158412 0 0 Z " fill="#40B4EA" transform="translate(895.8125,535.9375)"/>
<path d="M0 0 C0.66 0 1.32 0 2 0 C0.68779266 2.77438124 -0.77482369 5.20790172 -2.6015625 7.671875 C-3.33632813 8.66767578 -3.33632813 8.66767578 -4.0859375 9.68359375 C-4.59382812 10.36550781 -5.10171875 11.04742187 -5.625 11.75 C-6.140625 12.44738281 -6.65625 13.14476562 -7.1875 13.86328125 C-8.45559119 15.57755267 -9.7274289 17.28905156 -11 19 C-11.33 17.68 -11.66 16.36 -12 15 C-11.34 15 -10.68 15 -10 15 C-9.7525 14.45859375 -9.505 13.9171875 -9.25 13.359375 C-7.72011396 10.4717151 -5.90849003 7.90223982 -4 5.25 C-3.29875 4.26515625 -2.5975 3.2803125 -1.875 2.265625 C-0.946875 1.14414062 -0.946875 1.14414062 0 0 Z " fill="#28A9EC" transform="translate(612,392)"/>
<path d="M0 0 C0.8971875 0.31130859 0.8971875 0.31130859 1.8125 0.62890625 C1.29300781 0.96921875 0.77351562 1.30953125 0.23828125 1.66015625 C-5.02049781 5.3150563 -8.20262019 8.97485506 -11.1875 14.62890625 C-11.78515625 12.8125 -11.78515625 12.8125 -12.1875 10.62890625 C-9.98676522 6.49152487 -5.40238988 -0.91647686 0 0 Z " fill="#2AAAEB" transform="translate(876.1875,540.37109375)"/>
<path d="M0 0 C2.82674877 3.43337406 5.3569759 6.93945158 7.75 10.6875 C8.36359375 11.64011719 8.9771875 12.59273438 9.609375 13.57421875 C11 16 11 16 11 18 C10.34 18 9.68 18 9 18 C7.3557522 15.77996868 5.85246116 13.57700132 4.375 11.25 C3.95476562 10.61578125 3.53453125 9.9815625 3.1015625 9.328125 C0.87956818 5.86527672 0 4.21092671 0 0 Z " fill="#29A9ED" transform="translate(205,486)"/>
<path d="M0 0 C5.06563284 4.45161674 8.9929287 9.96717995 12 16 C11.67 16.99 11.34 17.98 11 19 C10.54109375 18.27554687 10.0821875 17.55109375 9.609375 16.8046875 C8.99578125 15.83789062 8.3821875 14.87109375 7.75 13.875 C7.11449219 12.87339844 6.47898438 11.87179687 5.82421875 10.83984375 C4.4359087 8.67859877 3.02200404 6.55035603 1.5625 4.4375 C0 2 0 2 0 0 Z " fill="#27AAEE" transform="translate(170,402)"/>
<path d="M0 0 C4.02103409 1.50677331 5.5593458 3.86565766 7.8125 7.4375 C8.43769531 8.40558594 9.06289062 9.37367188 9.70703125 10.37109375 C11 13 11 13 10 16 C8.3305554 13.52266346 6.66433808 11.04326339 5 8.5625 C4.28457031 7.50192383 4.28457031 7.50192383 3.5546875 6.41992188 C3.10351562 5.74638672 2.65234375 5.07285156 2.1875 4.37890625 C1.76855469 3.7557251 1.34960938 3.13254395 0.91796875 2.49047852 C0 1 0 1 0 0 Z " fill="#28AAEC" transform="translate(156,382)"/>
<path d="M0 0 C4.09480199 3.74381897 7.7448683 7.8668907 10 13 C9.67 13.99 9.34 14.98 9 16 C7.49445366 13.71180854 5.99542957 11.41978831 4.5 9.125 C4.07074219 8.47402344 3.64148438 7.82304687 3.19921875 7.15234375 C0 2.2265625 0 2.2265625 0 0 Z " fill="#24A9EE" transform="translate(185,425)"/>
<path d="M0 0 C7 8.75 7 8.75 7 13 C6.34 13 5.68 13 5 13 C3.45703125 11.171875 3.45703125 11.171875 1.8125 8.75 C1.26207031 7.96109375 0.71164062 7.1721875 0.14453125 6.359375 C-1 4 -1 4 -0.67578125 1.703125 C-0.45277344 1.14109375 -0.22976563 0.5790625 0 0 Z " fill="#46ACDC" transform="translate(366,709)"/>
<path d="M0 0 C0.33 0.99 0.66 1.98 1 3 C-0.36366396 5.18304556 -1.72631652 7.11662933 -3.3125 9.125 C-3.72951172 9.67542969 -4.14652344 10.22585938 -4.57617188 10.79296875 C-7.70192308 14.85096154 -7.70192308 14.85096154 -10 16 C-8.55797524 11.84848662 -6.4989562 8.70021555 -3.875 5.1875 C-3.15054688 4.21167969 -2.42609375 3.23585938 -1.6796875 2.23046875 C-0.84824219 1.12638672 -0.84824219 1.12638672 0 0 Z " fill="#26ABEE" transform="translate(589,452)"/>
<path d="M0 0 C4.09480199 3.74381897 7.7448683 7.8668907 10 13 C9.67 13.99 9.34 14.98 9 16 C7.49445366 13.71180854 5.99542957 11.41978831 4.5 9.125 C4.07074219 8.47402344 3.64148438 7.82304688 3.19921875 7.15234375 C0 2.2265625 0 2.2265625 0 0 Z " fill="#22A7EC" transform="translate(261,541)"/>
<path d="M0 0 C-0.9977758 2.99332739 -1.7522025 3.94766315 -4 6 C-4.99 5.67 -5.98 5.34 -7 5 C-8.33106622 4.65772583 -9.66400079 4.32248257 -11 4 C-11 3.34 -11 2.68 -11 2 C-9.5422647 1.664061 -8.08378894 1.33133376 -6.625 1 C-5.40683594 0.7215625 -5.40683594 0.7215625 -4.1640625 0.4375 C-2 0 -2 0 0 0 Z " fill="#3DB3ED" transform="translate(848,535)"/>
<path d="M0 0 C8.25 0.33 16.5 0.66 25 1 C25 1.33 25 1.66 25 2 C12.625 2.495 12.625 2.495 0 3 C0 2.01 0 1.02 0 0 Z " fill="#27A3E5" transform="translate(486,372)"/>
<path d="M0 0 C3.58102841 3.38208239 6.56773474 6.69676146 9 11 C8.67 11.99 8.34 12.98 8 14 C6.66101601 12.04532248 5.32870953 10.0866421 4 8.125 C3.2575 7.03445313 2.515 5.94390625 1.75 4.8203125 C0 2 0 2 0 0 Z " fill="#22A8ED" transform="translate(553,436)"/>
<path d="M0 0 C3.37227049 1.39367924 4.90493713 2.84275299 6.8125 5.9375 C7.25207031 6.62714844 7.69164062 7.31679688 8.14453125 8.02734375 C9 10 9 10 8 13 C6.9944239 11.54550599 5.99569565 10.08627557 5 8.625 C4.443125 7.81289063 3.88625 7.00078125 3.3125 6.1640625 C2 4 2 4 2 2 C1.34 2 0.68 2 0 2 C0 1.34 0 0.68 0 0 Z " fill="#28ABEE" transform="translate(520,389)"/>
<path d="M0 0 C0.33 0 0.66 0 1 0 C1.02687279 1.81242052 1.04633715 3.62495233 1.0625 5.4375 C1.07410156 6.44683594 1.08570313 7.45617187 1.09765625 8.49609375 C1 11 1 11 0 12 C-2.67058851 12.14115161 -5.32432238 12.04247107 -8 12 C-5.35261084 10.5393715 -4.10551666 10 -1 10 C-0.67 6.7 -0.34 3.4 0 0 Z " fill="#41B3E8" transform="translate(872,371)"/>
<path d="M0 0 C0.33 0.99 0.66 1.98 1 3 C-0.21484375 5.26171875 -0.21484375 5.26171875 -1.9375 7.6875 C-2.78634766 8.89986328 -2.78634766 8.89986328 -3.65234375 10.13671875 C-4.09707031 10.75160156 -4.54179688 11.36648438 -5 12 C-5.99 11.34 -6.98 10.68 -8 10 C-7.59007812 9.52949219 -7.18015625 9.05898437 -6.7578125 8.57421875 C-6.21898437 7.95160156 -5.68015625 7.32898438 -5.125 6.6875 C-4.59132813 6.07261719 -4.05765625 5.45773438 -3.5078125 4.82421875 C-1.8359553 2.86501788 -1.8359553 2.86501788 0 0 Z " fill="#51ACD6" transform="translate(729,245)"/>
<path d="M0 0 C0.66 0.33 1.32 0.66 2 1 C-2.455 6.94 -2.455 6.94 -7 13 C-7.33 12.34 -7.66 11.68 -8 11 C-5.36 7.37 -2.72 3.74 0 0 Z " fill="#23A6EB" transform="translate(527,508)"/>
<path d="M0 0 C2.31 0.66 4.62 1.32 7 2 C7 2.33 7 2.66 7 3 C-0.92 3.495 -0.92 3.495 -9 4 C-8.34 3.01 -7.68 2.02 -7 1 C-4.69 1.33 -2.38 1.66 0 2 C0 1.34 0 0.68 0 0 Z " fill="#2DABED" transform="translate(400,371)"/>
<path d="M0 0 C0.33 0.99 0.66 1.98 1 3 C-0.36328125 5.4453125 -0.36328125 5.4453125 -2.3125 8.125 C-3.26576172 9.45917969 -3.26576172 9.45917969 -4.23828125 10.8203125 C-6 13 -6 13 -8 14 C-6.6744419 10.37723685 -5.05653045 7.36494652 -2.875 4.1875 C-2.33617187 3.39730469 -1.79734375 2.60710937 -1.2421875 1.79296875 C-0.83226562 1.20128906 -0.42234375 0.60960937 0 0 Z " fill="#27AAEE" transform="translate(645,369)"/>
<path d="M0 0 C0.99 0.33 1.98 0.66 3 1 C1.70984254 2.62619848 0.41782303 4.25091983 -0.875 5.875 C-1.95394531 7.23238281 -1.95394531 7.23238281 -3.0546875 8.6171875 C-5 11 -5 11 -7 13 C-6.36610765 9.50155614 -4.94822306 7.15913124 -2.9375 4.25 C-2.38964844 3.45078125 -1.84179688 2.6515625 -1.27734375 1.828125 C-0.85582031 1.22484375 -0.43429687 0.6215625 0 0 Z " fill="#22A6EB" transform="translate(597,412)"/>
<path d="M0 0 C1.32 0 2.64 0 4 0 C4 5.61 4 11.22 4 17 C3.67 17 3.34 17 3 17 C2.67 12.05 2.34 7.1 2 2 C1.34 2 0.68 2 0 2 C0 1.34 0 0.68 0 0 Z " fill="#12A1ED" transform="translate(464,566)"/>
<path d="M0 0 C0.66 0 1.32 0 2 0 C3.47265625 1.8984375 3.47265625 1.8984375 5.0625 4.375 C5.85333984 5.59316406 5.85333984 5.59316406 6.66015625 6.8359375 C8 9 8 9 9 11 C6.34795104 10.63165987 5.26159944 10.3132309 3.515625 8.22265625 C2.88914062 7.15337891 2.88914062 7.15337891 2.25 6.0625 C1.82203125 5.35222656 1.3940625 4.64195312 0.953125 3.91015625 C0 2 0 2 0 0 Z " fill="#29ABED" transform="translate(568,491)"/>
<path d="M0 0 C0.66 0 1.32 0 2 0 C3.54296875 2.1171875 3.54296875 2.1171875 5.1875 4.875 C5.73792969 5.77992188 6.28835938 6.68484375 6.85546875 7.6171875 C7.23316406 8.40351563 7.61085938 9.18984375 8 10 C7.67 10.66 7.34 11.32 7 12 C2 6.25 2 6.25 2 4 C1.34 4 0.68 4 0 4 C0 2.68 0 1.36 0 0 Z " fill="#29ABEB" transform="translate(512,376)"/>
<path d="M0 0 C0 3.59857954 -0.95830515 5.09451118 -3 8 C-3.66 8 -4.32 8 -5 8 C-5.66 9.32 -6.32 10.64 -7 12 C-7.33 11.34 -7.66 10.68 -8 10 C-6.85500893 8.52018126 -5.708983 7.04116318 -4.5625 5.5625 C-3.60537109 4.32693359 -3.60537109 4.32693359 -2.62890625 3.06640625 C-1 1 -1 1 0 0 Z " fill="#24A8EB" transform="translate(625,376)"/>
<path d="M0 0 C0.33 0.99 0.66 1.98 1 3 C-0.43359375 5.26171875 -0.43359375 5.26171875 -2.4375 7.6875 C-3.09621094 8.49574219 -3.75492188 9.30398438 -4.43359375 10.13671875 C-4.95050781 10.75160156 -5.46742188 11.36648438 -6 12 C-6.33 11.34 -6.66 10.68 -7 10 C-3.535 5.05 -3.535 5.05 0 0 Z " fill="#29ABEF" transform="translate(660,347)"/>
<path d="M0 0 C1.32 0.66 2.64 1.32 4 2 C2.68 2 1.36 2 0 2 C0 4.31 0 6.62 0 9 C-1.32 8.34 -2.64 7.68 -4 7 C-3.34 6.67 -2.68 6.34 -2 6 C-2 4.68 -2 3.36 -2 2 C-1.34 1.34 -0.68 0.68 0 0 Z " fill="#4BB6E9" transform="translate(820,620)"/>
<path d="M0 0 C4.20390632 1.50139512 5.89110738 4.17275043 8 8 C7.67 8.99 7.34 9.98 7 11 C5.83051998 9.35616456 4.6644855 7.70987731 3.5 6.0625 C2.8503125 5.14597656 2.200625 4.22945313 1.53125 3.28515625 C0 1 0 1 0 0 Z " fill="#24A9EE" transform="translate(596,499)"/>
<path d="M0 0 C4.04648443 1.34882814 4.95502599 3.34826069 7 7 C6.67 7.99 6.34 8.98 6 10 C5.34 8.35 4.68 6.7 4 5 C3.34 5 2.68 5 2 5 C1.34 3.35 0.68 1.7 0 0 Z " fill="#24AAEE" transform="translate(606,513)"/>
<path d="M0 0 C6.75 2.75 6.75 2.75 9 5 C7.88625 4.814375 6.7725 4.62875 5.625 4.4375 C2.17431139 3.68319343 2.17431139 3.68319343 0 5 C0 3.35 0 1.7 0 0 Z " fill="#38AFEA" transform="translate(867,589)"/>
<path d="M0 0 C0.66 0 1.32 0 2 0 C3.2890625 1.75 3.2890625 1.75 4.625 4 C5.07101562 4.7425 5.51703125 5.485 5.9765625 6.25 C6.31429687 6.8275 6.65203125 7.405 7 8 C6.01 8.33 5.02 8.66 4 9 C0 2.25 0 2.25 0 0 Z " fill="#27ABEE" transform="translate(549,464)"/>
<path d="M0 0 C1.36682561 2.73365122 0.84683011 4.10666379 0 7 C-1.5625 8.8125 -1.5625 8.8125 -3 10 C-2.25 2.25 -2.25 2.25 0 0 Z " fill="#28A6E8" transform="translate(903,377)"/>
<path d="M0 0 C-0.3125 2.875 -0.3125 2.875 -1 6 C-1.99 6.66 -2.98 7.32 -4 8 C-4 5.69 -4 3.38 -4 1 C-2 0 -2 0 0 0 Z " fill="#29ACF0" transform="translate(707,277)"/>
<path d="M0 0 C0.66 0 1.32 0 2 0 C5.22265625 5.17578125 5.22265625 5.17578125 6 7 C5.67 7.99 5.34 8.98 5 10 C4.15801693 8.90241493 3.32669329 7.79664683 2.5 6.6875 C2.0359375 6.07261719 1.571875 5.45773437 1.09375 4.82421875 C0 3 0 3 0 0 Z " fill="#2BAAEB" transform="translate(343,671)"/>
<path d="M0 0 C3.39417765 3.12621626 5.6062718 5.56541027 7 10 C3.60582235 6.87378374 1.3937282 4.43458973 0 0 Z " fill="#26A8EC" transform="translate(297,621)"/>
<path d="M0 0 C3 1 3 1 4.75 3.375 C6 6 6 6 5 9 C4.16094435 7.87926138 3.32892169 6.75325453 2.5 5.625 C2.0359375 4.99851562 1.571875 4.37203125 1.09375 3.7265625 C0 2 0 2 0 0 Z " fill="#24A9EE" transform="translate(222,482)"/>
<path d="M0 0 C0.66 0 1.32 0 2 0 C1.34 1.65 0.68 3.3 0 5 C-1.32 5 -2.64 5 -4 5 C-4 4.01 -4 3.02 -4 2 C-3.01 2 -2.02 2 -1 2 C-0.67 1.34 -0.34 0.68 0 0 Z " fill="#32AEEC" transform="translate(485,566)"/>
<path d="M0 0 C3.3 0.33 6.6 0.66 10 1 C10 1.33 10 1.66 10 2 C3.375 2.25 3.375 2.25 0 0 Z " fill="#5EB7DC" transform="translate(877,614)"/>
<path d="M0 0 C0.99 0.33 1.98 0.66 3 1 C1.68 1.33 0.36 1.66 -1 2 C-0.67 1.34 -0.34 0.68 0 0 Z " fill="#5CBFEC" transform="translate(826,617)"/>
<path d="M0 0 C1.98 0 3.96 0 6 0 C6 0.33 6 0.66 6 1 C4.02 1 2.04 1 0 1 C0 0.67 0 0.34 0 0 Z " fill="#52C1F4" transform="translate(367,485)"/>
<path d="M0 0 C0.33 0 0.66 0 1 0 C1 1.98 1 3.96 1 6 C0.67 6 0.34 6 0 6 C0 4.02 0 2.04 0 0 Z " fill="#4EC0F4" transform="translate(273,475)"/>
<path d="M0 0 C0.99 0.495 0.99 0.495 2 1 C2 1.66 2 2.32 2 3 C1.34 3 0.68 3 0 3 C0 2.01 0 1.02 0 0 Z " fill="#55B9E5" transform="translate(323,660)"/>
<path d="M0 0 C1.65 0 3.3 0 5 0 C5 0.33 5 0.66 5 1 C3.35 1 1.7 1 0 1 C0 0.67 0 0.34 0 0 Z " fill="#52C0F3" transform="translate(399,485)"/>
<path d="M0 0 C0.66 0 1.32 0 2 0 C1.67 1.32 1.34 2.64 1 4 C0.67 2.68 0.34 1.36 0 0 Z " fill="#5EB9E2" transform="translate(272,373)"/>
<path d="M0 0 C1.485 0.99 1.485 0.99 3 2 C2.01 2 1.02 2 0 2 C0 1.34 0 0.68 0 0 Z " fill="#58BBE9" transform="translate(624,370)"/>
<path d="M0 0 C0.99 0.33 1.98 0.66 3 1 C2.01 1.33 1.02 1.66 0 2 C0 1.34 0 0.68 0 0 Z " fill="#5CB9E1" transform="translate(873,613)"/>
<path d="M0 0 C0.66 0.66 1.32 1.32 2 2 C1.01 2.495 1.01 2.495 0 3 C0 2.01 0 1.02 0 0 Z " fill="#55BAEB" transform="translate(275,596)"/>
<path d="M0 0 C0.33 0.99 0.66 1.98 1 3 C0.34 2.67 -0.32 2.34 -1 2 C-0.67 1.34 -0.34 0.68 0 0 Z " fill="#56BEEC" transform="translate(885,560)"/>
<path d="M0 0 C4 1 4 1 4 1 Z " fill="#53C0F2" transform="translate(439,485)"/>
<path d="M0 0 C0.99 0.33 1.98 0.66 3 1 C2.01 1.33 1.02 1.66 0 2 C0 1.34 0 0.68 0 0 Z " fill="#5AB5DF" transform="translate(880,413)"/>
<path d="M0 0 C3 1 3 1 3 1 Z " fill="#5FB4D7" transform="translate(829,639)"/>
<path d="M0 0 C3 1 3 1 3 1 Z " fill="#5FB3D4" transform="translate(821,639)"/>
<path d="M0 0 C0.66 0.66 1.32 1.32 2 2 C1.34 2 0.68 2 0 2 C0 1.34 0 0.68 0 0 Z " fill="#56B8E7" transform="translate(307,638)"/>
<path d="M0 0 C0.66 0 1.32 0 2 0 C1.67 0.66 1.34 1.32 1 2 C0.67 1.34 0.34 0.68 0 0 Z " fill="#56BDEB" transform="translate(874,581)"/>
<path d="M0 0 C0.66 0.66 1.32 1.32 2 2 C1.34 2 0.68 2 0 2 C0 1.34 0 0.68 0 0 Z " fill="#51BBED" transform="translate(259,573)"/>
<path d="" fill="#55BFED" transform="translate(0,0)"/>
<path d="" fill="#53BEF0" transform="translate(0,0)"/>
<path d="" fill="#51C0F1" transform="translate(0,0)"/>
<path d="M0 0 C3 1 3 1 3 1 Z " fill="#5CBAE2" transform="translate(879,536)"/>
<path d="" fill="#4CC1F5" transform="translate(0,0)"/>
<path d="M0 0 C0.66 0.66 1.32 1.32 2 2 C1.34 2 0.68 2 0 2 C0 1.34 0 0.68 0 0 Z " fill="#53BDEE" transform="translate(620,528)"/>
<path d="" fill="#60BEE8" transform="translate(0,0)"/>
<path d="" fill="#4FBFF4" transform="translate(0,0)"/>
<path d="" fill="#4FBFF3" transform="translate(0,0)"/>
<path d="" fill="#4FC0F5" transform="translate(0,0)"/>
<path d="M0 0 C0.66 0 1.32 0 2 0 C1.67 0.66 1.34 1.32 1 2 C0.67 1.34 0.34 0.68 0 0 Z " fill="#51BFF1" transform="translate(570,499)"/>
<path d="" fill="#4FC0F5" transform="translate(0,0)"/>
<path d="" fill="#4EC0F3" transform="translate(0,0)"/>
<path d="M0 0 C3 1 3 1 3 1 Z " fill="#52C0F3" transform="translate(431,485)"/>
<path d="M0 0 C3 1 3 1 3 1 Z " fill="#52C1F5" transform="translate(391,485)"/>
<path d="M0 0 C3 1 3 1 3 1 Z " fill="#52C0F3" transform="translate(375,485)"/>
<path d="" fill="#51C1F4" transform="translate(0,0)"/>
<path d="" fill="#51C0F4" transform="translate(0,0)"/>
<path d="M0 0 C0.99 0.495 0.99 0.495 2 1 C1.01 1.495 1.01 1.495 0 2 C0 1.34 0 0.68 0 0 Z " fill="#5FB3D5" transform="translate(912,413)"/>
<path d="M0 0 C3 1 3 1 3 1 Z " fill="#58B7E0" transform="translate(857,413)"/>
<path d="M0 0 C0.66 0 1.32 0 2 0 C1.67 0.66 1.34 1.32 1 2 C0.67 1.34 0.34 0.68 0 0 Z " fill="#54BEEE" transform="translate(505,405)"/>
<path d="" fill="#5BBAE4" transform="translate(0,0)"/>
<path d="" fill="#5EBBE3" transform="translate(0,0)"/>
<path d="M0 0 C2 1 2 1 2 1 Z " fill="#5EAFCF" transform="translate(366,704)"/>
<path d="M0 0 C2 1 2 1 2 1 Z " fill="#59B5DD" transform="translate(346,693)"/>
<path d="M0 0 C2 1 2 1 2 1 Z " fill="#56B9E5" transform="translate(321,659)"/>
<path d="M0 0 C2 1 2 1 2 1 Z " fill="#5BBDE7" transform="translate(823,617)"/>
<path d="M0 0 C2 1 2 1 2 1 Z " fill="#5BB5DA" transform="translate(892,615)"/>
<path d="M0 0 C2 1 2 1 2 1 Z " fill="#5BB9E4" transform="translate(815,613)"/>
<path d="" fill="#57BCE9" transform="translate(0,0)"/>
<path d="" fill="#61BBE4" transform="translate(0,0)"/>
<path d="M0 0 C2 1 2 1 2 1 Z " fill="#56BEEB" transform="translate(893,594)"/>
<path d="M0 0 C2 1 2 1 2 1 Z " fill="#57BEED" transform="translate(884,594)"/>
<path d="M0 0 C2 1 2 1 2 1 Z " fill="#57BCE7" transform="translate(876,592)"/>
<path d="" fill="#57BDEC" transform="translate(0,0)"/>
<path d="M0 0 C2 1 2 1 2 1 Z " fill="#5CBDE6" transform="translate(880,583)"/>
<path d="" fill="#56BEEA" transform="translate(0,0)"/>
<path d="" fill="#55BEEE" transform="translate(0,0)"/>
<path d="" fill="#59BCE6" transform="translate(0,0)"/>
<path d="" fill="#50BBEF" transform="translate(0,0)"/>
<path d="" fill="#56BEED" transform="translate(0,0)"/>
<path d="" fill="#55BDEE" transform="translate(0,0)"/>
<path d="" fill="#56BFEF" transform="translate(0,0)"/>
<path d="M0 0 C2 1 2 1 2 1 Z " fill="#57BEEE" transform="translate(884,558)"/>
<path d="" fill="#5ABFED" transform="translate(0,0)"/>
<path d="" fill="#53BDEF" transform="translate(0,0)"/>
<path d="" fill="#53C0F1" transform="translate(0,0)"/>
<path d="" fill="#4EBFF3" transform="translate(0,0)"/>
<path d="" fill="#53C0F2" transform="translate(0,0)"/>
<path d="M0 0 C2 1 2 1 2 1 Z " fill="#5ABFEB" transform="translate(834,539)"/>
<path d="M0 0 C2 1 2 1 2 1 Z " fill="#5DBEE5" transform="translate(877,537)"/>
<path d="" fill="#52C0F1" transform="translate(0,0)"/>
<path d="" fill="#4FC0F5" transform="translate(0,0)"/>
<path d="" fill="#4FC0F3" transform="translate(0,0)"/>
<path d="" fill="#5FBDE5" transform="translate(0,0)"/>
<path d="" fill="#5EBEE5" transform="translate(0,0)"/>
<path d="" fill="#50C0F3" transform="translate(0,0)"/>
<path d="" fill="#4FBDF4" transform="translate(0,0)"/>
<path d="" fill="#4FBFF5" transform="translate(0,0)"/>
<path d="" fill="#4FC0F4" transform="translate(0,0)"/>
<path d="" fill="#50C0F5" transform="translate(0,0)"/>
<path d="" fill="#50C0F6" transform="translate(0,0)"/>
<path d="" fill="#50C1F3" transform="translate(0,0)"/>
<path d="" fill="#51BFF0" transform="translate(0,0)"/>
<path d="" fill="#4FC0F5" transform="translate(0,0)"/>
<path d="M0 0 C2 1 2 1 2 1 Z " fill="#53C0F1" transform="translate(435,485)"/>
<path d="M0 0 C2 1 2 1 2 1 Z " fill="#50C0F2" transform="translate(362,485)"/>
<path d="M0 0 C2 1 2 1 2 1 Z " fill="#51C0F3" transform="translate(354,485)"/>
<path d="M0 0 C2 1 2 1 2 1 Z " fill="#52C0F4" transform="translate(351,485)"/>
<path d="" fill="#4DC0F3" transform="translate(0,0)"/>
<path d="" fill="#4FC0F5" transform="translate(0,0)"/>
<path d="" fill="#50BEF1" transform="translate(0,0)"/>
<path d="" fill="#52C0F3" transform="translate(0,0)"/>
<path d="" fill="#52BEF1" transform="translate(0,0)"/>
<path d="M0 0 C2 1 2 1 2 1 Z " fill="#50BFF3" transform="translate(579,470)"/>
<path d="" fill="#50C2F4" transform="translate(0,0)"/>
<path d="" fill="#53C0F5" transform="translate(0,0)"/>
<path d="" fill="#53BEEE" transform="translate(0,0)"/>
<path d="" fill="#52C2F4" transform="translate(0,0)"/>
<path d="" fill="#4FBCF0" transform="translate(0,0)"/>
<path d="" fill="#51BEEE" transform="translate(0,0)"/>
<path d="" fill="#50BDEF" transform="translate(0,0)"/>
<path d="" fill="#54C0F3" transform="translate(0,0)"/>
<path d="" fill="#59B6E3" transform="translate(0,0)"/>
<path d="" fill="#57B8E3" transform="translate(0,0)"/>
<path d="" fill="#5FBAE2" transform="translate(0,0)"/>
<path d="" fill="#5DBCE6" transform="translate(0,0)"/>
<path d="M0 0 C2 1 2 1 2 1 Z " fill="#59BCE9" transform="translate(687,311)"/>
<path d="M0 0 C2 1 2 1 2 1 Z " fill="#5BBAE3" transform="translate(702,289)"/>
<path d="" fill="#69AAC2" transform="translate(0,0)"/>
<path d="" fill="#585E5D" transform="translate(0,0)"/>
<path d="" fill="#63AAC7" transform="translate(0,0)"/>
<path d="" fill="#6AAAC9" transform="translate(0,0)"/>
<path d="" fill="#65A9CF" transform="translate(0,0)"/>
<path d="" fill="#5AACD0" transform="translate(0,0)"/>
<path d="" fill="#5AA9CB" transform="translate(0,0)"/>
<path d="" fill="#5FB2D5" transform="translate(0,0)"/>
<path d="" fill="#5DB4DC" transform="translate(0,0)"/>
<path d="" fill="#55B7E3" transform="translate(0,0)"/>
<path d="" fill="#55B8E4" transform="translate(0,0)"/>
<path d="" fill="#54BAE6" transform="translate(0,0)"/>
<path d="" fill="#56B7E6" transform="translate(0,0)"/>
<path d="" fill="#58B9E6" transform="translate(0,0)"/>
<path d="" fill="#58BAE4" transform="translate(0,0)"/>
<path d="" fill="#5BBAE5" transform="translate(0,0)"/>
<path d="" fill="#5DBCE4" transform="translate(0,0)"/>
<path d="" fill="#61B2CF" transform="translate(0,0)"/>
<path d="" fill="#5DB5DA" transform="translate(0,0)"/>
<path d="" fill="#60B2DD" transform="translate(0,0)"/>
<path d="" fill="#61B7DE" transform="translate(0,0)"/>
<path d="" fill="#55BBE9" transform="translate(0,0)"/>
<path d="" fill="#5FBAE1" transform="translate(0,0)"/>
<path d="" fill="#5BB9E2" transform="translate(0,0)"/>
<path d="" fill="#58BDEA" transform="translate(0,0)"/>
<path d="" fill="#55C0F0" transform="translate(0,0)"/>
<path d="" fill="#5BB9E1" transform="translate(0,0)"/>
<path d="" fill="#58BCEB" transform="translate(0,0)"/>
<path d="" fill="#5EBBE2" transform="translate(0,0)"/>
<path d="" fill="#5EB9DF" transform="translate(0,0)"/>
<path d="" fill="#55BBEA" transform="translate(0,0)"/>
<path d="" fill="#57BAE5" transform="translate(0,0)"/>
<path d="" fill="#60B5DB" transform="translate(0,0)"/>
<path d="" fill="#5CBDE9" transform="translate(0,0)"/>
<path d="" fill="#56B9EA" transform="translate(0,0)"/>
<path d="" fill="#5ABDEC" transform="translate(0,0)"/>
<path d="" fill="#61B3D6" transform="translate(0,0)"/>
<path d="" fill="#60BDE9" transform="translate(0,0)"/>
<path d="" fill="#56BCED" transform="translate(0,0)"/>
<path d="" fill="#5ABDE7" transform="translate(0,0)"/>
<path d="" fill="#4FBEF2" transform="translate(0,0)"/>
<path d="" fill="#54BBEA" transform="translate(0,0)"/>
<path d="" fill="#5EBBE4" transform="translate(0,0)"/>
<path d="" fill="#55BBEC" transform="translate(0,0)"/>
<path d="" fill="#59BDEB" transform="translate(0,0)"/>
<path d="" fill="#4FBEF1" transform="translate(0,0)"/>
<path d="" fill="#57BCEC" transform="translate(0,0)"/>
<path d="" fill="#55BCE7" transform="translate(0,0)"/>
<path d="" fill="#5ABDE7" transform="translate(0,0)"/>
<path d="" fill="#4EBCEE" transform="translate(0,0)"/>
<path d="" fill="#5EBBE3" transform="translate(0,0)"/>
<path d="" fill="#56BCE9" transform="translate(0,0)"/>
<path d="" fill="#62B9DF" transform="translate(0,0)"/>
<path d="" fill="#5FBADF" transform="translate(0,0)"/>
<path d="" fill="#5FB9DE" transform="translate(0,0)"/>
<path d="" fill="#63B9DD" transform="translate(0,0)"/>
<path d="" fill="#5EBAE2" transform="translate(0,0)"/>
<path d="" fill="#61BAE4" transform="translate(0,0)"/>
<path d="" fill="#5CBEEA" transform="translate(0,0)"/>
<path d="" fill="#5BBEEE" transform="translate(0,0)"/>
<path d="" fill="#56BDEC" transform="translate(0,0)"/>
<path d="" fill="#54BEEE" transform="translate(0,0)"/>
<path d="" fill="#55BEEB" transform="translate(0,0)"/>
<path d="" fill="#5BBBE3" transform="translate(0,0)"/>
<path d="" fill="#59B6E2" transform="translate(0,0)"/>
<path d="" fill="#59B7E0" transform="translate(0,0)"/>
<path d="" fill="#59BAE4" transform="translate(0,0)"/>
<path d="" fill="#56BDEB" transform="translate(0,0)"/>
<path d="" fill="#5CBDEB" transform="translate(0,0)"/>
<path d="" fill="#54BAE9" transform="translate(0,0)"/>
<path d="" fill="#5CBCEC" transform="translate(0,0)"/>
<path d="" fill="#57BBE7" transform="translate(0,0)"/>
<path d="" fill="#5BBEEC" transform="translate(0,0)"/>
<path d="" fill="#56BCEC" transform="translate(0,0)"/>
<path d="" fill="#4DBEF0" transform="translate(0,0)"/>
<path d="" fill="#56BAE9" transform="translate(0,0)"/>
<path d="" fill="#4EBDF2" transform="translate(0,0)"/>
<path d="" fill="#57BFEE" transform="translate(0,0)"/>
<path d="" fill="#59BEEA" transform="translate(0,0)"/>
<path d="" fill="#57BDEC" transform="translate(0,0)"/>
<path d="" fill="#5ABBE7" transform="translate(0,0)"/>
<path d="" fill="#55BDEC" transform="translate(0,0)"/>
<path d="" fill="#58BCEC" transform="translate(0,0)"/>
<path d="" fill="#5BC0EC" transform="translate(0,0)"/>
<path d="" fill="#57BCE9" transform="translate(0,0)"/>
<path d="" fill="#53BAED" transform="translate(0,0)"/>
<path d="" fill="#56BEEE" transform="translate(0,0)"/>
<path d="" fill="#54BEEC" transform="translate(0,0)"/>
<path d="" fill="#56C1F2" transform="translate(0,0)"/>
<path d="" fill="#57C0F1" transform="translate(0,0)"/>
<path d="" fill="#56C1F2" transform="translate(0,0)"/>
<path d="" fill="#58C1F1" transform="translate(0,0)"/>
<path d="" fill="#52BDEF" transform="translate(0,0)"/>
<path d="" fill="#55BAE9" transform="translate(0,0)"/>
<path d="" fill="#56BBE7" transform="translate(0,0)"/>
<path d="" fill="#55BFF2" transform="translate(0,0)"/>
<path d="" fill="#5DBCE5" transform="translate(0,0)"/>
<path d="" fill="#5DBFEB" transform="translate(0,0)"/>
<path d="" fill="#52B7E7" transform="translate(0,0)"/>
<path d="" fill="#57BEEC" transform="translate(0,0)"/>
<path d="" fill="#54BCEB" transform="translate(0,0)"/>
<path d="" fill="#58BEEB" transform="translate(0,0)"/>
<path d="" fill="#53BDEA" transform="translate(0,0)"/>
<path d="" fill="#57BDEA" transform="translate(0,0)"/>
<path d="" fill="#53BBEC" transform="translate(0,0)"/>
<path d="" fill="#55B9E9" transform="translate(0,0)"/>
<path d="" fill="#4CBEF3" transform="translate(0,0)"/>
<path d="" fill="#59BDEB" transform="translate(0,0)"/>
<path d="" fill="#53BAE9" transform="translate(0,0)"/>
<path d="" fill="#52BEEF" transform="translate(0,0)"/>
<path d="" fill="#57BEEB" transform="translate(0,0)"/>
<path d="" fill="#54BEEA" transform="translate(0,0)"/>
<path d="" fill="#52BEF0" transform="translate(0,0)"/>
<path d="" fill="#59BEED" transform="translate(0,0)"/>
<path d="" fill="#59BEEB" transform="translate(0,0)"/>
<path d="" fill="#5ABDED" transform="translate(0,0)"/>
<path d="" fill="#56BEEF" transform="translate(0,0)"/>
<path d="" fill="#59BFED" transform="translate(0,0)"/>
<path d="" fill="#5EB6DC" transform="translate(0,0)"/>
<path d="" fill="#4DBEF3" transform="translate(0,0)"/>
<path d="" fill="#4DBFF3" transform="translate(0,0)"/>
<path d="" fill="#58BFEC" transform="translate(0,0)"/>
<path d="" fill="#54BDED" transform="translate(0,0)"/>
<path d="" fill="#4BC0F4" transform="translate(0,0)"/>
<path d="" fill="#50C0F4" transform="translate(0,0)"/>
<path d="" fill="#4EBEF2" transform="translate(0,0)"/>
<path d="" fill="#51BCEE" transform="translate(0,0)"/>
<path d="" fill="#60B9E1" transform="translate(0,0)"/>
<path d="" fill="#5CBCEB" transform="translate(0,0)"/>
<path d="" fill="#5CBCEA" transform="translate(0,0)"/>
<path d="" fill="#54BEED" transform="translate(0,0)"/>
<path d="" fill="#58BDEB" transform="translate(0,0)"/>
<path d="" fill="#56BDEC" transform="translate(0,0)"/>
<path d="" fill="#50BEF4" transform="translate(0,0)"/>
<path d="" fill="#59BDE9" transform="translate(0,0)"/>
<path d="" fill="#5BBCE7" transform="translate(0,0)"/>
<path d="" fill="#5EC0EC" transform="translate(0,0)"/>
<path d="" fill="#52BDEC" transform="translate(0,0)"/>
<path d="" fill="#55BDED" transform="translate(0,0)"/>
<path d="" fill="#55BEF0" transform="translate(0,0)"/>
<path d="" fill="#53BEEC" transform="translate(0,0)"/>
<path d="" fill="#52BDED" transform="translate(0,0)"/>
<path d="" fill="#5ABEEB" transform="translate(0,0)"/>
<path d="" fill="#4EBDF2" transform="translate(0,0)"/>
<path d="" fill="#5CBFEB" transform="translate(0,0)"/>
<path d="" fill="#51BDEB" transform="translate(0,0)"/>
<path d="" fill="#53BFEF" transform="translate(0,0)"/>
<path d="" fill="#5CBEE7" transform="translate(0,0)"/>
<path d="" fill="#51BFF2" transform="translate(0,0)"/>
<path d="" fill="#5EBFE8" transform="translate(0,0)"/>
<path d="" fill="#50BEEE" transform="translate(0,0)"/>
<path d="" fill="#51C1F4" transform="translate(0,0)"/>
<path d="" fill="#51BCEE" transform="translate(0,0)"/>
<path d="" fill="#5EBEE7" transform="translate(0,0)"/>
<path d="" fill="#61BFE8" transform="translate(0,0)"/>
<path d="" fill="#52BDEF" transform="translate(0,0)"/>
<path d="" fill="#54BFEF" transform="translate(0,0)"/>
<path d="" fill="#62BFE6" transform="translate(0,0)"/>
<path d="" fill="#64C0E8" transform="translate(0,0)"/>
<path d="" fill="#56BDEC" transform="translate(0,0)"/>
<path d="" fill="#53BDF0" transform="translate(0,0)"/>
<path d="" fill="#61BFE5" transform="translate(0,0)"/>
<path d="" fill="#63BFE7" transform="translate(0,0)"/>
<path d="" fill="#66C1E7" transform="translate(0,0)"/>
<path d="" fill="#5AC0F0" transform="translate(0,0)"/>
<path d="" fill="#51C0F3" transform="translate(0,0)"/>
<path d="" fill="#54C1F1" transform="translate(0,0)"/>
<path d="" fill="#63BCE2" transform="translate(0,0)"/>
<path d="" fill="#50BEF4" transform="translate(0,0)"/>
<path d="" fill="#56BFEF" transform="translate(0,0)"/>
<path d="" fill="#4FC1F3" transform="translate(0,0)"/>
<path d="" fill="#53BBEB" transform="translate(0,0)"/>
<path d="" fill="#53BFEE" transform="translate(0,0)"/>
<path d="" fill="#55BFEE" transform="translate(0,0)"/>
<path d="" fill="#52BFEE" transform="translate(0,0)"/>
<path d="" fill="#52BDED" transform="translate(0,0)"/>
<path d="" fill="#55BFEE" transform="translate(0,0)"/>
<path d="" fill="#51C2F8" transform="translate(0,0)"/>
<path d="" fill="#4DBBF4" transform="translate(0,0)"/>
<path d="" fill="#51BFF0" transform="translate(0,0)"/>
<path d="" fill="#4CBDEE" transform="translate(0,0)"/>
<path d="" fill="#50C0F0" transform="translate(0,0)"/>
<path d="" fill="#52BEED" transform="translate(0,0)"/>
<path d="" fill="#4FBEF2" transform="translate(0,0)"/>
<path d="" fill="#50BDF1" transform="translate(0,0)"/>
<path d="" fill="#53BDEE" transform="translate(0,0)"/>
<path d="" fill="#50C0F4" transform="translate(0,0)"/>
<path d="" fill="#4EBBED" transform="translate(0,0)"/>
<path d="" fill="#54C0F0" transform="translate(0,0)"/>
<path d="" fill="#4FBEF2" transform="translate(0,0)"/>
<path d="" fill="#4EBFF3" transform="translate(0,0)"/>
<path d="" fill="#4EC2F7" transform="translate(0,0)"/>
<path d="" fill="#50C0F0" transform="translate(0,0)"/>
<path d="" fill="#50C1F4" transform="translate(0,0)"/>
<path d="" fill="#52C0F2" transform="translate(0,0)"/>
<path d="" fill="#50BDEE" transform="translate(0,0)"/>
<path d="" fill="#55C0F1" transform="translate(0,0)"/>
<path d="" fill="#57C1F3" transform="translate(0,0)"/>
<path d="" fill="#56C2F2" transform="translate(0,0)"/>
<path d="" fill="#55C2F4" transform="translate(0,0)"/>
<path d="" fill="#52BFF2" transform="translate(0,0)"/>
<path d="" fill="#55C0F2" transform="translate(0,0)"/>
<path d="" fill="#54C1F3" transform="translate(0,0)"/>
<path d="" fill="#53C1F3" transform="translate(0,0)"/>
<path d="" fill="#52C0EF" transform="translate(0,0)"/>
<path d="" fill="#56BEEB" transform="translate(0,0)"/>
<path d="" fill="#4DBDF3" transform="translate(0,0)"/>
<path d="" fill="#4EBEF3" transform="translate(0,0)"/>
<path d="" fill="#4FBFF3" transform="translate(0,0)"/>
<path d="" fill="#4FBCEE" transform="translate(0,0)"/>
<path d="" fill="#4DBEF1" transform="translate(0,0)"/>
<path d="" fill="#50BFF6" transform="translate(0,0)"/>
<path d="" fill="#4EC0F4" transform="translate(0,0)"/>
<path d="" fill="#52BDE9" transform="translate(0,0)"/>
<path d="" fill="#50BEF3" transform="translate(0,0)"/>
<path d="" fill="#50C0F2" transform="translate(0,0)"/>
<path d="" fill="#51BDEB" transform="translate(0,0)"/>
<path d="" fill="#50BDF1" transform="translate(0,0)"/>
<path d="" fill="#53BCF2" transform="translate(0,0)"/>
<path d="" fill="#4FC0F3" transform="translate(0,0)"/>
<path d="" fill="#4FBEF3" transform="translate(0,0)"/>
<path d="" fill="#55BEEF" transform="translate(0,0)"/>
<path d="" fill="#52C2F3" transform="translate(0,0)"/>
<path d="" fill="#4FBAEE" transform="translate(0,0)"/>
<path d="" fill="#51BFF1" transform="translate(0,0)"/>
<path d="" fill="#4FBCEE" transform="translate(0,0)"/>
<path d="" fill="#4FC0F5" transform="translate(0,0)"/>
<path d="" fill="#4FBDF1" transform="translate(0,0)"/>
<path d="" fill="#4FBDF1" transform="translate(0,0)"/>
<path d="" fill="#4EBBF0" transform="translate(0,0)"/>
<path d="" fill="#4CBDF4" transform="translate(0,0)"/>
<path d="" fill="#4FBFF4" transform="translate(0,0)"/>
<path d="" fill="#4FBDEF" transform="translate(0,0)"/>
<path d="" fill="#51BEF3" transform="translate(0,0)"/>
<path d="" fill="#50C1F4" transform="translate(0,0)"/>
<path d="" fill="#50BCF0" transform="translate(0,0)"/>
<path d="" fill="#53BDEF" transform="translate(0,0)"/>
<path d="" fill="#4FBEF2" transform="translate(0,0)"/>
<path d="" fill="#52BEF1" transform="translate(0,0)"/>
<path d="" fill="#52C1F4" transform="translate(0,0)"/>
<path d="" fill="#5AC1F0" transform="translate(0,0)"/>
<path d="" fill="#4FBFF2" transform="translate(0,0)"/>
<path d="" fill="#56BDEF" transform="translate(0,0)"/>
<path d="" fill="#53BFF2" transform="translate(0,0)"/>
<path d="" fill="#54C2F5" transform="translate(0,0)"/>
<path d="" fill="#53BFED" transform="translate(0,0)"/>
<path d="" fill="#51BEF0" transform="translate(0,0)"/>
<path d="" fill="#53C1F1" transform="translate(0,0)"/>
<path d="" fill="#50BDEF" transform="translate(0,0)"/>
<path d="" fill="#50BEF2" transform="translate(0,0)"/>
<path d="" fill="#51BFF0" transform="translate(0,0)"/>
<path d="" fill="#52BEEF" transform="translate(0,0)"/>
<path d="" fill="#52C1F1" transform="translate(0,0)"/>
<path d="" fill="#55BFED" transform="translate(0,0)"/>
<path d="" fill="#52C0F0" transform="translate(0,0)"/>
<path d="" fill="#53C4F6" transform="translate(0,0)"/>
<path d="" fill="#53BFF0" transform="translate(0,0)"/>
<path d="" fill="#52BFF1" transform="translate(0,0)"/>
<path d="" fill="#57C1F4" transform="translate(0,0)"/>
<path d="" fill="#52C1EF" transform="translate(0,0)"/>
<path d="" fill="#51BEF3" transform="translate(0,0)"/>
<path d="" fill="#51BDF0" transform="translate(0,0)"/>
<path d="" fill="#52BEF0" transform="translate(0,0)"/>
<path d="" fill="#53BEF2" transform="translate(0,0)"/>
<path d="" fill="#51BDED" transform="translate(0,0)"/>
<path d="" fill="#54C0F2" transform="translate(0,0)"/>
<path d="" fill="#55BDEE" transform="translate(0,0)"/>
<path d="" fill="#55C1F2" transform="translate(0,0)"/>
<path d="" fill="#50BDEF" transform="translate(0,0)"/>
<path d="" fill="#52BDED" transform="translate(0,0)"/>
<path d="" fill="#51BEEF" transform="translate(0,0)"/>
<path d="" fill="#53BDEF" transform="translate(0,0)"/>
<path d="" fill="#53BFF0" transform="translate(0,0)"/>
<path d="" fill="#55BDEE" transform="translate(0,0)"/>
<path d="" fill="#52C2F3" transform="translate(0,0)"/>
<path d="" fill="#5AB7DC" transform="translate(0,0)"/>
<path d="" fill="#54C1F4" transform="translate(0,0)"/>
<path d="" fill="#5FB3D5" transform="translate(0,0)"/>
<path d="" fill="#53C0ED" transform="translate(0,0)"/>
<path d="" fill="#5BB7DE" transform="translate(0,0)"/>
<path d="" fill="#5BB9E2" transform="translate(0,0)"/>
<path d="" fill="#55BCEB" transform="translate(0,0)"/>
<path d="" fill="#56BFED" transform="translate(0,0)"/>
<path d="" fill="#64B5D8" transform="translate(0,0)"/>
<path d="" fill="#5BBAE3" transform="translate(0,0)"/>
<path d="" fill="#53B9E6" transform="translate(0,0)"/>
<path d="" fill="#52BFEF" transform="translate(0,0)"/>
<path d="" fill="#55BAE8" transform="translate(0,0)"/>
<path d="" fill="#56BEEE" transform="translate(0,0)"/>
<path d="" fill="#55C0F1" transform="translate(0,0)"/>
<path d="" fill="#54BFEC" transform="translate(0,0)"/>
<path d="" fill="#56BFED" transform="translate(0,0)"/>
<path d="" fill="#52BBED" transform="translate(0,0)"/>
<path d="" fill="#5CBCE6" transform="translate(0,0)"/>
<path d="" fill="#51BEEF" transform="translate(0,0)"/>
<path d="" fill="#5DB8DE" transform="translate(0,0)"/>
<path d="" fill="#50BBF0" transform="translate(0,0)"/>
<path d="" fill="#5DB8DF" transform="translate(0,0)"/>
<path d="" fill="#58BDEB" transform="translate(0,0)"/>
<path d="" fill="#5FB7DF" transform="translate(0,0)"/>
<path d="" fill="#57BEEB" transform="translate(0,0)"/>
<path d="" fill="#58BAE9" transform="translate(0,0)"/>
<path d="" fill="#58BBE9" transform="translate(0,0)"/>
<path d="" fill="#57BEEB" transform="translate(0,0)"/>
<path d="" fill="#59BDED" transform="translate(0,0)"/>
<path d="" fill="#56BDEA" transform="translate(0,0)"/>
<path d="" fill="#5ABDE9" transform="translate(0,0)"/>
<path d="" fill="#59BEE9" transform="translate(0,0)"/>
<path d="" fill="#5DBAE7" transform="translate(0,0)"/>
<path d="" fill="#5BBAE7" transform="translate(0,0)"/>
<path d="" fill="#61B7DB" transform="translate(0,0)"/>
<path d="" fill="#64B5D8" transform="translate(0,0)"/>
<path d="" fill="#58BBE8" transform="translate(0,0)"/>
<path d="" fill="#5BBBE4" transform="translate(0,0)"/>
<path d="" fill="#64B5D7" transform="translate(0,0)"/>
<path d="" fill="#5FB7E1" transform="translate(0,0)"/>
<path d="" fill="#5FB8E3" transform="translate(0,0)"/>
<path d="" fill="#5BBDEA" transform="translate(0,0)"/>
<path d="" fill="#5CBFEE" transform="translate(0,0)"/>
<path d="" fill="#5CBEEF" transform="translate(0,0)"/>
<path d="" fill="#58BDEE" transform="translate(0,0)"/>
<path d="" fill="#5CBFEF" transform="translate(0,0)"/>
<path d="" fill="#52BEF0" transform="translate(0,0)"/>
<path d="" fill="#5FBBE5" transform="translate(0,0)"/>
<path d="" fill="#5ABCE8" transform="translate(0,0)"/>
<path d="" fill="#5BBAE9" transform="translate(0,0)"/>
<path d="" fill="#5DB8E1" transform="translate(0,0)"/>
<path d="" fill="#61B8E1" transform="translate(0,0)"/>
<path d="" fill="#62B6DA" transform="translate(0,0)"/>
<path d="" fill="#5EBADC" transform="translate(0,0)"/>
<path d="" fill="#60B6DB" transform="translate(0,0)"/>
<path d="" fill="#5FB7E0" transform="translate(0,0)"/>
<path d="" fill="#64B4D4" transform="translate(0,0)"/>
<path d="" fill="#62B5DC" transform="translate(0,0)"/>
<path d="" fill="#56BDEA" transform="translate(0,0)"/>
<path d="" fill="#57BEEE" transform="translate(0,0)"/>
<path d="" fill="#4FBCEF" transform="translate(0,0)"/>
<path d="" fill="#5FBCE6" transform="translate(0,0)"/>
<path d="" fill="#56BFEF" transform="translate(0,0)"/>
<path d="" fill="#5BC0E9" transform="translate(0,0)"/>
<path d="" fill="#59BDED" transform="translate(0,0)"/>
<path d="" fill="#57BCED" transform="translate(0,0)"/>
<path d="" fill="#52BEEC" transform="translate(0,0)"/>
<path d="" fill="#5EBEE6" transform="translate(0,0)"/>
<path d="" fill="#5BBEE6" transform="translate(0,0)"/>
<path d="" fill="#59C1ED" transform="translate(0,0)"/>
<path d="" fill="#5CBCE5" transform="translate(0,0)"/>
<path d="" fill="#55BDEA" transform="translate(0,0)"/>
<path d="" fill="#54BAE9" transform="translate(0,0)"/>
<path d="" fill="#5BBBE7" transform="translate(0,0)"/>
<path d="" fill="#5FB9DF" transform="translate(0,0)"/>
<path d="" fill="#5FBBE1" transform="translate(0,0)"/>
<path d="" fill="#60BADE" transform="translate(0,0)"/>
<path d="" fill="#5CB6DD" transform="translate(0,0)"/>
<path d="" fill="#63B4D9" transform="translate(0,0)"/>
<path d="" fill="#69ACC7" transform="translate(0,0)"/>
<path d="" fill="#65ADC9" transform="translate(0,0)"/>
</svg>
