<?xml version="1.0" encoding="UTF-8"?>
<svg version="1.1" xmlns="http://www.w3.org/2000/svg" width="1024" height="1024">
<path d="M0 0 C337.92 0 675.84 0 1024 0 C1024 337.92 1024 675.84 1024 1024 C686.08 1024 348.16 1024 0 1024 C0 686.08 0 348.16 0 0 Z " fill="#F9F9FA" transform="translate(0,0)"/>
<path d="M0 0 C23 0 23 0 27.54003906 4.39892578 C28.41284374 6.24185064 29.23405588 8.11016148 30 10 C31.01645719 11.59964575 32.06845903 13.1772776 33.15527344 14.72998047 C34.22472718 16.3581177 35.29270969 17.98722208 36.359375 19.6171875 C37.55966095 21.44487158 38.76002189 23.27250642 39.96044922 25.10009766 C40.88806061 26.51394745 40.88806061 26.51394745 41.83441162 27.95635986 C52.58287719 44.33300078 63.41444271 60.64260596 74.46499634 76.81690979 C78.96612576 83.40756969 83.43309468 90.02132589 87.90228271 96.63366699 C90.34296163 100.24456491 92.78478479 103.85468882 95.2265625 107.46484375 C95.70811798 108.17685944 96.18967346 108.88887512 96.68582153 109.62246704 C105.11628201 122.08678988 113.55668942 134.54437916 122 147 C122.62388611 147.92036041 122.62388611 147.92036041 123.26037598 148.85931396 C125.7412931 152.51897409 128.22271718 156.17828987 130.70471191 159.83721924 C131.80165488 161.454372 132.89839337 163.07166346 133.99511719 164.68896484 C141.31170428 175.47192396 148.65914011 186.23340549 156 197 C156.495 99.485 156.495 99.485 157 0 C162.28 0 167.56 0 173 0 C172.99409222 1.14023211 172.98818443 2.28046423 172.98209763 3.45524883 C172.84071664 31.27720655 172.76908351 59.09868941 172.76940536 86.92101574 C172.76919808 89.60627945 172.76873388 92.291543 172.76806641 94.97680664 C172.7679093 95.64418645 172.76775219 96.31156625 172.76759031 96.99916968 C172.76404959 107.09481253 172.72544662 117.18993455 172.66748047 127.28540039 C172.60047549 139.02104921 172.57618663 150.75590171 172.60190511 162.4917267 C172.61404956 168.69864088 172.60567945 174.90391218 172.5460434 181.11058617 C172.49042751 186.96939811 172.49252448 192.82552868 172.53630638 198.68441391 C172.5425532 200.81872331 172.52885018 202.9532142 172.49215889 205.08721733 C172.2407763 220.69417155 175.91568891 230.93902827 184.60147333 243.90339434 C186.40059277 246.60054992 188.03697199 249.36884703 189.671875 252.16796875 C190.69471038 253.8431078 191.72070066 255.51632499 192.75 257.1875 C193.60634033 258.58597168 193.60634033 258.58597168 194.47998047 260.01269531 C195.68989469 261.98709245 196.90133079 263.96055775 198.11425781 265.93310547 C200.08738986 269.14212733 202.05558933 272.35414187 204.0234375 275.56640625 C211.40810367 287.60807703 218.849049 299.6107808 226.43017578 311.52978516 C228.20566547 314.32362724 229.97587674 317.12078308 231.74609375 319.91796875 C233.01806788 321.92458141 234.29020069 323.9310935 235.5625 325.9375 C236.15885254 326.88012695 236.75520508 327.82275391 237.36962891 328.79394531 C237.92956543 329.6753418 238.48950195 330.55673828 239.06640625 331.46484375 C239.56084229 332.244646 240.05527832 333.02444824 240.56469727 333.82788086 C241.96755496 335.95089921 243.45163068 337.98134903 245 340 C244.67 340.66 244.34 341.32 244 342 C236.24093308 333.05919143 228.94573129 323.83754184 221.8125 314.39208984 C219.87390502 311.83358315 217.9226433 309.28512174 215.96875 306.73828125 C208.91497068 297.53665269 201.96458825 288.2910005 195.28662109 278.81347656 C192.75984301 275.25201402 190.187576 271.72323938 187.625 268.1875 C181.34602788 259.50758253 175.15346812 250.76922138 169 242 C168.46294434 241.23494141 167.92588867 240.46988281 167.37255859 239.68164062 C158.55798483 227.11952266 149.79104408 214.52436983 141.03222656 201.92333984 C137.68938945 197.11469838 134.34460619 192.30741108 131 187.5 C129.66665713 185.58333997 128.3333238 183.6666733 127 181.75 C126.34 180.80125 125.68 179.8525 125 178.875 C123 176 121 173.125 119 170.25 C118.33959717 169.30068604 117.67919434 168.35137207 116.9987793 167.37329102 C115.66945771 165.4623608 114.34019311 163.55139093 113.01098633 161.64038086 C109.61674652 156.76061498 106.2214281 151.88160534 102.82421875 147.00390625 C96.59908541 138.0640531 90.38121938 129.1200372 84.22143555 120.13500977 C80.17423414 114.23813138 76.0876625 108.36887856 72 102.5 C67.04654093 95.38805039 62.10905228 88.26610296 57.20947266 81.11694336 C53.96139408 76.38349945 50.68319486 71.67160212 47.39868164 66.96337891 C39.95882305 56.29859427 32.60339897 45.58070934 25.31982422 34.80883789 C24.63807129 33.80199951 23.95631836 32.79516113 23.25390625 31.7578125 C22.64877197 30.8620752 22.0436377 29.96633789 21.42016602 29.04345703 C20.15875772 27.0997215 20.15875772 27.0997215 19 26 C18.67 85.73 18.34 145.46 18 207 C12.06 207 6.12 207 0 207 C0 138.69 0 70.38 0 0 Z " fill="#020202" transform="translate(115,374)"/>
<path d="M0 0 C46.86 0 93.72 0 142 0 C142 4.95 142 9.9 142 15 C100.42 15 58.84 15 16 15 C16 40.41 16 65.82 16 92 C54.28 92 92.56 92 132 92 C132 96.95 132 101.9 132 107 C94.05 107 56.1 107 17 107 C17 134.72 17 162.44 17 191 C58.25 191 99.5 191 142 191 C142 196.28 142 201.56 142 207 C95.14 207 48.28 207 0 207 C0 138.69 0 70.38 0 0 Z " fill="#020202" transform="translate(319,374)"/>
<path d="M0 0 C0 3.25992933 -0.39631133 3.99251782 -2.09765625 6.640625 C-2.79387085 7.73419312 -2.79387085 7.73419312 -3.50415039 8.84985352 C-4.27553345 10.03792603 -4.27553345 10.03792603 -5.0625 11.25 C-5.59544678 12.08265381 -6.12839355 12.91530762 -6.67749023 13.77319336 C-11.56368111 21.38603757 -16.53591587 28.94341989 -21.49365234 36.50976562 C-25.78674574 43.0820173 -29.94648767 49.72009516 -34.01025391 56.43603516 C-38.72711052 64.22872269 -43.60378263 71.91774228 -48.48388672 79.60888672 C-50.99487174 83.56904571 -53.49697649 87.53480617 -56 91.5 C-57.00257354 93.08725893 -58.00517769 94.67449852 -59.0078125 96.26171875 C-60.98279978 99.38867486 -62.95668286 102.51632383 -64.9296875 105.64453125 C-73.18057815 118.72330422 -81.48269472 131.76918107 -89.79101562 144.81152344 C-96.36665864 155.13492365 -102.93196253 165.46445981 -109.46142578 175.81713867 C-113.87730474 182.8149118 -118.32077665 189.79497413 -122.76708984 196.7734375 C-127.2300819 203.78121596 -131.67136343 210.80246098 -136.09375 217.8359375 C-136.77824219 218.92261719 -136.77824219 218.92261719 -137.4765625 220.03125 C-138.11706543 221.05412109 -138.11706543 221.05412109 -138.77050781 222.09765625 C-139.89954494 223.84456993 -141.11423708 225.53533671 -142.3359375 227.21875 C-144.18648733 230.31168775 -144.7464917 231.48932528 -144 235 C-142.5381522 237.34193985 -141.07552585 239.40758853 -139.375 241.5625 C-138.35705831 242.89928071 -137.34155469 244.23792047 -136.328125 245.578125 C-135.78607422 246.29162109 -135.24402344 247.00511719 -134.68554688 247.74023438 C-131.73492523 251.69605041 -128.93725104 255.75775386 -126.125 259.8125 C-121.59880264 266.31333762 -117.02608357 272.77539441 -112.375 279.1875 C-105.66984973 288.43249524 -99.08855553 297.76182365 -92.52050781 307.10449219 C-86.19758123 316.09496855 -79.82913663 325.04860786 -73.36352539 333.93725586 C-70.48463119 337.90372224 -67.68588057 341.90015827 -65 346 C-72.26501138 347.20806369 -79.85053654 348.17882304 -87 346 C-92.44197183 341.88381308 -95.39893193 335.45508843 -98.55859375 329.55224609 C-100.7363507 325.69617035 -103.39389477 322.28765774 -106.125 318.8125 C-110.53449159 313.03790958 -114.70954209 307.1399995 -118.79223633 301.13110352 C-122.21431267 296.10730786 -125.73836006 291.16659033 -129.3125 286.25 C-134.68357671 278.86154171 -139.94761101 271.40377283 -145.15551758 263.89941406 C-148.6674965 258.85162513 -152.27412238 253.89215888 -156 249 C-159.69902897 253.39812775 -162.77033044 258.11490388 -165.875 262.9375 C-166.44162354 263.8135791 -167.00824707 264.6896582 -167.59204102 265.59228516 C-173.51869239 274.77139692 -179.38015971 283.99205409 -185.23388672 293.21777344 C-188.15179932 297.81447402 -191.07615079 302.40707418 -194 307 C-197.61940116 312.6860961 -201.23744726 318.37304229 -204.8515625 324.0625 C-205.48320312 325.05636719 -206.11484375 326.05023437 -206.765625 327.07421875 C-207.97189164 328.97231479 -209.17765144 330.87073305 -210.3828125 332.76953125 C-211.45258133 334.45239873 -212.53201974 336.12917595 -213.62304688 337.79833984 C-215.00380856 339.91287034 -215.00380856 339.91287034 -215.92382812 341.93994141 C-216.7578125 343.6015625 -216.7578125 343.6015625 -219 346 C-222.44635229 346.72091669 -225.74924248 346.56621785 -229.25 346.375 C-230.18585938 346.34792969 -231.12171875 346.32085938 -232.0859375 346.29296875 C-234.3929724 346.22234523 -236.69530769 346.12380579 -239 346 C-235.01062209 338.42118869 -230.66840568 331.19883538 -225.9375 324.0625 C-224.60141346 322.03004588 -223.26547854 319.99749209 -221.9296875 317.96484375 C-220.93533691 316.45639893 -220.93533691 316.45639893 -219.92089844 314.91748047 C-217.11974678 310.66306229 -214.3385869 306.39580265 -211.5625 302.125 C-210.77782349 300.91880005 -210.77782349 300.91880005 -209.97729492 299.68823242 C-205.02719046 292.06652415 -200.14082585 284.40440781 -195.25146484 276.74365234 C-189.39911951 267.5897673 -183.46149717 258.49336807 -177.49511719 249.41357422 C-176.8199707 248.38506348 -176.14482422 247.35655273 -175.44921875 246.296875 C-174.85455811 245.39291992 -174.25989746 244.48896484 -173.6472168 243.55761719 C-173.10363525 242.71360352 -172.56005371 241.86958984 -172 241 C-171.43385986 240.16887695 -170.86771973 239.33775391 -170.28442383 238.48144531 C-168.75722282 235.53096612 -168.40808667 234.27529402 -169 231 C-170.46523108 228.40002576 -171.95421853 226.04561895 -173.66015625 223.61328125 C-174.15271408 222.89125015 -174.64527191 222.16921906 -175.15275574 221.42530823 C-176.77873866 219.04690831 -178.4205731 216.67991433 -180.0625 214.3125 C-181.19942605 212.65527119 -182.33515372 210.99721966 -183.46972656 209.33837891 C-185.81291609 205.91469735 -188.16157771 202.49487 -190.51416016 199.07763672 C-195.31874368 192.09037626 -200.05730081 185.05876239 -204.79776001 178.02792358 C-211.97486206 167.38797951 -219.17593244 156.76452474 -226.46191406 146.19873047 C-229.89692765 141.20614471 -229.89692765 141.20614471 -231 139 C-213.5981332 137.22252361 -213.5981332 137.22252361 -208.2421875 140.88671875 C-206.15186421 143.81229674 -204.59062831 146.77496461 -203 150 C-201.83798673 151.93396584 -200.62895129 153.83273753 -199.41333008 155.73339844 C-198.10690603 157.77832218 -196.83099635 159.84001721 -195.55859375 161.90625 C-193.17890153 165.74114969 -190.70603404 169.50520393 -188.1875 173.25 C-184.27550223 179.0675443 -180.43614297 184.92839285 -176.625 190.8125 C-174.97586626 193.35113678 -173.32548951 195.88895875 -171.67431641 198.42626953 C-170.54253775 200.16602027 -169.41203712 201.90660298 -168.28271484 203.64794922 C-166.63310792 206.18671265 -164.97410602 208.7190786 -163.3125 211.25 C-162.80734863 212.03093018 -162.30219727 212.81186035 -161.78173828 213.61645508 C-161.07960205 214.68029419 -161.07960205 214.68029419 -160.36328125 215.765625 C-159.74900269 216.70583496 -159.74900269 216.70583496 -159.12231445 217.66503906 C-158.75195068 218.10557617 -158.38158691 218.54611328 -158 219 C-157.34 219 -156.68 219 -156 219 C-154.43195272 216.86426437 -152.98723113 214.72928517 -151.5625 212.5 C-150.65735823 211.11255763 -149.75107 209.72586264 -148.84375 208.33984375 C-148.37453125 207.62038574 -147.9053125 206.90092773 -147.421875 206.15966797 C-145.18389042 202.76042148 -142.87600342 199.41062136 -140.5625 196.0625 C-140.10198242 195.39484619 -139.64146484 194.72719238 -139.16699219 194.03930664 C-138.23467954 192.68777815 -137.30206357 191.33645885 -136.36914062 189.98535156 C-135.05035749 188.07302196 -133.73530762 186.15819494 -132.421875 184.2421875 C-116.8761667 161.56867518 -101.20121613 138.97091978 -85.17236328 116.63574219 C-83.98594961 114.98039617 -82.80297043 113.32265037 -81.62109375 111.6640625 C-75.34121895 102.85220507 -69.00987173 94.07805465 -62.66894531 85.31005859 C-61.03481701 83.04819171 -59.4036287 80.78423692 -57.7734375 78.51953125 C-50.50489814 68.42655034 -43.15776631 58.39422529 -35.76611328 48.39111328 C-32.84043894 44.43008833 -29.92052413 40.46482285 -27 36.5 C-25.84376656 34.93097738 -24.68751652 33.36196699 -23.53125 31.79296875 C-21.09281451 28.48376085 -18.65547455 25.17374918 -16.21875 21.86328125 C-15.28482422 20.59484375 -15.28482422 20.59484375 -14.33203125 19.30078125 C-13.15205609 17.69812842 -11.97234764 16.09527917 -10.79296875 14.4921875 C-7.22123956 9.6417963 -3.62236782 4.81269094 0 0 Z " fill="#020202" transform="translate(704,235)"/>
<path d="M0 0 C58.74 0 117.48 0 178 0 C178 5.28 178 10.56 178 16 C151.27 16 124.54 16 97 16 C97 79.03 97 142.06 97 207 C91.39 207 85.78 207 80 207 C80 143.97 80 80.94 80 16 C53.6 16 27.2 16 0 16 C0 10.72 0 5.44 0 0 Z " fill="#000000" transform="translate(641,374)"/>
<path d="M0 0 C3.87141048 2.22987433 6.45824399 5.64740384 9.08203125 9.19921875 C6.60782098 11.75231688 4.30582826 13.62663484 1.08203125 15.19921875 C-1.59631396 15.0368948 -2.63660642 14.45973943 -4.60546875 12.63671875 C-8.11579811 10.45462212 -11.87838851 10.59874061 -15.91796875 11.19921875 C-18.13693011 13.02393766 -18.13693011 13.02393766 -18.29296875 15.63671875 C-18.17687944 18.25044124 -18.17687944 18.25044124 -16.38671875 19.6796875 C-12.51314941 22.06389395 -8.23220198 23.34718211 -3.9375 24.7734375 C2.0638753 26.88691618 6.34559414 29.59456308 9.95703125 35.01171875 C11.89011647 40.48879354 11.85193629 45.01834608 9.64453125 50.32421875 C6.80743593 55.47980056 1.71749403 58.97243707 -3.81640625 60.83984375 C-12.49716952 62.32428654 -21.31849327 61.92321702 -28.91796875 57.19921875 C-31.26977891 55.08306091 -33.27522423 52.91041498 -34.91796875 50.19921875 C-34.91796875 49.53921875 -34.91796875 48.87921875 -34.91796875 48.19921875 C-31.28796875 46.21921875 -27.65796875 44.23921875 -23.91796875 42.19921875 C-22.96921875 43.18921875 -22.02046875 44.17921875 -21.04296875 45.19921875 C-17.16364881 48.54810107 -14.15904578 48.81974073 -9.15234375 48.703125 C-6.50400376 48.10585951 -5.53611287 47.35327555 -3.91796875 45.19921875 C-3.52304977 42.66207561 -3.52304977 42.66207561 -4.91796875 40.19921875 C-9.28254775 37.53197603 -13.64689375 35.94429975 -18.48046875 34.32421875 C-24.48603932 32.19724584 -28.9554911 29.35624801 -32.35546875 23.88671875 C-33.70578612 17.43520244 -33.58607317 11.84248153 -30.328125 5.9921875 C-23.15255438 -3.13132196 -10.21080076 -3.77155704 0 0 Z " fill="#020303" transform="translate(883.91796875,520.80078125)"/>
<path d="M0 0 C4.62 0 9.24 0 14 0 C14.09924314 6.54699332 14.17164631 13.09354394 14.21972656 19.64111328 C14.23978046 21.86612582 14.26703065 24.09108607 14.30175781 26.31591797 C14.35054934 29.52324365 14.37303162 32.72986951 14.390625 35.9375 C14.41127014 36.92427734 14.43191528 37.91105469 14.45318604 38.92773438 C14.45518388 45.14608071 13.55872966 49.81048571 10 55 C8 56.83984375 8 56.83984375 6 57.9375 C5.34 58.31777344 4.68 58.69804688 4 59.08984375 C-1.777714 61.71915501 -8.37919211 61.99943435 -14.4765625 60.31640625 C-19.71534422 58.20512465 -22.95235273 55.77464739 -26 51 C-24.7180766 47.1542298 -23.21423962 46.57281254 -19.78125 44.72265625 C-18 44 -18 44 -15.6875 44.1875 C-14.4534671 44.78166399 -13.22502834 45.38748583 -12 46 C-7.94944183 46.41591713 -7.94944183 46.41591713 -4 46 C-1.21439556 43.50030679 -0.77292223 41.27388304 -0.56762695 37.69042969 C-0.52627819 35.93453243 -0.50077814 34.17821459 -0.48828125 32.421875 C-0.47033005 31.4953009 -0.45237885 30.56872681 -0.43388367 29.61407471 C-0.37977299 26.6594292 -0.34588243 23.70494531 -0.3125 20.75 C-0.2793276 18.74476917 -0.24483802 16.73955968 -0.20898438 14.734375 C-0.12404598 9.82303326 -0.05723827 4.91173952 0 0 Z " fill="#010101" transform="translate(824,521)"/>
<path d="M0 0 C0 4.52835963 -2.45088611 7.42665451 -4.8125 11.1875 C-5.26431641 11.93708984 -5.71613281 12.68667969 -6.18164062 13.45898438 C-6.62314453 14.16732422 -7.06464844 14.87566406 -7.51953125 15.60546875 C-7.92276611 16.25668701 -8.32600098 16.90790527 -8.74145508 17.57885742 C-9.1567749 18.04783447 -9.57209473 18.51681152 -10 19 C-10.99 19 -11.98 19 -13 19 C-11.68779266 16.22561876 -10.22517631 13.79209828 -8.3984375 11.328125 C-7.90859375 10.66425781 -7.41875 10.00039062 -6.9140625 9.31640625 C-6.40617188 8.63449219 -5.89828125 7.95257813 -5.375 7.25 C-4.859375 6.55261719 -4.34375 5.85523438 -3.8125 5.13671875 C-2.54440881 3.42244733 -1.2725711 1.71094844 0 0 Z " fill="#151515" transform="translate(704,235)"/>
</svg>
