<?xml version="1.0" encoding="UTF-8"?>
<svg version="1.1" xmlns="http://www.w3.org/2000/svg" width="1024" height="1024">
<path d="M0 0 C337.92 0 675.84 0 1024 0 C1024 337.92 1024 675.84 1024 1024 C686.08 1024 348.16 1024 0 1024 C0 686.08 0 348.16 0 0 Z " fill="#F7F3EA" transform="translate(0,0)"/>
<path d="M0 0 C15.64499376 12.11587879 23.0006936 30.56654118 27.3125 49.375 C27.57289063 50.47432861 27.83328125 51.57365723 28.1015625 52.70629883 C30.55111517 64.14359111 30.78450982 75.2719774 30.6875 86.9375 C30.68101944 88.41425201 30.68101944 88.41425201 30.67440796 89.9208374 C30.53798222 116.54995824 27.7338522 142.27823195 22.3125 168.375 C22.14153809 169.20547852 21.97057617 170.03595703 21.79443359 170.89160156 C21.00077855 174.72718885 20.18086129 178.55562227 19.3125 182.375 C20.17842773 182.50156982 21.04435547 182.62813965 21.93652344 182.75854492 C27.66157196 183.80394176 33.06615319 185.80371641 38.5625 187.6875 C39.19755463 187.90508972 39.83260925 188.12267944 40.48690796 188.34686279 C54.21073124 193.08335613 67.26657009 199.01404633 80.3125 205.375 C81.84962126 206.10551308 83.3873185 206.83481635 84.92578125 207.5625 C116.28048055 222.57711266 150.151115 246.37081369 162.3125 280.375 C167.62404168 298.28801304 165.00729715 313.91960917 156.72265625 330.5703125 C138.39329111 362.28123868 103.60755791 381.83263625 71.3125 396.375 C70.52407715 396.73190918 69.7356543 397.08881836 68.92333984 397.45654297 C53.03160158 404.58388882 36.40556908 410.8858993 19.3125 414.375 C19.5391333 415.40044922 19.7657666 416.42589844 19.99926758 417.48242188 C25.61219624 442.98781598 30.58952249 468.18513967 31.3125 494.375 C31.33441406 495.07157715 31.35632813 495.7681543 31.37890625 496.48583984 C32.28746339 529.35289428 29.24550769 564.92471288 5.73046875 590.0546875 C1.91172218 593.7192036 -2.17181534 596.63182708 -6.6875 599.375 C-7.43257812 599.83648438 -8.17765625 600.29796875 -8.9453125 600.7734375 C-24.49200701 609.46904629 -41.84555662 610.00493732 -58.6875 605.375 C-75.56577362 600.37626833 -91.19627388 593.67939758 -106.6875 585.375 C-107.78191406 584.80910156 -108.87632812 584.24320313 -110.00390625 583.66015625 C-131.41240491 572.41056671 -150.37854878 556.92317004 -167.875 540.36328125 C-168.41519775 539.85651855 -168.95539551 539.34975586 -169.51196289 538.82763672 C-170.5693453 537.83443023 -171.62086766 536.83493961 -172.66577148 535.82861328 C-175.64631471 532.91115176 -175.64631471 532.91115176 -179.6875 532.375 C-181.42356674 533.61896506 -181.42356674 533.61896506 -183.12890625 535.33984375 C-184.11938965 536.28537109 -184.11938965 536.28537109 -185.12988281 537.25 C-185.82952148 537.930625 -186.52916016 538.61125 -187.25 539.3125 C-188.71444154 540.70745362 -190.17928339 542.1019871 -191.64453125 543.49609375 C-192.99288739 544.78833262 -194.34062672 546.08121566 -195.6875 547.375 C-222.6517469 573.27540711 -255.63658041 591.03416941 -290.6875 603.375 C-291.7705542 603.75640137 -291.7705542 603.75640137 -292.87548828 604.14550781 C-308.83486423 609.52105194 -328.9946176 610.04967305 -344.4921875 603.12109375 C-363.56663729 593.42535542 -373.73632257 577.69670616 -380.55859375 557.95703125 C-382.28021689 552.49430316 -383.6090042 546.99813996 -384.6875 541.375 C-384.85057144 540.53342346 -385.01364288 539.69184692 -385.18165588 538.82476807 C-386.48690226 531.64046057 -386.98209914 524.75398788 -386.953125 517.4609375 C-386.95503845 516.36641266 -386.9569519 515.27188782 -386.95892334 514.14419556 C-386.96027469 511.84336109 -386.95665232 509.54251872 -386.94824219 507.24169922 C-386.93759058 503.77944149 -386.94814173 500.31770999 -386.9609375 496.85546875 C-386.96898147 484.21681057 -386.46797842 471.89002951 -384.6875 459.375 C-384.56181641 458.43736816 -384.43613281 457.49973633 -384.30664062 456.53369141 C-384.00249722 454.35024769 -383.66852613 452.17551384 -383.3125 450 C-383.1894751 449.23671387 -383.0664502 448.47342773 -382.93969727 447.68701172 C-381.93676861 441.60525236 -380.80996463 435.54874101 -379.625 429.5 C-379.46273926 428.66162598 -379.30047852 427.82325195 -379.13330078 426.95947266 C-378.31708527 422.90491174 -377.41245727 419.16223952 -375.6875 415.375 C-376.26798096 415.20556885 -376.84846191 415.0361377 -377.4465332 414.86157227 C-413.70791306 404.14562929 -451.19767626 389.67153182 -480.6875 365.375 C-481.22858398 364.93542969 -481.76966797 364.49585938 -482.32714844 364.04296875 C-501.49979369 348.43497367 -517.41134417 331.61576407 -521.6875 306.375 C-523.440626 288.13322202 -518.56950684 272.19470424 -507.36035156 257.65332031 C-504.32722925 254.03328335 -501.032428 250.70565377 -497.6875 247.375 C-496.87410156 246.51390625 -496.06070313 245.6528125 -495.22265625 244.765625 C-488.94198815 238.21011405 -482.05633625 232.64256654 -474.6875 227.375 C-474.0275 226.90304199 -473.3675 226.43108398 -472.6875 225.94482422 C-443.66387401 205.42929008 -410.70842798 192.02198863 -376.6875 182.375 C-376.91824219 181.25351562 -377.14898437 180.13203125 -377.38671875 178.9765625 C-379.7344739 167.26220436 -381.64171136 155.50550761 -383.375 143.6875 C-383.53734634 142.58755707 -383.53734634 142.58755707 -383.70297241 141.46539307 C-385.43145834 129.71431635 -386.83820079 118.20062071 -386.890625 106.3125 C-386.89632507 105.2817334 -386.90202515 104.2509668 -386.90789795 103.18896484 C-386.91728914 101.0174256 -386.92385833 98.84587249 -386.92773438 96.67431641 C-386.93739191 93.41151969 -386.96845302 90.14936694 -387 86.88671875 C-387.13991671 59.3105391 -382.64553632 27.21073199 -362.6875 6.375 C-362.02363281 5.67117187 -361.35976563 4.96734375 -360.67578125 4.2421875 C-349.015011 -7.09527119 -334.45372634 -11.17314114 -318.60400391 -11.34448242 C-298.16709423 -10.8813816 -275.69896236 -2.05448049 -257.75 7.1875 C-257.08162109 7.5280542 -256.41324219 7.8686084 -255.72460938 8.21948242 C-233.93633516 19.42539592 -213.16036986 33.39242022 -195.1796875 50.09765625 C-192.04401754 52.96300984 -188.811148 55.70165801 -185.5625 58.4375 C-184.98081055 58.92750488 -184.39912109 59.41750977 -183.79980469 59.92236328 C-182.43010452 61.07451312 -181.05896281 62.22494889 -179.6875 63.375 C-174.74396319 61.85749247 -171.62878416 58.95539091 -167.875 55.5625 C-166.53558391 54.37824907 -165.19438058 53.19601703 -163.8515625 52.015625 C-162.81950684 51.10780273 -162.81950684 51.10780273 -161.76660156 50.18164062 C-147.02688913 37.37352977 -131.56784508 25.22532422 -114.6875 15.375 C-113.63820313 14.73175781 -112.58890625 14.08851563 -111.5078125 13.42578125 C-79.32312951 -5.84716421 -34.24921515 -23.19649059 0 0 Z " fill="#52C6F9" transform="translate(690.6875,208.625)"/>
<path d="M0 0 C1.8591655 -0.00696396 1.8591655 -0.00696396 3.75588989 -0.0140686 C17.18695203 -0.05047283 30.61719903 0.03572934 44.04772949 0.14562988 C47.31756495 0.16589403 50.58657851 0.16762272 53.85644531 0.15917969 C58.11258069 0.15050121 62.36273311 0.20001499 66.61740112 0.31137085 C68.07654164 0.34032324 69.53629518 0.34786744 70.99563599 0.3319397 C77.29743668 0.27655414 81.82368699 0.48408065 86.58203125 4.86572266 C89.28576689 8.09823664 91.46868461 11.56807806 93.65234375 15.16796875 C94.47883423 16.42710083 94.47883423 16.42710083 95.32202148 17.71166992 C96.69945369 19.83406631 97.99808529 21.98529052 99.27734375 24.16796875 C100.21194821 25.73064305 101.14684511 27.29314249 102.08203125 28.85546875 C102.74477051 29.97115234 102.74477051 29.97115234 103.42089844 31.109375 C105.04250226 33.82019249 106.722988 36.49263145 108.40234375 39.16796875 C118.33767653 55.3512943 127.78966985 71.68629849 135.640625 88.98632812 C137.67898303 93.38178357 139.89160763 97.6920546 142.09155273 102.00830078 C147.22594994 112.14258125 147.22594994 112.14258125 145.65234375 117.16796875 C144.55438006 119.98107681 143.3375385 122.73090835 142.08984375 125.48046875 C141.72761719 126.28315186 141.36539063 127.08583496 140.9921875 127.9128418 C129.95961949 152.17347801 117.06730811 175.66372216 102.22119141 197.79443359 C98.91573869 202.79530681 95.76910873 207.8994943 92.60839844 212.99267578 C92.14723633 213.7298584 91.68607422 214.46704102 91.2109375 215.2265625 C90.81189209 215.86907959 90.41284668 216.51159668 90.00170898 217.17358398 C89.55641846 217.83173096 89.11112793 218.48987793 88.65234375 219.16796875 C88.16113037 220.04743164 87.66991699 220.92689453 87.16381836 221.83300781 C83.22268661 225.49714547 79.13362578 225.20770898 73.91015625 225.46875 C72.78223663 225.53951248 71.65431702 225.61027496 70.49221802 225.68318176 C54.07476143 226.58498763 37.61402783 226.42706544 21.17828369 226.36358643 C17.62561171 226.35270748 14.07297806 226.35312021 10.52029228 226.35372448 C7.04030309 226.35345013 3.56033776 226.34792893 0.0803566 226.34072304 C-1.55315853 226.33759404 -3.18667629 226.33558289 -4.82019424 226.33482933 C-38.11056175 226.30257601 -38.11056175 226.30257601 -44.26269531 221.7512207 C-48.55583994 217.30549787 -51.9006337 212.63479495 -55.09765625 207.35546875 C-55.6078833 206.53014648 -56.11811035 205.70482422 -56.64379883 204.85449219 C-58.22109607 202.29792278 -59.78488654 199.73343755 -61.34765625 197.16796875 C-62.31436738 195.59590086 -63.28179272 194.02427188 -64.25 192.453125 C-66.54521605 188.72190099 -68.82229712 184.98001327 -71.09228516 181.23339844 C-72.24654473 179.33432493 -73.41057399 177.44170056 -74.578125 175.55078125 C-84.29031662 159.73510696 -93.11968777 143.41424042 -100.72265625 126.48046875 C-101.20524902 125.42359863 -101.6878418 124.36672852 -102.18505859 123.27783203 C-102.6177002 122.28895996 -103.0503418 121.30008789 -103.49609375 120.28125 C-104.07109619 118.97861206 -104.07109619 118.97861206 -104.65771484 117.6496582 C-105.88425295 113.23785359 -104.349271 109.80307495 -102.44140625 105.80859375 C-102.03615723 104.95700684 -101.6309082 104.10541992 -101.21337891 103.22802734 C-100.53734619 101.83704834 -100.53734619 101.83704834 -99.84765625 100.41796875 C-99.36989746 99.43006348 -98.89213867 98.4421582 -98.39990234 97.42431641 C-88.049509 76.18252325 -77.47950265 55.20969431 -64.69335938 35.31201172 C-62.68984404 32.11990874 -60.85982244 28.83946261 -59.03515625 25.54296875 C-55.57897338 19.39783177 -51.66042018 13.74013223 -47.34765625 8.16796875 C-46.48720703 6.81638672 -46.48720703 6.81638672 -45.609375 5.4375 C-42.52248539 2.33994756 -39.57995585 2.20218827 -35.41015625 1.91796875 C-34.72630859 1.85351562 -34.04246094 1.7890625 -33.33789062 1.72265625 C-31.89659166 1.59127075 -30.45403427 1.47308986 -29.01062012 1.3674469 C-27.17277022 1.22977665 -25.33580976 1.07987674 -23.49975586 0.92002869 C-15.65303404 0.25619866 -7.87264955 0.00859482 0 0 Z " fill="#F7F3EA" transform="translate(491.34765625,393.83203125)"/>
<path d="M0 0 C0.75087891 -0.01611328 1.50175781 -0.03222656 2.27539062 -0.04882812 C10.38992648 -0.05584155 18.05436481 2.568118 23.9375 8.3125 C45.88729142 36.61051541 40.10641863 81.65554944 36.0546875 114.58984375 C34.37607904 127.68669753 32.40643827 140.56230669 28.9375 153.3125 C22.7582916 152.66808661 16.89854651 151.43743888 10.875 149.9375 C-2.34436967 146.73865711 -15.47662219 144.19461468 -28.9375 142.25 C-30.15896729 142.06791992 -31.38043457 141.88583984 -32.63891602 141.69824219 C-37.84593634 140.94413889 -42.96126499 140.22954438 -48.2265625 140.140625 C-54.26454688 139.99418992 -59.07965866 139.69966647 -63.47265625 135.20703125 C-66.18464323 132.0326943 -68.54127022 128.65808037 -70.828125 125.16894531 C-72.45456117 122.72285737 -74.26531955 120.45960958 -76.125 118.1875 C-76.74890625 117.40761719 -77.3728125 116.62773437 -78.015625 115.82421875 C-81.81836866 111.15787491 -85.72788883 106.58187705 -89.63037109 101.99902344 C-91.05708952 100.31887156 -92.47689819 98.63313436 -93.89453125 96.9453125 C-99.49408922 90.28395432 -105.21238606 83.7564225 -111.0625 77.3125 C-112.4010648 75.83806584 -113.73479615 74.35922178 -115.0625 72.875 C-115.619375 72.25753906 -116.17625 71.64007813 -116.75 71.00390625 C-118.0625 69.3125 -118.0625 69.3125 -119.0625 66.3125 C-118.41925781 65.79042969 -117.77601563 65.26835937 -117.11328125 64.73046875 C-112.05664031 60.61157862 -107.06014522 56.45141433 -102.125 52.1875 C-80.06667702 33.36839343 -56.09078945 17.05758907 -29.0625 6.375 C-27.62946533 5.80821533 -27.62946533 5.80821533 -26.16748047 5.22998047 C-17.40843539 1.87431203 -9.39323644 -0.04052302 0 0 Z " fill="#F7F3EB" transform="translate(652.0625,228.6875)"/>
<path d="M0 0 C12.30481909 2.0082554 23.63946954 6.81305111 35.015625 11.72167969 C38.05153388 13.02207391 41.10209143 14.28220316 44.15625 15.5390625 C63.17737744 23.48639819 81.60824321 33.10231484 97 47 C97.68320312 47.54269531 98.36640625 48.08539063 99.0703125 48.64453125 C108.81842514 56.5003632 119.56203211 69.64197456 121.5 82.25390625 C121.97866404 94.92354499 117.41541361 103.87289711 109 113 C108.45827148 113.59474121 107.91654297 114.18948242 107.35839844 114.80224609 C97.62865139 125.37221764 87.33105397 133.66046381 75 141 C74.25459961 141.44569336 73.50919922 141.89138672 72.74121094 142.35058594 C50.34612421 155.58537232 25.38047032 166.18364222 0 172 C-0.23074219 171.2471875 -0.46148438 170.494375 -0.69921875 169.71875 C-1.4026652 167.42768329 -2.10866711 165.13740053 -2.81640625 162.84765625 C-3.56567945 160.42123438 -4.30088729 157.99208477 -5.02734375 155.55859375 C-11.10811534 135.49853944 -18.35354189 115.73798631 -26.5078125 96.4296875 C-26.97960937 95.27726563 -27.45140625 94.12484375 -27.9375 92.9375 C-28.35902344 91.93589844 -28.78054688 90.93429687 -29.21484375 89.90234375 C-30.87983707 83.74766695 -28.09727682 78.05162248 -25.9375 72.3125 C-25.62876953 71.48016846 -25.32003906 70.64783691 -25.00195312 69.7902832 C-22.83216205 64.01305141 -20.45735262 58.34700245 -18 52.6875 C-12.75173358 40.51445518 -9.05141417 27.88155183 -5.265625 15.1953125 C-4.98928223 14.26968506 -4.71293945 13.34405762 -4.42822266 12.39038086 C-3.90261231 10.6216781 -3.3812796 8.85169711 -2.86474609 7.08032227 C-1.10698006 1.10698006 -1.10698006 1.10698006 0 0 Z " fill="#F7F3EA" transform="translate(703,421)"/>
<path d="M0 0 C7.42254378 31.17756502 10.40351956 60.96529462 10 93 C9.99274902 93.85013672 9.98549805 94.70027344 9.97802734 95.57617188 C9.76435131 111.81555074 6.08916226 131.08042251 -5.27734375 143.40625 C-13.10504233 150.64820243 -22.14997371 154.77360049 -32.88671875 154.40234375 C-64.76849686 150.28211396 -96.80222279 128.92758123 -121 109 C-122.28002184 107.9776271 -123.56139019 106.95693885 -124.84375 105.9375 C-132.31270157 99.97593927 -139.47866246 94.01043785 -146 87 C-144.30339185 82.90404661 -141.44225463 79.79993557 -138.5625 76.5 C-138.02826416 75.88125 -137.49402832 75.2625 -136.94360352 74.625 C-133.51637971 70.67638506 -130.00371514 66.82314707 -126.4375 63 C-121.10951485 57.26494993 -116.29675785 51.19382148 -111.53027344 44.98925781 C-109.24238671 42.01515107 -106.9379067 39.05401573 -104.6340332 36.09228516 C-103.46198639 34.58516586 -102.29115152 33.07710286 -101.12182617 31.56787109 C-100.00392904 30.12685103 -98.87220738 28.69645895 -97.72753906 27.27661133 C-95.92983728 24.99549458 -95.92983728 24.99549458 -94.40527344 22.32299805 C-91.55231106 17.90585554 -89.46329801 15.46005314 -84.35180664 13.85302734 C-80.62264862 13.16626562 -76.8741137 12.80622147 -73.09609985 12.50872803 C-68.85244593 12.17174292 -64.62527344 11.68382978 -60.39453125 11.21484375 C-59.53105576 11.12289734 -58.66758026 11.03095093 -57.77793884 10.93621826 C-48.84225837 9.95130659 -40.09812727 8.25088341 -31.3125 6.375 C-30.2630722 6.15500839 -30.2630722 6.15500839 -29.19244385 5.93057251 C-21.83763059 4.38599862 -14.55706118 2.70270922 -7.35620117 0.53759766 C-4.83358854 -0.03796892 -2.57880713 -0.09458779 0 0 Z " fill="#F7F3EA" transform="translate(681,632)"/>
<path d="M0 0 C0.33741211 1.44209839 0.33741211 1.44209839 0.68164062 2.91333008 C3.10106363 13.03716535 6.09388496 22.85567123 9.5 32.6875 C9.7551236 33.43181274 10.01024719 34.17612549 10.27310181 34.94299316 C14.45569805 47.12096289 19.11723588 59.04384585 24.25390625 70.8503418 C30.27347997 84.81432927 30.27347997 84.81432927 27.26025391 92.59033203 C26.98874512 93.24114746 26.71723633 93.89196289 26.4375 94.5625 C26.16083496 95.2622998 25.88416992 95.96209961 25.59912109 96.68310547 C23.86205799 101.03512346 22.00068414 105.33107846 20.125 109.625 C13.05832606 125.97930254 7.72327515 142.79678799 2.8815918 159.91772461 C2.6963797 160.57197922 2.5111676 161.22623383 2.32034302 161.90031433 C1.81488893 163.69151021 1.3136832 165.48390336 0.81274414 167.27636719 C0 170 0 170 -1 172 C-43.20930481 164.14926418 -93.15220046 138.59511767 -118 103 C-122.9099617 95.62284361 -123.0476116 87.65901976 -122 79 C-119.66653366 71.19310338 -114.21027786 65.09371611 -109 59 C-108.44441406 58.31035156 -107.88882813 57.62070312 -107.31640625 56.91015625 C-95.00701482 42.00309949 -76.85006961 31.98670379 -60 23 C-59.15920898 22.54367187 -58.31841797 22.08734375 -57.45214844 21.6171875 C-45.08670858 14.95099001 -32.53478991 9.44027591 -19.3125 4.75 C-18.63347626 4.50735413 -17.95445251 4.26470825 -17.25485229 4.01470947 C-15.31552002 3.32667988 -13.37209715 2.65236418 -11.42578125 1.984375 C-10.30598877 1.59991211 -9.18619629 1.21544922 -8.0324707 0.81933594 C-5.18561572 0.05015106 -2.92746796 -0.17302545 0 0 Z " fill="#F7F3EA" transform="translate(322,421)"/>
<path d="M0 0 C20.64692769 10.43632635 38.34533024 25.12434801 56.1484375 39.703125 C57.30198254 40.64595666 58.4556224 41.58867234 59.609375 42.53125 C62.12384588 44.58678146 64.63696586 46.64393109 67.1484375 48.703125 C65.50423648 52.78901377 62.58030756 55.63735846 59.5859375 58.765625 C54.98656273 63.65696904 50.62749054 68.66039649 46.421875 73.8984375 C44.35629748 76.44669293 42.24783022 78.94687739 40.11474609 81.43823242 C35.04209943 87.36396592 30.21277116 93.4310527 25.48828125 99.63671875 C23.35746118 102.4291958 21.20575302 105.20076995 19.0234375 107.953125 C18.46398437 108.65953125 17.90453125 109.3659375 17.328125 110.09375 C16.60882813 110.95484375 15.88953125 111.8159375 15.1484375 112.703125 C14.69637939 113.42910889 14.24432129 114.15509277 13.77856445 114.90307617 C10.19640043 119.96857177 7.00479057 122.16975204 0.99163818 123.2205658 C-2.2695859 123.65767837 -5.53006181 124.0053704 -8.80810547 124.28952026 C-11.45254511 124.51896393 -14.08818498 124.79558414 -16.7265625 125.08618164 C-20.2047073 125.4683538 -23.68379432 125.83678014 -27.16455078 126.19433594 C-32.92967564 126.80228667 -38.64278153 127.63340467 -44.3515625 128.640625 C-45.22272705 128.79337891 -46.0938916 128.94613281 -46.99145508 129.10351562 C-54.96212062 130.58559289 -62.78686553 132.65075142 -70.58398438 134.86108398 C-71.94620117 135.24115601 -71.94620117 135.24115601 -73.3359375 135.62890625 C-74.13741211 135.86005127 -74.93888672 136.09119629 -75.76464844 136.3293457 C-77.8515625 136.703125 -77.8515625 136.703125 -80.8515625 135.703125 C-84.05625566 120.50511045 -85.96204227 105.10933559 -87.8515625 89.703125 C-87.97450684 88.72569336 -88.09745117 87.74826172 -88.22412109 86.74121094 C-92.00075566 55.86200151 -94.73514071 17.44358735 -74.421875 -8.5546875 C-71.91640157 -11.22770019 -70.02556215 -12.60111675 -66.7265625 -14.109375 C-65.45425781 -14.70685547 -65.45425781 -14.70685547 -64.15625 -15.31640625 C-44.88475317 -23.51495829 -17.15413518 -8.32022583 0 0 Z " fill="#F7F3EA" transform="translate(423.8515625,245.296875)"/>
<path d="M0 0 C5.00193104 0.41682759 9.66544748 1.10123672 14.51953125 2.38671875 C20.94945445 4.02644269 27.41099761 5.3102061 33.9375 6.5 C35.11046631 6.71503174 36.28343262 6.93006348 37.49194336 7.15161133 C44.66625366 8.44748057 51.84701664 9.64535416 59.0625 10.6875 C59.90603027 10.81552002 60.74956055 10.94354004 61.61865234 11.07543945 C65.73365894 11.66988274 69.7149569 12.05580106 73.875 12.0625 C84.88353369 12.24031274 84.88353369 12.24031274 88.79296875 15.49072266 C92.28533492 19.32805157 95.00736446 23.63326231 97.72558594 28.03662109 C99.46244811 30.71245358 101.50547534 32.99175556 103.6875 35.3125 C106.68480283 38.54077777 109.53972196 41.82626511 112.3125 45.25 C119.90444912 54.61737875 127.78576096 63.73766244 135.88671875 72.66796875 C139.2865398 76.41971213 142.64144695 80.21133253 146 84 C136.79750712 107.05973508 91.91155763 130.50443223 70 140 C40.05441392 152.24456177 40.05441392 152.24456177 33.72265625 152.265625 C32.96146484 152.26820313 32.20027344 152.27078125 31.41601562 152.2734375 C30.25102539 152.26183594 30.25102539 152.26183594 29.0625 152.25 C28.28970703 152.25773438 27.51691406 152.26546875 26.72070312 152.2734375 C18.65553092 152.24616726 12.46705728 150.47198014 6.20703125 145.2890625 C-1.98509259 136.79245264 -4.89970292 125.28423501 -7 114 C-7.14953125 113.22108398 -7.2990625 112.44216797 -7.453125 111.63964844 C-11.71052594 88.52673257 -11.25251477 64.22485346 -8 41 C-7.86045898 39.97003906 -7.72091797 38.94007813 -7.57714844 37.87890625 C-5.81157932 25.02886179 -3.84955577 12.40867444 0 0 Z " fill="#F7F3EA" transform="translate(344,633)"/>
<path d="M0 0 C13.55478811 11.39834454 23.18557736 27.08192242 25.50390625 44.83984375 C26.70512416 66.33397692 21.12282768 85.24093657 6.87451172 101.65673828 C-4.08430464 113.810383 -18.57236551 121.30165982 -34.875 122.9375 C-53.69825007 123.89807845 -70.09347779 119.53356237 -85.3125 108.125 C-85.95574219 107.66609375 -86.59898437 107.2071875 -87.26171875 106.734375 C-100.50933615 96.48213962 -109.19422634 79.48376889 -111.3125 63.125 C-112.30486011 48.71776526 -111.0391447 36.07469033 -104.3125 23.125 C-103.83039063 22.155625 -103.34828125 21.18625 -102.8515625 20.1875 C-94.62249183 4.77304567 -80.76292856 -6.68734175 -64.11328125 -12.1328125 C-40.79937471 -18.31083515 -19.17985205 -14.65492501 0 0 Z " fill="#FDBC16" transform="translate(555.3125,452.875)"/>
<path d="M0 0 C0.66717041 0.03029297 1.33434082 0.06058594 2.02172852 0.09179688 C14.24192077 0.6347773 26.45387039 1.10090422 38.6875 1.125 C39.62343994 1.12951172 40.55937988 1.13402344 41.52368164 1.13867188 C45.23601495 1.13054194 48.75093806 1.03659338 52.4296875 0.49609375 C57.43955044 -0.20002506 62.38695715 -0.10521767 67.4375 -0.0625 C68.45521484 -0.05798828 69.47292969 -0.05347656 70.52148438 -0.04882812 C73.01438509 -0.03712437 75.50716074 -0.02072848 78 0 C74.69882151 4.49983312 71.37172674 8.84869698 67.5625 12.9375 C64.80248408 15.95884633 62.16483854 18.99320616 59.6875 22.25 C56.54826454 26.36703012 53.23942463 30.31690418 49.875 34.25 C49.12029419 35.13606934 49.12029419 35.13606934 48.3503418 36.04003906 C45.36528567 39.51302289 42.28016206 42.80394466 39 46 C34.74394667 44.39509206 32.14174734 41.17835154 29.1875 37.875 C28.69185547 37.33101562 28.19621094 36.78703125 27.68554688 36.2265625 C26.11278381 34.49389173 24.55605846 32.7476785 23 31 C22.43587402 30.37746338 21.87174805 29.75492676 21.29052734 29.11352539 C16.90467493 24.21344856 13.03432123 19.06123614 9.25 13.6875 C8.13277519 12.10625618 7.01307776 10.52675578 5.890625 8.94921875 C5.40625977 8.26174561 4.92189453 7.57427246 4.42285156 6.8659668 C3.04539414 4.96203462 3.04539414 4.96203462 1.31933594 3.37817383 C0 2 0 2 0 0 Z " fill="#F7F3EA" transform="translate(474,650)"/>
<path d="M0 0 C0 4.21510355 -2.21184721 6.82638655 -4.4375 10.25 C-5.3669355 11.70896699 -6.29529939 13.16861714 -7.22265625 14.62890625 C-7.69203613 15.36512207 -8.16141602 16.10133789 -8.64501953 16.85986328 C-18.74989622 32.82010635 -28.10438096 49.34022225 -37 66 C-37.66 66 -38.32 66 -39 66 C-43.57929283 55.67223319 -47.73665375 45.28329187 -51.3125 34.5625 C-51.63734375 33.59376953 -51.9621875 32.62503906 -52.296875 31.62695312 C-54.525776 24.82464321 -56.34704866 17.96354603 -58 11 C-38.94217357 6.10536698 -19.56116462 2.23556167 0 0 Z " fill="#F6F3EA" transform="translate(408,400)"/>
<path d="M0 0 C11.7355262 14.11874075 17.71756723 38.2463593 20 56 C13.83019144 57.24933004 7.65943543 58.49389863 1.48803711 59.73535156 C-0.60592755 60.15713886 -2.69968289 60.57996684 -4.79321289 61.00390625 C-27.10138656 65.51986024 -27.10138656 65.51986024 -38 67 C-36.55901073 62.45058538 -34.86003728 58.96666015 -32.1875 55 C-21.56658255 38.89369884 -12.21362387 22.01493648 -3.12231445 5.01098633 C-2.16321852 3.29245833 -1.09167528 1.63751292 0 0 Z " fill="#F6F3EA" transform="translate(654,547)"/>
<path d="M0 0 C14.80250541 2.1397068 29.46867113 4.43382525 44 8 C45.24265625 8.30292969 46.4853125 8.60585938 47.765625 8.91796875 C50.51409463 9.59869437 53.25883865 10.29052294 56 11 C57.71077524 16.16408882 55.75092965 20.52086396 54.25 25.5625 C53.94505615 26.60212891 53.6401123 27.64175781 53.32592773 28.71289062 C49.4373242 41.48851227 44.25462051 53.73493632 39 66 C38.34 66 37.68 66 37 66 C36.65332275 65.35675781 36.30664551 64.71351563 35.94946289 64.05078125 C22.24145177 38.54487129 22.24145177 38.54487129 7.359375 13.71875 C6.97845703 13.11675781 6.59753906 12.51476562 6.20507812 11.89453125 C5.33972604 10.53409118 4.46785228 9.17779118 3.59179688 7.82421875 C3.13353516 7.10878906 2.67527344 6.39335937 2.203125 5.65625 C1.78192383 5.00462891 1.36072266 4.35300781 0.92675781 3.68164062 C0 2 0 2 0 0 Z " fill="#F6F3EA" transform="translate(616,400)"/>
<path d="M0 0 C4.15400781 1.5589633 6.46890777 4.59733699 9.1875 7.9375 C9.67089844 8.51943115 10.15429688 9.1013623 10.65234375 9.70092773 C12.89904434 12.41211889 15.11751548 15.14527039 17.33203125 17.8828125 C21.7702235 23.36857806 26.36287813 28.61616112 31.17114258 33.7746582 C34.4626672 37.33483062 37.33456774 40.95589588 40 45 C36.27153218 46.1835295 32.73714064 46.12023645 28.84472656 46.11352539 C28.13213181 46.11367142 27.41953705 46.11381744 26.68534851 46.1139679 C24.33707605 46.11327291 21.98888355 46.10549994 19.640625 46.09765625 C18.00966434 46.0957906 16.37870312 46.09436739 14.7477417 46.09336853 C10.46025031 46.08955494 6.17279292 46.07973454 1.88531494 46.06866455 C-2.49181661 46.05842553 -6.86895367 46.05386557 -11.24609375 46.04882812 C-19.83074475 46.03811123 -28.41536814 46.02104872 -37 46 C-35.20523941 42.19535166 -32.80438309 39.22212151 -30.0625 36.0625 C-29.06369485 34.89722732 -28.06499998 33.73186011 -27.06640625 32.56640625 C-26.30094482 31.67719482 -26.30094482 31.67719482 -25.52001953 30.77001953 C-23.16417997 28.02671134 -20.83254621 25.26311185 -18.5 22.5 C-15.65004762 19.12808774 -12.79646314 15.75939373 -9.93359375 12.3984375 C-9.43214844 11.80869141 -8.93070312 11.21894531 -8.4140625 10.61132812 C-7.45311341 9.48132318 -6.49093696 8.35236044 -5.52734375 7.22460938 C-3.53414221 4.87844506 -1.71057757 2.56586635 0 0 Z " fill="#F5F3EA" transform="translate(511,318)"/>
<path d="M0 0 C2.50890153 2.25900554 3.87092714 4.43129667 5.3125 7.47265625 C5.74264404 8.363479 6.17278809 9.25430176 6.6159668 10.17211914 C7.07269775 11.12594482 7.52942871 12.07977051 8 13.0625 C12.73223747 22.7403818 17.97520683 31.91480818 23.74072266 41.00732422 C25.64959273 44.02791312 27.50991869 47.0771842 29.375 50.125 C31.55153844 53.66747306 33.75777375 57.18637018 36 60.6875 C38 64 38 64 38 66 C30.16792731 65.43222388 22.52183373 64.08950803 14.82495117 62.58081055 C12.83449179 62.19179804 10.84224906 61.81321102 8.84960938 61.43554688 C-0.22724903 59.6881415 -9.10025321 57.49141886 -18 55 C-15.81379474 44.84099761 -13.17718298 35.25943763 -9.375 25.58203125 C-8.24898028 22.64862192 -7.28549165 19.77097025 -6.4375 16.75 C-4.79890972 10.9655789 -2.39341122 5.50579182 0 0 Z " fill="#F6F3EA" transform="translate(369,547)"/>
<path d="M0 0 C-1.65 0.33 -3.3 0.66 -5 1 C-5 1.66 -5 2.32 -5 3 C-6.58298026 3.4803318 -8.16639978 3.95921612 -9.75 4.4375 C-11.07257813 4.83775391 -11.07257813 4.83775391 -12.421875 5.24609375 C-14.60565835 5.88468494 -16.78835498 6.46775833 -19 7 C-16.45398308 4.00468598 -13.65531543 2.75995951 -10.0625 1.25 C-9.02222656 0.80140625 -7.98195313 0.3528125 -6.91015625 -0.109375 C-3.98946545 -1.003224 -2.78743446 -1.10154037 0 0 Z " fill="#38BFFB" transform="translate(292,400)"/>
<path d="M0 0 C-0.125 1.8125 -0.125 1.8125 -1 4 C-2.97300116 5.05226728 -4.97676387 6.04788888 -7 7 C-9.31418291 9.06167261 -9.31418291 9.06167261 -11 11 C-11.66 10.67 -12.32 10.34 -13 10 C-11.21371169 8.32722165 -9.4214925 6.66175557 -7.625 5 C-6.86316406 4.28457031 -6.86316406 4.28457031 -6.0859375 3.5546875 C-2.2265625 0 -2.2265625 0 0 0 Z " fill="#37BFFB" transform="translate(210,442)"/>
<path d="M0 0 C3.33333333 3.33333333 6.66666667 6.66666667 10 10 C9.67 10.66 9.34 11.32 9 12 C8.52949219 11.51789062 8.05898438 11.03578125 7.57421875 10.5390625 C6.95160156 9.90742187 6.32898438 9.27578125 5.6875 8.625 C5.07261719 7.99851562 4.45773437 7.37203125 3.82421875 6.7265625 C1.91187472 4.81913393 1.91187472 4.81913393 -1 3 C-0.67 2.01 -0.34 1.02 0 0 Z " fill="#38BEFA" transform="translate(487,669)"/>
<path d="M0 0 C0.33 0 0.66 0 1 0 C1.05389087 1.95803507 1.09274217 3.91648909 1.125 5.875 C1.14820313 6.96554687 1.17140625 8.05609375 1.1953125 9.1796875 C1 12 1 12 -1 14 C-2.35439668 11.29120665 -2.06501451 8.99066732 -2 6 C-1.67 6 -1.34 6 -1 6 C-0.67 4.02 -0.34 2.04 0 0 Z " fill="#F8F1DC" transform="translate(582,503)"/>
<path d="M0 0 C0.66 0.33 1.32 0.66 2 1 C1.67 1.99 1.34 2.98 1 4 C0.2575 4.144375 -0.485 4.28875 -1.25 4.4375 C-3.52027739 4.90187492 -5.75759479 5.41863569 -8 6 C-5.63404067 3.38499232 -3.13950774 1.61000397 0 0 Z " fill="#3CBFFB" transform="translate(437,760)"/>
<path d="M0 0 C0.66 0.99 1.32 1.98 2 3 C1.5390625 5.04296875 1.5390625 5.04296875 0.625 7.1875 C0.32851562 7.90292969 0.03203125 8.61835938 -0.2734375 9.35546875 C-0.51320312 9.89816406 -0.75296875 10.44085938 -1 11 C-1.33 11 -1.66 11 -2 11 C-2.28571429 3.57142857 -2.28571429 3.57142857 0 0 Z " fill="#3CBFFA" transform="translate(172,488)"/>
<path d="M0 0 C6.57142857 5.14285714 6.57142857 5.14285714 8 9 C4.68470727 8.01437243 3.25050621 7.34552581 1.1875 4.5 C0 2 0 2 0 0 Z " fill="#3BBFFA" transform="translate(535,299)"/>
<path d="M0 0 C0.99 0.495 0.99 0.495 2 1 C3.1577506 4.47325181 3.06866652 7.36067448 3 11 C1.5 10 1.5 10 0 8 C-0.27345479 5.28153765 -0.13491285 2.74322801 0 0 Z " fill="#40C0FA" transform="translate(714,249)"/>
</svg>
