<?xml version="1.0" encoding="UTF-8"?>
<svg version="1.1" xmlns="http://www.w3.org/2000/svg" width="1024" height="1024">
<path d="M0 0 C53.17496053 -1.97860318 104.04000903 37.85972335 142.58203125 70.15625 C143.09717285 70.58647461 143.61231445 71.01669922 144.14306641 71.45996094 C150.64427324 76.89466899 157.05172379 82.4099759 163.3203125 88.11328125 C165.38074766 89.97443425 167.47317443 91.78796242 169.58203125 93.59375 C173.78741254 97.23269218 177.62541293 101.21059846 181.48046875 105.21484375 C183.35003634 107.38243786 183.35003634 107.38243786 185.58203125 107.15625 C186.87532504 105.83690817 186.87532504 105.83690817 188.26953125 104.03125 C192.0314226 99.59702062 196.15921972 95.62971303 200.39453125 91.65625 C201.06508545 91.02058105 201.73563965 90.38491211 202.42651367 89.72998047 C203.37941284 88.84270264 203.37941284 88.84270264 204.3515625 87.9375 C204.92495361 87.40189453 205.49834473 86.86628906 206.08911133 86.31445312 C207.58203125 85.15625 207.58203125 85.15625 209.58203125 85.15625 C209.58203125 84.49625 209.58203125 83.83625 209.58203125 83.15625 C211.15489809 81.74186594 212.79343121 80.40020599 214.45703125 79.09375 C218.1610597 76.137108 221.74174419 73.13852638 225.20703125 69.90625 C231.62845265 64.05652907 238.60112012 58.93238497 245.53369141 53.71240234 C247.36177168 52.32358426 249.17004346 50.9148043 250.96875 49.48828125 C280.67110871 26.04689652 320.60558593 1.63311696 359.58203125 0.15625 C360.95681641 0.09630859 360.95681641 0.09630859 362.359375 0.03515625 C383.96410834 -0.44747248 403.40494811 5.7287682 419.58203125 20.15625 C447.0859588 47.1621185 451.12117152 91.13883738 451.59765625 127.55517578 C451.55179166 138.12553145 450.63799089 148.64536598 449.58203125 159.15625 C449.4840625 160.13480957 449.38609375 161.11336914 449.28515625 162.12158203 C442.93330757 222.45369736 442.93330757 222.45369736 432.58203125 243.15625 C434.32577026 243.33256958 434.32577026 243.33256958 436.10473633 243.51245117 C440.29965838 244.04075178 444.21641697 245.11576162 448.21875 246.45703125 C449.28216614 246.80522163 449.28216614 246.80522163 450.36706543 247.16044617 C452.67133728 247.91992808 454.97078676 248.69270905 457.26953125 249.46875 C458.06348297 249.73502197 458.85743469 250.00129395 459.67544556 250.27563477 C498.11856845 263.21147917 536.82643371 279.46623117 568.58203125 305.15625 C569.17338867 305.63336426 569.76474609 306.11047852 570.37402344 306.60205078 C593.08684871 325.06801814 609.83216253 346.82711294 614.33203125 376.40625 C616.06540317 402.40682877 608.81026587 425.96628473 591.76953125 445.69921875 C591.04765625 446.51003906 590.32578125 447.32085938 589.58203125 448.15625 C588.90140625 448.95675781 588.22078125 449.75726562 587.51953125 450.58203125 C553.54213635 490.06748041 497.9278917 509.91154857 449.58203125 524.15625 C448.49084991 524.47783081 448.49084991 524.47783081 447.37762451 524.8059082 C442.44655074 526.25871946 437.51457014 527.70842141 432.58203125 529.15625 C432.82324707 530.07921875 433.06446289 531.0021875 433.31298828 531.953125 C446.56690561 582.87792463 457.97810319 637.58269083 447.58203125 690.15625 C447.40510742 691.05424316 447.22818359 691.95223633 447.04589844 692.87744141 C441.66202455 719.22494857 431.77304996 744.44323222 408.58203125 760.15625 C387.70493973 773.14976201 363.8692469 775.46164799 340.06640625 770.41015625 C336.51145195 769.46244924 333.06133398 768.35315889 329.58203125 767.15625 C328.84210937 766.90665527 328.1021875 766.65706055 327.33984375 766.39990234 C304.90118188 758.72519012 284.26226959 747.28239437 264.58203125 734.15625 C263.89882813 733.70572266 263.215625 733.25519531 262.51171875 732.79101562 C246.70444981 722.33929823 231.89657104 710.5567546 217.58203125 698.15625 C216.87175781 697.54652344 216.16148437 696.93679688 215.4296875 696.30859375 C210.79240859 692.29720525 206.28217332 688.15004589 201.79272461 683.97460938 C199.66916393 682.01083373 197.56980146 680.14742187 195.22265625 678.453125 C194.68125 678.02515625 194.13984375 677.5971875 193.58203125 677.15625 C193.58203125 676.49625 193.58203125 675.83625 193.58203125 675.15625 C192.92203125 675.15625 192.26203125 675.15625 191.58203125 675.15625 C191.58203125 674.49625 191.58203125 673.83625 191.58203125 673.15625 C190.92203125 673.15625 190.26203125 673.15625 189.58203125 673.15625 C189.58203125 672.49625 189.58203125 671.83625 189.58203125 671.15625 C186.4939343 669.39162317 185.34890989 669.15625 181.58203125 669.15625 C179.25733308 671.07227511 177.15316027 672.98337896 175.01953125 675.09375 C173.76677726 676.29683173 172.51154473 677.49733767 171.25390625 678.6953125 C170.63322266 679.28731445 170.01253906 679.87931641 169.37304688 680.48925781 C166.0886474 683.54622068 162.58205135 686.31802532 159.08203125 689.12109375 C156.74144079 691.02648067 154.50135015 693.00045891 152.26953125 695.03125 C146.29429353 700.39201292 139.94727788 705.27163271 133.58203125 710.15625 C132.94313965 710.64673828 132.30424805 711.13722656 131.64599609 711.64257812 C92.04799528 741.93095173 41.17450767 778.88507247 -11.41796875 772.15625 C-31.18496037 769.12220614 -48.21449361 759.0836722 -60.41796875 743.15625 C-78.59678853 717.97733458 -83.43943667 685.49074461 -84.41796875 655.15625 C-84.45083984 654.17785156 -84.45083984 654.17785156 -84.484375 653.1796875 C-85.70512465 611.02313295 -77.1901127 568.47476498 -65.41796875 528.15625 C-66.69800781 527.86234375 -66.69800781 527.86234375 -68.00390625 527.5625 C-117.14887806 515.8082387 -168.42642252 496.07086141 -207.41796875 463.15625 C-208.31902344 462.39699219 -209.22007812 461.63773438 -210.1484375 460.85546875 C-228.68929134 444.67174671 -244.22822472 423.17211292 -247.41796875 398.15625 C-249.14782571 369.24335479 -241.65325738 346.22920211 -222.32617188 324.39135742 C-184.48182474 282.80062988 -128.65868042 261.99163415 -76.25952148 245.51489258 C-75.36048096 245.22767334 -74.46144043 244.9404541 -73.53515625 244.64453125 C-72.36895752 244.28161987 -72.36895752 244.28161987 -71.17919922 243.91137695 C-69.2182772 243.29505632 -69.2182772 243.29505632 -68.41796875 241.15625 C-67.75796875 241.15625 -67.09796875 241.15625 -66.41796875 241.15625 C-66.69471436 240.07134277 -66.97145996 238.98643555 -67.2565918 237.86865234 C-82.03008148 179.72158277 -92.18197682 120.30052101 -76.41796875 61.15625 C-75.97517578 59.44115234 -75.97517578 59.44115234 -75.5234375 57.69140625 C-72.10478585 46.06174651 -65.04850501 32.76287896 -56.41796875 24.15625 C-55.75796875 24.15625 -55.09796875 24.15625 -54.41796875 24.15625 C-54.05445313 23.28419922 -54.05445313 23.28419922 -53.68359375 22.39453125 C-47.58029291 11.6007307 -32.11900753 5.99874368 -20.73046875 2.78125 C-13.76888222 1.09664685 -7.11032426 0.45947168 0 0 Z M-31.04296875 51.78125 C-46.47535447 70.47548088 -47.81990589 97.65119682 -47.73046875 120.78125 C-47.72897827 121.73100708 -47.72748779 122.68076416 -47.72595215 123.65930176 C-47.68177451 139.34632042 -46.82957215 154.63434126 -44.41796875 170.15625 C-44.28406738 171.06938965 -44.15016602 171.9825293 -44.01220703 172.92333984 C-42.04390153 186.18136856 -39.16881821 199.25912852 -36.29296875 212.34375 C-36.11698151 213.14940399 -35.94099426 213.95505798 -35.75967407 214.78512573 C-35.25365424 217.09128321 -34.73964287 219.39549781 -34.22265625 221.69921875 C-33.99468102 222.73988495 -33.99468102 222.73988495 -33.76210022 223.80157471 C-32.99713939 227.16341549 -32.1501321 230.16142822 -30.41796875 233.15625 C-29.78407227 233.04555176 -29.15017578 232.93485352 -28.49707031 232.82080078 C-25.55411829 232.30714715 -22.6110402 231.7942189 -19.66796875 231.28125 C-18.61786621 231.09780029 -17.56776367 230.91435059 -16.48583984 230.7253418 C-10.10879125 229.61412207 -3.72968843 228.53716355 2.66796875 227.55078125 C4.58256402 227.33898329 4.58256402 227.33898329 5.58203125 226.15625 C7.24829902 225.97246626 8.92074611 225.84450147 10.59375 225.73828125 C15.58278118 225.35971177 20.52362879 224.80533306 25.4765625 224.10546875 C26.18206741 224.00639221 26.88757233 223.90731567 27.61445618 223.80523682 C30.66799461 223.37445577 33.72095372 222.9396261 36.7739563 222.50506592 C46.32344921 221.15614356 55.85282086 219.98659458 65.46484375 219.18359375 C66.35239853 219.10628525 67.23995331 219.02897675 68.15440369 218.94932556 C72.45594395 218.57510793 76.75575818 218.23130333 81.0637207 217.94018555 C90.00035362 217.59636143 90.00035362 217.59636143 97.2734375 213.10546875 C98.08519176 211.81467102 98.8534097 210.49573288 99.58203125 209.15625 C100.62363575 207.67357245 101.67640465 206.19869582 102.73828125 204.73046875 C103.85502476 203.10304271 104.96951613 201.4740695 106.08203125 199.84375 C112.89320456 189.9899665 120.10367344 180.5107951 127.58203125 171.15625 C128.79826172 169.63451172 128.79826172 169.63451172 130.0390625 168.08203125 C134.60377872 162.44810222 139.31362355 156.94203762 144.04443359 151.44775391 C148.95698916 145.73882394 153.77929837 139.95778132 158.58203125 134.15625 C157.10622237 130.63942884 155.18942626 128.65410524 152.33203125 126.15625 C150.98818359 124.97675781 150.98818359 124.97675781 149.6171875 123.7734375 C148.60619434 122.90020091 147.59444082 122.02784405 146.58203125 121.15625 C146.04433105 120.6912207 145.50663086 120.22619141 144.95263672 119.74707031 C141.43251281 116.70478667 137.89709485 113.68093114 134.35351562 110.66601562 C132.64982446 109.21402746 130.95135284 107.75615429 129.25390625 106.296875 C99.09390886 80.44804184 63.77101824 53.58061282 25.58203125 41.15625 C24.54175781 40.8159375 23.50148438 40.475625 22.4296875 40.125 C2.90152851 34.6963226 -16.75979069 36.74960847 -31.04296875 51.78125 Z M337.58203125 42.15625 C336.421875 42.55714844 335.26171875 42.95804688 334.06640625 43.37109375 C307.31996503 53.35758966 283.88981585 69.68121369 261.58203125 87.15625 C260.15042568 88.2652092 258.7181819 89.37334522 257.28515625 90.48046875 C256.02944025 91.45507542 254.77419445 92.43028837 253.51953125 93.40625 C252.96612061 93.83558838 252.41270996 94.26492676 251.8425293 94.70727539 C248.88850554 97.02859401 246.22693328 99.49428409 243.58203125 102.15625 C242.59203125 102.81625 241.60203125 103.47625 240.58203125 104.15625 C234.97367245 108.81224598 229.64812239 113.81438041 224.265625 118.7265625 C221.91406456 120.85563178 219.54028722 122.95225134 217.14453125 125.03125 C214.51783592 127.31275334 211.99357987 129.64422019 209.58203125 132.15625 C210.94469769 136.19430866 212.72294635 138.69993118 215.64453125 141.78125 C220.52967194 147.06248317 225.06087231 152.56299096 229.58203125 158.15625 C230.59285892 159.38745087 231.60463174 160.61787618 232.6171875 161.84765625 C242.55765634 173.94746663 251.96222767 186.38276944 261.01953125 199.15625 C261.50365479 199.8380835 261.98777832 200.51991699 262.48657227 201.22241211 C262.94990967 201.88120361 263.41324707 202.53999512 263.890625 203.21875 C264.35452637 203.86199219 264.81842773 204.50523437 265.29638672 205.16796875 C266.58203125 207.15625 266.58203125 207.15625 267.51220703 209.36328125 C268.63106407 211.83848067 269.53991401 213.34761854 271.58203125 215.15625 C275.78734802 216.40416209 279.97996525 216.72320118 284.33361816 217.00085449 C288.28962313 217.27426751 292.22608155 217.7375818 296.16796875 218.1640625 C297.91707501 218.34468851 299.6662638 218.5245169 301.41552734 218.70361328 C320.3629794 220.6673714 339.16252628 223.17257064 357.95703125 226.28125 C358.98656921 226.45110413 360.01610718 226.62095825 361.07684326 226.79595947 C371.67210577 228.55380357 382.22223756 230.39159885 392.70556641 232.73388672 C395.50630435 233.14513071 396.93029831 232.92311632 399.58203125 232.15625 C421.57895439 143.71730375 421.57895439 143.71730375 401.95703125 57.5078125 C394.54867241 47.45851093 385.83633227 40.86076332 373.58203125 38.15625 C361.06351907 37.1226637 349.44679652 37.95084986 337.58203125 42.15625 Z M183.58203125 160.15625 C177.69563401 166.41294121 172.16237956 172.81769049 166.90332031 179.60766602 C163.34377268 184.20241357 159.70037586 188.72071905 156.01953125 193.21875 C150.40186477 200.09471366 144.94788472 207.08252894 139.58203125 214.15625 C142.62467677 215.05987643 145.19170639 215.22747564 148.35546875 215.0703125 C149.71671875 215.00457031 149.71671875 215.00457031 151.10546875 214.9375 C152.04648437 214.8859375 152.9875 214.834375 153.95703125 214.78125 C154.8903125 214.73742187 155.82359375 214.69359375 156.78515625 214.6484375 C162.1175328 214.37859094 162.1175328 214.37859094 167.3984375 213.62890625 C171.15133001 213.07172834 174.78160717 213.11613278 178.55859375 213.2421875 C179.69822823 213.27357063 179.69822823 213.27357063 180.86088562 213.30558777 C183.30981752 213.37483753 185.75838016 213.45274208 188.20703125 213.53125 C189.88304859 213.58092018 191.55907404 213.63031744 193.23510742 213.67944336 C204.69170399 214.02420254 216.14015483 214.47293591 227.58203125 215.15625 C227.58203125 214.49625 227.58203125 213.83625 227.58203125 213.15625 C226.92203125 213.15625 226.26203125 213.15625 225.58203125 213.15625 C225.35128906 212.46144531 225.12054687 211.76664063 224.8828125 211.05078125 C223.31427915 207.56044128 221.16189298 204.79166193 218.76953125 201.84375 C218.28742188 201.24054932 217.8053125 200.63734863 217.30859375 200.01586914 C215.73956592 198.0573432 214.1612738 196.10654531 212.58203125 194.15625 C211.50507878 192.81781256 210.42825659 191.47927029 209.3515625 190.140625 C197.04721357 174.62983122 197.04721357 174.62983122 183.58203125 160.15625 Z M142.03125 250.00732422 C138.45435632 250.16176258 134.8801252 250.24032126 131.30078125 250.31640625 C128.95693245 250.40631431 126.61317605 250.49867246 124.26953125 250.59375 C123.19598389 250.60132324 122.12243652 250.60889648 121.01635742 250.61669922 C116.6078159 250.84908088 113.7146781 251.04650618 110.48120117 254.21459961 C108.65932408 256.78563687 107.10436237 259.39885366 105.58203125 262.15625 C104.72821302 263.45980712 103.86336341 264.75624962 102.984375 266.04296875 C102.15987436 267.30801952 101.33834958 268.5750139 100.51953125 269.84375 C99.83189697 270.90770996 99.83189697 270.90770996 99.13037109 271.99316406 C93.97761497 280.02000161 89.05172663 288.18408376 84.11328125 296.34375 C81.3686293 300.87422352 78.58761703 305.38026765 75.78491211 309.875 C63.00827858 330.37138503 50.72831401 351.17303525 39.13574219 372.36328125 C38.06104823 374.29516353 36.95246156 376.2084362 35.81738281 378.10546875 C34.97771973 379.53826172 34.97771973 379.53826172 34.12109375 381 C33.35466553 382.27133789 33.35466553 382.27133789 32.57275391 383.56835938 C31.29600325 386.90339065 31.64325432 388.73632001 32.58203125 392.15625 C33.69804394 394.70023949 33.69804394 394.70023949 35.171875 397.140625 C35.70377441 398.06657471 36.23567383 398.99252441 36.78369141 399.9465332 C37.35651855 400.92323975 37.9293457 401.89994629 38.51953125 402.90625 C39.71425016 404.97745607 40.90825335 407.04907514 42.1015625 409.12109375 C42.69404785 410.14444824 43.2865332 411.16780273 43.89697266 412.22216797 C45.81043803 415.55395976 47.6675447 418.91333852 49.51147461 422.28393555 C57.20415013 436.34187984 65.7352609 449.87179328 74.31201172 463.40209961 C77.10040412 467.8015531 79.86255177 472.21387047 82.58203125 476.65625 C89.73967052 488.31890446 96.96155693 499.93485227 104.70703125 511.21875 C105.16827393 511.89139893 105.6295166 512.56404785 106.10473633 513.25708008 C107.81470718 515.72374923 109.45513358 518.02935233 111.58203125 520.15625 C114.00184263 520.46318717 116.32340789 520.64885332 118.75390625 520.75390625 C119.49076157 520.79287018 120.22761688 520.83183411 120.98680115 520.87197876 C123.43481824 520.99797134 125.88323001 521.10912331 128.33203125 521.21875 C130.05249807 521.30102455 131.77295695 521.38346519 133.4934082 521.46606445 C138.8554609 521.71713887 144.2184382 521.9408785 149.58203125 522.15625 C150.82590607 522.20682556 150.82590607 522.20682556 152.09490967 522.25842285 C175.63271333 523.20259231 199.0496334 523.25892975 222.58203125 522.15625 C223.32994934 522.1212439 224.07786743 522.08623779 224.84844971 522.0501709 C230.07384739 521.80090012 235.2968166 521.51861485 240.51953125 521.21875 C241.20924011 521.18131683 241.89894897 521.14388367 242.60955811 521.10531616 C244.54755111 520.99773427 246.48475138 520.87614707 248.421875 520.75390625 C250.06724243 520.65348022 250.06724243 520.65348022 251.74584961 520.55102539 C254.58949292 520.15521139 256.23917743 519.79194569 258.58203125 518.15625 C260.33407797 515.91112954 260.33407797 515.91112954 261.88671875 513.2109375 C262.49225586 512.22061523 263.09779297 511.23029297 263.72167969 510.20996094 C264.3355957 509.20223633 264.94951172 508.19451172 265.58203125 507.15625 C266.74321486 505.36192797 267.91235084 503.57272429 269.08984375 501.7890625 C287.55302381 473.68619631 305.43292104 445.02303974 321.19189453 415.30029297 C323.56987357 410.82304677 325.99285422 406.40714807 328.6328125 402.078125 C329.11032959 401.29429443 329.58784668 400.51046387 330.07983398 399.70288086 C330.96575901 398.26570662 331.864093 396.83606963 332.77758789 395.41625977 C335.04971047 391.83462259 335.04971047 391.83462259 335.32348633 387.72460938 C334.57795748 385.14213869 333.64499526 383.05158738 332.3515625 380.69921875 C331.65220581 379.41942139 331.65220581 379.41942139 330.9387207 378.11376953 C330.42913818 377.19966309 329.91955566 376.28555664 329.39453125 375.34375 C328.86496826 374.3832373 328.33540527 373.42272461 327.78979492 372.43310547 C322.62085562 363.11290647 317.23848503 353.91881513 311.83984375 344.73046875 C309.09316329 340.04873525 306.41011502 335.33595069 303.76953125 330.59375 C299.9334902 323.71888062 295.91577996 316.96678831 291.8359375 310.234375 C290.47192615 307.97377051 289.11984144 305.70631388 287.76953125 303.4375 C280.8911766 291.8913266 273.85753655 280.45676448 266.58203125 269.15625 C265.86490967 268.0415332 265.86490967 268.0415332 265.13330078 266.90429688 C263.77041532 264.79516963 262.39754918 262.69301422 261.01953125 260.59375 C260.41117432 259.65535278 260.41117432 259.65535278 259.79052734 258.69799805 C257.88367216 255.82395028 256.49509145 254.09829013 253.58203125 252.15625 C250.8125693 251.71027342 250.8125693 251.71027342 247.640625 251.55859375 C246.43092041 251.4797998 245.22121582 251.40100586 243.97485352 251.31982422 C242.66959717 251.24521973 241.36434082 251.17061523 240.01953125 251.09375 C238.65484671 251.01090534 237.29018217 250.92773063 235.92553711 250.84423828 C231.81188637 250.59751539 227.69730675 250.37424783 223.58203125 250.15625 C222.44024414 250.09550293 221.29845703 250.03475586 220.12207031 249.97216797 C194.11354614 248.65083712 168.03965726 248.7241131 142.03125 250.00732422 Z M66.58203125 254.15625 C49.15510507 256.17489461 31.85902978 258.66795105 14.58203125 261.71875 C13.74430176 261.86627716 12.90657227 262.01380432 12.04345703 262.165802 C7.29526129 263.00508542 2.55081418 263.862632 -2.18994141 264.74298096 C-3.68135533 265.01961814 -5.17322484 265.29380981 -6.66552734 265.56561279 C-8.77214668 265.95088025 -10.87647938 266.34674496 -12.98046875 266.74609375 C-14.77677734 267.08241821 -14.77677734 267.08241821 -16.609375 267.42553711 C-19.53217085 267.93292927 -19.53217085 267.93292927 -21.41796875 270.15625 C-13.20398547 292.17330675 -4.62485109 313.96739604 5.01953125 335.40625 C5.43275635 336.32978271 5.84598145 337.25331543 6.27172852 338.20483398 C6.85651978 339.48789429 6.85651978 339.48789429 7.453125 340.796875 C7.7927124 341.54485352 8.1322998 342.29283203 8.48217773 343.06347656 C9.65155841 345.28854452 11.024421 347.18774667 12.58203125 349.15625 C13.04351562 348.21007812 13.505 347.26390625 13.98046875 346.2890625 C26.30704886 321.20474547 41.07380454 297.54607741 55.83203125 273.84375 C56.74311646 272.37784424 56.74311646 272.37784424 57.67260742 270.88232422 C60.82292702 265.84765581 64.06822913 260.94479613 67.58203125 256.15625 C67.08703125 255.16625 67.08703125 255.16625 66.58203125 254.15625 Z M299.58203125 255.15625 C301.29304752 260.36277804 304.38486383 264.63320241 307.39453125 269.15625 C324.41943839 295.08995149 339.76657666 321.91088012 354.58203125 349.15625 C358.61511554 344.14441317 360.96993592 338.27444096 363.64453125 332.46875 C363.93104553 331.84976837 364.21755981 331.23078674 364.51275635 330.5930481 C369.91254382 318.90401472 374.8573973 307.06244588 379.47412109 295.04101562 C380.21061884 293.12333 380.95310475 291.20793308 381.70166016 289.29492188 C382.73681887 286.64915475 383.75626674 283.99796728 384.76953125 281.34375 C385.07358887 280.56700928 385.37764648 279.79026855 385.69091797 278.98999023 C387.08789474 275.25052708 387.80334284 272.96621687 386.58203125 269.15625 C377.76741013 266.83790066 368.91542416 264.95330463 359.95703125 263.28125 C359.2811496 263.1547406 358.60526794 263.0282312 357.90890503 262.89788818 C346.68705824 260.80748172 335.43395904 258.96651167 324.14453125 257.28125 C323.42537537 257.17202209 322.70621948 257.06279419 321.965271 256.95025635 C314.47313284 255.81947715 307.17557214 254.87033595 299.58203125 255.15625 Z M421.58203125 278.15625 C421.28135742 279.03434326 420.98068359 279.91243652 420.67089844 280.81713867 C410.01173863 311.81370145 398.14901974 342.23770876 383.37890625 371.546875 C382.8588501 372.59182129 382.33879395 373.63676758 381.80297852 374.71337891 C380.80550567 376.70895982 379.79118297 378.69623688 378.75756836 380.67333984 C378.3116333 381.56746582 377.86569824 382.4615918 377.40625 383.3828125 C377.00494873 384.16221191 376.60364746 384.94161133 376.19018555 385.74462891 C374.93916159 390.70553402 377.99850606 395.20438602 380.3125 399.48828125 C380.86083496 400.51751709 381.40916992 401.54675293 381.97412109 402.60717773 C382.56660645 403.71649658 383.1590918 404.82581543 383.76953125 405.96875 C397.69081055 432.34249916 409.75926132 459.73994421 419.453125 487.9453125 C420.45195083 491.00045156 420.45195083 491.00045156 421.58203125 493.15625 C433.39610009 490.58109034 444.82156661 487.35141426 456.26953125 483.46875 C457.04962555 483.20646606 457.82971985 482.94418213 458.63345337 482.6739502 C471.50258323 478.34086121 484.16414097 473.66685289 496.58203125 468.15625 C497.33387695 467.82705566 498.08572266 467.49786133 498.86035156 467.15869141 C528.13492861 454.25248826 563.96533074 433.77070249 576.6875 402.70703125 C581.12742179 390.04646824 580.074759 378.72519073 575.58203125 366.15625 C554.5439806 322.47942745 491.81082625 300.99824223 449.65527344 286.12353516 C446.84357426 285.14186023 444.02723523 284.17569534 441.20703125 283.21875 C440.38170898 282.93612305 439.55638672 282.65349609 438.70605469 282.36230469 C433.06859299 280.49080518 427.42792302 279.19900149 421.58203125 278.15625 Z M-56.41796875 278.15625 C-58.93470646 278.66970523 -61.18554193 279.28687926 -63.609375 280.09375 C-64.33391876 280.324608 -65.05846252 280.555466 -65.80496216 280.7933197 C-68.20246649 281.56462511 -70.59164306 282.35849751 -72.98046875 283.15625 C-73.80286041 283.42712433 -74.62525208 283.69799866 -75.4725647 283.9770813 C-120.4639345 298.83389714 -183.79400183 320.07356607 -207.28515625 364.64453125 C-212.99647409 377.30790149 -214.21239125 389.21153384 -209.640625 402.3984375 C-195.36139375 436.84018841 -154.14260581 457.68166465 -121.70019531 471.40600586 C-102.80269343 479.17605171 -83.37229524 485.72245509 -63.73046875 491.34375 C-63.01238037 491.55241699 -62.29429199 491.76108398 -61.55444336 491.97607422 C-58.27980943 492.87067599 -56.71501086 493.25526404 -53.41796875 492.15625 C-52.30236291 490.01289438 -52.30236291 490.01289438 -51.47265625 487.328125 C-51.12283691 486.31161865 -50.77301758 485.2951123 -50.41259766 484.24780273 C-50.04312012 483.14509033 -49.67364258 482.04237793 -49.29296875 480.90625 C-45.17564839 469.06537551 -40.54424328 457.59162473 -35.41796875 446.15625 C-35.00853027 445.23585938 -34.5990918 444.31546875 -34.17724609 443.3671875 C-28.68438473 431.05176867 -22.88321465 418.9044994 -16.85546875 406.84375 C-16.547836 406.22748749 -16.24020325 405.61122498 -15.92324829 404.97628784 C-10.79522913 394.72214056 -10.79522913 394.72214056 -8.41796875 391.15625 C-7.75399411 386.57166321 -9.56091319 383.33489887 -11.66796875 379.40625 C-12.40823412 377.97237677 -13.14637431 376.53740513 -13.8828125 375.1015625 C-14.28870605 374.31426758 -14.69459961 373.52697266 -15.11279297 372.71582031 C-29.82280581 343.86812585 -42.97459409 313.82431275 -52.34765625 282.7890625 C-53.25015416 279.86231487 -53.25015416 279.86231487 -56.41796875 278.15625 Z M11.58203125 425.15625 C1.72697544 446.96310191 -7.78081949 468.83510212 -16.41796875 491.15625 C-16.90595947 492.38891602 -16.90595947 492.38891602 -17.40380859 493.64648438 C-18.56943539 496.63624584 -19.41796875 498.91632977 -19.41796875 502.15625 C1.3858299 506.46260832 22.18523143 510.43751011 43.19042969 513.63525391 C45.50788079 513.99124589 47.82360281 514.35863196 50.13769531 514.73583984 C51.2769043 514.91969238 52.41611328 515.10354492 53.58984375 515.29296875 C54.59934082 515.45885498 55.60883789 515.62474121 56.64892578 515.7956543 C59.65681597 516.16544403 62.55467754 516.21846361 65.58203125 516.15625 C62.24562898 509.94249916 58.61074059 504.02662139 54.70703125 498.15625 C43.71163476 481.39075747 33.57167183 464.14653536 23.89453125 446.59375 C23.55432953 445.97678253 23.21412781 445.35981506 22.86361694 444.72415161 C19.30736317 438.26194221 15.81851037 431.78488698 12.58203125 425.15625 C12.25203125 425.15625 11.92203125 425.15625 11.58203125 425.15625 Z M353.58203125 426.15625 C353.30230469 426.71159424 353.02257812 427.26693848 352.734375 427.83911133 C344.91999152 443.27157645 336.40441064 458.19998374 327.47460938 473.00878906 C325.7414068 475.89119975 324.02483958 478.78254871 322.31640625 481.6796875 C316.89461183 490.84879611 311.27534232 499.82103487 305.23730469 508.59985352 C304.7580957 509.30166748 304.27888672 510.00348145 303.78515625 510.7265625 C303.35879883 511.34289551 302.93244141 511.95922852 302.49316406 512.59423828 C301.41407984 514.14279187 301.41407984 514.14279187 301.58203125 516.15625 C312.29867921 515.57934359 322.84758426 513.85902858 333.4387207 512.19995117 C336.53550638 511.7162548 339.6338435 511.24354393 342.73242188 510.77148438 C344.71234209 510.4642014 346.69216357 510.15628149 348.671875 509.84765625 C350.05317848 509.63817101 350.05317848 509.63817101 351.46238708 509.42445374 C355.76824978 508.74113801 359.58150732 507.96815517 363.58203125 506.15625 C365.765625 505.84765625 365.765625 505.84765625 368.01953125 505.71875 C374.67105206 505.17535798 381.08543744 503.62601888 387.58203125 502.15625 C384.12375219 491.12015284 379.94988129 480.56358505 375.33203125 469.96875 C374.66403347 468.42438834 373.99639341 466.87987189 373.32910156 465.33520508 C364.85899898 445.55889074 364.85899898 445.55889074 355.58203125 426.15625 C354.92203125 426.15625 354.26203125 426.15625 353.58203125 426.15625 Z M-30.41796875 537.15625 C-33.76312492 545.06582487 -35.47956146 553.37084147 -37.35546875 561.71875 C-37.53160706 562.49603455 -37.70774536 563.27331909 -37.88922119 564.07415771 C-48.39219965 610.51334138 -59.93731725 672.64169502 -34.10546875 715.96875 C-27.60664821 725.68204091 -19.29022829 731.33557323 -7.87109375 733.9765625 C28.4839882 739.93517552 65.95995651 713.54564722 94.0078125 693.484375 C99.970102 689.1701279 105.81402032 684.72727816 111.58203125 680.15625 C112.42507813 679.49496094 113.268125 678.83367187 114.13671875 678.15234375 C119.46136103 673.94196367 124.64822504 669.58237058 129.80737305 665.17236328 C133.78180466 661.78878173 137.86183274 658.5863419 142.0703125 655.49609375 C142.56917969 655.05394531 143.06804687 654.61179687 143.58203125 654.15625 C143.58203125 653.49625 143.58203125 652.83625 143.58203125 652.15625 C144.113125 651.93195313 144.64421875 651.70765625 145.19140625 651.4765625 C148.39311985 649.70829584 151.06350229 647.39575919 153.83203125 645.03125 C154.66347656 644.32935547 154.66347656 644.32935547 155.51171875 643.61328125 C156.87150451 642.46449672 158.2271829 641.31085347 159.58203125 640.15625 C156.0941451 635.25435595 152.3684802 630.74417552 148.26953125 626.34375 C143.12568267 620.8040878 138.26778939 615.09096622 133.58203125 609.15625 C133.06237793 608.49850586 132.54272461 607.84076172 132.00732422 607.16308594 C119.21897739 590.93214389 107.04539324 574.35129299 95.58203125 557.15625 C93.54924123 556.50095034 93.54924123 556.50095034 91.14038086 556.28417969 C90.21023666 556.16657791 89.28009247 556.04897614 88.32176208 555.92781067 C86.79350548 555.75471626 86.79350548 555.75471626 85.234375 555.578125 C83.64055748 555.38007515 83.64055748 555.38007515 82.01454163 555.17802429 C79.71794774 554.89298829 77.42066288 554.61347774 75.12280273 554.33883667 C69.0515175 553.60995541 62.9866699 552.83158815 56.921875 552.05078125 C55.70084076 551.89396378 54.47980652 551.7371463 53.22177124 551.57557678 C42.29921446 550.15499249 31.43392349 548.47627343 20.58203125 546.59375 C19.75450348 546.45045258 18.92697571 546.30715515 18.07437134 546.15951538 C3.62514991 543.63867525 -10.74225117 540.75315598 -25.06591797 537.59594727 C-27.51065497 537.06437064 -27.51065497 537.06437064 -30.41796875 537.15625 Z M388.73046875 538.40625 C387.51270752 538.68098145 386.29494629 538.95571289 385.0402832 539.23876953 C384.37985016 539.38783752 383.71941711 539.53690552 383.03897095 539.69049072 C368.8101245 542.87368438 354.50703871 545.45893681 340.11132812 547.76419067 C336.88515458 548.28275718 333.66141682 548.81501854 330.4375 549.34741211 C320.46014349 550.96477509 310.58453223 552.34653199 300.4921875 552.96484375 C282.82742745 553.44941431 282.82742745 553.44941431 268.18359375 561.9453125 C264.55353157 566.7142736 261.80396658 571.82629825 259.15478516 577.18847656 C256.71556342 581.79126754 253.55644928 585.6985659 250.26953125 589.71875 C249.12211061 591.16671232 247.97623144 592.61589774 246.83203125 594.06640625 C246.01412109 595.09338623 246.01412109 595.09338623 245.1796875 596.14111328 C243.63265938 598.09239233 242.10413435 600.0565836 240.58203125 602.02734375 C235.85991128 608.13014858 231.0077374 614.03061752 225.77734375 619.7109375 C222.61690492 623.23128396 219.67205198 626.9156129 216.72265625 630.61328125 C214.58203125 633.15625 214.58203125 633.15625 211.87890625 635.85546875 C209.56104995 637.93536124 209.56104995 637.93536124 208.58203125 640.15625 C211.85055533 644.34404647 215.3150585 647.80342209 219.35546875 651.24609375 C221.74522469 653.29625279 224.0689345 655.40868154 226.39453125 657.53125 C231.643683 662.26186852 237.07625588 666.72892547 242.58203125 671.15625 C243.73838717 672.09361935 244.89463205 673.0311257 246.05078125 673.96875 C289.45862107 709.63169596 289.45862107 709.63169596 340.58203125 731.15625 C341.53078125 731.506875 342.47953125 731.8575 343.45703125 732.21875 C346.67255305 733.18340654 349.25003986 733.23373817 352.58203125 733.15625 C352.91203125 733.48625 353.24203125 733.81625 353.58203125 734.15625 C366.31392511 736.34930349 379.75414889 734.51778058 390.58203125 727.15625 C406.1567948 715.05842143 411.32190237 696.04473438 413.92016602 677.31103516 C419.89535058 629.72915644 410.76621274 582.9826524 398.58203125 537.15625 C394.94523659 537.15625 392.24276324 537.59042129 388.73046875 538.40625 Z M140.58203125 558.15625 C141.19377197 559.24558838 141.8055127 560.33492676 142.43579102 561.45727539 C142.95194725 562.37640465 142.95194725 562.37640465 143.47853088 563.31410217 C145.24514962 566.26323836 147.36724908 568.9224806 149.51953125 571.59375 C149.99116699 572.18647705 150.46280273 572.7792041 150.94873047 573.38989258 C152.48660597 575.31737993 154.03290947 577.23779173 155.58203125 579.15625 C156.12134277 579.82462891 156.6606543 580.49300781 157.21630859 581.18164062 C160.49376327 585.23769581 163.78450061 589.28274078 167.08349609 593.32128906 C168.4558995 595.00180128 169.82603495 596.68412824 171.1953125 598.3671875 C175.2604527 603.35467043 179.36795739 608.29385709 183.58203125 613.15625 C187.13205754 611.6972282 188.84216648 609.88207586 191.14453125 606.84375 C194.34531512 602.7148578 197.62925878 598.69132118 201.01953125 594.71875 C210.87538147 583.11710242 220.27290565 571.19902351 229.58203125 559.15625 C226.21208385 558.0329342 223.96874407 558.14417378 220.42578125 558.3125 C218.46185425 558.39286499 218.46185425 558.39286499 216.45825195 558.47485352 C215.74802887 558.50475372 215.03780579 558.53465393 214.30606079 558.56546021 C189.72813357 559.56878544 165.16106127 558.80219025 140.58203125 558.15625 Z " fill="#4BDEFE" transform="translate(328.41796875,118.84375)"/>
<path d="M0 0 C0.63164063 0.56332031 1.26328125 1.12664062 1.9140625 1.70703125 C13.44986918 12.55678775 21.09072285 27.5459198 24 43 C24.3403125 44.7015625 24.3403125 44.7015625 24.6875 46.4375 C26.62592183 68.53550886 20.90892469 88.74589089 7 106 C-3.1057998 117.72771829 -15.35628287 125.95385423 -30 131 C-30.87140625 131.31839844 -31.7428125 131.63679687 -32.640625 131.96484375 C-51.85475604 137.92122437 -72.97566292 134.17210377 -90.47607422 125.13476562 C-95.7690676 122.26712241 -100.53280177 119.05456546 -105 115 C-105.68320312 114.39671875 -106.36640625 113.7934375 -107.0703125 113.171875 C-122.29056173 98.93544417 -128.76739418 78.8199409 -129.92480469 58.56152344 C-130.54314753 37.49771477 -121.91058635 17.42380151 -107.87109375 1.9375 C-97.14057957 -9.33728951 -81.31710062 -17.41772223 -66 -20 C-65.20851563 -20.14050781 -64.41703125 -20.28101563 -63.6015625 -20.42578125 C-40.63306111 -23.59253476 -16.97939986 -15.55918983 0 0 Z " fill="#4BDEFE" transform="translate(564,449)"/>
<path d="M0 0 C0.33 0 0.66 0 1 0 C2.03165486 8.2532389 2.15374304 16.42900955 2.13037109 24.73144531 C2.12501063 26.99551081 2.13034526 29.259378 2.13671875 31.5234375 C2.13982353 39.07427084 1.93798896 46.49608835 1 54 C0.67 54 0.34 54 0 54 C-0.16951073 48.39922695 -0.32983704 42.7982879 -0.48217773 37.19702148 C-0.53507974 35.29721249 -0.59035812 33.39746795 -0.64819336 31.49780273 C-0.96852606 20.92125274 -1.17777227 10.53608792 0 0 Z M-1 54 C-0.67 54 -0.34 54 0 54 C0.05447047 55.41623216 0.09300508 56.83308191 0.125 58.25 C0.14820313 59.03890625 0.17140625 59.8278125 0.1953125 60.640625 C0 63 0 63 -2 67 C-1.67 62.71 -1.34 58.42 -1 54 Z " fill="#52E9FE" transform="translate(744,738)"/>
<path d="M0 0 C0.33 0 0.66 0 1 0 C1.3383344 2.37438249 1.67079002 4.74934959 2 7.125 C2.14308594 8.12273438 2.14308594 8.12273438 2.2890625 9.140625 C2.83611453 13.12628981 3.10022182 16.97859938 3 21 C2.690625 20.360625 2.38125 19.72125 2.0625 19.0625 C1.1654837 17.06389179 1.1654837 17.06389179 0 16 C-0.07319621 13.30345146 -0.09242537 10.63308542 -0.0625 7.9375 C-0.05798828 7.17888672 -0.05347656 6.42027344 -0.04882812 5.63867188 C-0.0370068 3.75908129 -0.01907078 1.87953101 0 0 Z " fill="#54E8FD" transform="translate(247,790)"/>
<path d="M0 0 C2.56616632 3.84924948 2.55097676 6.4349304 3 11 C2.67 10.01 2.34 9.02 2 8 C1.34 8 0.68 8 0 8 C0 5.36 0 2.72 0 0 Z " fill="#52E9FE" transform="translate(736,690)"/>
<path d="M0 0 C0.33 0 0.66 0 1 0 C0.88570603 1.77155654 0.75816963 3.54226229 0.625 5.3125 C0.52058594 6.79169922 0.52058594 6.79169922 0.4140625 8.30078125 C0 11 0 11 -2 14 C-2.05437607 12.41705218 -2.09296271 10.83355744 -2.125 9.25 C-2.14820313 8.36828125 -2.17140625 7.4865625 -2.1953125 6.578125 C-1.99139502 3.8864142 -1.36551721 2.30095026 0 0 Z " fill="#53E7FE" transform="translate(255,683)"/>
<path d="M0 0 C0.33 0.66 0.66 1.32 1 2 C-0.32 1.67 -1.64 1.34 -3 1 C-2.01 0.67 -1.02 0.34 0 0 Z " fill="#4FDFFD" transform="translate(272,398)"/>
<path d="M0 0 C1.98 0.99 1.98 0.99 4 2 C2.68 1.67 1.36 1.34 0 1 C0 0.67 0 0.34 0 0 Z " fill="#4FDDFB" transform="translate(339,158)"/>
<path d="" fill="#51D7F4" transform="translate(0,0)"/>
<path d="" fill="#50D7F4" transform="translate(0,0)"/>
<path d="M0 0 C0.66 0.66 1.32 1.32 2 2 C1.34 2 0.68 2 0 2 C0 1.34 0 0.68 0 0 Z " fill="#50DFFD" transform="translate(752,398)"/>
<path d="M0 0 C3 1 3 1 3 1 Z " fill="#51DFFB" transform="translate(329,344)"/>
<path d="M0 0 C3 1 3 1 3 1 Z " fill="#52DFFE" transform="translate(517,330)"/>
<path d="M0 0 C3 1 3 1 3 1 Z " fill="#50DDFC" transform="translate(676,159)"/>
<path d="M0 0 C3 1 3 1 3 1 Z " fill="#4FDDFB" transform="translate(683,158)"/>
<path d="M0 0 C0.99 0.495 0.99 0.495 2 1 C1.01 1.495 1.01 1.495 0 2 C0 1.34 0 0.68 0 0 Z " fill="#4FDDFD" transform="translate(336,158)"/>
<path d="" fill="#51CDEC" transform="translate(0,0)"/>
<path d="M0 0 C2 1 2 1 2 1 Z " fill="#51D4F1" transform="translate(637,879)"/>
<path d="" fill="#50D5F2" transform="translate(0,0)"/>
<path d="M0 0 C2 1 2 1 2 1 Z " fill="#50D6F4" transform="translate(243,790)"/>
<path d="" fill="#51D6F5" transform="translate(0,0)"/>
<path d="" fill="#52DDFB" transform="translate(0,0)"/>
<path d="" fill="#4FDFFB" transform="translate(0,0)"/>
<path d="" fill="#50DEFB" transform="translate(0,0)"/>
<path d="" fill="#4EDCFC" transform="translate(0,0)"/>
<path d="M0 0 C2 1 2 1 2 1 Z " fill="#4EE0FC" transform="translate(553,679)"/>
<path d="M0 0 C2 1 2 1 2 1 Z " fill="#4CE0FE" transform="translate(496,679)"/>
<path d="M0 0 C2 1 2 1 2 1 Z " fill="#4FDEFA" transform="translate(493,679)"/>
<path d="" fill="#4EDDFB" transform="translate(0,0)"/>
<path d="M0 0 C2 1 2 1 2 1 Z " fill="#4EDDFB" transform="translate(648,671)"/>
<path d="M0 0 C2 1 2 1 2 1 Z " fill="#51DDFB" transform="translate(373,671)"/>
<path d="M0 0 C2 1 2 1 2 1 Z " fill="#4EDEFC" transform="translate(323,662)"/>
<path d="M0 0 C2 1 2 1 2 1 Z " fill="#51DCF9" transform="translate(227,638)"/>
<path d="" fill="#52DFFE" transform="translate(0,0)"/>
<path d="M0 0 C2 1 2 1 2 1 Z " fill="#4EDCF9" transform="translate(198,584)"/>
<path d="M0 0 C2 1 2 1 2 1 Z " fill="#50DFFD" transform="translate(524,583)"/>
<path d="M0 0 C2 1 2 1 2 1 Z " fill="#4FE0FE" transform="translate(527,582)"/>
<path d="M0 0 C2 1 2 1 2 1 Z " fill="#4DDFFE" transform="translate(491,582)"/>
<path d="M0 0 C2 1 2 1 2 1 Z " fill="#4FDFFF" transform="translate(481,579)"/>
<path d="" fill="#50DFFE" transform="translate(0,0)"/>
<path d="" fill="#4FDDFC" transform="translate(0,0)"/>
<path d="" fill="#53D7F5" transform="translate(0,0)"/>
<path d="M0 0 C2 1 2 1 2 1 Z " fill="#50DEFD" transform="translate(481,432)"/>
<path d="M0 0 C2 1 2 1 2 1 Z " fill="#4FDEFB" transform="translate(245,407)"/>
<path d="M0 0 C2 1 2 1 2 1 Z " fill="#50DFFD" transform="translate(709,388)"/>
<path d="M0 0 C2 1 2 1 2 1 Z " fill="#50E0FD" transform="translate(705,387)"/>
<path d="M0 0 C2 1 2 1 2 1 Z " fill="#4DD7F4" transform="translate(830,384)"/>
<path d="M0 0 C2 1 2 1 2 1 Z " fill="#51DAF8" transform="translate(193,384)"/>
<path d="M0 0 C2 1 2 1 2 1 Z " fill="#51E0FF" transform="translate(361,379)"/>
<path d="M0 0 C2 1 2 1 2 1 Z " fill="#4FDEFE" transform="translate(577,372)"/>
<path d="M0 0 C2 1 2 1 2 1 Z " fill="#51DEFD" transform="translate(478,370)"/>
<path d="M0 0 C2 1 2 1 2 1 Z " fill="#51DEFD" transform="translate(705,346)"/>
<path d="" fill="#50DCFA" transform="translate(0,0)"/>
<path d="" fill="#52D9F7" transform="translate(0,0)"/>
<path d="" fill="#51DEFB" transform="translate(0,0)"/>
<path d="M0 0 C2 1 2 1 2 1 Z " fill="#4BDCFB" transform="translate(704,159)"/>
<path d="M0 0 C2 1 2 1 2 1 Z " fill="#4BDCFA" transform="translate(344,159)"/>
<path d="M0 0 C2 1 2 1 2 1 Z " fill="#4EDDFC" transform="translate(699,158)"/>
<path d="" fill="#4FCCE9" transform="translate(0,0)"/>
<path d="" fill="#50CDED" transform="translate(0,0)"/>
<path d="" fill="#50CEEC" transform="translate(0,0)"/>
<path d="" fill="#4FD0EF" transform="translate(0,0)"/>
<path d="" fill="#52CFEC" transform="translate(0,0)"/>
<path d="" fill="#4FD0EE" transform="translate(0,0)"/>
<path d="" fill="#50D0EE" transform="translate(0,0)"/>
<path d="" fill="#52D1F0" transform="translate(0,0)"/>
<path d="" fill="#52D3EE" transform="translate(0,0)"/>
<path d="" fill="#4FD3F1" transform="translate(0,0)"/>
<path d="" fill="#51D0EF" transform="translate(0,0)"/>
<path d="" fill="#50CCEB" transform="translate(0,0)"/>
<path d="" fill="#52CFEE" transform="translate(0,0)"/>
<path d="" fill="#51D5F3" transform="translate(0,0)"/>
<path d="" fill="#51D1ED" transform="translate(0,0)"/>
<path d="" fill="#50D0EC" transform="translate(0,0)"/>
<path d="" fill="#4DD9F4" transform="translate(0,0)"/>
<path d="" fill="#51D0ED" transform="translate(0,0)"/>
<path d="" fill="#4ED1EE" transform="translate(0,0)"/>
<path d="" fill="#4FD0EC" transform="translate(0,0)"/>
<path d="" fill="#50D1EE" transform="translate(0,0)"/>
<path d="" fill="#4DD7F6" transform="translate(0,0)"/>
<path d="" fill="#4FD8F6" transform="translate(0,0)"/>
<path d="" fill="#51DEFB" transform="translate(0,0)"/>
<path d="" fill="#51DEFC" transform="translate(0,0)"/>
<path d="" fill="#50E0FE" transform="translate(0,0)"/>
<path d="" fill="#52DEFA" transform="translate(0,0)"/>
<path d="" fill="#51DDFB" transform="translate(0,0)"/>
<path d="" fill="#51DDFB" transform="translate(0,0)"/>
<path d="" fill="#50DCFB" transform="translate(0,0)"/>
<path d="" fill="#4ED9F7" transform="translate(0,0)"/>
<path d="" fill="#52DEFC" transform="translate(0,0)"/>
<path d="" fill="#50DCFC" transform="translate(0,0)"/>
<path d="" fill="#4CD8F6" transform="translate(0,0)"/>
<path d="" fill="#52DDFB" transform="translate(0,0)"/>
<path d="" fill="#50DEFB" transform="translate(0,0)"/>
<path d="" fill="#4ED2F2" transform="translate(0,0)"/>
<path d="" fill="#50D5F1" transform="translate(0,0)"/>
<path d="" fill="#50DDF9" transform="translate(0,0)"/>
<path d="" fill="#50DEFC" transform="translate(0,0)"/>
<path d="" fill="#52D5F6" transform="translate(0,0)"/>
<path d="" fill="#51DCF9" transform="translate(0,0)"/>
<path d="" fill="#51DEFD" transform="translate(0,0)"/>
<path d="" fill="#4FDAF7" transform="translate(0,0)"/>
<path d="" fill="#53DDFB" transform="translate(0,0)"/>
<path d="" fill="#52DCFA" transform="translate(0,0)"/>
<path d="" fill="#53DEFC" transform="translate(0,0)"/>
<path d="" fill="#53D4F3" transform="translate(0,0)"/>
<path d="" fill="#50D7F5" transform="translate(0,0)"/>
<path d="" fill="#53D6F5" transform="translate(0,0)"/>
<path d="" fill="#50D8F5" transform="translate(0,0)"/>
<path d="" fill="#4EE1F9" transform="translate(0,0)"/>
<path d="" fill="#4FDDFA" transform="translate(0,0)"/>
<path d="" fill="#51DFFE" transform="translate(0,0)"/>
<path d="" fill="#50D6F5" transform="translate(0,0)"/>
<path d="" fill="#51D6F4" transform="translate(0,0)"/>
<path d="" fill="#53DDFD" transform="translate(0,0)"/>
<path d="" fill="#53DEFA" transform="translate(0,0)"/>
<path d="" fill="#52DEFC" transform="translate(0,0)"/>
<path d="" fill="#54DEFC" transform="translate(0,0)"/>
<path d="" fill="#52D7F5" transform="translate(0,0)"/>
<path d="" fill="#51DEFB" transform="translate(0,0)"/>
<path d="" fill="#4FE3FE" transform="translate(0,0)"/>
<path d="" fill="#4EDCF8" transform="translate(0,0)"/>
<path d="" fill="#52DCFD" transform="translate(0,0)"/>
<path d="" fill="#53DEFB" transform="translate(0,0)"/>
<path d="" fill="#51DAF7" transform="translate(0,0)"/>
<path d="" fill="#52DEF7" transform="translate(0,0)"/>
<path d="" fill="#4FDEFB" transform="translate(0,0)"/>
<path d="" fill="#51DBF8" transform="translate(0,0)"/>
<path d="" fill="#53DEFC" transform="translate(0,0)"/>
<path d="" fill="#53DFFA" transform="translate(0,0)"/>
<path d="" fill="#52E0FE" transform="translate(0,0)"/>
<path d="" fill="#56DFFF" transform="translate(0,0)"/>
<path d="" fill="#54DEFD" transform="translate(0,0)"/>
<path d="" fill="#53DCF8" transform="translate(0,0)"/>
<path d="" fill="#51DFFC" transform="translate(0,0)"/>
<path d="" fill="#50DEFA" transform="translate(0,0)"/>
<path d="" fill="#50DEFD" transform="translate(0,0)"/>
<path d="" fill="#4DDEFD" transform="translate(0,0)"/>
<path d="" fill="#4FE0FC" transform="translate(0,0)"/>
<path d="" fill="#53DEFD" transform="translate(0,0)"/>
<path d="" fill="#4EE1FC" transform="translate(0,0)"/>
<path d="" fill="#52DCFC" transform="translate(0,0)"/>
<path d="" fill="#50DFFC" transform="translate(0,0)"/>
<path d="" fill="#52E0FE" transform="translate(0,0)"/>
<path d="" fill="#50E0FE" transform="translate(0,0)"/>
<path d="" fill="#4FE0FC" transform="translate(0,0)"/>
<path d="" fill="#50DDFD" transform="translate(0,0)"/>
<path d="" fill="#51DCFC" transform="translate(0,0)"/>
<path d="" fill="#51DCFC" transform="translate(0,0)"/>
<path d="" fill="#51DDFD" transform="translate(0,0)"/>
<path d="" fill="#53DDFA" transform="translate(0,0)"/>
<path d="" fill="#4EDFFB" transform="translate(0,0)"/>
<path d="" fill="#51DEFA" transform="translate(0,0)"/>
<path d="" fill="#54E0FC" transform="translate(0,0)"/>
<path d="" fill="#54DCFC" transform="translate(0,0)"/>
<path d="" fill="#52DCFB" transform="translate(0,0)"/>
<path d="" fill="#52DCFB" transform="translate(0,0)"/>
<path d="" fill="#4FDEFC" transform="translate(0,0)"/>
<path d="" fill="#4FDCFC" transform="translate(0,0)"/>
<path d="" fill="#4CDEFB" transform="translate(0,0)"/>
<path d="" fill="#52D8F8" transform="translate(0,0)"/>
<path d="" fill="#52DBF8" transform="translate(0,0)"/>
<path d="" fill="#53E0FF" transform="translate(0,0)"/>
<path d="" fill="#50DFFF" transform="translate(0,0)"/>
<path d="" fill="#52E1FF" transform="translate(0,0)"/>
<path d="" fill="#4FDEFB" transform="translate(0,0)"/>
<path d="" fill="#55D9F5" transform="translate(0,0)"/>
<path d="" fill="#53D7F7" transform="translate(0,0)"/>
<path d="" fill="#50E1FE" transform="translate(0,0)"/>
<path d="" fill="#51D7F7" transform="translate(0,0)"/>
<path d="" fill="#51D8F5" transform="translate(0,0)"/>
<path d="" fill="#4DD8F4" transform="translate(0,0)"/>
<path d="" fill="#50E0FF" transform="translate(0,0)"/>
<path d="" fill="#51DCFC" transform="translate(0,0)"/>
<path d="" fill="#51DFFC" transform="translate(0,0)"/>
<path d="" fill="#50DEFE" transform="translate(0,0)"/>
<path d="" fill="#50D7F4" transform="translate(0,0)"/>
<path d="" fill="#50DDFC" transform="translate(0,0)"/>
<path d="" fill="#50DDFA" transform="translate(0,0)"/>
<path d="" fill="#4FE0FB" transform="translate(0,0)"/>
<path d="" fill="#4FDEFC" transform="translate(0,0)"/>
<path d="" fill="#53D9F6" transform="translate(0,0)"/>
<path d="" fill="#53D8F5" transform="translate(0,0)"/>
<path d="" fill="#4FDDFC" transform="translate(0,0)"/>
<path d="" fill="#52DEFD" transform="translate(0,0)"/>
<path d="" fill="#4FDEFE" transform="translate(0,0)"/>
<path d="" fill="#51DCFC" transform="translate(0,0)"/>
<path d="" fill="#51E0FC" transform="translate(0,0)"/>
<path d="" fill="#4FDEFD" transform="translate(0,0)"/>
<path d="" fill="#50DDFF" transform="translate(0,0)"/>
<path d="" fill="#51E0FE" transform="translate(0,0)"/>
<path d="" fill="#50DEFE" transform="translate(0,0)"/>
<path d="" fill="#52DDFB" transform="translate(0,0)"/>
<path d="" fill="#50DDFD" transform="translate(0,0)"/>
<path d="" fill="#4FE0FF" transform="translate(0,0)"/>
<path d="" fill="#53E0FF" transform="translate(0,0)"/>
<path d="" fill="#52DEFC" transform="translate(0,0)"/>
<path d="" fill="#51D8F5" transform="translate(0,0)"/>
<path d="" fill="#50DEFE" transform="translate(0,0)"/>
<path d="" fill="#51E1FD" transform="translate(0,0)"/>
<path d="" fill="#4DE1FF" transform="translate(0,0)"/>
<path d="" fill="#4FD6F3" transform="translate(0,0)"/>
<path d="" fill="#50D7F5" transform="translate(0,0)"/>
<path d="" fill="#4DDEFE" transform="translate(0,0)"/>
<path d="" fill="#4FDEFE" transform="translate(0,0)"/>
<path d="" fill="#4ED5F4" transform="translate(0,0)"/>
<path d="" fill="#51DFFE" transform="translate(0,0)"/>
<path d="" fill="#50DDFF" transform="translate(0,0)"/>
<path d="" fill="#53DFFE" transform="translate(0,0)"/>
<path d="" fill="#4DDCFE" transform="translate(0,0)"/>
<path d="" fill="#52E0FF" transform="translate(0,0)"/>
<path d="" fill="#50E0FD" transform="translate(0,0)"/>
<path d="" fill="#50DDFC" transform="translate(0,0)"/>
<path d="" fill="#52E0FD" transform="translate(0,0)"/>
<path d="" fill="#50DEFC" transform="translate(0,0)"/>
<path d="" fill="#4FDFFE" transform="translate(0,0)"/>
<path d="" fill="#52E0FF" transform="translate(0,0)"/>
<path d="" fill="#52D8F6" transform="translate(0,0)"/>
<path d="" fill="#50DEFE" transform="translate(0,0)"/>
<path d="" fill="#51DFFD" transform="translate(0,0)"/>
<path d="" fill="#50E0FB" transform="translate(0,0)"/>
<path d="" fill="#4FE2FE" transform="translate(0,0)"/>
<path d="" fill="#4FDCFD" transform="translate(0,0)"/>
<path d="" fill="#4FE1FE" transform="translate(0,0)"/>
<path d="" fill="#51E0FD" transform="translate(0,0)"/>
<path d="" fill="#51D7F4" transform="translate(0,0)"/>
<path d="" fill="#51D6F3" transform="translate(0,0)"/>
<path d="" fill="#50D7F5" transform="translate(0,0)"/>
<path d="" fill="#50E1FF" transform="translate(0,0)"/>
<path d="" fill="#51E0FD" transform="translate(0,0)"/>
<path d="" fill="#4FDEFE" transform="translate(0,0)"/>
<path d="" fill="#52DCFC" transform="translate(0,0)"/>
<path d="" fill="#52DEFB" transform="translate(0,0)"/>
<path d="" fill="#52D5F1" transform="translate(0,0)"/>
<path d="" fill="#51DFFF" transform="translate(0,0)"/>
<path d="" fill="#51DDFA" transform="translate(0,0)"/>
<path d="" fill="#50DFFE" transform="translate(0,0)"/>
<path d="" fill="#50DFFD" transform="translate(0,0)"/>
<path d="" fill="#4FDEFC" transform="translate(0,0)"/>
<path d="" fill="#50E0FE" transform="translate(0,0)"/>
<path d="" fill="#50E0FD" transform="translate(0,0)"/>
<path d="" fill="#4DDEFF" transform="translate(0,0)"/>
<path d="" fill="#4CDCFF" transform="translate(0,0)"/>
<path d="" fill="#4DDCFD" transform="translate(0,0)"/>
<path d="" fill="#4FE0FC" transform="translate(0,0)"/>
<path d="" fill="#4CDBFC" transform="translate(0,0)"/>
<path d="" fill="#51DEFE" transform="translate(0,0)"/>
<path d="" fill="#50E0FD" transform="translate(0,0)"/>
<path d="" fill="#53DEFD" transform="translate(0,0)"/>
<path d="" fill="#50E0FF" transform="translate(0,0)"/>
<path d="" fill="#51DEFD" transform="translate(0,0)"/>
<path d="" fill="#50DDFD" transform="translate(0,0)"/>
<path d="" fill="#50DCFA" transform="translate(0,0)"/>
<path d="" fill="#4FDEFC" transform="translate(0,0)"/>
<path d="" fill="#52DBFA" transform="translate(0,0)"/>
<path d="" fill="#51DCFB" transform="translate(0,0)"/>
<path d="" fill="#4FDFFF" transform="translate(0,0)"/>
<path d="" fill="#51D7F1" transform="translate(0,0)"/>
<path d="" fill="#53DDFA" transform="translate(0,0)"/>
<path d="" fill="#53DDFC" transform="translate(0,0)"/>
<path d="" fill="#52DEFC" transform="translate(0,0)"/>
<path d="" fill="#51DEFC" transform="translate(0,0)"/>
<path d="" fill="#4EDEFB" transform="translate(0,0)"/>
<path d="" fill="#50DEFE" transform="translate(0,0)"/>
<path d="" fill="#51E0FB" transform="translate(0,0)"/>
<path d="" fill="#4EDEFA" transform="translate(0,0)"/>
<path d="" fill="#50DDFB" transform="translate(0,0)"/>
<path d="" fill="#4EDCFD" transform="translate(0,0)"/>
<path d="" fill="#50DDFD" transform="translate(0,0)"/>
<path d="" fill="#51DDFC" transform="translate(0,0)"/>
<path d="" fill="#50DDFA" transform="translate(0,0)"/>
<path d="" fill="#51DDFA" transform="translate(0,0)"/>
<path d="" fill="#4FD4F5" transform="translate(0,0)"/>
<path d="" fill="#50DFFE" transform="translate(0,0)"/>
<path d="" fill="#4FDDFB" transform="translate(0,0)"/>
<path d="" fill="#4EE0FC" transform="translate(0,0)"/>
<path d="" fill="#4DDDFC" transform="translate(0,0)"/>
<path d="" fill="#53DEFE" transform="translate(0,0)"/>
<path d="" fill="#50E0FC" transform="translate(0,0)"/>
<path d="" fill="#52DEFD" transform="translate(0,0)"/>
<path d="" fill="#4EDEFD" transform="translate(0,0)"/>
<path d="" fill="#4FDDFC" transform="translate(0,0)"/>
<path d="" fill="#50E0FD" transform="translate(0,0)"/>
<path d="" fill="#4BDFFC" transform="translate(0,0)"/>
<path d="" fill="#4FDFFE" transform="translate(0,0)"/>
<path d="" fill="#4FDFFD" transform="translate(0,0)"/>
<path d="" fill="#4FDEFD" transform="translate(0,0)"/>
<path d="" fill="#51E0FE" transform="translate(0,0)"/>
<path d="" fill="#52DCF9" transform="translate(0,0)"/>
<path d="" fill="#50E0FD" transform="translate(0,0)"/>
<path d="" fill="#4EDEFD" transform="translate(0,0)"/>
<path d="" fill="#50E0FD" transform="translate(0,0)"/>
<path d="" fill="#4FDEFE" transform="translate(0,0)"/>
<path d="" fill="#53DEFE" transform="translate(0,0)"/>
<path d="" fill="#51DBF9" transform="translate(0,0)"/>
<path d="" fill="#52DBFA" transform="translate(0,0)"/>
<path d="" fill="#50DAF9" transform="translate(0,0)"/>
<path d="" fill="#51DBF9" transform="translate(0,0)"/>
<path d="" fill="#53DDFA" transform="translate(0,0)"/>
<path d="" fill="#53DEFB" transform="translate(0,0)"/>
<path d="" fill="#51DEF9" transform="translate(0,0)"/>
<path d="" fill="#53DDFB" transform="translate(0,0)"/>
<path d="" fill="#52DEFC" transform="translate(0,0)"/>
<path d="" fill="#50DEFB" transform="translate(0,0)"/>
<path d="" fill="#52DDFC" transform="translate(0,0)"/>
<path d="" fill="#51DDFD" transform="translate(0,0)"/>
<path d="" fill="#4FDFFE" transform="translate(0,0)"/>
<path d="" fill="#4EDDF9" transform="translate(0,0)"/>
<path d="" fill="#4FDDFA" transform="translate(0,0)"/>
<path d="" fill="#51E2FE" transform="translate(0,0)"/>
<path d="" fill="#52E0FE" transform="translate(0,0)"/>
<path d="" fill="#4FE0FF" transform="translate(0,0)"/>
<path d="" fill="#50DFFE" transform="translate(0,0)"/>
<path d="" fill="#50E0FE" transform="translate(0,0)"/>
<path d="" fill="#4CDEF9" transform="translate(0,0)"/>
<path d="" fill="#51DEFE" transform="translate(0,0)"/>
<path d="" fill="#51DEFC" transform="translate(0,0)"/>
<path d="" fill="#52E0FC" transform="translate(0,0)"/>
<path d="" fill="#51DDFC" transform="translate(0,0)"/>
<path d="" fill="#4DE0FF" transform="translate(0,0)"/>
<path d="" fill="#50DEFC" transform="translate(0,0)"/>
<path d="" fill="#50D9F7" transform="translate(0,0)"/>
<path d="" fill="#53DEFB" transform="translate(0,0)"/>
<path d="" fill="#52DDFC" transform="translate(0,0)"/>
<path d="" fill="#4FDAF8" transform="translate(0,0)"/>
<path d="" fill="#52DEFE" transform="translate(0,0)"/>
<path d="" fill="#51DDFC" transform="translate(0,0)"/>
<path d="" fill="#53D8F7" transform="translate(0,0)"/>
<path d="" fill="#4DDEFD" transform="translate(0,0)"/>
<path d="" fill="#51DDFC" transform="translate(0,0)"/>
<path d="" fill="#52D9F9" transform="translate(0,0)"/>
<path d="" fill="#51D6F7" transform="translate(0,0)"/>
<path d="" fill="#4DD9F8" transform="translate(0,0)"/>
<path d="" fill="#50E0FB" transform="translate(0,0)"/>
<path d="" fill="#4FDDFA" transform="translate(0,0)"/>
<path d="" fill="#53D5F5" transform="translate(0,0)"/>
<path d="" fill="#4EE0FD" transform="translate(0,0)"/>
<path d="" fill="#4FD7F5" transform="translate(0,0)"/>
<path d="" fill="#51D6F6" transform="translate(0,0)"/>
<path d="" fill="#53DDFD" transform="translate(0,0)"/>
<path d="" fill="#50D6F4" transform="translate(0,0)"/>
<path d="" fill="#53DCFD" transform="translate(0,0)"/>
<path d="" fill="#50D6F6" transform="translate(0,0)"/>
<path d="" fill="#4FDCFB" transform="translate(0,0)"/>
<path d="" fill="#52DEFC" transform="translate(0,0)"/>
<path d="" fill="#52DDFA" transform="translate(0,0)"/>
<path d="" fill="#52DFFA" transform="translate(0,0)"/>
<path d="" fill="#53DEFA" transform="translate(0,0)"/>
<path d="" fill="#4FDCFA" transform="translate(0,0)"/>
<path d="" fill="#4EDAFB" transform="translate(0,0)"/>
<path d="" fill="#4FDAF9" transform="translate(0,0)"/>
<path d="" fill="#50DBF8" transform="translate(0,0)"/>
<path d="" fill="#4FDBF5" transform="translate(0,0)"/>
<path d="" fill="#4ED8F7" transform="translate(0,0)"/>
<path d="" fill="#51D4F3" transform="translate(0,0)"/>
<path d="" fill="#54D6F3" transform="translate(0,0)"/>
<path d="" fill="#4DDAFA" transform="translate(0,0)"/>
<path d="" fill="#50DBFC" transform="translate(0,0)"/>
<path d="" fill="#4FDCFB" transform="translate(0,0)"/>
<path d="" fill="#4CD4F5" transform="translate(0,0)"/>
<path d="" fill="#4FDBFB" transform="translate(0,0)"/>
<path d="" fill="#4DDCFE" transform="translate(0,0)"/>
<path d="" fill="#51DAFA" transform="translate(0,0)"/>
<path d="" fill="#4FD6F3" transform="translate(0,0)"/>
<path d="" fill="#4FDAF8" transform="translate(0,0)"/>
<path d="" fill="#4FDAF9" transform="translate(0,0)"/>
<path d="" fill="#50DFFE" transform="translate(0,0)"/>
<path d="" fill="#51DDFD" transform="translate(0,0)"/>
<path d="" fill="#4EDCFA" transform="translate(0,0)"/>
<path d="" fill="#50DBFC" transform="translate(0,0)"/>
<path d="" fill="#52D6F8" transform="translate(0,0)"/>
<path d="" fill="#4FD3F1" transform="translate(0,0)"/>
<path d="" fill="#4ED7F4" transform="translate(0,0)"/>
<path d="" fill="#4FD4F2" transform="translate(0,0)"/>
<path d="" fill="#4FCFED" transform="translate(0,0)"/>
<path d="" fill="#50D1F0" transform="translate(0,0)"/>
<path d="" fill="#4ED0EF" transform="translate(0,0)"/>
<path d="" fill="#51D5F1" transform="translate(0,0)"/>
<path d="" fill="#50D1EC" transform="translate(0,0)"/>
<path d="" fill="#4FD0EF" transform="translate(0,0)"/>
</svg>
