<?xml version="1.0" encoding="UTF-8"?>
<svg version="1.1" xmlns="http://www.w3.org/2000/svg" width="1024" height="1024">
<path d="M0 0 C337.92 0 675.84 0 1024 0 C1024 337.92 1024 675.84 1024 1024 C686.08 1024 348.16 1024 0 1024 C0 686.08 0 348.16 0 0 Z " fill="#FDFDFE" transform="translate(0,0)"/>
<path d="M0 0 C0.76554199 0.21430664 1.53108398 0.42861328 2.31982422 0.64941406 C23.57619876 6.7633472 42.53490753 17.5273888 58.62890625 32.76953125 C60.53358599 34.56124811 62.46799542 36.24442996 64.4609375 37.93359375 C68.20547234 41.19336254 71.68960231 44.6584025 75.16015625 48.203125 C75.71701614 48.77020676 76.27387604 49.33728851 76.84761047 49.92155457 C79.16224473 52.28122086 81.47514355 54.64226262 83.7722168 57.01904297 C94.2530176 67.84404331 105.6418518 78.39800459 119.625 84.5 C120.3368042 84.81839844 121.0486084 85.13679687 121.78198242 85.46484375 C142.27339074 94.33395032 164.89423049 92.67214272 185.4375 84.6875 C194.89466705 80.40181411 202.88982766 74.50358921 210.78515625 67.8203125 C213 66 213 66 215 65 C214.50545374 70.36445323 213.12498482 74.45778074 210.5 79.1875 C210.14397705 79.83823486 209.7879541 80.48896973 209.42114258 81.15942383 C191.91452314 112.36156816 158.94121846 138.16991754 124.60546875 148.078125 C123.41566406 148.38234375 122.22585938 148.6865625 121 149 C120.34596191 149.18884766 119.69192383 149.37769531 119.01806641 149.57226562 C98.64277391 155.4114393 75.17739181 155.65985808 55 149 C53.85789062 148.66097656 52.71578125 148.32195312 51.5390625 147.97265625 C26.69801096 139.98600238 7.37076239 123.94531125 -11 106 C-11.8353125 105.19304687 -12.670625 104.38609375 -13.53125 103.5546875 C-16.57712758 100.56738449 -19.43781691 97.51109757 -22.1875 94.25 C-38.59443095 75.31892583 -62.01220302 57.87143977 -87.68701172 55.78125 C-111.45629376 54.48790359 -131.97628523 60.01607484 -150 76 C-150.64324219 76.51304687 -151.28648437 77.02609375 -151.94921875 77.5546875 C-155.94262668 80.75980884 -158.84840413 84.23300769 -161.73828125 88.4609375 C-162.15464844 88.96882812 -162.57101562 89.47671875 -163 90 C-163.66 90 -164.32 90 -165 90 C-163.15337258 83.95433677 -160.92751261 78.38072314 -157.9375 72.8125 C-157.3504126 71.71675659 -157.3504126 71.71675659 -156.75146484 70.59887695 C-150.40964228 59.03001514 -142.58155183 48.93311884 -133.42089844 39.47216797 C-131.98663861 37.9861565 -130.57542224 36.48039917 -129.1640625 34.97265625 C-112.18812657 17.11608288 -91.64848775 5.54385371 -68 -1 C-67.30922363 -1.19352051 -66.61844727 -1.38704102 -65.90673828 -1.58642578 C-45.32328754 -7.02719148 -20.33337113 -5.80953461 0 0 Z " fill="#13C6DD" transform="translate(428,506)"/>
<path d="M0 0 C4.31187992 3.63274281 8.48903497 7.38829606 12.62890625 11.21484375 C14.27388485 12.67414114 15.91972594 14.13246685 17.56640625 15.58984375 C21.24694332 18.89481581 24.77803701 22.32202436 28.25390625 25.83984375 C31.8815947 29.50304803 35.55571225 33.00370212 39.48046875 36.34375 C41.66925834 38.24998675 43.78500587 40.2246817 45.90014648 42.21191406 C63.98951297 59.11786405 84.73913304 69.90945638 109.90625 69.49609375 C131.52424592 68.59814999 152.81977603 58.88343242 167.62890625 43.21484375 C170.83824285 39.36665438 173.76724848 35.32715195 176.62890625 31.21484375 C178.07749957 35.5606237 176.03570644 38.31322419 174.12890625 42.21484375 C173.75942871 42.98086914 173.38995117 43.74689453 173.00927734 44.53613281 C157.19718229 76.75726172 127.4932293 106.78334711 93.23828125 118.84375 C80.24288765 123.03360307 66.25633052 125.58145643 52.62890625 126.21484375 C50.97761719 126.29412109 50.97761719 126.29412109 49.29296875 126.375 C15.10312887 127.21334362 -16.33442867 113.6427729 -42.37109375 92.21484375 C-42.92667969 91.76222168 -43.48226562 91.30959961 -44.0546875 90.84326172 C-52.51355253 83.90210121 -60.25957124 76.38517572 -67.93359375 68.58984375 C-78.42323505 57.95635419 -89.07257362 48.24375161 -102.37109375 41.21484375 C-103.57185547 40.55742187 -103.57185547 40.55742187 -104.796875 39.88671875 C-123.60108333 30.41327844 -144.51028736 30.15385997 -164.34765625 36.43359375 C-177.19789209 40.78516153 -188.98935201 47.25897039 -198.734375 56.78125 C-200.37109375 58.21484375 -200.37109375 58.21484375 -202.37109375 58.21484375 C-193.9930358 28.64522746 -166.41575978 5.74403023 -140.74633789 -8.95776367 C-95.7431438 -33.59488148 -40.79153005 -32.2814751 0 0 Z " fill="#13C6DD" transform="translate(592.37109375,387.78515625)"/>
<path d="M0 0 C1.2077558 3.62326739 0.54311128 4.64146369 -1 8 C-1.99 7.01 -2.98 6.02 -4 5 C-2.68 3.35 -1.36 1.7 0 0 Z " fill="#21C5DC" transform="translate(769,419)"/>
</svg>
