<?xml version="1.0" encoding="UTF-8"?>
<svg version="1.1" xmlns="http://www.w3.org/2000/svg" width="1024" height="1024">
<path d="M0 0 C0.64259766 0.01256836 1.28519531 0.02513672 1.94726562 0.03808594 C12.79227435 0.28898557 22.59874635 1.96274868 33 5 C34.2375 5.35707031 35.475 5.71414063 36.75 6.08203125 C41.36372314 7.45687955 45.71442863 8.80534882 50 11 C50.72316406 11.36101807 51.44632813 11.72203613 52.19140625 12.09399414 C63.2055458 17.62714765 73.46531875 23.12732741 83 31 C84.26457031 31.98226563 84.26457031 31.98226563 85.5546875 32.984375 C91.02873899 37.24765498 96.14493873 41.82299615 101.23828125 46.53125 C104.75514049 49.67503365 108.44295918 52.55546513 112.19921875 55.40625 C112.79347656 55.9321875 113.38773438 56.458125 114 57 C114 57.66 114 58.32 114 59 C114.66 59 115.32 59 116 59 C116 59.66 116 60.32 116 61 C116.56203125 61.23332031 117.1240625 61.46664062 117.703125 61.70703125 C120.56734142 63.31937076 122.47252021 65.3193562 124.75 67.6875 C128.31078181 71.31566196 131.89295816 74.80588944 135.765625 78.09765625 C137.48413188 79.56079061 139.17742891 81.05357368 140.859375 82.55859375 C163.20034708 102.35157571 189.29887278 112.17834755 219.20117188 111.18359375 C248.72200874 109.24712574 273.71464886 89.9263951 293 69 C296.13068696 65.42768008 299.08777536 61.75160046 302 58 C302.93802874 56.80538194 303.87687733 55.61140733 304.81640625 54.41796875 C306.25028128 52.59627145 307.6828075 50.77369193 309.1081543 48.9453125 C310.39868896 47.29143273 311.69789354 45.64477904 313 44 C313.44456543 43.42999268 313.88913086 42.85998535 314.34716797 42.27270508 C317.69904307 38.07882205 317.69904307 38.07882205 320.625 37.3125 C323 38 323 38 324.8125 40.5 C325.204375 41.325 325.59625 42.15 326 43 C325.34 43 324.68 43 324 43 C323.96406738 43.72123047 323.92813477 44.44246094 323.89111328 45.18554688 C323.39106208 52.93197598 321.97363035 60.03902095 319.875 67.5 C319.40477417 69.19612427 319.40477417 69.19612427 318.92504883 70.92651367 C309.36343916 104.83111556 294.02508087 133.59462263 272 161 C271.3179248 161.86915039 271.3179248 161.86915039 270.62207031 162.75585938 C269.46011352 164.20809255 268.2348469 165.6092168 267 167 C266.34 167 265.68 167 265 167 C265 167.66 265 168.32 265 169 C263.38745644 170.71908662 261.71002555 172.37785076 260 174 C259.195625 174.76699219 258.39125 175.53398438 257.5625 176.32421875 C229.3770618 202.31841099 194.59965248 220.01213206 155.3984375 218.90625 C107.07648952 216.45629285 68.85823349 191.68648968 32.77880859 161.48339844 C28.90651622 158.25418509 24.96488917 155.11435649 21 152 C20.05640625 151.25878906 19.1128125 150.51757812 18.140625 149.75390625 C-1.60428172 133.03841591 -1.60428172 133.03841591 -24 121 C-24 120.34 -24 119.68 -24 119 C-24.81984375 118.75507813 -25.6396875 118.51015625 -26.484375 118.2578125 C-30.60482052 116.78360866 -34.37087318 114.88560969 -38.25 112.875 C-42.90175128 110.13164934 -42.90175128 110.13164934 -48 109 C-48 108.34 -48 107.68 -48 107 C-48.54817383 106.87955322 -49.09634766 106.75910645 -49.66113281 106.63500977 C-53.54809644 105.77671454 -57.42803085 104.90163372 -61.296875 103.96484375 C-94.6186109 96.1283827 -126.44626152 101.51393126 -156.6328125 117.3125 C-159.72691701 118.21111781 -161.19320375 117.43835822 -164 116 C-163.51389774 110.29934624 -161.93091508 106.3230653 -159.125 101.375 C-158.77308594 100.73304688 -158.42117188 100.09109375 -158.05859375 99.4296875 C-150.28737891 85.33172155 -140.09408541 72.24889763 -129.14453125 60.453125 C-127.79374874 59.04642771 -127.79374874 59.04642771 -128 57 C-127.01 57 -126.02 57 -125 57 C-124.75507813 56.42894531 -124.51015625 55.85789062 -124.2578125 55.26953125 C-110.38972231 30.24667287 -72.00166916 12.3200977 -45.8828125 4.73828125 C-42.25392025 3.8089308 -38.61527634 3.04064577 -34.92578125 2.39453125 C-32.92794603 2.07172419 -32.92794603 2.07172419 -31 1 C-28.22399091 0.76104491 -25.46881868 0.57510774 -22.6875 0.4375 C-21.87224854 0.3957666 -21.05699707 0.3540332 -20.21704102 0.31103516 C-13.47041687 -0.0140554 -6.75418715 -0.17440389 0 0 Z " fill="#30D0E6" transform="translate(464,343)"/>
<path d="M0 0 C2.84788185 1.05297111 5.44634228 1.79363514 8.43359375 2.26953125 C8.43359375 2.92953125 8.43359375 3.58953125 8.43359375 4.26953125 C11.31942776 5.27621753 14.02667718 6.21140031 17.05859375 6.64453125 C19.43359375 7.26953125 19.43359375 7.26953125 21.171875 9.04296875 C23.85027049 11.67973115 26.81773254 13.55869093 29.99609375 15.51953125 C40.71634236 22.29284228 50.57174692 29.93306014 60.37109375 37.9609375 C64.70074594 41.50141592 69.09656833 44.95282793 73.50634766 48.39257812 C76.92715203 51.06693671 80.28831728 53.79788106 83.62109375 56.58203125 C118.81785689 85.36539003 157.33354559 106.02648218 203.99560547 102.05126953 C225.67094814 99.60855415 246.18291921 91.58182916 265.21142578 81.10742188 C267.76851052 80.14324754 268.91088667 80.33386243 271.43359375 81.26953125 C272.1171875 82.94921875 272.1171875 82.94921875 272.43359375 85.26953125 C267.23429357 96.30262248 258.02295035 105.77241232 249.8359375 114.640625 C247.07606236 117.66078105 244.42809998 120.7641019 241.80859375 123.90625 C240.43359375 125.26953125 240.43359375 125.26953125 238.43359375 125.26953125 C238.43359375 125.92953125 238.43359375 126.58953125 238.43359375 127.26953125 C237 128.71484375 237 128.71484375 234.99609375 130.39453125 C232.06064071 132.87994968 229.19594907 135.40949383 226.37109375 138.01953125 C194.85947434 166.00575434 154.47229261 182.80457284 112.24609375 182.58203125 C111.16350784 182.57929703 111.16350784 182.57929703 110.05905151 182.57650757 C98.6267734 182.52803561 87.58997436 181.9024889 76.43359375 179.26953125 C75.70253418 179.10324219 74.97147461 178.93695312 74.21826172 178.765625 C48.79937479 172.82740352 25.45128671 160.66865176 4.73681641 145.00341797 C2.35215368 143.20822243 -0.05101368 141.440804 -2.4609375 139.6796875 C-9.56673799 134.48466095 -16.62970292 129.25103553 -23.56640625 123.83203125 C-29.03884982 119.60394985 -34.64425841 115.83475375 -40.56640625 112.26953125 C-41.24348633 111.85606445 -41.92056641 111.44259766 -42.61816406 111.01660156 C-44.88700061 109.63311634 -47.16298476 108.26216612 -49.44140625 106.89453125 C-50.1674707 106.45302734 -50.89353516 106.01152344 -51.64160156 105.55664062 C-55.26059282 103.41043606 -58.29760062 101.72152243 -62.56640625 101.26953125 C-62.56640625 100.60953125 -62.56640625 99.94953125 -62.56640625 99.26953125 C-64.87104298 98.56858183 -67.17762452 97.87624626 -69.48828125 97.1953125 C-71.54918297 96.57547277 -73.60158113 95.92666241 -75.64453125 95.25 C-99.89651326 87.57786825 -126.51026275 88.64728115 -149.40332031 100.02172852 C-158.09563391 104.55535354 -166.39758348 110.01060424 -173.27734375 117.0390625 C-175.56640625 119.26953125 -175.56640625 119.26953125 -177.56640625 119.26953125 C-177.56640625 119.92953125 -177.56640625 120.58953125 -177.56640625 121.26953125 C-178.22640625 121.26953125 -178.88640625 121.26953125 -179.56640625 121.26953125 C-179.56640625 121.92953125 -179.56640625 122.58953125 -179.56640625 123.26953125 C-180.22640625 123.26953125 -180.88640625 123.26953125 -181.56640625 123.26953125 C-181.79328125 123.84703125 -182.02015625 124.42453125 -182.25390625 125.01953125 C-183.95345172 127.93303777 -185.74547823 129.43264789 -188.56640625 131.26953125 C-191.37890625 131.51953125 -191.37890625 131.51953125 -193.56640625 131.26953125 C-195.59661554 127.88815878 -195.64941954 125.63409816 -194.765625 121.92578125 C-194.28278595 120.20099444 -193.77736143 118.48242872 -193.25390625 116.76953125 C-192.97973877 115.8475293 -192.70557129 114.92552734 -192.4230957 113.97558594 C-183.11105188 83.79401524 -167.09437687 54.54798321 -144.56640625 32.26953125 C-143.81101562 31.47933594 -143.055625 30.68914063 -142.27734375 29.875 C-105.81080063 -7.87214078 -48.43639446 -18.81322508 0 0 Z " fill="#2ECEE5" transform="translate(418.56640625,520.73046875)"/>
<path d="M0 0 C4.13211732 1.37981893 6.6669732 3.26200362 9.8125 6.25 C13.30357487 9.48001208 16.80161693 12.44231749 20.64453125 15.234375 C23.14518612 17.1088294 25.56586798 19.06336567 27.99072266 21.03417969 C48.44940027 37.62802807 69.5481039 51.97499101 94 62 C94.71720215 62.29511475 95.4344043 62.59022949 96.17333984 62.89428711 C99.95185868 64.38730402 103.31731272 65.36409573 107.375 65.5625 C111.78792822 65.78792822 111.78792822 65.78792822 114 68 C116.57456014 68.62062638 119.0805281 69.13019094 121.6875 69.5625 C122.45497559 69.69108398 123.22245117 69.81966797 124.01318359 69.95214844 C139.13093859 72.37972602 153.77185605 71.87522631 169 71 C164.56817957 75.43182043 155.02539422 74.80883123 149 75 C97.93620817 74.50510148 57.76951565 49.28742705 19.80078125 17.50097656 C13.82688973 12.52165375 7.7474196 7.71853007 1.3984375 3.2265625 C0.93695313 2.82179688 0.47546875 2.41703125 0 2 C0 1.34 0 0.68 0 0 Z " fill="#22C6DE" transform="translate(477,487)"/>
<path d="M0 0 C0.495 0.99 0.495 0.99 1 2 C0.34 2.99 -0.32 3.98 -1 5 C-1.66 5 -2.32 5 -3 5 C-3 5.66 -3 6.32 -3 7 C-4.61254356 8.71908662 -6.28997445 10.37785076 -8 12 C-8.804375 12.76699219 -9.60875 13.53398438 -10.4375 14.32421875 C-28.02346979 30.54298662 -47.64313294 43.59015578 -70.5625 50.9375 C-71.21726318 51.14922852 -71.87202637 51.36095703 -72.54663086 51.57910156 C-76.4660111 52.76486433 -79.91379082 53.20777335 -84 53 C-84 52.34 -84 51.68 -84 51 C-81.69 51 -79.38 51 -77 51 C-77 50.34 -77 49.68 -77 49 C-75.25976562 48.56300781 -75.25976562 48.56300781 -73.484375 48.1171875 C-64.0507311 45.67274007 -55.5035859 42.88556238 -47 38 C-46.03707031 37.45730469 -45.07414063 36.91460938 -44.08203125 36.35546875 C-39.30008353 33.92571789 -39.30008353 33.92571789 -36 30 C-34.33372717 29.33234959 -32.66699682 28.66584068 -31 28 C-19.67013374 20.22069042 -9.56033928 9.82028808 0 0 Z " fill="#1FC3DD" transform="translate(732,505)"/>
<path d="M0 0 C0.495 1.485 0.495 1.485 1 3 C0.52691406 3.4125 0.05382812 3.825 -0.43359375 4.25 C-1.09488281 4.8275 -1.75617187 5.405 -2.4375 6 C-3.17742188 6.64453125 -3.91734375 7.2890625 -4.6796875 7.953125 C-6.13707036 9.23876241 -7.58191977 10.53889847 -9.0078125 11.859375 C-19.64213833 21.64457215 -31.57190234 29.68429154 -44 37 C-45.11761719 37.68255859 -45.11761719 37.68255859 -46.2578125 38.37890625 C-49.07503031 40.07041569 -50.6503333 41 -54 41 C-54 40.34 -54 39.68 -54 39 C-52.02 38.505 -52.02 38.505 -50 38 C-50 37.34 -50 36.68 -50 36 C-49.47792969 35.79246094 -48.95585938 35.58492187 -48.41796875 35.37109375 C-40.07512284 31.87907944 -25.231581 25.463162 -21 17 C-20.25621094 16.55398438 -19.51242187 16.10796875 -18.74609375 15.6484375 C-15.83059836 13.89831082 -13.55520763 11.93262507 -11.0625 9.625 C-7.44756531 6.31266074 -3.79860025 3.0988581 0 0 Z " fill="#22C4DC" transform="translate(656,645)"/>
<path d="M0 0 C3.24689614 1.26544229 6.39382545 2.63230326 9.51953125 4.171875 C24.68992327 11.57073261 39.67365498 17.6633146 56 22 C56 22.33 56 22.66 56 23 C37.08807713 22.38993797 15.53194368 12.40013005 0 2 C0 1.34 0 0.68 0 0 Z " fill="#22C2DB" transform="translate(441,676)"/>
<path d="M0 0 C0.81322429 2.32632023 1.15052464 3.57077424 0.32250977 5.93188477 C-0.05075439 6.59502686 -0.42401855 7.25816895 -0.80859375 7.94140625 C-1.4281897 9.05563965 -1.4281897 9.05563965 -2.06030273 10.19238281 C-2.51477783 10.97452148 -2.96925293 11.75666016 -3.4375 12.5625 C-3.89906494 13.37170898 -4.36062988 14.18091797 -4.83618164 15.01464844 C-8.49592023 21.33687687 -12.492391 27.24891265 -17 33 C-17.957943 34.25842106 -18.91490796 35.517587 -19.87109375 36.77734375 C-20.87130896 38.08156342 -21.87260334 39.3849562 -22.875 40.6875 C-23.59030884 41.62577637 -23.59030884 41.62577637 -24.32006836 42.58300781 C-25.4994822 44.09343688 -26.7445189 45.55218089 -28 47 C-28.66 47 -29.32 47 -30 47 C-28.13749008 42.90247817 -25.46991368 39.70006269 -22.65625 36.21875 C-21.14776007 34.19794274 -20.1028777 32.253916 -19 30 C-18.401875 29.4225 -17.80375 28.845 -17.1875 28.25 C-13.8751276 24.84298839 -10.55831383 20.59592071 -9.54296875 15.875 C-9 14 -9 14 -6 12 C-4.78715124 8.94570927 -4.78715124 8.94570927 -4 6 C-3.34 6 -2.68 6 -2 6 C-1.34 4.02 -0.68 2.04 0 0 Z " fill="#21C4DC" transform="translate(764,457)"/>
<path d="M0 0 C6.07499022 1.05382483 12.10504231 2.22763982 18.125 3.5625 C22.19625533 4.45826575 26.1605843 5.19285409 30.3125 5.5625 C31.529375 5.706875 32.74625 5.85125 34 6 C34.495 6.99 34.495 6.99 35 8 C28.87315453 8.09971358 23.06773468 7.95180152 17 7 C15.0003305 6.96364237 12.99940538 6.95123402 11 7 C11 6.01 11 5.02 11 4 C9.1128125 3.8453125 9.1128125 3.8453125 7.1875 3.6875 C3.71253432 3.40266675 2.26650978 2.66690268 0 0 Z " fill="#28C8DF" transform="translate(565,617)"/>
<path d="M0 0 C-0.33 0.66 -0.66 1.32 -1 2 C-11.14429345 4.50514564 -21.63486322 4.22587465 -32 4 C-31.67 3.34 -31.34 2.68 -31 2 C-28.57910156 1.58935547 -28.57910156 1.58935547 -25.390625 1.3671875 C-24.24335937 1.28339844 -23.09609375 1.19960938 -21.9140625 1.11328125 C-20.70492187 1.03464844 -19.49578125 0.95601562 -18.25 0.875 C-17.05632813 0.78863281 -15.86265625 0.70226562 -14.6328125 0.61328125 C-9.74611165 0.26891643 -4.90071901 -0.05314578 0 0 Z " fill="#21C2DB" transform="translate(562,699)"/>
<path d="M0 0 C-1 3 -1 3 -2.94604492 3.9831543 C-3.78240479 4.26070557 -4.61876465 4.53825684 -5.48046875 4.82421875 C-6.39763672 5.13037109 -7.31480469 5.43652344 -8.25976562 5.75195312 C-9.22591797 6.06068359 -10.19207031 6.36941406 -11.1875 6.6875 C-12.60772461 7.16799805 -12.60772461 7.16799805 -14.05664062 7.65820312 C-18.81682819 9.21614309 -22.92457949 10.45209628 -28 10 C-27.67 9.34 -27.34 8.68 -27 8 C-24.12803104 7.1028798 -21.28743205 6.30322091 -18.375 5.5625 C-11.58500168 3.81853314 -11.58500168 3.81853314 -5.0390625 1.33984375 C-2 0 -2 0 0 0 Z " fill="#20C1DA" transform="translate(592,689)"/>
<path d="M0 0 C9.04499008 5.50973408 17.51853837 11.67038019 26 18 C25.01 18.33 24.02 18.66 23 19 C21.1940918 18.09130859 21.1940918 18.09130859 19.19921875 16.6484375 C18.46896484 16.12636719 17.73871094 15.60429688 16.98632812 15.06640625 C16.22771484 14.50824219 15.46910156 13.95007813 14.6875 13.375 C13.94048828 12.84003906 13.19347656 12.30507813 12.42382812 11.75390625 C8.14257725 8.66418876 3.91423829 5.54708398 0 2 C0 1.34 0 0.68 0 0 Z " fill="#20C4DE" transform="translate(412,655)"/>
<path d="M0 0 C3.66910998 0.568225 5.24478235 1.94379598 7.75 4.625 C11.09641509 8.10902468 14.56592704 11.32100463 18.23828125 14.45703125 C19.89815811 15.91080366 21.45933981 17.42141586 23 19 C22.67 19.66 22.34 20.32 22 21 C21.15695312 20.21753906 20.31390625 19.43507813 19.4453125 18.62890625 C18.33865166 17.60665175 17.23187479 16.58452284 16.125 15.5625 C15.56941406 15.04623047 15.01382813 14.52996094 14.44140625 13.99804688 C11.45250685 11.17895264 11.45250685 11.17895264 8 9 C8 8.34 8 7.68 8 7 C7.4225 6.773125 6.845 6.54625 6.25 6.3125 C3.4336339 4.66961977 1.91922886 2.60466773 0 0 Z " fill="#27C9E2" transform="translate(582,407)"/>
<path d="M0 0 C9.61960083 1.76073051 18.04918223 12.49610452 25 19 C24.67 19.66 24.34 20.32 24 21 C23.154375 20.20335937 22.30875 19.40671875 21.4375 18.5859375 C11.75052295 8.71682099 11.75052295 8.71682099 0 2 C0 1.34 0 0.68 0 0 Z " fill="#26C8E0" transform="translate(544,374)"/>
<path d="M0 0 C0.66 0.33 1.32 0.66 2 1 C-3.9236496 7.85369121 -10.14630879 14.0763504 -17 20 C-17.33 19.01 -17.66 18.02 -18 17 C-17.30777344 16.41605469 -17.30777344 16.41605469 -16.6015625 15.8203125 C-10.77863353 10.8259426 -5.37292078 5.47201153 0 0 Z " fill="#20C7DF" transform="translate(757,412)"/>
<path d="M0 0 C0 4.00528995 -1.42567592 5.04027832 -4 8.0625 C-4.81339844 9.02929688 -5.62679687 9.99609375 -6.46484375 10.9921875 C-7.71974609 12.48105469 -7.71974609 12.48105469 -9 14 C-10.52714591 15.89075208 -12.04850365 17.78620226 -13.5625 19.6875 C-14.22378906 20.51636719 -14.88507812 21.34523438 -15.56640625 22.19921875 C-16.03949219 22.79347656 -16.51257813 23.38773437 -17 24 C-17.33 23.01 -17.66 22.02 -18 21 C-16.54660705 18.96041529 -15.09953456 17.16865138 -13.4375 15.3125 C-12.5074846 14.24099591 -11.57909819 13.16807577 -10.65234375 12.09375 C-9.96954346 11.30677734 -9.96954346 11.30677734 -9.27294922 10.50390625 C-7.08558634 7.91968007 -5.11912091 5.18178895 -3.15625 2.42578125 C-2 1 -2 1 0 0 Z " fill="#25C7E0" transform="translate(779,386)"/>
<path d="M0 0 C-20.47572816 12 -20.47572816 12 -26 12 C-26 11.34 -26 10.68 -26 10 C-25.26136719 9.70867187 -24.52273438 9.41734375 -23.76171875 9.1171875 C-17.2990757 6.5058527 -11.2667128 3.60981703 -5.27734375 0.0390625 C-3 -1 -3 -1 0 0 Z " fill="#20C7E0" transform="translate(729,440)"/>
<path d="M0 0 C0.33 0 0.66 0 1 0 C0.51414599 6.66314077 -1.3596971 11.92219451 -4.0625 18 C-4.43955078 18.87011719 -4.81660156 19.74023438 -5.20507812 20.63671875 C-6.12759278 22.76200567 -7.05930355 24.8827138 -8 27 C-8.66 27 -9.32 27 -10 27 C-7.97607539 20.72555221 -5.73023007 14.57015561 -3.3125 8.4375 C-2.83200195 7.21063477 -2.83200195 7.21063477 -2.34179688 5.95898438 C-1.56321746 3.97186378 -0.78190155 1.98581573 0 0 Z " fill="#20C4DD" transform="translate(776,428)"/>
<path d="M0 0 C0 3.65885288 -0.70804036 4.13424282 -3.125 6.75 C-3.75792969 7.44609375 -4.39085937 8.1421875 -5.04296875 8.859375 C-5.68878906 9.56578125 -6.33460938 10.2721875 -7 11 C-8.15130034 12.32861557 -9.29764388 13.6615532 -10.4375 15 C-11.283125 15.99 -12.12875 16.98 -13 18 C-13.99 17.67 -14.98 17.34 -16 17 C-15.25556641 16.27296875 -15.25556641 16.27296875 -14.49609375 15.53125 C-10.26188493 11.35328304 -6.22406871 7.07858568 -2.34765625 2.56640625 C-1.59150381 1.68751602 -0.81982149 0.81982149 0 0 Z " fill="#21C5DD" transform="translate(674,626)"/>
<path d="M0 0 C4.77295598 0.68587753 8.87632791 2.50631925 13.25 4.4375 C13.9821875 4.75009766 14.714375 5.06269531 15.46875 5.38476562 C20.87660233 7.75320465 20.87660233 7.75320465 22 10 C13.66519805 8.72858953 7.21818942 5.17249281 0 1 C0 0.67 0 0.34 0 0 Z " fill="#21C7E0" transform="translate(542,607)"/>
<path d="M0 0 C1.60407328 -0.02708567 3.2082785 -0.04643483 4.8125 -0.0625 C5.70582031 -0.07410156 6.59914063 -0.08570313 7.51953125 -0.09765625 C10 0 10 0 13 1 C14.33363703 1.14403348 15.67218046 1.24590423 17.01171875 1.31640625 C18.14770508 1.37924805 18.14770508 1.37924805 19.30664062 1.44335938 C20.48516602 1.50233398 20.48516602 1.50233398 21.6875 1.5625 C22.88342773 1.62727539 22.88342773 1.62727539 24.10351562 1.69335938 C26.06881447 1.79927368 28.03438496 1.90012551 30 2 C30 2.33 30 2.66 30 3 C26.50007197 3.05869332 23.0002728 3.09382709 19.5 3.125 C18.02660156 3.15013672 18.02660156 3.15013672 16.5234375 3.17578125 C10.64081335 3.21499874 5.63635497 2.70432638 0 1 C0 0.67 0 0.34 0 0 Z " fill="#1EC7DF" transform="translate(654,454)"/>
<path d="M0 0 C4.57589291 0.56013755 7.98076192 2.5239749 11.8125 4.9375 C12.40998047 5.29779297 13.00746094 5.65808594 13.62304688 6.02929688 C15.12129015 6.95906384 16.56628564 7.97351929 18 9 C18 9.66 18 10.32 18 11 C13.28501126 9.64780353 9.67370412 7.69161848 5.625 4.9375 C4.56539062 4.22464844 3.50578125 3.51179687 2.4140625 2.77734375 C1.61742187 2.19082031 0.82078125 1.60429688 0 1 C0 0.67 0 0.34 0 0 Z " fill="#23C8E0" transform="translate(521,594)"/>
<path d="M0 0 C-1.56119422 0.79423861 -3.12401964 1.58527123 -4.6875 2.375 C-5.55761719 2.81585937 -6.42773438 3.25671875 -7.32421875 3.7109375 C-14.15151515 7 -14.15151515 7 -18 7 C-18 6.34 -18 5.68 -18 5 C-15.75564555 3.96483652 -13.50593133 2.94685023 -11.25 1.9375 C-10.29867187 1.49567383 -10.29867187 1.49567383 -9.328125 1.04492188 C-3.48702331 -1.54098252 -3.48702331 -1.54098252 0 0 Z " fill="#22C7DF" transform="translate(673,610)"/>
<path d="M0 0 C3.80133442 1.67923025 6.97082702 4.11462834 10.25 6.625 C10.80429687 7.04523437 11.35859375 7.46546875 11.9296875 7.8984375 C13.28866663 8.92938719 14.64463835 9.96429911 16 11 C15.01 11.33 14.02 11.66 13 12 C10.62828324 10.47300428 8.50340432 8.94164766 6.3125 7.1875 C5.70599609 6.72279297 5.09949219 6.25808594 4.47460938 5.77929688 C2.93817819 4.57469335 1.46346226 3.29227267 0 2 C0 1.34 0 0.68 0 0 Z " fill="#21C5DE" transform="translate(393,641)"/>
<path d="M0 0 C4.42323682 0.58265272 7.5155864 2.26766211 11.3125 4.5625 C12.38113281 5.20316406 13.44976562 5.84382812 14.55078125 6.50390625 C15.35902344 6.99761719 16.16726563 7.49132812 17 8 C14 9 14 9 10.64453125 7.34765625 C9.36110983 6.59622298 8.08393866 5.83403499 6.8125 5.0625 C5.83120117 4.48338867 5.83120117 4.48338867 4.83007812 3.89257812 C3.21464684 2.93746912 1.60659475 1.96989934 0 1 C0 0.67 0 0.34 0 0 Z " fill="#25C7E0" transform="translate(358,620)"/>
<path d="M0 0 C2.5625 0.4375 2.5625 0.4375 4.375 2.9375 C4.766875 3.7625 5.15875 4.5875 5.5625 5.4375 C3.5825 6.0975 1.6025 6.7575 -0.4375 7.4375 C-0.4375 6.1175 -0.4375 4.7975 -0.4375 3.4375 C-1.7575 3.1075 -3.0775 2.7775 -4.4375 2.4375 C-2.4375 0.4375 -2.4375 0.4375 0 0 Z " fill="#40CDDE" transform="translate(784.4375,380.5625)"/>
<path d="M0 0 C4.10686589 0.56445076 6.49914342 2.77152377 9.625 5.375 C10.58664062 6.16648437 11.54828125 6.95796875 12.5390625 7.7734375 C15 10 15 10 17 13 C12.98544787 11.26102321 9.67974734 8.60214985 6.25 5.9375 C5.64800781 5.47794922 5.04601562 5.01839844 4.42578125 4.54492188 C2.92968619 3.38977365 1.46204799 2.19794972 0 1 C0 0.67 0 0.34 0 0 Z " fill="#23C8E1" transform="translate(473,556)"/>
<path d="M0 0 C3.83663072 1.34929464 6.65172569 3.07751025 9.8125 5.625 C10.99779297 6.57246094 10.99779297 6.57246094 12.20703125 7.5390625 C12.79871094 8.02117187 13.39039063 8.50328125 14 9 C13.01 9.33 12.02 9.66 11 10 C8.30078125 8.41796875 8.30078125 8.41796875 5.3125 6.1875 C4.31863281 5.45917969 3.32476563 4.73085938 2.30078125 3.98046875 C1.54152344 3.32691406 0.78226563 2.67335938 0 2 C0 1.34 0 0.68 0 0 Z " fill="#25CBE3" transform="translate(607,429)"/>
<path d="M0 0 C3.53086549 1.30610777 6.55718156 2.84884949 9.6875 4.9375 C10.45449219 5.44152344 11.22148437 5.94554687 12.01171875 6.46484375 C14 8 14 8 16 11 C11.87321179 9.55901911 8.69813572 7.52700506 5.1875 4.9375 C4.21167969 4.22464844 3.23585938 3.51179687 2.23046875 2.77734375 C1.49441406 2.19082031 0.75835937 1.60429688 0 1 C0 0.67 0 0.34 0 0 Z " fill="#22C7E1" transform="translate(376,630)"/>
<path d="M0 0 C2.94956528 1.36944102 5.52468811 2.87830409 8 5 C8 5.66 8 6.32 8 7 C8.66 7 9.32 7 10 7 C10.33 8.32 10.66 9.64 11 11 C10.54109375 10.60167969 10.0821875 10.20335937 9.609375 9.79296875 C5.68325173 6.39984291 5.68325173 6.39984291 1.5625 3.25 C1.046875 2.8375 0.53125 2.425 0 2 C0 1.34 0 0.68 0 0 Z " fill="#28CAE0" transform="translate(570,395)"/>
<path d="M0 0 C4.12751449 0.60698743 7.3321148 2.03810791 11 4 C11 4.99 11 5.98 11 7 C10.34 7 9.68 7 9 7 C9 6.34 9 5.68 9 5 C8.443125 4.896875 7.88625 4.79375 7.3125 4.6875 C4.54289253 3.86410318 2.39747583 2.59831722 0 1 C0 0.67 0 0.34 0 0 Z " fill="#28CAE2" transform="translate(623,441)"/>
<path d="M0 0 C4.37859255 0.50522222 6.81651224 3.17827222 10 6 C9.67 6.66 9.34 7.32 9 8 C7.49712782 6.85793642 5.99776716 5.71125043 4.5 4.5625 C3.6646875 3.92441406 2.829375 3.28632812 1.96875 2.62890625 C1.3190625 2.09136719 0.669375 1.55382812 0 1 C0 0.67 0 0.34 0 0 Z " fill="#1FC7E2" transform="translate(504,581)"/>
<path d="M0 0 C3.21852831 0.63065757 5.50801069 1.78020695 8.25 3.5625 C8.95640625 4.01753906 9.6628125 4.47257813 10.390625 4.94140625 C11.18726563 5.46541016 11.18726563 5.46541016 12 6 C11.34 6.66 10.68 7.32 10 8 C8.33055479 6.85821872 6.6645052 5.71147095 5 4.5625 C4.071875 3.92441406 3.14375 3.28632812 2.1875 2.62890625 C1.465625 2.09136719 0.74375 1.55382812 0 1 C0 0.67 0 0.34 0 0 Z " fill="#20C8E4" transform="translate(453,541)"/>
<path d="M0 0 C0.6875 1.75 0.6875 1.75 1 4 C-0.4375 6.25 -0.4375 6.25 -2 8 C-2 6.02 -2 4.04 -2 2 C-3.32 1.34 -4.64 0.68 -6 0 C-3.50907189 -1.24546405 -2.58919267 -0.7767578 0 0 Z " fill="#3CCCDC" transform="translate(690,602)"/>
<path d="M0 0 C-0.99 0.495 -0.99 0.495 -2 1 C-2 1.66 -2 2.32 -2 3 C-4.64 3 -7.28 3 -10 3 C-8.0130571 -0.97388579 -3.91761109 -0.08705802 0 0 Z " fill="#1DC6DF" transform="translate(698,453)"/>
<path d="M0 0 C0 0.66 0 1.32 0 2 C-4.29 1.67 -8.58 1.34 -13 1 C-13 0.67 -13 0.34 -13 0 C-11.39679026 -0.19551338 -9.79237014 -0.38111983 -8.1875 -0.5625 C-7.29417969 -0.66691406 -6.40085937 -0.77132813 -5.48046875 -0.87890625 C-3 -1 -3 -1 0 0 Z " fill="#2AC9E2" transform="translate(483,345)"/>
<path d="M0 0 C0.33 0.99 0.66 1.98 1 3 C-0.40445835 5.2636564 -2.1967913 7.0208685 -4 9 C-4.66 8.67 -5.32 8.34 -6 8 C-4.02 5.36 -2.04 2.72 0 0 Z " fill="#20C7E0" transform="translate(683,614)"/>
<path d="M0 0 C3.93673644 1.31224548 6.22719294 2.91910327 9 6 C5.21213403 5.4739075 2.82847776 4.61896089 0 2 C0 1.34 0 0.68 0 0 Z " fill="#24C9E4" transform="translate(451,468)"/>
<path d="M0 0 C1.4540625 0.0309375 1.4540625 0.0309375 2.9375 0.0625 C2.9375 1.39583333 2.9375 2.72916667 2.9375 4.0625 C1.2875 4.0625 -0.3625 4.0625 -2.0625 4.0625 C-2.0625 3.4025 -2.0625 2.7425 -2.0625 2.0625 C-2.7225 1.7325 -3.3825 1.4025 -4.0625 1.0625 C-3.0625 0.0625 -3.0625 0.0625 0 0 Z " fill="#3DD3E5" transform="translate(353.0625,439.9375)"/>
<path d="M0 0 C0.33 0 0.66 0 1 0 C1.0825 1.27875 1.165 2.5575 1.25 3.875 C1.45869931 6.05333418 1.45869931 6.05333418 2 8 C3.92064793 9.5899433 3.92064793 9.5899433 6 10 C4.35 10 2.7 10 1 10 C-0.83691257 6.21812119 -1.15837626 4.05431692 0 0 Z " fill="#46CBD8" transform="translate(224,642)"/>
<path d="M0 0 C0.66 0 1.32 0 2 0 C2.103125 0.61875 2.20625 1.2375 2.3125 1.875 C2.87525373 4.36526484 2.87525373 4.36526484 6 6 C5.01 6.33 4.02 6.66 3 7 C2.01 6.34 1.02 5.68 0 5 C-0.1875 2.375 -0.1875 2.375 0 0 Z " fill="#3DCCDF" transform="translate(300,454)"/>
<path d="M0 0 C3 1 3 1 3 1 Z " fill="#67D5DD" transform="translate(400,352)"/>
<path d="M0 0 C3 1 3 1 3 1 Z " fill="#60D3DD" transform="translate(485,344)"/>
<path d="M0 0 C3 1 3 1 3 1 Z " fill="#65D4DD" transform="translate(425,344)"/>
<path d="M0 0 C2 1 2 1 2 1 Z " fill="#50D5E0" transform="translate(643,617)"/>
<path d="M0 0 C2 1 2 1 2 1 Z " fill="#50D6DE" transform="translate(328,613)"/>
<path d="M0 0 C2 1 2 1 2 1 Z " fill="#54D6E2" transform="translate(420,520)"/>
<path d="M0 0 C2 1 2 1 2 1 Z " fill="#57DBE4" transform="translate(396,513)"/>
<path d="M0 0 C2 1 2 1 2 1 Z " fill="#61DCE4" transform="translate(341,513)"/>
<path d="M0 0 C2 1 2 1 2 1 Z " fill="#51D9E7" transform="translate(418,453)"/>
<path d="M0 0 C2 1 2 1 2 1 Z " fill="#4ED6E0" transform="translate(701,449)"/>
<path d="M0 0 C2 1 2 1 2 1 Z " fill="#51D7E6" transform="translate(395,446)"/>
<path d="M0 0 C2 1 2 1 2 1 Z " fill="#6ED4E0" transform="translate(384,360)"/>
<path d="M0 0 C2 1 2 1 2 1 Z " fill="#67D2DA" transform="translate(429,344)"/>
<path d="" fill="#707467" transform="translate(0,0)"/>
<path d="" fill="#4ECBD6" transform="translate(0,0)"/>
<path d="" fill="#51CAD4" transform="translate(0,0)"/>
<path d="" fill="#59CED8" transform="translate(0,0)"/>
<path d="" fill="#53D1DB" transform="translate(0,0)"/>
<path d="" fill="#75C8C6" transform="translate(0,0)"/>
<path d="" fill="#54D1DF" transform="translate(0,0)"/>
<path d="" fill="#69D3D5" transform="translate(0,0)"/>
<path d="" fill="#51D4E1" transform="translate(0,0)"/>
<path d="" fill="#5BD4E0" transform="translate(0,0)"/>
<path d="" fill="#52D3DF" transform="translate(0,0)"/>
<path d="" fill="#54D5E3" transform="translate(0,0)"/>
<path d="" fill="#51D5E3" transform="translate(0,0)"/>
<path d="" fill="#5DD8E1" transform="translate(0,0)"/>
<path d="" fill="#57D8E2" transform="translate(0,0)"/>
<path d="" fill="#51D4E2" transform="translate(0,0)"/>
<path d="" fill="#50D5E3" transform="translate(0,0)"/>
<path d="" fill="#51D0E2" transform="translate(0,0)"/>
<path d="" fill="#4ED5DF" transform="translate(0,0)"/>
<path d="" fill="#65CED4" transform="translate(0,0)"/>
<path d="" fill="#52D8E3" transform="translate(0,0)"/>
<path d="" fill="#4ED5E4" transform="translate(0,0)"/>
<path d="" fill="#4BD7E4" transform="translate(0,0)"/>
<path d="" fill="#50D6E4" transform="translate(0,0)"/>
<path d="" fill="#54D6E6" transform="translate(0,0)"/>
<path d="" fill="#48D4E3" transform="translate(0,0)"/>
<path d="" fill="#64DBE2" transform="translate(0,0)"/>
<path d="" fill="#64DCE1" transform="translate(0,0)"/>
<path d="" fill="#65DBE3" transform="translate(0,0)"/>
<path d="" fill="#63DAE5" transform="translate(0,0)"/>
<path d="" fill="#63DCE6" transform="translate(0,0)"/>
<path d="" fill="#56D9E6" transform="translate(0,0)"/>
<path d="" fill="#59D7E0" transform="translate(0,0)"/>
<path d="" fill="#63DBE3" transform="translate(0,0)"/>
<path d="" fill="#4ED3E1" transform="translate(0,0)"/>
<path d="" fill="#54D3E0" transform="translate(0,0)"/>
<path d="" fill="#4BD6E4" transform="translate(0,0)"/>
<path d="" fill="#4ED5E4" transform="translate(0,0)"/>
<path d="" fill="#4ED7E3" transform="translate(0,0)"/>
<path d="" fill="#58D0D8" transform="translate(0,0)"/>
<path d="" fill="#52D7E6" transform="translate(0,0)"/>
<path d="" fill="#53D7E5" transform="translate(0,0)"/>
<path d="" fill="#51D4E1" transform="translate(0,0)"/>
<path d="" fill="#53D4DF" transform="translate(0,0)"/>
<path d="" fill="#53D1DF" transform="translate(0,0)"/>
<path d="" fill="#59DAE3" transform="translate(0,0)"/>
<path d="" fill="#4ED5E1" transform="translate(0,0)"/>
<path d="" fill="#51D4E1" transform="translate(0,0)"/>
<path d="" fill="#4FD0E0" transform="translate(0,0)"/>
<path d="" fill="#52D5E1" transform="translate(0,0)"/>
<path d="" fill="#55D2DF" transform="translate(0,0)"/>
<path d="" fill="#68D8DE" transform="translate(0,0)"/>
<path d="" fill="#63D6DC" transform="translate(0,0)"/>
<path d="" fill="#68D6DE" transform="translate(0,0)"/>
<path d="" fill="#6CD7DD" transform="translate(0,0)"/>
<path d="" fill="#60D4DC" transform="translate(0,0)"/>
<path d="" fill="#5ED4DC" transform="translate(0,0)"/>
<path d="" fill="#60D2DC" transform="translate(0,0)"/>
<path d="" fill="#64D5DD" transform="translate(0,0)"/>
<path d="" fill="#64D5DC" transform="translate(0,0)"/>
</svg>
