<?xml version="1.0" encoding="UTF-8"?>
<svg version="1.1" xmlns="http://www.w3.org/2000/svg" width="1024" height="1024">
<path d="M0 0 C337.92 0 675.84 0 1024 0 C1024 337.92 1024 675.84 1024 1024 C686.08 1024 348.16 1024 0 1024 C0 686.08 0 348.16 0 0 Z " fill="#E7E8E8" transform="translate(0,0)"/>
<path d="M0 0 C2.36902998 -0.00346031 4.73805835 -0.00822738 7.10708338 -0.01418173 C12.91294406 -0.02536396 18.71868081 -0.02269192 24.52454307 -0.01402944 C31.48543083 -0.00442665 38.44627196 -0.01232197 45.40715744 -0.02066517 C59.04420158 -0.03643286 72.68120347 -0.03510496 86.31825161 -0.02642844 C98.25310205 -0.01887251 110.18793704 -0.01691597 122.12278938 -0.02049637 C122.91541321 -0.02072552 123.70803703 -0.02095468 124.52467976 -0.02119078 C127.74246051 -0.02212484 130.96024126 -0.02308005 134.17802199 -0.02407007 C164.34526664 -0.03324098 194.51248443 -0.02493651 224.67972493 -0.00877938 C251.46126676 0.00545538 278.24276579 0.004184 305.02430725 -0.01016235 C335.13596314 -0.0262388 365.24759531 -0.03258913 395.3592549 -0.02332556 C398.57137747 -0.02236346 401.78350005 -0.02142493 404.99562263 -0.02049637 C406.18192167 -0.02014052 406.18192167 -0.02014052 407.39218635 -0.01977748 C419.31666975 -0.01637011 431.24113597 -0.02034651 443.16561699 -0.02793503 C456.72984231 -0.03652418 470.29401888 -0.03434415 483.85823815 -0.0180928 C490.77650564 -0.01007662 497.69469407 -0.0067129 504.61296082 -0.01704025 C510.95094624 -0.02600531 517.28876479 -0.02102423 523.62673516 -0.0051076 C525.91458829 -0.00176748 528.20245564 -0.00343644 530.49029958 -0.01073496 C552.94668866 -0.07685601 572.57243668 2.01060921 589.62611389 18.38095093 C605.8170188 35.52938247 607.08104008 54.74457176 607.00033569 77.07389832 C607.00307933 79.36883293 607.00713402 81.66376628 607.01237935 83.95869654 C607.02292997 90.23761334 607.01486069 96.51638702 607.00362885 102.7952975 C606.9956774 108.8797871 607.00186521 114.96424824 607.00760542 121.04873753 C607.01950604 134.25323257 607.01446649 147.45767972 607.00232715 160.6621721 C606.99177907 172.21471838 606.98725318 183.76724837 606.98862267 195.31979942 C606.98874871 196.4705304 606.98874871 196.4705304 606.9888773 197.64450847 C606.98922956 200.75880465 606.98961358 203.87310082 606.99004288 206.98739699 C606.99400469 236.17920593 606.98130429 265.37098607 606.96051632 294.56278676 C606.94213874 320.49168403 606.93633666 346.42055371 606.94178772 372.34945679 C606.94213415 374.0151293 606.94248025 375.68080181 606.94282601 377.34647433 C606.9430825 378.58169864 606.9430825 378.58169864 606.94334418 379.84187698 C606.94419774 383.98728338 606.94502152 388.13268979 606.94581318 392.2780962 C606.94597026 393.09594469 606.94612734 393.91379318 606.94628918 394.75642496 C606.95027925 416.43436774 606.94480384 438.11230787 606.93630189 459.79024905 C606.93539486 462.12270922 606.93448921 464.45516939 606.93358666 466.78762956 C606.93298555 468.33486468 606.93237693 469.8820998 606.93176075 471.42933491 C606.92754061 482.21245661 606.92696058 492.9955731 606.92886624 503.77869536 C606.93130926 517.67142792 606.92723644 531.56413251 606.91165624 545.45685742 C606.90431682 552.15563867 606.90033944 558.85437633 606.9048996 565.55316353 C606.90897138 571.68355761 606.90382362 577.81387181 606.89127352 583.94425377 C606.88834208 586.16335977 606.88878365 588.38247329 606.8929166 590.60157738 C606.89802186 593.61614236 606.89083725 596.63043985 606.88058949 599.64498615 C606.88498597 600.50775288 606.88938245 601.37051962 606.89391217 602.2594308 C606.78972387 618.33694604 600.46085037 633.34454933 589.50111389 645.06845093 C575.56854205 658.29017727 558.24359517 663.72916647 539.37855816 663.63542652 C537.91718663 663.64023624 537.91718663 663.64023624 536.42629245 663.64514312 C533.17819725 663.65341107 529.93028799 663.64753004 526.68218994 663.64164734 C524.32328699 663.64466948 521.96438502 663.64855927 519.60548478 663.65323991 C513.81308332 663.66244408 508.02073421 663.66237436 502.22832806 663.65832829 C495.28599134 663.65399347 488.34367875 663.6612678 481.40134652 663.66881957 C467.00923819 663.68404521 452.61714747 663.68576611 438.22503277 663.68329654 C427.10985156 663.68146257 415.99467611 663.68322566 404.87949562 663.68752098 C403.28154197 663.68812339 401.68358831 663.68872458 400.08563465 663.68932458 C397.67755195 663.69023186 395.26946925 663.69114052 392.86138655 663.69205694 C370.47739814 663.70048434 348.09341189 663.70482362 325.70942211 663.70065022 C324.86590528 663.70049384 324.02238844 663.70033746 323.15331049 663.70017635 C318.87821487 663.69937059 314.60311925 663.69852482 310.32802363 663.69766305 C309.47900465 663.69749196 308.62998566 663.69732087 307.75523882 663.6971446 C306.03831704 663.69679794 304.32139526 663.69644941 302.60447348 663.69609901 C275.89056387 663.69074209 249.17668727 663.69867226 222.46278381 663.71713257 C192.43612807 663.7378579 162.40949278 663.74857427 132.38282949 663.74455708 C129.17994615 663.74416175 125.9770628 663.7438002 122.77417946 663.7434597 C121.98557281 663.74336897 121.19696616 663.74327824 120.38446234 663.74318476 C108.49036117 663.74201979 96.59628068 663.74865942 84.70218468 663.75927162 C71.17189733 663.7713315 57.64165547 663.77287349 44.11136743 663.76048145 C37.20944438 663.75444271 30.30760235 663.75310865 23.40568542 663.76548386 C17.0836733 663.77633104 10.76182442 663.7732529 4.43981997 663.75922217 C2.15660397 663.75657207 -0.12662478 663.75895157 -2.40982828 663.76695804 C-25.43902346 663.84208871 -44.40975909 661.10160632 -61.62388611 644.50595093 C-69.80679175 635.97728871 -73.77766023 627.52781838 -77.37388611 616.38095093 C-77.86888611 614.89595093 -77.86888611 614.89595093 -78.37388611 613.38095093 C-78.4719885 610.3349097 -78.51136607 607.31178418 -78.50531387 604.26557159 C-78.50736651 603.31653961 -78.50941914 602.36750763 -78.51153398 601.3897171 C-78.51723125 598.17930342 -78.51574337 594.96893228 -78.514328 591.7585144 C-78.51691009 589.44562655 -78.51992281 587.13273914 -78.5233314 584.81985235 C-78.53057328 579.11032426 -78.53310494 573.40080737 -78.53366046 567.69127502 C-78.53457321 560.85470632 -78.54123817 554.0181463 -78.54800728 547.18158133 C-78.56408009 530.65477575 -78.5699723 514.12797109 -78.57475603 497.60115911 C-78.577091 489.7835743 -78.58069357 481.96599023 -78.58445141 474.148406 C-78.59728891 447.39140087 -78.60800725 420.63439615 -78.61145401 393.877388 C-78.61167564 392.19716075 -78.61189743 390.5169335 -78.61211936 388.83670625 C-78.61234 387.15239674 -78.61256049 385.46808723 -78.61278081 383.78377771 C-78.61322336 380.40471045 -78.61367048 377.02564319 -78.61412048 373.64657593 C-78.61422987 372.80876134 -78.61433927 371.97094676 -78.61445197 371.10774385 C-78.61808193 343.94665137 -78.63399864 316.78558558 -78.65731085 289.62450332 C-78.6819086 260.91314547 -78.69562685 232.20180287 -78.69682193 203.49043417 C-78.69699338 200.33831373 -78.69720881 197.18619331 -78.69745636 194.03407288 C-78.69751213 193.25792346 -78.6975679 192.48177404 -78.69762536 191.68210495 C-78.69877595 179.19212193 -78.70979884 166.7021663 -78.72434342 154.21219253 C-78.7387122 141.65595325 -78.74194327 129.09974907 -78.73390344 116.54350382 C-78.72984068 109.74123922 -78.73094936 102.93907227 -78.74496078 96.13681793 C-78.75767168 89.90901815 -78.75652674 83.68138003 -78.74437007 77.45358056 C-78.7424082 75.20113257 -78.74551407 72.94867324 -78.75421444 70.6962412 C-78.8325184 49.05291331 -78.8325184 49.05291331 -75.37388611 40.38095093 C-74.93689392 39.27622437 -74.49990173 38.1714978 -74.04966736 37.03329468 C-66.1744373 21.35052995 -54.24999998 9.25663479 -37.37388611 3.38095093 C-25.02903045 -0.33107963 -12.76431834 -0.04067657 0 0 Z " fill="#0072D3" transform="translate(248.37388610839844,168.61904907226563)"/>
<path d="M0 0 C6.17148352 5.14290294 12.13083195 10.49144302 17.71875 16.265625 C16.51317805 19.88234086 15.26886089 20.6553213 12.28125 22.953125 C11.36859375 23.66339844 10.4559375 24.37367188 9.515625 25.10546875 C8.59265625 25.81832031 7.6696875 26.53117187 6.71875 27.265625 C5.15347273 28.51214548 3.59093765 29.76211764 2.03125 31.015625 C-0.97597306 33.42330676 -3.98605574 35.82730424 -7 38.2265625 C-7.65524658 38.74895508 -8.31049316 39.27134766 -8.9855957 39.80957031 C-10.2697781 40.83337497 -11.55472312 41.85622409 -12.84057617 42.87792969 C-13.44361572 43.35907227 -14.04665527 43.84021484 -14.66796875 44.3359375 C-15.26270996 44.8093457 -15.85745117 45.28275391 -16.47021484 45.77050781 C-17.73696909 46.81628875 -18.9751484 47.89721633 -20.18994141 49.00292969 C-21.11105713 49.84065918 -21.11105713 49.84065918 -22.05078125 50.6953125 C-22.59968018 51.21077637 -23.1485791 51.72624023 -23.71411133 52.25732422 C-24.23126709 52.59006348 -24.74842285 52.92280273 -25.28125 53.265625 C-28.64726064 52.14362145 -29.34368251 51.26147297 -31.53125 48.578125 C-40.94826015 37.54901708 -53.73317309 29.41710116 -68.28125 27.265625 C-83.00698112 26.38329455 -97.4553434 26.30952293 -109.28125 36.265625 C-115.17803477 41.85205268 -117.77048204 48.66916577 -118.33984375 56.65234375 C-118.16060983 64.6461768 -114.96182421 71.68981548 -109.28125 77.265625 C-97.61965545 86.41997672 -82.96274737 90.88868844 -69.03845215 95.38928223 C-65.06519357 96.67620569 -61.10082316 97.9898822 -57.13671875 99.3046875 C-56.36256622 99.56141235 -55.5884137 99.81813721 -54.790802 100.0826416 C-24.88174493 110.03883543 4.07961159 121.97352683 19.71875 151.265625 C26.00427937 164.62041559 28.26821612 177.96042139 28.15625 192.640625 C28.15387329 193.32094788 28.15149658 194.00127075 28.14904785 194.70220947 C28.09413109 204.74282408 27.51713121 213.84825917 23.71875 223.265625 C23.40679688 224.09964844 23.09484375 224.93367187 22.7734375 225.79296875 C21.86390454 228.02858549 20.84695354 230.13280205 19.71875 232.265625 C19.32300781 233.02746094 18.92726563 233.78929687 18.51953125 234.57421875 C6.777655 255.6019341 -13.34081835 270.36207405 -36.28125 277.265625 C-63.95625157 284.47630579 -93.37844915 286.58439244 -121.28125 279.265625 C-122.45034912 278.96011719 -122.45034912 278.96011719 -123.64306641 278.6484375 C-148.12693953 271.95270009 -168.22264442 257.6802387 -186.28125 240.265625 C-187.47427734 239.14994141 -187.47427734 239.14994141 -188.69140625 238.01171875 C-192.52264881 234.34735427 -195.30387367 231.20906583 -197.28125 226.265625 C-190.45985026 219.96756016 -183.25836912 214.24804577 -175.93554688 208.55566406 C-173.6418075 206.76698064 -171.36576843 204.9567926 -169.09375 203.140625 C-168.31644531 202.51929688 -167.53914062 201.89796875 -166.73828125 201.2578125 C-164.91183045 199.77690645 -163.09877115 198.27945309 -161.29296875 196.7734375 C-160.29910156 195.94585938 -159.30523438 195.11828125 -158.28125 194.265625 C-157.37375 193.5025 -156.46625 192.739375 -155.53125 191.953125 C-153.28125 190.265625 -153.28125 190.265625 -151.28125 190.265625 C-149.984375 191.98828125 -149.984375 191.98828125 -148.53125 194.328125 C-137.62048887 211.03198073 -120.16587474 223.1001644 -100.7109375 227.79296875 C-99.90914062 227.94894531 -99.10734375 228.10492187 -98.28125 228.265625 C-97.4046875 228.44609375 -96.528125 228.6265625 -95.625 228.8125 C-80.47817337 230.86510735 -62.60746281 230.73755266 -49.21875 222.515625 C-42.18039476 217.14601937 -36.83550334 211.17107658 -35.28125 202.265625 C-34.30451328 191.97549726 -35.83339064 183.27922509 -42.45703125 175.1640625 C-55.78239149 161.29655699 -77.21422157 156.5016409 -94.93310547 150.7019043 C-128.05302502 139.84191281 -158.69370996 126.89862861 -175.28125 94.265625 C-183.75066994 75.1032501 -185.05643365 48.85911062 -177.49902344 29.234375 C-168.563026 7.06755964 -152.20350385 -7.94080449 -130.40258789 -17.30981445 C-88.64727269 -34.56933576 -35.63961627 -28.00255564 0 0 Z " fill="#FDFEFE" transform="translate(750.28125,468.734375)"/>
<path d="M0 0 C79.53 0 159.06 0 241 0 C241 18.15 241 36.3 241 55 C212.29 55 183.58 55 154 55 C154 135.85 154 216.7 154 300 C132.22 300 110.44 300 88 300 C88 219.15 88 138.3 88 55 C58.96 55 29.92 55 0 55 C0 36.85 0 18.7 0 0 Z " fill="#FEFEFE" transform="translate(296,448)"/>
<path d="M0 0 C3.70350652 1.31941502 6.49138044 2.92878651 9.5625 5.375 C10.30628906 5.96023438 11.05007813 6.54546875 11.81640625 7.1484375 C13.99830346 8.99856143 16.00754579 10.94881131 18 13 C14.12134874 13 13.45604684 11.87031722 10.6875 9.25 C8.03558077 6.80174123 5.47904614 4.51053789 2.4375 2.5625 C1.633125 2.046875 0.82875 1.53125 0 1 C0 0.67 0 0.34 0 0 Z " fill="#1567D0" transform="translate(739,587)"/>
<path d="M0 0 C0.66 0.33 1.32 0.66 2 1 C0.37660195 2.70884005 -1.29319053 4.37446717 -3 6 C-3.66 6 -4.32 6 -5 6 C-5.3403125 6.8971875 -5.3403125 6.8971875 -5.6875 7.8125 C-7.3611297 10.60188284 -9.08817726 11.6168842 -12 13 C-12.66 12.67 -13.32 12.34 -14 12 C-9.38465781 7.93521893 -4.74414188 3.91391705 0 0 Z " fill="#085ECD" transform="translate(760,492)"/>
<path d="M0 0 C0.66 0.33 1.32 0.66 2 1 C-0.64960955 4.63094642 -3.01824456 6.89851796 -7 9 C-5.70064811 6.10144578 -4.33821878 4.14336722 -2 2 C-1.34 1.34 -0.68 0.68 0 0 Z " fill="#0669D0" transform="translate(766,709)"/>
</svg>
