<?xml version="1.0" encoding="UTF-8"?>
<svg version="1.1" xmlns="http://www.w3.org/2000/svg" width="1024" height="1024">
<path d="M0 0 C0.33 0.66 0.66 1.32 1 2 C2.99848967 2.40387116 2.99848967 2.40387116 5.42578125 2.4921875 C6.35865967 2.5555127 7.29153809 2.61883789 8.25268555 2.68408203 C9.26242432 2.74708496 10.27216309 2.81008789 11.3125 2.875 C21.79606555 3.63645437 31.84180026 5.3014466 42.07495117 7.66455078 C44.33109371 8.11444538 44.33109371 8.11444538 48 8 C48 8.66 48 9.32 48 10 C49.175625 10.20625 50.35125 10.4125 51.5625 10.625 C74.5085485 15.79594051 96.2166692 30.07458258 112.99609375 46.13671875 C114.86501863 48.04981936 114.86501863 48.04981936 117 49 C116.46527107 52.73384833 115.64347411 54.89224371 113.19140625 57.75 C112.61447021 58.43392822 112.03753418 59.11785645 111.44311523 59.82250977 C110.82251221 60.54108154 110.20190918 61.25965332 109.5625 62 C108.27176247 63.52853505 106.98270994 65.05849448 105.6953125 66.58984375 C105.06141602 67.34120605 104.42751953 68.09256836 103.77441406 68.86669922 C101.41162302 71.70738003 99.1704291 74.61842351 96.9375 77.5625 C92.53117583 83.36917012 87.94796783 89.01560134 83.28881836 94.62133789 C82.7603833 95.26321045 82.23194824 95.90508301 81.6875 96.56640625 C81.21699219 97.13302979 80.74648438 97.69965332 80.26171875 98.28344727 C78.92145311 100.10686208 77.99699655 101.97292755 77 104 C75.125 106.3125 75.125 106.3125 73 108 C69.56880187 107.61955335 67.45882661 106.04582709 64.75 104 C40.16035413 86.44111798 9.87846292 76.32041026 -20.44140625 81.28125 C-34.82710543 84.18681383 -48.73892367 89.08555193 -57.2421875 101.8671875 C-62.93232151 112.2091099 -63.47863804 124.48853941 -60.375 135.6875 C-58.4616572 141.35368008 -56.10652119 145.66311299 -52 150 C-51.53335938 150.50660156 -51.06671875 151.01320313 -50.5859375 151.53515625 C-41.11217444 160.64454381 -27.00420014 165.48694191 -14.875 169.875 C-13.48212255 170.38783617 -12.08946762 170.90127708 -10.69702148 171.4152832 C0.83656881 175.65354368 12.45073785 179.65627566 24.078125 183.62890625 C64.57553597 197.47402952 104.22665815 211.87364051 124.29931641 252.69433594 C137.59874054 281.51547066 136.70649071 316.8734257 126.625 346.5 C115.52637982 375.25551592 94.5754273 397.792506 66.85546875 411.2578125 C65 412 65 412 63 412 C62.67 412.66 62.34 413.32 62 414 C59.26133107 415.2080573 56.55821429 416.28939084 53.75 417.3125 C52.90606689 417.62082764 52.06213379 417.92915527 51.19262695 418.24682617 C37.25079099 423.18186466 22.70500487 426.436798 8 428 C7.00871094 428.11085938 6.01742187 428.22171875 4.99609375 428.3359375 C-44.99484218 433.06049594 -99.20537464 420.57757162 -138.8515625 388.81640625 C-142.18263268 386.00013782 -145.41791359 383.08410468 -148.63671875 380.140625 C-150.70024408 378.27151445 -152.79943728 376.46996913 -154.9375 374.6875 C-157.32952068 372.6621806 -159.27152314 370.64355284 -161 368 C-159.71278496 365.19118491 -158.34136259 363.07211433 -156.21484375 360.8359375 C-155.68439453 360.27132813 -155.15394531 359.70671875 -154.60742188 359.125 C-153.78081055 358.25875 -153.78081055 358.25875 -152.9375 357.375 C-149.03429271 353.50673691 -149.03429271 353.50673691 -146 349 C-145.34 349 -144.68 349 -144 349 C-143.78730469 348.46890625 -143.57460938 347.9378125 -143.35546875 347.390625 C-141.47752304 344.07851325 -138.91957283 341.4906873 -136.3125 338.75 C-135.21929407 337.58404359 -134.12684222 336.41737968 -133.03515625 335.25 C-132.50937988 334.68925781 -131.98360352 334.12851562 -131.44189453 333.55078125 C-129.12469083 331.05859062 -126.89451892 328.49477742 -124.66796875 325.921875 C-121.48104538 322.24982278 -118.23488012 318.62978757 -115 315 C-113.50919922 316.29164063 -113.50919922 316.29164063 -111.98828125 317.609375 C-84.1641104 341.4207798 -51.48020464 357.34251279 -14 355 C3.25534151 353.58819933 21.86406349 349.12685873 34.0625 336 C41.89692994 326.0712175 43.92530437 315.45489051 43 303 C41.91815491 296.01800818 39.80380854 290.93827714 35.20703125 285.55859375 C34 284 34 284 34 282 C33.41573242 281.72776611 32.83146484 281.45553223 32.22949219 281.17504883 C30.03783084 280.01993866 28.26421324 278.73785384 26.328125 277.19921875 C11.82009971 266.16442809 -6.021904 259.96900597 -22.89160156 253.56445312 C-83.62817429 230.47915931 -83.62817429 230.47915931 -103 216 C-104.45212891 214.92685547 -104.45212891 214.92685547 -105.93359375 213.83203125 C-116.86297719 205.32106457 -126.2609618 195.13026876 -133 183 C-133.89138672 181.45119141 -133.89138672 181.45119141 -134.80078125 179.87109375 C-148.27152836 154.97761461 -150.55714623 120.44196401 -142.72753906 93.32421875 C-134.92994523 68.41378475 -121.23066902 46.60326278 -100 31 C-99.2265625 30.4121875 -98.453125 29.824375 -97.65625 29.21875 C-69.30872874 8.43056775 -34.84825266 0.57869664 0 2 C0 1.34 0 0.68 0 0 Z " fill="#1B83DB" transform="translate(690,282)"/>
<path d="M0 0 C0.33 0.66 0.66 1.32 1 2 C1.61419778 1.97038465 2.22839556 1.94076929 2.8612054 1.91025651 C19.69300091 1.11876289 36.48225459 0.85575201 53.33081055 0.87060547 C55.96559262 0.86924615 58.60037195 0.86749847 61.2351532 0.86529541 C67.58318965 0.86090086 73.93121413 0.86178585 80.279251 0.86470805 C85.45192874 0.86698829 90.62460317 0.86726341 95.79728127 0.86618423 C96.91155525 0.86595439 96.91155525 0.86595439 98.04833982 0.86571989 C99.55859353 0.86540009 101.06884724 0.86507587 102.57910094 0.8647473 C116.66849609 0.86191074 130.75788468 0.86515019 144.84727875 0.87054767 C156.86457909 0.87500938 168.88186976 0.87424142 180.89916992 0.86962891 C194.9384948 0.86424262 208.97781396 0.86219009 223.01713973 0.86524117 C224.52263979 0.86555963 226.02813985 0.865874 227.53363991 0.86618423 C228.64400281 0.86641565 228.64400281 0.86641565 229.77679729 0.86665174 C234.92417923 0.86750516 240.07155746 0.86607965 245.21893883 0.86370468 C251.51962108 0.86086084 257.82029094 0.86173907 264.12097182 0.86698543 C267.31871578 0.86956273 270.51643568 0.87016784 273.71417999 0.86733627 C291.83075585 0.85279593 309.89938175 1.29676754 328 2 C328.17612635 11.70954269 328.34297887 21.41915326 328.49477577 31.12910843 C328.56560886 35.63778188 328.64026186 40.14632473 328.72363281 44.65478516 C328.80394374 49.00535828 328.87423602 53.35598832 328.93757248 57.70684052 C328.96350417 59.3670829 328.99305092 61.02727288 329.02626419 62.68738556 C329.07215415 65.01193289 329.10520874 67.33633421 329.13525391 69.66113281 C329.1517952 70.3480571 329.16833649 71.03498138 329.18537903 71.74272156 C329.21748988 75.35103897 328.97388182 77.93167723 327 81 C326.01 81 325.02 81 324 81 C323.67 81.99 323.34 82.98 323 84 C322.67 83.34 322.34 82.68 322 82 C284.38 82 246.76 82 208 82 C207.505 242.875 207.505 242.875 207 407 C203.89259269 407.77685183 201.09966278 408.29113666 197.9375 408.625 C196.65166016 408.76808594 196.65166016 408.76808594 195.33984375 408.9140625 C193 409 193 409 190 408 C187.36383237 407.90320767 184.76034093 407.86075491 182.125 407.875 C181.41730469 407.87113281 180.70960938 407.86726563 179.98046875 407.86328125 C176.96437052 407.86889782 174.1407661 407.97153483 171.1796875 408.5703125 C169 409 169 409 166 408 C165.34 408.33 164.68 408.66 164 409 C162.4580984 408.90980107 160.91990018 408.75335837 159.38671875 408.56640625 C151.86338475 407.80117571 144.36311062 407.89126287 136.8125 407.9375 C135.36914219 407.94252912 133.92578267 407.94708951 132.48242188 407.95117188 C128.98824495 407.9620562 125.49413388 407.9792415 122 408 C121.03905327 404.76779418 120.87563947 401.8604073 120.87695217 398.49463272 C120.87496112 397.36849855 120.87297007 396.24236437 120.87091869 395.08210492 C120.87383153 393.84476188 120.87674437 392.60741885 120.87974548 391.33258057 C120.87889106 390.01834256 120.87803663 388.70410455 120.87715632 387.35004115 C120.87491717 383.69916237 120.87892474 380.04831286 120.88393438 376.39743781 C120.88824698 372.46154769 120.88679188 368.52565927 120.8860321 364.58976746 C120.88550739 357.7695705 120.88864877 350.94938309 120.89426994 344.12918854 C120.90239196 334.26829413 120.90500089 324.40740436 120.90625793 314.54650697 C120.90844735 298.54841739 120.91510444 282.55033291 120.92456055 266.55224609 C120.93373752 251.01025417 120.94081696 235.46826362 120.94506836 219.92626953 C120.94533108 218.96849484 120.94559381 218.01072016 120.94586449 217.023922 C120.94716951 212.21911767 120.94843323 207.41431333 120.94967639 202.60950899 C120.96004556 162.73966909 120.97766088 122.86983488 121 83 C117.91147601 82.18109746 115.2042527 81.86543225 112.00128174 81.84178162 C110.99449875 81.8319928 109.98771576 81.82220398 108.95042419 81.81211853 C107.30288902 81.80348534 107.30288902 81.80348534 105.62207031 81.79467773 C104.46081131 81.78477814 103.29955231 81.77487854 102.10310364 81.76467896 C98.26146489 81.73306998 94.41981378 81.70830876 90.578125 81.68359375 C87.9158282 81.66302371 85.2535371 81.64207477 82.59124756 81.62062073 C76.29798814 81.57073886 70.00470357 81.52578335 63.71139503 81.48259836 C56.54574978 81.43318744 49.38014992 81.37828362 42.21454859 81.32291877 C27.47640878 81.20916793 12.73822375 81.1023139 -2 81 C-2 80.34 -2 79.68 -2 79 C-1.34 79 -0.68 79 0 79 C-0.165 78.505 -0.33 78.01 -0.5 77.5 C-1.67452877 71.62735616 -0.97339567 65.84037403 0 60 C-0.66 59.67 -1.32 59.34 -2 59 C-1.835 58.34 -1.67 57.68 -1.5 57 C-0.64894637 51.89367822 -0.8351558 47.15390943 -1.5625 42.0625 C-1.706875 41.051875 -1.85125 40.04125 -2 39 C-1.505 38.505 -1.505 38.505 -1 38 C-0.78673597 32.3952291 -0.78673597 32.3952291 -2 27 C-1.505 25.515 -1.505 25.515 -1 24 C-0.92966173 22.3229597 -0.91570098 20.6432169 -0.9375 18.96484375 C-0.94523438 17.99095703 -0.95296875 17.01707031 -0.9609375 16.01367188 C-0.97382813 14.99853516 -0.98671875 13.98339844 -1 12.9375 C-1.02544802 10.92583433 -1.04650188 8.91410676 -1.0625 6.90234375 C-1.07410156 6.01023193 -1.08570313 5.11812012 -1.09765625 4.19897461 C-1 2 -1 2 0 0 Z " fill="#1A84DE" transform="translate(182,292)"/>
<path d="M0 0 C0.33 0.66 0.66 1.32 1 2 C1.61419778 1.97038465 2.22839556 1.94076929 2.8612054 1.91025651 C19.69300091 1.11876289 36.48225459 0.85575201 53.33081055 0.87060547 C55.96559262 0.86924615 58.60037195 0.86749847 61.2351532 0.86529541 C67.58318965 0.86090086 73.93121413 0.86178585 80.279251 0.86470805 C85.45192874 0.86698829 90.62460317 0.86726341 95.79728127 0.86618423 C96.91155525 0.86595439 96.91155525 0.86595439 98.04833982 0.86571989 C99.55859353 0.86540009 101.06884724 0.86507587 102.57910094 0.8647473 C116.66849609 0.86191074 130.75788468 0.86515019 144.84727875 0.87054767 C156.86457909 0.87500938 168.88186976 0.87424142 180.89916992 0.86962891 C194.9384948 0.86424262 208.97781396 0.86219009 223.01713973 0.86524117 C224.52263979 0.86555963 226.02813985 0.865874 227.53363991 0.86618423 C228.64400281 0.86641565 228.64400281 0.86641565 229.77679729 0.86665174 C234.92417923 0.86750516 240.07155746 0.86607965 245.21893883 0.86370468 C251.51962108 0.86086084 257.82029094 0.86173907 264.12097182 0.86698543 C267.31871578 0.86956273 270.51643568 0.87016784 273.71417999 0.86733627 C291.83075585 0.85279593 309.89938175 1.29676754 328 2 C328.17612635 11.70954269 328.34297887 21.41915326 328.49477577 31.12910843 C328.56560886 35.63778188 328.64026186 40.14632473 328.72363281 44.65478516 C328.80394374 49.00535828 328.87423602 53.35598832 328.93757248 57.70684052 C328.96350417 59.3670829 328.99305092 61.02727288 329.02626419 62.68738556 C329.07215415 65.01193289 329.10520874 67.33633421 329.13525391 69.66113281 C329.1517952 70.3480571 329.16833649 71.03498138 329.18537903 71.74272156 C329.21748988 75.35103897 328.97388182 77.93167723 327 81 C326.01 81 325.02 81 324 81 C323.67 81.99 323.34 82.98 323 84 C322.67 83.34 322.34 82.68 322 82 C284.38 82 246.76 82 208 82 C207.505 242.875 207.505 242.875 207 407 C203.89259269 407.77685183 201.09966278 408.29113666 197.9375 408.625 C196.65166016 408.76808594 196.65166016 408.76808594 195.33984375 408.9140625 C193 409 193 409 190 408 C187.36383237 407.90320767 184.76034093 407.86075491 182.125 407.875 C181.41730469 407.87113281 180.70960938 407.86726563 179.98046875 407.86328125 C176.96437052 407.86889782 174.1407661 407.97153483 171.1796875 408.5703125 C169 409 169 409 166 408 C165.34 408.33 164.68 408.66 164 409 C162.4580984 408.90980107 160.91990018 408.75335837 159.38671875 408.56640625 C151.86338475 407.80117571 144.36311062 407.89126287 136.8125 407.9375 C135.36914219 407.94252912 133.92578267 407.94708951 132.48242188 407.95117188 C128.98824495 407.9620562 125.49413388 407.9792415 122 408 C121.03905327 404.76779418 120.87563947 401.8604073 120.87695217 398.49463272 C120.87496112 397.36849855 120.87297007 396.24236437 120.87091869 395.08210492 C120.87383153 393.84476188 120.87674437 392.60741885 120.87974548 391.33258057 C120.87889106 390.01834256 120.87803663 388.70410455 120.87715632 387.35004115 C120.87491717 383.69916237 120.87892474 380.04831286 120.88393438 376.39743781 C120.88824698 372.46154769 120.88679188 368.52565927 120.8860321 364.58976746 C120.88550739 357.7695705 120.88864877 350.94938309 120.89426994 344.12918854 C120.90239196 334.26829413 120.90500089 324.40740436 120.90625793 314.54650697 C120.90844735 298.54841739 120.91510444 282.55033291 120.92456055 266.55224609 C120.93373752 251.01025417 120.94081696 235.46826362 120.94506836 219.92626953 C120.94533108 218.96849484 120.94559381 218.01072016 120.94586449 217.023922 C120.94716951 212.21911767 120.94843323 207.41431333 120.94967639 202.60950899 C120.96004556 162.73966909 120.97766088 122.86983488 121 83 C117.91147601 82.18109746 115.2042527 81.86543225 112.00128174 81.84178162 C110.99449875 81.8319928 109.98771576 81.82220398 108.95042419 81.81211853 C107.30288902 81.80348534 107.30288902 81.80348534 105.62207031 81.79467773 C104.46081131 81.78477814 103.29955231 81.77487854 102.10310364 81.76467896 C98.26146489 81.73306998 94.41981378 81.70830876 90.578125 81.68359375 C87.9158282 81.66302371 85.2535371 81.64207477 82.59124756 81.62062073 C76.29798814 81.57073886 70.00470357 81.52578335 63.71139503 81.48259836 C56.54574978 81.43318744 49.38014992 81.37828362 42.21454859 81.32291877 C27.47640878 81.20916793 12.73822375 81.1023139 -2 81 C-2 80.34 -2 79.68 -2 79 C-1.34 79 -0.68 79 0 79 C-0.165 78.505 -0.33 78.01 -0.5 77.5 C-1.67452877 71.62735616 -0.97339567 65.84037403 0 60 C-0.66 59.67 -1.32 59.34 -2 59 C-1.835 58.34 -1.67 57.68 -1.5 57 C-0.64894637 51.89367822 -0.8351558 47.15390943 -1.5625 42.0625 C-1.706875 41.051875 -1.85125 40.04125 -2 39 C-1.505 38.505 -1.505 38.505 -1 38 C-0.78673597 32.3952291 -0.78673597 32.3952291 -2 27 C-1.505 25.515 -1.505 25.515 -1 24 C-0.92966173 22.3229597 -0.91570098 20.6432169 -0.9375 18.96484375 C-0.94523438 17.99095703 -0.95296875 17.01707031 -0.9609375 16.01367188 C-0.97382813 14.99853516 -0.98671875 13.98339844 -1 12.9375 C-1.02544802 10.92583433 -1.04650188 8.91410676 -1.0625 6.90234375 C-1.07410156 6.01023193 -1.08570313 5.11812012 -1.09765625 4.19897461 C-1 2 -1 2 0 0 Z M1 3 C1 28.41 1 53.82 1 80 C41.26 79.67 81.52 79.34 123 79 C123 186.91 123 294.82 123 406 C150.06 406 177.12 406 205 406 C205.495 244.63 205.495 244.63 206 80 C245.6 79.67 285.2 79.34 326 79 C326 53.92 326 28.84 326 3 C218.75 3 111.5 3 1 3 Z " fill="#206DB2" transform="translate(182,292)"/>
<path d="M0 0 C0.99 0.495 0.99 0.495 2 1 C2.17703933 10.44875176 2.34298966 19.89761416 2.49477577 29.34680557 C2.56560439 33.73441399 2.64025496 38.12188804 2.72363281 42.50927734 C2.80395249 46.7431379 2.87424208 50.97705695 2.93757248 55.21120453 C2.9635012 56.82679125 2.9930471 58.4423241 3.02626419 60.0577774 C3.07216418 62.32005772 3.10521292 64.5821878 3.13525391 66.84472656 C3.15746002 68.13268127 3.17966614 69.42063599 3.20254517 70.74761963 C3.01201917 73.80700158 2.62735874 75.45150141 1 78 C0.01 78 -0.98 78 -2 78 C-2.33 78.99 -2.66 79.98 -3 81 C-3.33 80.34 -3.66 79.68 -4 79 C-41.62 79 -79.24 79 -118 79 C-118.33 186.25 -118.66 293.5 -119 404 C-122.10740731 404.77685183 -124.90033722 405.29113666 -128.0625 405.625 C-129.34833984 405.76808594 -129.34833984 405.76808594 -130.66015625 405.9140625 C-133 406 -133 406 -136 405 C-138.63616763 404.90320767 -141.23965907 404.86075491 -143.875 404.875 C-144.58269531 404.87113281 -145.29039062 404.86726563 -146.01953125 404.86328125 C-149.03562948 404.86889782 -151.8592339 404.97153483 -154.8203125 405.5703125 C-157 406 -157 406 -160 405 C-160.66 405.33 -161.32 405.66 -162 406 C-163.5419016 405.90980107 -165.08009982 405.75335837 -166.61328125 405.56640625 C-174.13661525 404.80117571 -181.63688938 404.89126287 -189.1875 404.9375 C-190.63085781 404.94252912 -192.07421733 404.94708951 -193.51757812 404.95117188 C-197.01175505 404.9620562 -200.50586612 404.9792415 -204 405 C-204 403.68 -204 402.36 -204 401 C-203.67 401.66 -203.34 402.32 -203 403 C-175.94 403 -148.88 403 -121 403 C-121.00523682 393.129729 -121.01047363 383.25945801 -121.01586914 373.09008789 C-121.03190266 341.54660801 -121.04303538 310.00312811 -121.05106533 278.45964522 C-121.05231611 273.56399849 -121.05361042 268.66835178 -121.05493164 263.77270508 C-121.05519395 262.79802697 -121.05545626 261.82334887 -121.05572652 260.81913506 C-121.06008359 245.01561805 -121.06797133 229.21210465 -121.0771528 213.40858979 C-121.08648833 197.20533738 -121.0920554 181.00208687 -121.09408849 164.79883188 C-121.09546393 154.79215104 -121.09981564 144.78548044 -121.10791647 134.77880275 C-121.11318269 127.92658383 -121.11480458 121.07437024 -121.11350138 114.22214944 C-121.1128578 110.26262253 -121.11387769 106.30311355 -121.11920547 102.34358978 C-121.12403962 98.72471749 -121.12433855 95.10587534 -121.12089889 91.48700171 C-121.12027028 89.54517157 -121.12461188 87.60334183 -121.12908131 85.66151673 C-121.12709026 84.52393872 -121.12509921 83.38636071 -121.12304783 82.21431065 C-121.12342755 81.22437975 -121.12380727 80.23444884 -121.1241985 79.21452004 C-121 77 -121 77 -120 76 C-118.44379604 75.90411876 -116.88323546 75.87811967 -115.32408142 75.87974548 C-114.31300827 75.87837082 -113.30193512 75.87699615 -112.26022339 75.87557983 C-110.58248337 75.88097275 -110.58248337 75.88097275 -108.87084961 75.88647461 C-107.70027512 75.88632858 -106.52970062 75.88618256 -105.32365417 75.8860321 C-102.10479057 75.88661105 -98.88596996 75.89164009 -95.66711497 75.89860606 C-92.306526 75.90484043 -88.94593627 75.90544346 -85.58534241 75.90663147 C-79.21757658 75.90974454 -72.84982784 75.9179576 -66.48206955 75.92798096 C-58.52385694 75.94023697 -50.56564157 75.94572475 -42.60742188 75.95117188 C-28.40493459 75.96092303 -14.20248462 75.98095331 0 76 C0 50.92 0 25.84 0 0 Z " fill="#1F78C6" transform="translate(508,295)"/>
<path d="M0 0 C0.495 0.99 0.495 0.99 1 2 C2.99848967 2.40387116 2.99848967 2.40387116 5.42578125 2.4921875 C6.35865967 2.5555127 7.29153809 2.61883789 8.25268555 2.68408203 C9.26242432 2.74708496 10.27216309 2.81008789 11.3125 2.875 C21.79606555 3.63645437 31.84180026 5.3014466 42.07495117 7.66455078 C44.33109371 8.11444538 44.33109371 8.11444538 48 8 C48 8.66 48 9.32 48 10 C49.175625 10.20625 50.35125 10.4125 51.5625 10.625 C62.70805232 13.11739123 73.20267246 18.25603666 83 24 C82.34 24.33 81.68 24.66 81 25 C78.22558633 23.72750156 75.52732112 22.39003865 72.8125 21 C37.63258184 3.8017508 -0.71836929 3.00435239 -39 6 C-36.29521617 4.51636648 -34.07906073 3.70080724 -31.015625 3.3671875 C-29.87057495 3.24126221 -29.87057495 3.24126221 -28.70239258 3.11279297 C-27.89310303 3.03432129 -27.08381348 2.95584961 -26.25 2.875 C-25.41686279 2.79008301 -24.58372559 2.70516602 -23.7253418 2.61767578 C-15.8012839 1.87030757 -7.95359688 1.80253139 0 2 C0 1.34 0 0.68 0 0 Z " fill="#2373B7" transform="translate(690,282)"/>
<path d="M0 0 C0.33 0 0.66 0 1 0 C1 10.56 1 21.12 1 32 C-2.10740731 32.77685183 -4.90033722 33.29113666 -8.0625 33.625 C-8.91972656 33.72039063 -9.77695312 33.81578125 -10.66015625 33.9140625 C-13 34 -13 34 -16 33 C-18.63616763 32.90320767 -21.23965907 32.86075491 -23.875 32.875 C-24.93654297 32.86919922 -24.93654297 32.86919922 -26.01953125 32.86328125 C-29.03562948 32.86889782 -31.8592339 32.97153483 -34.8203125 33.5703125 C-37 34 -37 34 -40 33 C-40.99 33.495 -40.99 33.495 -42 34 C-43.5419016 33.90980107 -45.08009982 33.75335837 -46.61328125 33.56640625 C-54.13661525 32.80117571 -61.63688938 32.89126287 -69.1875 32.9375 C-70.63085781 32.94252912 -72.07421733 32.94708951 -73.51757812 32.95117188 C-77.01175505 32.9620562 -80.50586612 32.9792415 -84 33 C-84 31.68 -84 30.36 -84 29 C-83.67 29.66 -83.34 30.32 -83 31 C-55.61 31 -28.22 31 0 31 C0 20.77 0 10.54 0 0 Z " fill="#2A7ABE" transform="translate(388,667)"/>
<path d="M0 0 C0.33 0.99 0.66 1.98 1 3 C0.10796875 3.88042969 -0.7840625 4.76085937 -1.703125 5.66796875 C-2.88555101 6.84101043 -4.06783519 8.01419509 -5.25 9.1875 C-5.83652344 9.76564453 -6.42304687 10.34378906 -7.02734375 10.93945312 C-9.62242508 13.51995535 -12.00746649 16.00977692 -14.234375 18.92578125 C-14.81703125 19.61027344 -15.3996875 20.29476562 -16 21 C-16.99 21 -17.98 21 -19 21 C-19 21.66 -19 22.32 -19 23 C-17.68 23.66 -16.36 24.32 -15 25 C-15.33 25.99 -15.66 26.98 -16 28 C-17.65 26.35 -19.3 24.7 -21 23 C-19.71278496 20.19118491 -18.34136259 18.07211433 -16.21484375 15.8359375 C-15.41916992 14.98902344 -15.41916992 14.98902344 -14.60742188 14.125 C-14.05634766 13.5475 -13.50527344 12.97 -12.9375 12.375 C-9.03429271 8.50673691 -9.03429271 8.50673691 -6 4 C-4.35178756 2.96986723 -2.68496298 1.96885372 -1 1 C-0.67 0.67 -0.34 0.34 0 0 Z " fill="#2283D5" transform="translate(550,627)"/>
<path d="M0 0 C0.66 0.33 1.32 0.66 2 1 C-0.2192879 3.4466537 -2.45209242 5.88057308 -4.6875 8.3125 C-5.31333984 9.00279297 -5.93917969 9.69308594 -6.58398438 10.40429688 C-9.80940933 13.89991449 -12.68126686 16.84476224 -17 19 C-13.52226815 11.19717017 -6.51204168 5.29103387 0 0 Z " fill="#1F7CC9" transform="translate(586,316)"/>
<path d="M0 0 C1.95903745 0.47627975 3.91721097 0.95611423 5.875 1.4375 C6.96554687 1.70433594 8.05609375 1.97117187 9.1796875 2.24609375 C12 3 12 3 14 4 C14 4.66 14 5.32 14 6 C14.66386719 6.19335938 15.32773437 6.38671875 16.01171875 6.5859375 C24.78207381 9.17223199 24.78207381 9.17223199 29 11 C25.20462743 12.44074747 23.05359786 11.51962147 19.39453125 9.98046875 C18.32912109 9.53509766 17.26371094 9.08972656 16.16601562 8.63085938 C15.05935547 8.15455078 13.95269531 7.67824219 12.8125 7.1875 C11.69423828 6.72279297 10.57597656 6.25808594 9.42382812 5.77929688 C1.13596217 2.27192434 1.13596217 2.27192434 0 0 Z " fill="#218BE2" transform="translate(651,444)"/>
<path d="M0 0 C2.63044301 1.28475305 5.1657438 2.65174195 7.671875 4.1640625 C8.66767578 4.76347656 8.66767578 4.76347656 9.68359375 5.375 C10.36550781 5.7875 11.04742188 6.2 11.75 6.625 C12.44738281 7.04523437 13.14476562 7.46546875 13.86328125 7.8984375 C15.57632572 8.93095746 17.28827213 9.96529882 19 11 C16 12 16 12 13.6953125 11.1796875 C2.83299389 5.66598778 2.83299389 5.66598778 0 0 Z " fill="#2179C2" transform="translate(592,612)"/>
<path d="M0 0 C-2.35004369 0.84686259 -4.7039313 1.67750196 -7.0625 2.5 C-7.71927734 2.73847656 -8.37605469 2.97695313 -9.05273438 3.22265625 C-13.50099909 4.75654063 -17.23461699 5.24787428 -22 5 C-22 4.67 -22 4.34 -22 4 C-20.9275 3.71125 -19.855 3.4225 -18.75 3.125 C-15.21938405 2.20792664 -15.21938405 2.20792664 -13.0625 0.9375 C-8.8899365 -0.95911977 -4.36094157 -1.45364719 0 0 Z " fill="#238BE1" transform="translate(705,634)"/>
<path d="M0 0 C0.66 0.33 1.32 0.66 2 1 C-2.049191 5.83290538 -5.96719209 7.3833652 -12 9 C-8.33494586 5.00175912 -4.88887148 2.39831431 0 0 Z " fill="#207BC7" transform="translate(605,303)"/>
<path d="M0 0 C5.08938811 1.59043379 8.87456643 4.7446951 13 8 C8.2108032 8 5.72827985 6.66354387 2.1875 3.4375 C0 1 0 1 0 0 Z " fill="#2279C2" transform="translate(778,310)"/>
<path d="M0 0 C0 3.90838866 -1.50567876 5.11594107 -4 8 C-2.68 8.66 -1.36 9.32 0 10 C-0.33 10.99 -0.66 11.98 -1 13 C-2.65 11.35 -4.3 9.7 -6 8 C-4.55746343 4.63408134 -2.66735273 2.48952921 0 0 Z " fill="#2875B4" transform="translate(535,642)"/>
<path d="M0 0 C0.68359375 1.765625 0.68359375 1.765625 1 4 C-0.21484375 5.921875 -0.21484375 5.921875 -1.9375 7.75 C-2.50339844 8.36359375 -3.06929687 8.9771875 -3.65234375 9.609375 C-4.31943359 10.29773438 -4.31943359 10.29773438 -5 11 C-5.33 10.34 -5.66 9.68 -6 9 C-4.4775751 5.42230149 -2.97069541 2.54631035 0 0 Z " fill="#227CC8" transform="translate(774,371)"/>
<path d="M0 0 C3.82669043 3.42388092 5.72278474 6.00724943 7 11 C2.94089532 9.64696511 2.0786931 7.65563269 0 4 C0 2.68 0 1.36 0 0 Z " fill="#227CC8" transform="translate(803,518)"/>
<path d="M0 0 C2.56165861 1.4513836 4.8825934 2.94367243 7 5 C7.9375 8.8125 7.9375 8.8125 8 12 C6.66666667 10.33333333 5.33333333 8.66666667 4 7 C3.2575 6.113125 2.515 5.22625 1.75 4.3125 C0 2 0 2 0 0 Z " fill="#207AC5" transform="translate(724,564)"/>
<path d="M0 0 C4.10958767 1.45044271 7.43258745 3.51110752 11 6 C10.01 6.495 10.01 6.495 9 7 C2.52856205 4.80433355 2.52856205 4.80433355 0.5625 1.8125 C0.376875 1.214375 0.19125 0.61625 0 0 Z " fill="#237EC9" transform="translate(771,490)"/>
<path d="M0 0 C0.66 0 1.32 0 2 0 C1.55530671 5.03985731 -0.71343362 7.37634988 -4 11 C-4 10.01 -4 9.02 -4 8 C-4.33 7.01 -4.66 6.02 -5 5 C-3.35 4.34 -1.7 3.68 0 3 C0 2.01 0 1.02 0 0 Z " fill="#2476BB" transform="translate(805,331)"/>
<path d="M0 0 C-1.43011973 0.86646667 -2.86940619 1.71781829 -4.3125 2.5625 C-5.51326172 3.27599609 -5.51326172 3.27599609 -6.73828125 4.00390625 C-9 5 -9 5 -12 4 C-8.71298741 1.21868166 -4.24676932 -2.12338466 0 0 Z " fill="#247AC0" transform="translate(766,688)"/>
<path d="M0 0 C0.33 0.66 0.66 1.32 1 2 C-0.65 4.31 -2.3 6.62 -4 9 C-4.33 7.68 -4.66 6.36 -5 5 C-2.5625 2.25 -2.5625 2.25 0 0 Z " fill="#247AC0" transform="translate(805,648)"/>
<path d="M0 0 C0.66 0.66 1.32 1.32 2 2 C2.66 2.33 3.32 2.66 4 3 C2.02 4.32 0.04 5.64 -2 7 C-2.66 6.67 -3.32 6.34 -4 6 C-2.68 4.02 -1.36 2.04 0 0 Z " fill="#247AC1" transform="translate(770,680)"/>
<path d="M0 0 C0 3 0 3 -1.53125 4.60546875 C-2.1809375 5.12753906 -2.830625 5.64960937 -3.5 6.1875 C-4.1496875 6.71730469 -4.799375 7.24710938 -5.46875 7.79296875 C-5.9740625 8.19128906 -6.479375 8.58960938 -7 9 C-6.19095897 4.20719998 -3.74015409 2.86479887 0 0 Z " fill="#248AE1" transform="translate(575,599)"/>
<path d="M0 0 C0.66 0 1.32 0 2 0 C1.50168276 3.68754757 0.89932357 5.60490662 -2 8 C-1.125 2.25 -1.125 2.25 0 0 Z " fill="#227BC5" transform="translate(808,640)"/>
<path d="M0 0 C6.75 0.75 6.75 0.75 9 3 C3.46153846 3.36923077 3.46153846 3.36923077 1.125 1.5 C0.75375 1.005 0.3825 0.51 0 0 Z " fill="#1E80D1" transform="translate(608,624)"/>
<path d="M0 0 C4.29 0 8.58 0 13 0 C13 0.33 13 0.66 13 1 C8.71 1 4.42 1 0 1 C0 0.67 0 0.34 0 0 Z " fill="#2887D7" transform="translate(475,374)"/>
<path d="M0 0 C1.98 0 3.96 0 6 0 C6 0.33 6 0.66 6 1 C4.02 1 2.04 1 0 1 C0 0.67 0 0.34 0 0 Z " fill="#2987D9" transform="translate(275,374)"/>
<path d="M0 0 C1.65 0 3.3 0 5 0 C5 0.33 5 0.66 5 1 C3.35 1 1.7 1 0 1 C0 0.67 0 0.34 0 0 Z " fill="#2788DB" transform="translate(432,374)"/>
<path d="M0 0 C4 1 4 1 4 1 Z " fill="#2688DB" transform="translate(403,374)"/>
<path d="M0 0 C4 1 4 1 4 1 Z " fill="#2888D9" transform="translate(291,374)"/>
<path d="M0 0 C0.99 0.495 0.99 0.495 2 1 C1.01 1.495 1.01 1.495 0 2 C0 1.34 0 0.68 0 0 Z " fill="#3084C7" transform="translate(641,709)"/>
<path d="M0 0 C3 1 3 1 3 1 Z " fill="#347CB8" transform="translate(383,701)"/>
<path d="M0 0 C3 1 3 1 3 1 Z " fill="#3281C0" transform="translate(360,701)"/>
<path d="" fill="#2D84CC" transform="translate(0,0)"/>
<path d="M0 0 C3 1 3 1 3 1 Z " fill="#2C84D2" transform="translate(664,283)"/>
<path d="M0 0 C2 1 2 1 2 1 Z " fill="#2F84CB" transform="translate(692,711)"/>
<path d="M0 0 C2 1 2 1 2 1 Z " fill="#2F86CD" transform="translate(688,711)"/>
<path d="M0 0 C2 1 2 1 2 1 Z " fill="#3082CA" transform="translate(685,711)"/>
<path d="M0 0 C2 1 2 1 2 1 Z " fill="#3184C7" transform="translate(633,708)"/>
<path d="M0 0 C2 1 2 1 2 1 Z " fill="#3185C7" transform="translate(736,702)"/>
<path d="M0 0 C2 1 2 1 2 1 Z " fill="#3380BF" transform="translate(369,701)"/>
<path d="M0 0 C2 1 2 1 2 1 Z " fill="#3380C1" transform="translate(353,701)"/>
<path d="M0 0 C2 1 2 1 2 1 Z " fill="#387BB5" transform="translate(307,701)"/>
<path d="M0 0 C2 1 2 1 2 1 Z " fill="#3083C5" transform="translate(586,693)"/>
<path d="" fill="#2F83CA" transform="translate(0,0)"/>
<path d="M0 0 C2 1 2 1 2 1 Z " fill="#298ADB" transform="translate(691,633)"/>
<path d="M0 0 C2 1 2 1 2 1 Z " fill="#2B88D8" transform="translate(696,632)"/>
<path d="" fill="#2D83C9" transform="translate(0,0)"/>
<path d="" fill="#298ADA" transform="translate(0,0)"/>
<path d="M0 0 C2 1 2 1 2 1 Z " fill="#2986D2" transform="translate(772,488)"/>
<path d="M0 0 C2 1 2 1 2 1 Z " fill="#2886D5" transform="translate(758,481)"/>
<path d="M0 0 C2 1 2 1 2 1 Z " fill="#2885D2" transform="translate(756,480)"/>
<path d="" fill="#2D85CF" transform="translate(0,0)"/>
<path d="" fill="#258ADF" transform="translate(0,0)"/>
<path d="M0 0 C2 1 2 1 2 1 Z " fill="#2987D9" transform="translate(472,374)"/>
<path d="M0 0 C2 1 2 1 2 1 Z " fill="#2887D8" transform="translate(464,374)"/>
<path d="M0 0 C2 1 2 1 2 1 Z " fill="#2887D8" transform="translate(451,374)"/>
<path d="M0 0 C2 1 2 1 2 1 Z " fill="#2787DA" transform="translate(443,374)"/>
<path d="M0 0 C2 1 2 1 2 1 Z " fill="#2788D9" transform="translate(438,374)"/>
<path d="M0 0 C2 1 2 1 2 1 Z " fill="#2888DB" transform="translate(419,374)"/>
<path d="M0 0 C2 1 2 1 2 1 Z " fill="#2689DC" transform="translate(400,374)"/>
<path d="M0 0 C2 1 2 1 2 1 Z " fill="#2888D9" transform="translate(296,374)"/>
<path d="M0 0 C2 1 2 1 2 1 Z " fill="#2988D8" transform="translate(270,374)"/>
<path d="M0 0 C2 1 2 1 2 1 Z " fill="#2987D9" transform="translate(267,374)"/>
<path d="M0 0 C2 1 2 1 2 1 Z " fill="#2A87D6" transform="translate(243,374)"/>
<path d="M0 0 C2 1 2 1 2 1 Z " fill="#2B88D6" transform="translate(240,374)"/>
<path d="M0 0 C2 1 2 1 2 1 Z " fill="#2B86D4" transform="translate(235,374)"/>
<path d="M0 0 C2 1 2 1 2 1 Z " fill="#2B87D4" transform="translate(232,374)"/>
<path d="M0 0 C2 1 2 1 2 1 Z " fill="#2B86D2" transform="translate(227,374)"/>
<path d="M0 0 C2 1 2 1 2 1 Z " fill="#2D84D0" transform="translate(211,374)"/>
<path d="M0 0 C2 1 2 1 2 1 Z " fill="#2F83CA" transform="translate(192,374)"/>
<path d="" fill="#2D87D3" transform="translate(0,0)"/>
<path d="M0 0 C2 1 2 1 2 1 Z " fill="#2789DC" transform="translate(706,365)"/>
<path d="M0 0 C2 1 2 1 2 1 Z " fill="#2788D7" transform="translate(701,364)"/>
<path d="" fill="#3183C8" transform="translate(0,0)"/>
<path d="M0 0 C2 1 2 1 2 1 Z " fill="#2B85D0" transform="translate(600,304)"/>
<path d="M0 0 C2 1 2 1 2 1 Z " fill="#2883D0" transform="translate(755,296)"/>
<path d="M0 0 C2 1 2 1 2 1 Z " fill="#2A85CF" transform="translate(730,288)"/>
<path d="" fill="#383B3B" transform="translate(0,0)"/>
<path d="" fill="#393A3C" transform="translate(0,0)"/>
<path d="" fill="#3A3A3C" transform="translate(0,0)"/>
<path d="" fill="#39393A" transform="translate(0,0)"/>
<path d="" fill="#3A3B3C" transform="translate(0,0)"/>
<path d="" fill="#393A3B" transform="translate(0,0)"/>
<path d="" fill="#38393A" transform="translate(0,0)"/>
<path d="" fill="#3A3C3C" transform="translate(0,0)"/>
<path d="" fill="#383B3A" transform="translate(0,0)"/>
<path d="" fill="#3A3D3D" transform="translate(0,0)"/>
<path d="" fill="#383939" transform="translate(0,0)"/>
<path d="" fill="#383A3A" transform="translate(0,0)"/>
<path d="" fill="#393939" transform="translate(0,0)"/>
<path d="" fill="#3B3E40" transform="translate(0,0)"/>
<path d="" fill="#3D3F3F" transform="translate(0,0)"/>
<path d="" fill="#3B3F3F" transform="translate(0,0)"/>
<path d="" fill="#3A3E3E" transform="translate(0,0)"/>
<path d="" fill="#3C3E3D" transform="translate(0,0)"/>
<path d="" fill="#383A39" transform="translate(0,0)"/>
<path d="" fill="#3C4040" transform="translate(0,0)"/>
<path d="" fill="#3B3D3E" transform="translate(0,0)"/>
<path d="" fill="#393C3B" transform="translate(0,0)"/>
<path d="" fill="#3C3C3D" transform="translate(0,0)"/>
<path d="" fill="#3D4341" transform="translate(0,0)"/>
<path d="" fill="#3D4042" transform="translate(0,0)"/>
<path d="" fill="#3A3E3C" transform="translate(0,0)"/>
<path d="" fill="#3C3E3F" transform="translate(0,0)"/>
<path d="" fill="#3D4244" transform="translate(0,0)"/>
<path d="" fill="#3E4040" transform="translate(0,0)"/>
<path d="" fill="#404243" transform="translate(0,0)"/>
<path d="" fill="#3A3C3B" transform="translate(0,0)"/>
<path d="" fill="#3F4142" transform="translate(0,0)"/>
<path d="" fill="#393B3C" transform="translate(0,0)"/>
<path d="" fill="#3D3D3F" transform="translate(0,0)"/>
<path d="" fill="#393A39" transform="translate(0,0)"/>
<path d="" fill="#424647" transform="translate(0,0)"/>
<path d="" fill="#42474B" transform="translate(0,0)"/>
<path d="" fill="#41494E" transform="translate(0,0)"/>
<path d="" fill="#435762" transform="translate(0,0)"/>
<path d="" fill="#455A63" transform="translate(0,0)"/>
<path d="" fill="#43545D" transform="translate(0,0)"/>
<path d="" fill="#3A3B3D" transform="translate(0,0)"/>
<path d="" fill="#3B3D3D" transform="translate(0,0)"/>
<path d="" fill="#44484B" transform="translate(0,0)"/>
<path d="" fill="#3E4345" transform="translate(0,0)"/>
<path d="" fill="#3083C9" transform="translate(0,0)"/>
<path d="" fill="#2F84CB" transform="translate(0,0)"/>
<path d="" fill="#3083C8" transform="translate(0,0)"/>
<path d="" fill="#3283C4" transform="translate(0,0)"/>
<path d="" fill="#3182C7" transform="translate(0,0)"/>
<path d="" fill="#3083C8" transform="translate(0,0)"/>
<path d="" fill="#2F84C8" transform="translate(0,0)"/>
<path d="" fill="#3384C5" transform="translate(0,0)"/>
<path d="" fill="#3084C6" transform="translate(0,0)"/>
<path d="" fill="#3780B6" transform="translate(0,0)"/>
<path d="" fill="#3280BF" transform="translate(0,0)"/>
<path d="" fill="#347EBE" transform="translate(0,0)"/>
<path d="" fill="#357FBD" transform="translate(0,0)"/>
<path d="" fill="#337FC0" transform="translate(0,0)"/>
<path d="" fill="#337FBC" transform="translate(0,0)"/>
<path d="" fill="#3380C1" transform="translate(0,0)"/>
<path d="" fill="#3383C0" transform="translate(0,0)"/>
<path d="" fill="#3481C3" transform="translate(0,0)"/>
<path d="" fill="#377DB8" transform="translate(0,0)"/>
<path d="" fill="#387BB1" transform="translate(0,0)"/>
<path d="" fill="#3382C3" transform="translate(0,0)"/>
<path d="" fill="#3482C3" transform="translate(0,0)"/>
<path d="" fill="#377FBB" transform="translate(0,0)"/>
<path d="" fill="#3282C2" transform="translate(0,0)"/>
<path d="" fill="#3283C5" transform="translate(0,0)"/>
<path d="" fill="#3080C1" transform="translate(0,0)"/>
<path d="" fill="#3580BB" transform="translate(0,0)"/>
<path d="" fill="#3584C3" transform="translate(0,0)"/>
<path d="" fill="#3C4041" transform="translate(0,0)"/>
<path d="" fill="#3281C6" transform="translate(0,0)"/>
<path d="" fill="#3283C4" transform="translate(0,0)"/>
<path d="" fill="#2E81CA" transform="translate(0,0)"/>
<path d="" fill="#3785C4" transform="translate(0,0)"/>
<path d="" fill="#2F83C8" transform="translate(0,0)"/>
<path d="" fill="#2E7FBE" transform="translate(0,0)"/>
<path d="" fill="#2A85D2" transform="translate(0,0)"/>
<path d="" fill="#3081C7" transform="translate(0,0)"/>
<path d="" fill="#3381C3" transform="translate(0,0)"/>
<path d="" fill="#3681BD" transform="translate(0,0)"/>
<path d="" fill="#3682C1" transform="translate(0,0)"/>
<path d="" fill="#424C53" transform="translate(0,0)"/>
<path d="" fill="#3381C3" transform="translate(0,0)"/>
<path d="" fill="#288ADA" transform="translate(0,0)"/>
<path d="" fill="#2C8BDE" transform="translate(0,0)"/>
<path d="" fill="#2B89D8" transform="translate(0,0)"/>
<path d="" fill="#3184C9" transform="translate(0,0)"/>
<path d="" fill="#424B50" transform="translate(0,0)"/>
<path d="" fill="#404445" transform="translate(0,0)"/>
<path d="" fill="#3383C8" transform="translate(0,0)"/>
<path d="" fill="#2985D2" transform="translate(0,0)"/>
<path d="" fill="#2A85D9" transform="translate(0,0)"/>
<path d="" fill="#2F84CB" transform="translate(0,0)"/>
<path d="" fill="#2D87D3" transform="translate(0,0)"/>
<path d="" fill="#2B8DDF" transform="translate(0,0)"/>
<path d="" fill="#2A87D2" transform="translate(0,0)"/>
<path d="" fill="#2C83CB" transform="translate(0,0)"/>
<path d="" fill="#2B8BDC" transform="translate(0,0)"/>
<path d="" fill="#2A86DA" transform="translate(0,0)"/>
<path d="" fill="#2B8BDC" transform="translate(0,0)"/>
<path d="" fill="#2789DC" transform="translate(0,0)"/>
<path d="" fill="#2987D8" transform="translate(0,0)"/>
<path d="" fill="#2C8ADB" transform="translate(0,0)"/>
<path d="" fill="#2988D9" transform="translate(0,0)"/>
<path d="" fill="#2A89DA" transform="translate(0,0)"/>
<path d="" fill="#2C8BDC" transform="translate(0,0)"/>
<path d="" fill="#3185CB" transform="translate(0,0)"/>
<path d="" fill="#2789DC" transform="translate(0,0)"/>
<path d="" fill="#2A8BDA" transform="translate(0,0)"/>
<path d="" fill="#2989DA" transform="translate(0,0)"/>
<path d="" fill="#2B89D9" transform="translate(0,0)"/>
<path d="" fill="#2F85CA" transform="translate(0,0)"/>
<path d="" fill="#2A88D4" transform="translate(0,0)"/>
<path d="" fill="#2A88D8" transform="translate(0,0)"/>
<path d="" fill="#2F86CA" transform="translate(0,0)"/>
<path d="" fill="#2B87D7" transform="translate(0,0)"/>
<path d="" fill="#2688DC" transform="translate(0,0)"/>
<path d="" fill="#2D8BD5" transform="translate(0,0)"/>
<path d="" fill="#2A86D7" transform="translate(0,0)"/>
<path d="" fill="#3187CC" transform="translate(0,0)"/>
<path d="" fill="#2A85D4" transform="translate(0,0)"/>
<path d="" fill="#2C87CE" transform="translate(0,0)"/>
<path d="" fill="#2983D1" transform="translate(0,0)"/>
<path d="" fill="#2F8AD3" transform="translate(0,0)"/>
<path d="" fill="#2D86D3" transform="translate(0,0)"/>
<path d="" fill="#2C88D1" transform="translate(0,0)"/>
<path d="" fill="#2987DC" transform="translate(0,0)"/>
<path d="" fill="#2B85D3" transform="translate(0,0)"/>
<path d="" fill="#2B88D8" transform="translate(0,0)"/>
<path d="" fill="#3089D0" transform="translate(0,0)"/>
<path d="" fill="#2887D8" transform="translate(0,0)"/>
<path d="" fill="#2C8ADA" transform="translate(0,0)"/>
<path d="" fill="#2A88DB" transform="translate(0,0)"/>
<path d="" fill="#2388D9" transform="translate(0,0)"/>
<path d="" fill="#2589DB" transform="translate(0,0)"/>
<path d="" fill="#258EDF" transform="translate(0,0)"/>
<path d="" fill="#46555F" transform="translate(0,0)"/>
<path d="" fill="#2B87D2" transform="translate(0,0)"/>
<path d="" fill="#298CDC" transform="translate(0,0)"/>
<path d="" fill="#2B8CD9" transform="translate(0,0)"/>
<path d="" fill="#278BDB" transform="translate(0,0)"/>
<path d="" fill="#2589DE" transform="translate(0,0)"/>
<path d="" fill="#3184CB" transform="translate(0,0)"/>
<path d="" fill="#2A86D9" transform="translate(0,0)"/>
<path d="" fill="#3087CF" transform="translate(0,0)"/>
<path d="" fill="#2687DB" transform="translate(0,0)"/>
<path d="" fill="#2988D3" transform="translate(0,0)"/>
<path d="" fill="#2987D7" transform="translate(0,0)"/>
<path d="" fill="#2A88D5" transform="translate(0,0)"/>
<path d="" fill="#2788D6" transform="translate(0,0)"/>
<path d="" fill="#2786D9" transform="translate(0,0)"/>
<path d="" fill="#2686D9" transform="translate(0,0)"/>
<path d="" fill="#2688DB" transform="translate(0,0)"/>
<path d="" fill="#2787D9" transform="translate(0,0)"/>
<path d="" fill="#2788DC" transform="translate(0,0)"/>
<path d="" fill="#2789DD" transform="translate(0,0)"/>
<path d="" fill="#2989DB" transform="translate(0,0)"/>
<path d="" fill="#2A89D8" transform="translate(0,0)"/>
<path d="" fill="#2A88D8" transform="translate(0,0)"/>
<path d="" fill="#2888DB" transform="translate(0,0)"/>
<path d="" fill="#2988D9" transform="translate(0,0)"/>
<path d="" fill="#2A86D9" transform="translate(0,0)"/>
<path d="" fill="#2A88D7" transform="translate(0,0)"/>
<path d="" fill="#2B88D7" transform="translate(0,0)"/>
<path d="" fill="#2D85CF" transform="translate(0,0)"/>
<path d="" fill="#2D83CE" transform="translate(0,0)"/>
<path d="" fill="#2F83CA" transform="translate(0,0)"/>
<path d="" fill="#357DB9" transform="translate(0,0)"/>
<path d="" fill="#2888D9" transform="translate(0,0)"/>
<path d="" fill="#2889DB" transform="translate(0,0)"/>
<path d="" fill="#278ADE" transform="translate(0,0)"/>
<path d="" fill="#268AE0" transform="translate(0,0)"/>
<path d="" fill="#278CDE" transform="translate(0,0)"/>
<path d="" fill="#278ADC" transform="translate(0,0)"/>
<path d="" fill="#298ADA" transform="translate(0,0)"/>
<path d="" fill="#298ADB" transform="translate(0,0)"/>
<path d="" fill="#288ADD" transform="translate(0,0)"/>
<path d="" fill="#3F494D" transform="translate(0,0)"/>
<path d="" fill="#466377" transform="translate(0,0)"/>
<path d="" fill="#3085CC" transform="translate(0,0)"/>
<path d="" fill="#2B88DA" transform="translate(0,0)"/>
<path d="" fill="#3281C3" transform="translate(0,0)"/>
<path d="" fill="#2A88D7" transform="translate(0,0)"/>
<path d="" fill="#3282C6" transform="translate(0,0)"/>
<path d="" fill="#3180C3" transform="translate(0,0)"/>
<path d="" fill="#424B4E" transform="translate(0,0)"/>
<path d="" fill="#2D83CB" transform="translate(0,0)"/>
<path d="" fill="#2D81CA" transform="translate(0,0)"/>
<path d="" fill="#2E84C8" transform="translate(0,0)"/>
<path d="" fill="#3285C8" transform="translate(0,0)"/>
<path d="" fill="#3182C9" transform="translate(0,0)"/>
<path d="" fill="#2981CD" transform="translate(0,0)"/>
<path d="" fill="#2F86D0" transform="translate(0,0)"/>
<path d="" fill="#2A81CC" transform="translate(0,0)"/>
<path d="" fill="#2D83CB" transform="translate(0,0)"/>
<path d="" fill="#2C86D0" transform="translate(0,0)"/>
<path d="" fill="#2C84D1" transform="translate(0,0)"/>
<path d="" fill="#2983D1" transform="translate(0,0)"/>
<path d="" fill="#2C86D0" transform="translate(0,0)"/>
<path d="" fill="#2B84D0" transform="translate(0,0)"/>
<path d="" fill="#2E86D4" transform="translate(0,0)"/>
<path d="" fill="#2B83D0" transform="translate(0,0)"/>
<path d="" fill="#434F57" transform="translate(0,0)"/>
<path d="" fill="#404649" transform="translate(0,0)"/>
<path d="" fill="#445862" transform="translate(0,0)"/>
<path d="" fill="#44535D" transform="translate(0,0)"/>
<path d="" fill="#3D3F43" transform="translate(0,0)"/>
<path d="" fill="#393C3C" transform="translate(0,0)"/>
<path d="" fill="#3F4448" transform="translate(0,0)"/>
<path d="" fill="#414449" transform="translate(0,0)"/>
<path d="" fill="#3E4045" transform="translate(0,0)"/>
<path d="" fill="#3D4241" transform="translate(0,0)"/>
<path d="" fill="#3F4345" transform="translate(0,0)"/>
<path d="" fill="#3F4445" transform="translate(0,0)"/>
<path d="" fill="#3C3D3E" transform="translate(0,0)"/>
<path d="" fill="#3F4445" transform="translate(0,0)"/>
<path d="" fill="#36393A" transform="translate(0,0)"/>
<path d="" fill="#3E4042" transform="translate(0,0)"/>
<path d="" fill="#3D4143" transform="translate(0,0)"/>
<path d="" fill="#3E4042" transform="translate(0,0)"/>
<path d="" fill="#3D3F43" transform="translate(0,0)"/>
<path d="" fill="#3C3D3D" transform="translate(0,0)"/>
<path d="" fill="#3C3F3E" transform="translate(0,0)"/>
<path d="" fill="#3E4041" transform="translate(0,0)"/>
<path d="" fill="#3D4040" transform="translate(0,0)"/>
<path d="" fill="#3D3F41" transform="translate(0,0)"/>
<path d="" fill="#3E4041" transform="translate(0,0)"/>
<path d="" fill="#3E4041" transform="translate(0,0)"/>
</svg>
